%TF.GenerationSoftware,KiCad,Pcbnew,9.0.3*%
%TF.CreationDate,2025-07-23T14:16:42+06:00*%
%TF.ProjectId,LFRCircuit,4c465243-6972-4637-9569-742e6b696361,rev?*%
%TF.SameCoordinates,Original*%
%TF.FileFunction,Drillmap*%
%TF.FilePolarity,Positive*%
%FSLAX45Y45*%
G04 Gerber Fmt 4.5, Leading zero omitted, Abs format (unit mm)*
G04 Created by KiCad (PCBNEW 9.0.3) date 2025-07-23 14:16:42*
%MOMM*%
%LPD*%
G01*
G04 APERTURE LIST*
%ADD10C,0.050000*%
%ADD11C,0.200000*%
%ADD12C,0.100000*%
G04 APERTURE END LIST*
D10*
X21150000Y-7450000D02*
G75*
G02*
X21550000Y-7850000I0J-400000D01*
G01*
X12950000Y-12760000D02*
G75*
G02*
X12550000Y-12360000I0J400000D01*
G01*
X21350000Y-7850000D02*
G75*
G02*
X20950000Y-7850000I-200000J0D01*
G01*
X20950000Y-7850000D02*
G75*
G02*
X21350000Y-7850000I200000J0D01*
G01*
X21550000Y-7850000D02*
X21550000Y-12360000D01*
X21550000Y-12360000D02*
G75*
G02*
X21150000Y-12760000I-400000J0D01*
G01*
X13163600Y-7850000D02*
G75*
G02*
X12736400Y-7850000I-213600J0D01*
G01*
X12736400Y-7850000D02*
G75*
G02*
X13163600Y-7850000I213600J0D01*
G01*
X21150000Y-12760000D02*
X12950000Y-12760000D01*
X21350000Y-12360000D02*
G75*
G02*
X20950000Y-12360000I-200000J0D01*
G01*
X20950000Y-12360000D02*
G75*
G02*
X21350000Y-12360000I200000J0D01*
G01*
X12950000Y-7450000D02*
X21150000Y-7450000D01*
X12550000Y-12360000D02*
X12550000Y-7850000D01*
X12550000Y-7850000D02*
G75*
G02*
X12950000Y-7450000I400000J0D01*
G01*
X13150000Y-12360000D02*
G75*
G02*
X12750000Y-12360000I-200000J0D01*
G01*
X12750000Y-12360000D02*
G75*
G02*
X13150000Y-12360000I200000J0D01*
G01*
D11*
D12*
X15022750Y-9867910D02*
X15052750Y-9897910D01*
X15052750Y-9867910D02*
X15022750Y-9897910D01*
X15580190Y-9941860D02*
X15610190Y-9971860D01*
X15610190Y-9941860D02*
X15580190Y-9971860D01*
X16162130Y-8463660D02*
X16192130Y-8493660D01*
X16192130Y-8463660D02*
X16162130Y-8493660D01*
X16276500Y-7956830D02*
X16306500Y-7986830D01*
X16306500Y-7956830D02*
X16276500Y-7986830D01*
X16850690Y-8839020D02*
X16880690Y-8869020D01*
X16880690Y-8839020D02*
X16850690Y-8869020D01*
X18235550Y-9409330D02*
X18265550Y-9439330D01*
X18265550Y-9409330D02*
X18235550Y-9439330D01*
X18367730Y-9302180D02*
X18397730Y-9332180D01*
X18397730Y-9302180D02*
X18367730Y-9332180D01*
X18386410Y-7699680D02*
X18416410Y-7729680D01*
X18416410Y-7699680D02*
X18386410Y-7729680D01*
X18582770Y-9498350D02*
X18612770Y-9528350D01*
X18612770Y-9498350D02*
X18582770Y-9528350D01*
X18993680Y-8600310D02*
X19023680Y-8630310D01*
X19023680Y-8600310D02*
X18993680Y-8630310D01*
X19072610Y-8848140D02*
X19102610Y-8878140D01*
X19102610Y-8848140D02*
X19072610Y-8878140D01*
X19260960Y-9382540D02*
X19290960Y-9412540D01*
X19290960Y-9382540D02*
X19260960Y-9412540D01*
X19333530Y-9157370D02*
X19363530Y-9187370D01*
X19363530Y-9157370D02*
X19333530Y-9187370D01*
X19341600Y-9314780D02*
X19371600Y-9344780D01*
X19371600Y-9314780D02*
X19341600Y-9344780D01*
X19647500Y-9005190D02*
X19677500Y-9035190D01*
X19677500Y-9005190D02*
X19647500Y-9035190D01*
X13878000Y-7838000D02*
G75*
G02*
X13798000Y-7838000I-40000J0D01*
G01*
X13798000Y-7838000D02*
G75*
G02*
X13878000Y-7838000I40000J0D01*
G01*
X13878000Y-8600000D02*
G75*
G02*
X13798000Y-8600000I-40000J0D01*
G01*
X13798000Y-8600000D02*
G75*
G02*
X13878000Y-8600000I40000J0D01*
G01*
X14132000Y-7838000D02*
G75*
G02*
X14052000Y-7838000I-40000J0D01*
G01*
X14052000Y-7838000D02*
G75*
G02*
X14132000Y-7838000I40000J0D01*
G01*
X14132000Y-8600000D02*
G75*
G02*
X14052000Y-8600000I-40000J0D01*
G01*
X14052000Y-8600000D02*
G75*
G02*
X14132000Y-8600000I40000J0D01*
G01*
X14386000Y-7838000D02*
G75*
G02*
X14306000Y-7838000I-40000J0D01*
G01*
X14306000Y-7838000D02*
G75*
G02*
X14386000Y-7838000I40000J0D01*
G01*
X14386000Y-8600000D02*
G75*
G02*
X14306000Y-8600000I-40000J0D01*
G01*
X14306000Y-8600000D02*
G75*
G02*
X14386000Y-8600000I40000J0D01*
G01*
X14640000Y-7838000D02*
G75*
G02*
X14560000Y-7838000I-40000J0D01*
G01*
X14560000Y-7838000D02*
G75*
G02*
X14640000Y-7838000I40000J0D01*
G01*
X14640000Y-8600000D02*
G75*
G02*
X14560000Y-8600000I-40000J0D01*
G01*
X14560000Y-8600000D02*
G75*
G02*
X14640000Y-8600000I40000J0D01*
G01*
X14894000Y-7838000D02*
G75*
G02*
X14814000Y-7838000I-40000J0D01*
G01*
X14814000Y-7838000D02*
G75*
G02*
X14894000Y-7838000I40000J0D01*
G01*
X14894000Y-8600000D02*
G75*
G02*
X14814000Y-8600000I-40000J0D01*
G01*
X14814000Y-8600000D02*
G75*
G02*
X14894000Y-8600000I40000J0D01*
G01*
X15148000Y-7838000D02*
G75*
G02*
X15068000Y-7838000I-40000J0D01*
G01*
X15068000Y-7838000D02*
G75*
G02*
X15148000Y-7838000I40000J0D01*
G01*
X15148000Y-8600000D02*
G75*
G02*
X15068000Y-8600000I-40000J0D01*
G01*
X15068000Y-8600000D02*
G75*
G02*
X15148000Y-8600000I40000J0D01*
G01*
X15402000Y-7838000D02*
G75*
G02*
X15322000Y-7838000I-40000J0D01*
G01*
X15322000Y-7838000D02*
G75*
G02*
X15402000Y-7838000I40000J0D01*
G01*
X15402000Y-8600000D02*
G75*
G02*
X15322000Y-8600000I-40000J0D01*
G01*
X15322000Y-8600000D02*
G75*
G02*
X15402000Y-8600000I40000J0D01*
G01*
X15656000Y-7838000D02*
G75*
G02*
X15576000Y-7838000I-40000J0D01*
G01*
X15576000Y-7838000D02*
G75*
G02*
X15656000Y-7838000I40000J0D01*
G01*
X15656000Y-8600000D02*
G75*
G02*
X15576000Y-8600000I-40000J0D01*
G01*
X15576000Y-8600000D02*
G75*
G02*
X15656000Y-8600000I40000J0D01*
G01*
X13925000Y-11927500D02*
X13925000Y-12022500D01*
X13877500Y-11975000D02*
X13972500Y-11975000D01*
X14175000Y-11927500D02*
X14175000Y-12022500D01*
X14127500Y-11975000D02*
X14222500Y-11975000D01*
X14425000Y-11927500D02*
X14425000Y-12022500D01*
X14377500Y-11975000D02*
X14472500Y-11975000D01*
X14675000Y-11927500D02*
X14675000Y-12022500D01*
X14627500Y-11975000D02*
X14722500Y-11975000D01*
X14925000Y-11927500D02*
X14925000Y-12022500D01*
X14877500Y-11975000D02*
X14972500Y-11975000D01*
X15525000Y-11777500D02*
X15525000Y-11872500D01*
X15477500Y-11825000D02*
X15572500Y-11825000D01*
X15775000Y-11777500D02*
X15775000Y-11872500D01*
X15727500Y-11825000D02*
X15822500Y-11825000D01*
X16025000Y-11777500D02*
X16025000Y-11872500D01*
X15977500Y-11825000D02*
X16072500Y-11825000D01*
X16275000Y-11777500D02*
X16275000Y-11872500D01*
X16227500Y-11825000D02*
X16322500Y-11825000D01*
X16525000Y-11777500D02*
X16525000Y-11872500D01*
X16477500Y-11825000D02*
X16572500Y-11825000D01*
X17125000Y-11783000D02*
X17125000Y-11878000D01*
X17077500Y-11830500D02*
X17172500Y-11830500D01*
X17375000Y-11783000D02*
X17375000Y-11878000D01*
X17327500Y-11830500D02*
X17422500Y-11830500D01*
X17625000Y-11783000D02*
X17625000Y-11878000D01*
X17577500Y-11830500D02*
X17672500Y-11830500D01*
X17875000Y-11783000D02*
X17875000Y-11878000D01*
X17827500Y-11830500D02*
X17922500Y-11830500D01*
X18125000Y-11783000D02*
X18125000Y-11878000D01*
X18077500Y-11830500D02*
X18172500Y-11830500D01*
X18375000Y-11783000D02*
X18375000Y-11878000D01*
X18327500Y-11830500D02*
X18422500Y-11830500D01*
X18625000Y-11783000D02*
X18625000Y-11878000D01*
X18577500Y-11830500D02*
X18672500Y-11830500D01*
X18875000Y-11783000D02*
X18875000Y-11878000D01*
X18827500Y-11830500D02*
X18922500Y-11830500D01*
X12966356Y-9660356D02*
X12966356Y-9589644D01*
X12895644Y-9589644D01*
X12895644Y-9660356D01*
X12966356Y-9660356D01*
X12966356Y-11184356D02*
X12966356Y-11113644D01*
X12895644Y-11113644D01*
X12895644Y-11184356D01*
X12966356Y-11184356D01*
X13220356Y-9660356D02*
X13220356Y-9589644D01*
X13149644Y-9589644D01*
X13149644Y-9660356D01*
X13220356Y-9660356D01*
X13220356Y-11184356D02*
X13220356Y-11113644D01*
X13149644Y-11113644D01*
X13149644Y-11184356D01*
X13220356Y-11184356D01*
X13474356Y-9660356D02*
X13474356Y-9589644D01*
X13403644Y-9589644D01*
X13403644Y-9660356D01*
X13474356Y-9660356D01*
X13474356Y-11184356D02*
X13474356Y-11113644D01*
X13403644Y-11113644D01*
X13403644Y-11184356D01*
X13474356Y-11184356D01*
X13728356Y-9660356D02*
X13728356Y-9589644D01*
X13657644Y-9589644D01*
X13657644Y-9660356D01*
X13728356Y-9660356D01*
X13728356Y-11184356D02*
X13728356Y-11113644D01*
X13657644Y-11113644D01*
X13657644Y-11184356D01*
X13728356Y-11184356D01*
X13982356Y-9660356D02*
X13982356Y-9589644D01*
X13911644Y-9589644D01*
X13911644Y-9660356D01*
X13982356Y-9660356D01*
X13982356Y-11184356D02*
X13982356Y-11113644D01*
X13911644Y-11113644D01*
X13911644Y-11184356D01*
X13982356Y-11184356D01*
X14236356Y-9660356D02*
X14236356Y-9589644D01*
X14165644Y-9589644D01*
X14165644Y-9660356D01*
X14236356Y-9660356D01*
X14236356Y-11184356D02*
X14236356Y-11113644D01*
X14165644Y-11113644D01*
X14165644Y-11184356D01*
X14236356Y-11184356D01*
X14490356Y-9660356D02*
X14490356Y-9589644D01*
X14419644Y-9589644D01*
X14419644Y-9660356D01*
X14490356Y-9660356D01*
X14490356Y-11184356D02*
X14490356Y-11113644D01*
X14419644Y-11113644D01*
X14419644Y-11184356D01*
X14490356Y-11184356D01*
X14744356Y-9660356D02*
X14744356Y-9589644D01*
X14673644Y-9589644D01*
X14673644Y-9660356D01*
X14744356Y-9660356D01*
X14744356Y-11184356D02*
X14744356Y-11113644D01*
X14673644Y-11113644D01*
X14673644Y-11184356D01*
X14744356Y-11184356D01*
X14998356Y-9660356D02*
X14998356Y-9589644D01*
X14927644Y-9589644D01*
X14927644Y-9660356D01*
X14998356Y-9660356D01*
X14998356Y-11184356D02*
X14998356Y-11113644D01*
X14927644Y-11113644D01*
X14927644Y-11184356D01*
X14998356Y-11184356D01*
X15252356Y-9660356D02*
X15252356Y-9589644D01*
X15181644Y-9589644D01*
X15181644Y-9660356D01*
X15252356Y-9660356D01*
X15252356Y-11184356D02*
X15252356Y-11113644D01*
X15181644Y-11113644D01*
X15181644Y-11184356D01*
X15252356Y-11184356D01*
X15506356Y-9660356D02*
X15506356Y-9589644D01*
X15435644Y-9589644D01*
X15435644Y-9660356D01*
X15506356Y-9660356D01*
X15506356Y-11184356D02*
X15506356Y-11113644D01*
X15435644Y-11113644D01*
X15435644Y-11184356D01*
X15506356Y-11184356D01*
X15760356Y-9660356D02*
X15760356Y-9589644D01*
X15689644Y-9589644D01*
X15689644Y-9660356D01*
X15760356Y-9660356D01*
X15760356Y-11184356D02*
X15760356Y-11113644D01*
X15689644Y-11113644D01*
X15689644Y-11184356D01*
X15760356Y-11184356D01*
X16014356Y-9660356D02*
X16014356Y-9589644D01*
X15943644Y-9589644D01*
X15943644Y-9660356D01*
X16014356Y-9660356D01*
X16014356Y-11184356D02*
X16014356Y-11113644D01*
X15943644Y-11113644D01*
X15943644Y-11184356D01*
X16014356Y-11184356D01*
X16268356Y-9660356D02*
X16268356Y-9589644D01*
X16197644Y-9589644D01*
X16197644Y-9660356D01*
X16268356Y-9660356D01*
X16268356Y-11184356D02*
X16268356Y-11113644D01*
X16197644Y-11113644D01*
X16197644Y-11184356D01*
X16268356Y-11184356D01*
X16522356Y-9660356D02*
X16522356Y-9589644D01*
X16451644Y-9589644D01*
X16451644Y-9660356D01*
X16522356Y-9660356D01*
X16522356Y-11184356D02*
X16522356Y-11113644D01*
X16451644Y-11113644D01*
X16451644Y-11184356D01*
X16522356Y-11184356D01*
X16535356Y-8245356D02*
X16535356Y-8174644D01*
X16464644Y-8174644D01*
X16464644Y-8245356D01*
X16535356Y-8245356D01*
X16785356Y-8245356D02*
X16785356Y-8174644D01*
X16714644Y-8174644D01*
X16714644Y-8245356D01*
X16785356Y-8245356D01*
X17460356Y-8245356D02*
X17460356Y-8174644D01*
X17389644Y-8174644D01*
X17389644Y-8245356D01*
X17460356Y-8245356D01*
X17710356Y-8245356D02*
X17710356Y-8174644D01*
X17639644Y-8174644D01*
X17639644Y-8245356D01*
X17710356Y-8245356D01*
X18402356Y-9760356D02*
X18402356Y-9689644D01*
X18331644Y-9689644D01*
X18331644Y-9760356D01*
X18402356Y-9760356D01*
X18656356Y-9760356D02*
X18656356Y-9689644D01*
X18585644Y-9689644D01*
X18585644Y-9760356D01*
X18656356Y-9760356D01*
X18910356Y-9760356D02*
X18910356Y-9689644D01*
X18839644Y-9689644D01*
X18839644Y-9760356D01*
X18910356Y-9760356D01*
X18965356Y-7860356D02*
X18965356Y-7789644D01*
X18894644Y-7789644D01*
X18894644Y-7860356D01*
X18965356Y-7860356D01*
X19164356Y-9760356D02*
X19164356Y-9689644D01*
X19093644Y-9689644D01*
X19093644Y-9760356D01*
X19164356Y-9760356D01*
X19219356Y-7860356D02*
X19219356Y-7789644D01*
X19148644Y-7789644D01*
X19148644Y-7860356D01*
X19219356Y-7860356D01*
X19473356Y-7860356D02*
X19473356Y-7789644D01*
X19402644Y-7789644D01*
X19402644Y-7860356D01*
X19473356Y-7860356D01*
X19727356Y-7860356D02*
X19727356Y-7789644D01*
X19656644Y-7789644D01*
X19656644Y-7860356D01*
X19727356Y-7860356D01*
X19981356Y-7860356D02*
X19981356Y-7789644D01*
X19910644Y-7789644D01*
X19910644Y-7860356D01*
X19981356Y-7860356D01*
X20235356Y-7860356D02*
X20235356Y-7789644D01*
X20164644Y-7789644D01*
X20164644Y-7860356D01*
X20235356Y-7860356D01*
X20489356Y-7860356D02*
X20489356Y-7789644D01*
X20418644Y-7789644D01*
X20418644Y-7860356D01*
X20489356Y-7860356D01*
X20690856Y-9140356D02*
X20690856Y-9069644D01*
X20620144Y-9069644D01*
X20620144Y-9140356D01*
X20690856Y-9140356D01*
X20690856Y-9390356D02*
X20690856Y-9319644D01*
X20620144Y-9319644D01*
X20620144Y-9390356D01*
X20690856Y-9390356D01*
X20690856Y-10085356D02*
X20690856Y-10014644D01*
X20620144Y-10014644D01*
X20620144Y-10085356D01*
X20690856Y-10085356D01*
X20690856Y-10335356D02*
X20690856Y-10264644D01*
X20620144Y-10264644D01*
X20620144Y-10335356D01*
X20690856Y-10335356D01*
X20690856Y-11030356D02*
X20690856Y-10959644D01*
X20620144Y-10959644D01*
X20620144Y-11030356D01*
X20690856Y-11030356D01*
X20690856Y-11280356D02*
X20690856Y-11209644D01*
X20620144Y-11209644D01*
X20620144Y-11280356D01*
X20690856Y-11280356D01*
X20743356Y-7860356D02*
X20743356Y-7789644D01*
X20672644Y-7789644D01*
X20672644Y-7860356D01*
X20743356Y-7860356D01*
D11*
X12808277Y-13073984D02*
X12808277Y-12873984D01*
X12808277Y-12873984D02*
X12855896Y-12873984D01*
X12855896Y-12873984D02*
X12884467Y-12883508D01*
X12884467Y-12883508D02*
X12903515Y-12902555D01*
X12903515Y-12902555D02*
X12913039Y-12921603D01*
X12913039Y-12921603D02*
X12922562Y-12959698D01*
X12922562Y-12959698D02*
X12922562Y-12988269D01*
X12922562Y-12988269D02*
X12913039Y-13026365D01*
X12913039Y-13026365D02*
X12903515Y-13045412D01*
X12903515Y-13045412D02*
X12884467Y-13064460D01*
X12884467Y-13064460D02*
X12855896Y-13073984D01*
X12855896Y-13073984D02*
X12808277Y-13073984D01*
X13008277Y-13073984D02*
X13008277Y-12940650D01*
X13008277Y-12978746D02*
X13017801Y-12959698D01*
X13017801Y-12959698D02*
X13027324Y-12950174D01*
X13027324Y-12950174D02*
X13046372Y-12940650D01*
X13046372Y-12940650D02*
X13065420Y-12940650D01*
X13132086Y-13073984D02*
X13132086Y-12940650D01*
X13132086Y-12873984D02*
X13122562Y-12883508D01*
X13122562Y-12883508D02*
X13132086Y-12893031D01*
X13132086Y-12893031D02*
X13141610Y-12883508D01*
X13141610Y-12883508D02*
X13132086Y-12873984D01*
X13132086Y-12873984D02*
X13132086Y-12893031D01*
X13255896Y-13073984D02*
X13236848Y-13064460D01*
X13236848Y-13064460D02*
X13227324Y-13045412D01*
X13227324Y-13045412D02*
X13227324Y-12873984D01*
X13360658Y-13073984D02*
X13341610Y-13064460D01*
X13341610Y-13064460D02*
X13332086Y-13045412D01*
X13332086Y-13045412D02*
X13332086Y-12873984D01*
X13589229Y-13073984D02*
X13589229Y-12873984D01*
X13589229Y-12873984D02*
X13655896Y-13016841D01*
X13655896Y-13016841D02*
X13722562Y-12873984D01*
X13722562Y-12873984D02*
X13722562Y-13073984D01*
X13903515Y-13073984D02*
X13903515Y-12969222D01*
X13903515Y-12969222D02*
X13893991Y-12950174D01*
X13893991Y-12950174D02*
X13874943Y-12940650D01*
X13874943Y-12940650D02*
X13836848Y-12940650D01*
X13836848Y-12940650D02*
X13817801Y-12950174D01*
X13903515Y-13064460D02*
X13884467Y-13073984D01*
X13884467Y-13073984D02*
X13836848Y-13073984D01*
X13836848Y-13073984D02*
X13817801Y-13064460D01*
X13817801Y-13064460D02*
X13808277Y-13045412D01*
X13808277Y-13045412D02*
X13808277Y-13026365D01*
X13808277Y-13026365D02*
X13817801Y-13007317D01*
X13817801Y-13007317D02*
X13836848Y-12997793D01*
X13836848Y-12997793D02*
X13884467Y-12997793D01*
X13884467Y-12997793D02*
X13903515Y-12988269D01*
X13998753Y-12940650D02*
X13998753Y-13140650D01*
X13998753Y-12950174D02*
X14017801Y-12940650D01*
X14017801Y-12940650D02*
X14055896Y-12940650D01*
X14055896Y-12940650D02*
X14074943Y-12950174D01*
X14074943Y-12950174D02*
X14084467Y-12959698D01*
X14084467Y-12959698D02*
X14093991Y-12978746D01*
X14093991Y-12978746D02*
X14093991Y-13035888D01*
X14093991Y-13035888D02*
X14084467Y-13054936D01*
X14084467Y-13054936D02*
X14074943Y-13064460D01*
X14074943Y-13064460D02*
X14055896Y-13073984D01*
X14055896Y-13073984D02*
X14017801Y-13073984D01*
X14017801Y-13073984D02*
X13998753Y-13064460D01*
X14179705Y-13054936D02*
X14189229Y-13064460D01*
X14189229Y-13064460D02*
X14179705Y-13073984D01*
X14179705Y-13073984D02*
X14170182Y-13064460D01*
X14170182Y-13064460D02*
X14179705Y-13054936D01*
X14179705Y-13054936D02*
X14179705Y-13073984D01*
X14179705Y-12950174D02*
X14189229Y-12959698D01*
X14189229Y-12959698D02*
X14179705Y-12969222D01*
X14179705Y-12969222D02*
X14170182Y-12959698D01*
X14170182Y-12959698D02*
X14179705Y-12950174D01*
X14179705Y-12950174D02*
X14179705Y-12969222D01*
D12*
X12517500Y-13387500D02*
X12547500Y-13417500D01*
X12547500Y-13387500D02*
X12517500Y-13417500D01*
D11*
X12846372Y-13293984D02*
X12865420Y-13293984D01*
X12865420Y-13293984D02*
X12884467Y-13303508D01*
X12884467Y-13303508D02*
X12893991Y-13313031D01*
X12893991Y-13313031D02*
X12903515Y-13332079D01*
X12903515Y-13332079D02*
X12913039Y-13370174D01*
X12913039Y-13370174D02*
X12913039Y-13417793D01*
X12913039Y-13417793D02*
X12903515Y-13455888D01*
X12903515Y-13455888D02*
X12893991Y-13474936D01*
X12893991Y-13474936D02*
X12884467Y-13484460D01*
X12884467Y-13484460D02*
X12865420Y-13493984D01*
X12865420Y-13493984D02*
X12846372Y-13493984D01*
X12846372Y-13493984D02*
X12827324Y-13484460D01*
X12827324Y-13484460D02*
X12817801Y-13474936D01*
X12817801Y-13474936D02*
X12808277Y-13455888D01*
X12808277Y-13455888D02*
X12798753Y-13417793D01*
X12798753Y-13417793D02*
X12798753Y-13370174D01*
X12798753Y-13370174D02*
X12808277Y-13332079D01*
X12808277Y-13332079D02*
X12817801Y-13313031D01*
X12817801Y-13313031D02*
X12827324Y-13303508D01*
X12827324Y-13303508D02*
X12846372Y-13293984D01*
X12998753Y-13474936D02*
X13008277Y-13484460D01*
X13008277Y-13484460D02*
X12998753Y-13493984D01*
X12998753Y-13493984D02*
X12989229Y-13484460D01*
X12989229Y-13484460D02*
X12998753Y-13474936D01*
X12998753Y-13474936D02*
X12998753Y-13493984D01*
X13074943Y-13293984D02*
X13198753Y-13293984D01*
X13198753Y-13293984D02*
X13132086Y-13370174D01*
X13132086Y-13370174D02*
X13160658Y-13370174D01*
X13160658Y-13370174D02*
X13179705Y-13379698D01*
X13179705Y-13379698D02*
X13189229Y-13389222D01*
X13189229Y-13389222D02*
X13198753Y-13408269D01*
X13198753Y-13408269D02*
X13198753Y-13455888D01*
X13198753Y-13455888D02*
X13189229Y-13474936D01*
X13189229Y-13474936D02*
X13179705Y-13484460D01*
X13179705Y-13484460D02*
X13160658Y-13493984D01*
X13160658Y-13493984D02*
X13103515Y-13493984D01*
X13103515Y-13493984D02*
X13084467Y-13484460D01*
X13084467Y-13484460D02*
X13074943Y-13474936D01*
X13322562Y-13293984D02*
X13341610Y-13293984D01*
X13341610Y-13293984D02*
X13360658Y-13303508D01*
X13360658Y-13303508D02*
X13370182Y-13313031D01*
X13370182Y-13313031D02*
X13379705Y-13332079D01*
X13379705Y-13332079D02*
X13389229Y-13370174D01*
X13389229Y-13370174D02*
X13389229Y-13417793D01*
X13389229Y-13417793D02*
X13379705Y-13455888D01*
X13379705Y-13455888D02*
X13370182Y-13474936D01*
X13370182Y-13474936D02*
X13360658Y-13484460D01*
X13360658Y-13484460D02*
X13341610Y-13493984D01*
X13341610Y-13493984D02*
X13322562Y-13493984D01*
X13322562Y-13493984D02*
X13303515Y-13484460D01*
X13303515Y-13484460D02*
X13293991Y-13474936D01*
X13293991Y-13474936D02*
X13284467Y-13455888D01*
X13284467Y-13455888D02*
X13274943Y-13417793D01*
X13274943Y-13417793D02*
X13274943Y-13370174D01*
X13274943Y-13370174D02*
X13284467Y-13332079D01*
X13284467Y-13332079D02*
X13293991Y-13313031D01*
X13293991Y-13313031D02*
X13303515Y-13303508D01*
X13303515Y-13303508D02*
X13322562Y-13293984D01*
X13513039Y-13293984D02*
X13532086Y-13293984D01*
X13532086Y-13293984D02*
X13551134Y-13303508D01*
X13551134Y-13303508D02*
X13560658Y-13313031D01*
X13560658Y-13313031D02*
X13570182Y-13332079D01*
X13570182Y-13332079D02*
X13579705Y-13370174D01*
X13579705Y-13370174D02*
X13579705Y-13417793D01*
X13579705Y-13417793D02*
X13570182Y-13455888D01*
X13570182Y-13455888D02*
X13560658Y-13474936D01*
X13560658Y-13474936D02*
X13551134Y-13484460D01*
X13551134Y-13484460D02*
X13532086Y-13493984D01*
X13532086Y-13493984D02*
X13513039Y-13493984D01*
X13513039Y-13493984D02*
X13493991Y-13484460D01*
X13493991Y-13484460D02*
X13484467Y-13474936D01*
X13484467Y-13474936D02*
X13474943Y-13455888D01*
X13474943Y-13455888D02*
X13465420Y-13417793D01*
X13465420Y-13417793D02*
X13465420Y-13370174D01*
X13465420Y-13370174D02*
X13474943Y-13332079D01*
X13474943Y-13332079D02*
X13484467Y-13313031D01*
X13484467Y-13313031D02*
X13493991Y-13303508D01*
X13493991Y-13303508D02*
X13513039Y-13293984D01*
X13665420Y-13493984D02*
X13665420Y-13360650D01*
X13665420Y-13379698D02*
X13674943Y-13370174D01*
X13674943Y-13370174D02*
X13693991Y-13360650D01*
X13693991Y-13360650D02*
X13722563Y-13360650D01*
X13722563Y-13360650D02*
X13741610Y-13370174D01*
X13741610Y-13370174D02*
X13751134Y-13389222D01*
X13751134Y-13389222D02*
X13751134Y-13493984D01*
X13751134Y-13389222D02*
X13760658Y-13370174D01*
X13760658Y-13370174D02*
X13779705Y-13360650D01*
X13779705Y-13360650D02*
X13808277Y-13360650D01*
X13808277Y-13360650D02*
X13827324Y-13370174D01*
X13827324Y-13370174D02*
X13836848Y-13389222D01*
X13836848Y-13389222D02*
X13836848Y-13493984D01*
X13932086Y-13493984D02*
X13932086Y-13360650D01*
X13932086Y-13379698D02*
X13941610Y-13370174D01*
X13941610Y-13370174D02*
X13960658Y-13360650D01*
X13960658Y-13360650D02*
X13989229Y-13360650D01*
X13989229Y-13360650D02*
X14008277Y-13370174D01*
X14008277Y-13370174D02*
X14017801Y-13389222D01*
X14017801Y-13389222D02*
X14017801Y-13493984D01*
X14017801Y-13389222D02*
X14027324Y-13370174D01*
X14027324Y-13370174D02*
X14046372Y-13360650D01*
X14046372Y-13360650D02*
X14074943Y-13360650D01*
X14074943Y-13360650D02*
X14093991Y-13370174D01*
X14093991Y-13370174D02*
X14103515Y-13389222D01*
X14103515Y-13389222D02*
X14103515Y-13493984D01*
X14493991Y-13284460D02*
X14322563Y-13541603D01*
X14751134Y-13293984D02*
X14770182Y-13293984D01*
X14770182Y-13293984D02*
X14789229Y-13303508D01*
X14789229Y-13303508D02*
X14798753Y-13313031D01*
X14798753Y-13313031D02*
X14808277Y-13332079D01*
X14808277Y-13332079D02*
X14817801Y-13370174D01*
X14817801Y-13370174D02*
X14817801Y-13417793D01*
X14817801Y-13417793D02*
X14808277Y-13455888D01*
X14808277Y-13455888D02*
X14798753Y-13474936D01*
X14798753Y-13474936D02*
X14789229Y-13484460D01*
X14789229Y-13484460D02*
X14770182Y-13493984D01*
X14770182Y-13493984D02*
X14751134Y-13493984D01*
X14751134Y-13493984D02*
X14732086Y-13484460D01*
X14732086Y-13484460D02*
X14722563Y-13474936D01*
X14722563Y-13474936D02*
X14713039Y-13455888D01*
X14713039Y-13455888D02*
X14703515Y-13417793D01*
X14703515Y-13417793D02*
X14703515Y-13370174D01*
X14703515Y-13370174D02*
X14713039Y-13332079D01*
X14713039Y-13332079D02*
X14722563Y-13313031D01*
X14722563Y-13313031D02*
X14732086Y-13303508D01*
X14732086Y-13303508D02*
X14751134Y-13293984D01*
X14903515Y-13474936D02*
X14913039Y-13484460D01*
X14913039Y-13484460D02*
X14903515Y-13493984D01*
X14903515Y-13493984D02*
X14893991Y-13484460D01*
X14893991Y-13484460D02*
X14903515Y-13474936D01*
X14903515Y-13474936D02*
X14903515Y-13493984D01*
X15036848Y-13293984D02*
X15055896Y-13293984D01*
X15055896Y-13293984D02*
X15074944Y-13303508D01*
X15074944Y-13303508D02*
X15084467Y-13313031D01*
X15084467Y-13313031D02*
X15093991Y-13332079D01*
X15093991Y-13332079D02*
X15103515Y-13370174D01*
X15103515Y-13370174D02*
X15103515Y-13417793D01*
X15103515Y-13417793D02*
X15093991Y-13455888D01*
X15093991Y-13455888D02*
X15084467Y-13474936D01*
X15084467Y-13474936D02*
X15074944Y-13484460D01*
X15074944Y-13484460D02*
X15055896Y-13493984D01*
X15055896Y-13493984D02*
X15036848Y-13493984D01*
X15036848Y-13493984D02*
X15017801Y-13484460D01*
X15017801Y-13484460D02*
X15008277Y-13474936D01*
X15008277Y-13474936D02*
X14998753Y-13455888D01*
X14998753Y-13455888D02*
X14989229Y-13417793D01*
X14989229Y-13417793D02*
X14989229Y-13370174D01*
X14989229Y-13370174D02*
X14998753Y-13332079D01*
X14998753Y-13332079D02*
X15008277Y-13313031D01*
X15008277Y-13313031D02*
X15017801Y-13303508D01*
X15017801Y-13303508D02*
X15036848Y-13293984D01*
X15293991Y-13493984D02*
X15179706Y-13493984D01*
X15236848Y-13493984D02*
X15236848Y-13293984D01*
X15236848Y-13293984D02*
X15217801Y-13322555D01*
X15217801Y-13322555D02*
X15198753Y-13341603D01*
X15198753Y-13341603D02*
X15179706Y-13351127D01*
X15484467Y-13493984D02*
X15370182Y-13493984D01*
X15427325Y-13493984D02*
X15427325Y-13293984D01*
X15427325Y-13293984D02*
X15408277Y-13322555D01*
X15408277Y-13322555D02*
X15389229Y-13341603D01*
X15389229Y-13341603D02*
X15370182Y-13351127D01*
X15598753Y-13379698D02*
X15579706Y-13370174D01*
X15579706Y-13370174D02*
X15570182Y-13360650D01*
X15570182Y-13360650D02*
X15560658Y-13341603D01*
X15560658Y-13341603D02*
X15560658Y-13332079D01*
X15560658Y-13332079D02*
X15570182Y-13313031D01*
X15570182Y-13313031D02*
X15579706Y-13303508D01*
X15579706Y-13303508D02*
X15598753Y-13293984D01*
X15598753Y-13293984D02*
X15636848Y-13293984D01*
X15636848Y-13293984D02*
X15655896Y-13303508D01*
X15655896Y-13303508D02*
X15665420Y-13313031D01*
X15665420Y-13313031D02*
X15674944Y-13332079D01*
X15674944Y-13332079D02*
X15674944Y-13341603D01*
X15674944Y-13341603D02*
X15665420Y-13360650D01*
X15665420Y-13360650D02*
X15655896Y-13370174D01*
X15655896Y-13370174D02*
X15636848Y-13379698D01*
X15636848Y-13379698D02*
X15598753Y-13379698D01*
X15598753Y-13379698D02*
X15579706Y-13389222D01*
X15579706Y-13389222D02*
X15570182Y-13398746D01*
X15570182Y-13398746D02*
X15560658Y-13417793D01*
X15560658Y-13417793D02*
X15560658Y-13455888D01*
X15560658Y-13455888D02*
X15570182Y-13474936D01*
X15570182Y-13474936D02*
X15579706Y-13484460D01*
X15579706Y-13484460D02*
X15598753Y-13493984D01*
X15598753Y-13493984D02*
X15636848Y-13493984D01*
X15636848Y-13493984D02*
X15655896Y-13484460D01*
X15655896Y-13484460D02*
X15665420Y-13474936D01*
X15665420Y-13474936D02*
X15674944Y-13455888D01*
X15674944Y-13455888D02*
X15674944Y-13417793D01*
X15674944Y-13417793D02*
X15665420Y-13398746D01*
X15665420Y-13398746D02*
X15655896Y-13389222D01*
X15655896Y-13389222D02*
X15636848Y-13379698D01*
X15751134Y-13293984D02*
X15751134Y-13332079D01*
X15827325Y-13293984D02*
X15827325Y-13332079D01*
X16122563Y-13570174D02*
X16113039Y-13560650D01*
X16113039Y-13560650D02*
X16093991Y-13532079D01*
X16093991Y-13532079D02*
X16084468Y-13513031D01*
X16084468Y-13513031D02*
X16074944Y-13484460D01*
X16074944Y-13484460D02*
X16065420Y-13436841D01*
X16065420Y-13436841D02*
X16065420Y-13398746D01*
X16065420Y-13398746D02*
X16074944Y-13351127D01*
X16074944Y-13351127D02*
X16084468Y-13322555D01*
X16084468Y-13322555D02*
X16093991Y-13303508D01*
X16093991Y-13303508D02*
X16113039Y-13274936D01*
X16113039Y-13274936D02*
X16122563Y-13265412D01*
X16303515Y-13493984D02*
X16189229Y-13493984D01*
X16246372Y-13493984D02*
X16246372Y-13293984D01*
X16246372Y-13293984D02*
X16227325Y-13322555D01*
X16227325Y-13322555D02*
X16208277Y-13341603D01*
X16208277Y-13341603D02*
X16189229Y-13351127D01*
X16484468Y-13293984D02*
X16389229Y-13293984D01*
X16389229Y-13293984D02*
X16379706Y-13389222D01*
X16379706Y-13389222D02*
X16389229Y-13379698D01*
X16389229Y-13379698D02*
X16408277Y-13370174D01*
X16408277Y-13370174D02*
X16455896Y-13370174D01*
X16455896Y-13370174D02*
X16474944Y-13379698D01*
X16474944Y-13379698D02*
X16484468Y-13389222D01*
X16484468Y-13389222D02*
X16493991Y-13408269D01*
X16493991Y-13408269D02*
X16493991Y-13455888D01*
X16493991Y-13455888D02*
X16484468Y-13474936D01*
X16484468Y-13474936D02*
X16474944Y-13484460D01*
X16474944Y-13484460D02*
X16455896Y-13493984D01*
X16455896Y-13493984D02*
X16408277Y-13493984D01*
X16408277Y-13493984D02*
X16389229Y-13484460D01*
X16389229Y-13484460D02*
X16379706Y-13474936D01*
X16732087Y-13493984D02*
X16732087Y-13293984D01*
X16817801Y-13493984D02*
X16817801Y-13389222D01*
X16817801Y-13389222D02*
X16808277Y-13370174D01*
X16808277Y-13370174D02*
X16789230Y-13360650D01*
X16789230Y-13360650D02*
X16760658Y-13360650D01*
X16760658Y-13360650D02*
X16741610Y-13370174D01*
X16741610Y-13370174D02*
X16732087Y-13379698D01*
X16941611Y-13493984D02*
X16922563Y-13484460D01*
X16922563Y-13484460D02*
X16913039Y-13474936D01*
X16913039Y-13474936D02*
X16903515Y-13455888D01*
X16903515Y-13455888D02*
X16903515Y-13398746D01*
X16903515Y-13398746D02*
X16913039Y-13379698D01*
X16913039Y-13379698D02*
X16922563Y-13370174D01*
X16922563Y-13370174D02*
X16941611Y-13360650D01*
X16941611Y-13360650D02*
X16970182Y-13360650D01*
X16970182Y-13360650D02*
X16989230Y-13370174D01*
X16989230Y-13370174D02*
X16998753Y-13379698D01*
X16998753Y-13379698D02*
X17008277Y-13398746D01*
X17008277Y-13398746D02*
X17008277Y-13455888D01*
X17008277Y-13455888D02*
X16998753Y-13474936D01*
X16998753Y-13474936D02*
X16989230Y-13484460D01*
X16989230Y-13484460D02*
X16970182Y-13493984D01*
X16970182Y-13493984D02*
X16941611Y-13493984D01*
X17122563Y-13493984D02*
X17103515Y-13484460D01*
X17103515Y-13484460D02*
X17093992Y-13465412D01*
X17093992Y-13465412D02*
X17093992Y-13293984D01*
X17274944Y-13484460D02*
X17255896Y-13493984D01*
X17255896Y-13493984D02*
X17217801Y-13493984D01*
X17217801Y-13493984D02*
X17198753Y-13484460D01*
X17198753Y-13484460D02*
X17189230Y-13465412D01*
X17189230Y-13465412D02*
X17189230Y-13389222D01*
X17189230Y-13389222D02*
X17198753Y-13370174D01*
X17198753Y-13370174D02*
X17217801Y-13360650D01*
X17217801Y-13360650D02*
X17255896Y-13360650D01*
X17255896Y-13360650D02*
X17274944Y-13370174D01*
X17274944Y-13370174D02*
X17284468Y-13389222D01*
X17284468Y-13389222D02*
X17284468Y-13408269D01*
X17284468Y-13408269D02*
X17189230Y-13427317D01*
X17360658Y-13484460D02*
X17379706Y-13493984D01*
X17379706Y-13493984D02*
X17417801Y-13493984D01*
X17417801Y-13493984D02*
X17436849Y-13484460D01*
X17436849Y-13484460D02*
X17446373Y-13465412D01*
X17446373Y-13465412D02*
X17446373Y-13455888D01*
X17446373Y-13455888D02*
X17436849Y-13436841D01*
X17436849Y-13436841D02*
X17417801Y-13427317D01*
X17417801Y-13427317D02*
X17389230Y-13427317D01*
X17389230Y-13427317D02*
X17370182Y-13417793D01*
X17370182Y-13417793D02*
X17360658Y-13398746D01*
X17360658Y-13398746D02*
X17360658Y-13389222D01*
X17360658Y-13389222D02*
X17370182Y-13370174D01*
X17370182Y-13370174D02*
X17389230Y-13360650D01*
X17389230Y-13360650D02*
X17417801Y-13360650D01*
X17417801Y-13360650D02*
X17436849Y-13370174D01*
X17513039Y-13570174D02*
X17522563Y-13560650D01*
X17522563Y-13560650D02*
X17541611Y-13532079D01*
X17541611Y-13532079D02*
X17551134Y-13513031D01*
X17551134Y-13513031D02*
X17560658Y-13484460D01*
X17560658Y-13484460D02*
X17570182Y-13436841D01*
X17570182Y-13436841D02*
X17570182Y-13398746D01*
X17570182Y-13398746D02*
X17560658Y-13351127D01*
X17560658Y-13351127D02*
X17551134Y-13322555D01*
X17551134Y-13322555D02*
X17541611Y-13303508D01*
X17541611Y-13303508D02*
X17522563Y-13274936D01*
X17522563Y-13274936D02*
X17513039Y-13265412D01*
D12*
X12547500Y-13666500D02*
G75*
G02*
X12467500Y-13666500I-40000J0D01*
G01*
X12467500Y-13666500D02*
G75*
G02*
X12547500Y-13666500I40000J0D01*
G01*
D11*
X12846372Y-13557984D02*
X12865420Y-13557984D01*
X12865420Y-13557984D02*
X12884467Y-13567508D01*
X12884467Y-13567508D02*
X12893991Y-13577031D01*
X12893991Y-13577031D02*
X12903515Y-13596079D01*
X12903515Y-13596079D02*
X12913039Y-13634174D01*
X12913039Y-13634174D02*
X12913039Y-13681793D01*
X12913039Y-13681793D02*
X12903515Y-13719888D01*
X12903515Y-13719888D02*
X12893991Y-13738936D01*
X12893991Y-13738936D02*
X12884467Y-13748460D01*
X12884467Y-13748460D02*
X12865420Y-13757984D01*
X12865420Y-13757984D02*
X12846372Y-13757984D01*
X12846372Y-13757984D02*
X12827324Y-13748460D01*
X12827324Y-13748460D02*
X12817801Y-13738936D01*
X12817801Y-13738936D02*
X12808277Y-13719888D01*
X12808277Y-13719888D02*
X12798753Y-13681793D01*
X12798753Y-13681793D02*
X12798753Y-13634174D01*
X12798753Y-13634174D02*
X12808277Y-13596079D01*
X12808277Y-13596079D02*
X12817801Y-13577031D01*
X12817801Y-13577031D02*
X12827324Y-13567508D01*
X12827324Y-13567508D02*
X12846372Y-13557984D01*
X12998753Y-13738936D02*
X13008277Y-13748460D01*
X13008277Y-13748460D02*
X12998753Y-13757984D01*
X12998753Y-13757984D02*
X12989229Y-13748460D01*
X12989229Y-13748460D02*
X12998753Y-13738936D01*
X12998753Y-13738936D02*
X12998753Y-13757984D01*
X13122562Y-13643698D02*
X13103515Y-13634174D01*
X13103515Y-13634174D02*
X13093991Y-13624650D01*
X13093991Y-13624650D02*
X13084467Y-13605603D01*
X13084467Y-13605603D02*
X13084467Y-13596079D01*
X13084467Y-13596079D02*
X13093991Y-13577031D01*
X13093991Y-13577031D02*
X13103515Y-13567508D01*
X13103515Y-13567508D02*
X13122562Y-13557984D01*
X13122562Y-13557984D02*
X13160658Y-13557984D01*
X13160658Y-13557984D02*
X13179705Y-13567508D01*
X13179705Y-13567508D02*
X13189229Y-13577031D01*
X13189229Y-13577031D02*
X13198753Y-13596079D01*
X13198753Y-13596079D02*
X13198753Y-13605603D01*
X13198753Y-13605603D02*
X13189229Y-13624650D01*
X13189229Y-13624650D02*
X13179705Y-13634174D01*
X13179705Y-13634174D02*
X13160658Y-13643698D01*
X13160658Y-13643698D02*
X13122562Y-13643698D01*
X13122562Y-13643698D02*
X13103515Y-13653222D01*
X13103515Y-13653222D02*
X13093991Y-13662746D01*
X13093991Y-13662746D02*
X13084467Y-13681793D01*
X13084467Y-13681793D02*
X13084467Y-13719888D01*
X13084467Y-13719888D02*
X13093991Y-13738936D01*
X13093991Y-13738936D02*
X13103515Y-13748460D01*
X13103515Y-13748460D02*
X13122562Y-13757984D01*
X13122562Y-13757984D02*
X13160658Y-13757984D01*
X13160658Y-13757984D02*
X13179705Y-13748460D01*
X13179705Y-13748460D02*
X13189229Y-13738936D01*
X13189229Y-13738936D02*
X13198753Y-13719888D01*
X13198753Y-13719888D02*
X13198753Y-13681793D01*
X13198753Y-13681793D02*
X13189229Y-13662746D01*
X13189229Y-13662746D02*
X13179705Y-13653222D01*
X13179705Y-13653222D02*
X13160658Y-13643698D01*
X13322562Y-13557984D02*
X13341610Y-13557984D01*
X13341610Y-13557984D02*
X13360658Y-13567508D01*
X13360658Y-13567508D02*
X13370182Y-13577031D01*
X13370182Y-13577031D02*
X13379705Y-13596079D01*
X13379705Y-13596079D02*
X13389229Y-13634174D01*
X13389229Y-13634174D02*
X13389229Y-13681793D01*
X13389229Y-13681793D02*
X13379705Y-13719888D01*
X13379705Y-13719888D02*
X13370182Y-13738936D01*
X13370182Y-13738936D02*
X13360658Y-13748460D01*
X13360658Y-13748460D02*
X13341610Y-13757984D01*
X13341610Y-13757984D02*
X13322562Y-13757984D01*
X13322562Y-13757984D02*
X13303515Y-13748460D01*
X13303515Y-13748460D02*
X13293991Y-13738936D01*
X13293991Y-13738936D02*
X13284467Y-13719888D01*
X13284467Y-13719888D02*
X13274943Y-13681793D01*
X13274943Y-13681793D02*
X13274943Y-13634174D01*
X13274943Y-13634174D02*
X13284467Y-13596079D01*
X13284467Y-13596079D02*
X13293991Y-13577031D01*
X13293991Y-13577031D02*
X13303515Y-13567508D01*
X13303515Y-13567508D02*
X13322562Y-13557984D01*
X13513039Y-13557984D02*
X13532086Y-13557984D01*
X13532086Y-13557984D02*
X13551134Y-13567508D01*
X13551134Y-13567508D02*
X13560658Y-13577031D01*
X13560658Y-13577031D02*
X13570182Y-13596079D01*
X13570182Y-13596079D02*
X13579705Y-13634174D01*
X13579705Y-13634174D02*
X13579705Y-13681793D01*
X13579705Y-13681793D02*
X13570182Y-13719888D01*
X13570182Y-13719888D02*
X13560658Y-13738936D01*
X13560658Y-13738936D02*
X13551134Y-13748460D01*
X13551134Y-13748460D02*
X13532086Y-13757984D01*
X13532086Y-13757984D02*
X13513039Y-13757984D01*
X13513039Y-13757984D02*
X13493991Y-13748460D01*
X13493991Y-13748460D02*
X13484467Y-13738936D01*
X13484467Y-13738936D02*
X13474943Y-13719888D01*
X13474943Y-13719888D02*
X13465420Y-13681793D01*
X13465420Y-13681793D02*
X13465420Y-13634174D01*
X13465420Y-13634174D02*
X13474943Y-13596079D01*
X13474943Y-13596079D02*
X13484467Y-13577031D01*
X13484467Y-13577031D02*
X13493991Y-13567508D01*
X13493991Y-13567508D02*
X13513039Y-13557984D01*
X13665420Y-13757984D02*
X13665420Y-13624650D01*
X13665420Y-13643698D02*
X13674943Y-13634174D01*
X13674943Y-13634174D02*
X13693991Y-13624650D01*
X13693991Y-13624650D02*
X13722563Y-13624650D01*
X13722563Y-13624650D02*
X13741610Y-13634174D01*
X13741610Y-13634174D02*
X13751134Y-13653222D01*
X13751134Y-13653222D02*
X13751134Y-13757984D01*
X13751134Y-13653222D02*
X13760658Y-13634174D01*
X13760658Y-13634174D02*
X13779705Y-13624650D01*
X13779705Y-13624650D02*
X13808277Y-13624650D01*
X13808277Y-13624650D02*
X13827324Y-13634174D01*
X13827324Y-13634174D02*
X13836848Y-13653222D01*
X13836848Y-13653222D02*
X13836848Y-13757984D01*
X13932086Y-13757984D02*
X13932086Y-13624650D01*
X13932086Y-13643698D02*
X13941610Y-13634174D01*
X13941610Y-13634174D02*
X13960658Y-13624650D01*
X13960658Y-13624650D02*
X13989229Y-13624650D01*
X13989229Y-13624650D02*
X14008277Y-13634174D01*
X14008277Y-13634174D02*
X14017801Y-13653222D01*
X14017801Y-13653222D02*
X14017801Y-13757984D01*
X14017801Y-13653222D02*
X14027324Y-13634174D01*
X14027324Y-13634174D02*
X14046372Y-13624650D01*
X14046372Y-13624650D02*
X14074943Y-13624650D01*
X14074943Y-13624650D02*
X14093991Y-13634174D01*
X14093991Y-13634174D02*
X14103515Y-13653222D01*
X14103515Y-13653222D02*
X14103515Y-13757984D01*
X14493991Y-13548460D02*
X14322563Y-13805603D01*
X14751134Y-13557984D02*
X14770182Y-13557984D01*
X14770182Y-13557984D02*
X14789229Y-13567508D01*
X14789229Y-13567508D02*
X14798753Y-13577031D01*
X14798753Y-13577031D02*
X14808277Y-13596079D01*
X14808277Y-13596079D02*
X14817801Y-13634174D01*
X14817801Y-13634174D02*
X14817801Y-13681793D01*
X14817801Y-13681793D02*
X14808277Y-13719888D01*
X14808277Y-13719888D02*
X14798753Y-13738936D01*
X14798753Y-13738936D02*
X14789229Y-13748460D01*
X14789229Y-13748460D02*
X14770182Y-13757984D01*
X14770182Y-13757984D02*
X14751134Y-13757984D01*
X14751134Y-13757984D02*
X14732086Y-13748460D01*
X14732086Y-13748460D02*
X14722563Y-13738936D01*
X14722563Y-13738936D02*
X14713039Y-13719888D01*
X14713039Y-13719888D02*
X14703515Y-13681793D01*
X14703515Y-13681793D02*
X14703515Y-13634174D01*
X14703515Y-13634174D02*
X14713039Y-13596079D01*
X14713039Y-13596079D02*
X14722563Y-13577031D01*
X14722563Y-13577031D02*
X14732086Y-13567508D01*
X14732086Y-13567508D02*
X14751134Y-13557984D01*
X14903515Y-13738936D02*
X14913039Y-13748460D01*
X14913039Y-13748460D02*
X14903515Y-13757984D01*
X14903515Y-13757984D02*
X14893991Y-13748460D01*
X14893991Y-13748460D02*
X14903515Y-13738936D01*
X14903515Y-13738936D02*
X14903515Y-13757984D01*
X15036848Y-13557984D02*
X15055896Y-13557984D01*
X15055896Y-13557984D02*
X15074944Y-13567508D01*
X15074944Y-13567508D02*
X15084467Y-13577031D01*
X15084467Y-13577031D02*
X15093991Y-13596079D01*
X15093991Y-13596079D02*
X15103515Y-13634174D01*
X15103515Y-13634174D02*
X15103515Y-13681793D01*
X15103515Y-13681793D02*
X15093991Y-13719888D01*
X15093991Y-13719888D02*
X15084467Y-13738936D01*
X15084467Y-13738936D02*
X15074944Y-13748460D01*
X15074944Y-13748460D02*
X15055896Y-13757984D01*
X15055896Y-13757984D02*
X15036848Y-13757984D01*
X15036848Y-13757984D02*
X15017801Y-13748460D01*
X15017801Y-13748460D02*
X15008277Y-13738936D01*
X15008277Y-13738936D02*
X14998753Y-13719888D01*
X14998753Y-13719888D02*
X14989229Y-13681793D01*
X14989229Y-13681793D02*
X14989229Y-13634174D01*
X14989229Y-13634174D02*
X14998753Y-13596079D01*
X14998753Y-13596079D02*
X15008277Y-13577031D01*
X15008277Y-13577031D02*
X15017801Y-13567508D01*
X15017801Y-13567508D02*
X15036848Y-13557984D01*
X15170182Y-13557984D02*
X15293991Y-13557984D01*
X15293991Y-13557984D02*
X15227325Y-13634174D01*
X15227325Y-13634174D02*
X15255896Y-13634174D01*
X15255896Y-13634174D02*
X15274944Y-13643698D01*
X15274944Y-13643698D02*
X15284467Y-13653222D01*
X15284467Y-13653222D02*
X15293991Y-13672269D01*
X15293991Y-13672269D02*
X15293991Y-13719888D01*
X15293991Y-13719888D02*
X15284467Y-13738936D01*
X15284467Y-13738936D02*
X15274944Y-13748460D01*
X15274944Y-13748460D02*
X15255896Y-13757984D01*
X15255896Y-13757984D02*
X15198753Y-13757984D01*
X15198753Y-13757984D02*
X15179706Y-13748460D01*
X15179706Y-13748460D02*
X15170182Y-13738936D01*
X15484467Y-13757984D02*
X15370182Y-13757984D01*
X15427325Y-13757984D02*
X15427325Y-13557984D01*
X15427325Y-13557984D02*
X15408277Y-13586555D01*
X15408277Y-13586555D02*
X15389229Y-13605603D01*
X15389229Y-13605603D02*
X15370182Y-13615127D01*
X15665420Y-13557984D02*
X15570182Y-13557984D01*
X15570182Y-13557984D02*
X15560658Y-13653222D01*
X15560658Y-13653222D02*
X15570182Y-13643698D01*
X15570182Y-13643698D02*
X15589229Y-13634174D01*
X15589229Y-13634174D02*
X15636848Y-13634174D01*
X15636848Y-13634174D02*
X15655896Y-13643698D01*
X15655896Y-13643698D02*
X15665420Y-13653222D01*
X15665420Y-13653222D02*
X15674944Y-13672269D01*
X15674944Y-13672269D02*
X15674944Y-13719888D01*
X15674944Y-13719888D02*
X15665420Y-13738936D01*
X15665420Y-13738936D02*
X15655896Y-13748460D01*
X15655896Y-13748460D02*
X15636848Y-13757984D01*
X15636848Y-13757984D02*
X15589229Y-13757984D01*
X15589229Y-13757984D02*
X15570182Y-13748460D01*
X15570182Y-13748460D02*
X15560658Y-13738936D01*
X15751134Y-13557984D02*
X15751134Y-13596079D01*
X15827325Y-13557984D02*
X15827325Y-13596079D01*
X16122563Y-13834174D02*
X16113039Y-13824650D01*
X16113039Y-13824650D02*
X16093991Y-13796079D01*
X16093991Y-13796079D02*
X16084468Y-13777031D01*
X16084468Y-13777031D02*
X16074944Y-13748460D01*
X16074944Y-13748460D02*
X16065420Y-13700841D01*
X16065420Y-13700841D02*
X16065420Y-13662746D01*
X16065420Y-13662746D02*
X16074944Y-13615127D01*
X16074944Y-13615127D02*
X16084468Y-13586555D01*
X16084468Y-13586555D02*
X16093991Y-13567508D01*
X16093991Y-13567508D02*
X16113039Y-13538936D01*
X16113039Y-13538936D02*
X16122563Y-13529412D01*
X16303515Y-13757984D02*
X16189229Y-13757984D01*
X16246372Y-13757984D02*
X16246372Y-13557984D01*
X16246372Y-13557984D02*
X16227325Y-13586555D01*
X16227325Y-13586555D02*
X16208277Y-13605603D01*
X16208277Y-13605603D02*
X16189229Y-13615127D01*
X16474944Y-13557984D02*
X16436848Y-13557984D01*
X16436848Y-13557984D02*
X16417801Y-13567508D01*
X16417801Y-13567508D02*
X16408277Y-13577031D01*
X16408277Y-13577031D02*
X16389229Y-13605603D01*
X16389229Y-13605603D02*
X16379706Y-13643698D01*
X16379706Y-13643698D02*
X16379706Y-13719888D01*
X16379706Y-13719888D02*
X16389229Y-13738936D01*
X16389229Y-13738936D02*
X16398753Y-13748460D01*
X16398753Y-13748460D02*
X16417801Y-13757984D01*
X16417801Y-13757984D02*
X16455896Y-13757984D01*
X16455896Y-13757984D02*
X16474944Y-13748460D01*
X16474944Y-13748460D02*
X16484468Y-13738936D01*
X16484468Y-13738936D02*
X16493991Y-13719888D01*
X16493991Y-13719888D02*
X16493991Y-13672269D01*
X16493991Y-13672269D02*
X16484468Y-13653222D01*
X16484468Y-13653222D02*
X16474944Y-13643698D01*
X16474944Y-13643698D02*
X16455896Y-13634174D01*
X16455896Y-13634174D02*
X16417801Y-13634174D01*
X16417801Y-13634174D02*
X16398753Y-13643698D01*
X16398753Y-13643698D02*
X16389229Y-13653222D01*
X16389229Y-13653222D02*
X16379706Y-13672269D01*
X16732087Y-13757984D02*
X16732087Y-13557984D01*
X16817801Y-13757984D02*
X16817801Y-13653222D01*
X16817801Y-13653222D02*
X16808277Y-13634174D01*
X16808277Y-13634174D02*
X16789230Y-13624650D01*
X16789230Y-13624650D02*
X16760658Y-13624650D01*
X16760658Y-13624650D02*
X16741610Y-13634174D01*
X16741610Y-13634174D02*
X16732087Y-13643698D01*
X16941611Y-13757984D02*
X16922563Y-13748460D01*
X16922563Y-13748460D02*
X16913039Y-13738936D01*
X16913039Y-13738936D02*
X16903515Y-13719888D01*
X16903515Y-13719888D02*
X16903515Y-13662746D01*
X16903515Y-13662746D02*
X16913039Y-13643698D01*
X16913039Y-13643698D02*
X16922563Y-13634174D01*
X16922563Y-13634174D02*
X16941611Y-13624650D01*
X16941611Y-13624650D02*
X16970182Y-13624650D01*
X16970182Y-13624650D02*
X16989230Y-13634174D01*
X16989230Y-13634174D02*
X16998753Y-13643698D01*
X16998753Y-13643698D02*
X17008277Y-13662746D01*
X17008277Y-13662746D02*
X17008277Y-13719888D01*
X17008277Y-13719888D02*
X16998753Y-13738936D01*
X16998753Y-13738936D02*
X16989230Y-13748460D01*
X16989230Y-13748460D02*
X16970182Y-13757984D01*
X16970182Y-13757984D02*
X16941611Y-13757984D01*
X17122563Y-13757984D02*
X17103515Y-13748460D01*
X17103515Y-13748460D02*
X17093992Y-13729412D01*
X17093992Y-13729412D02*
X17093992Y-13557984D01*
X17274944Y-13748460D02*
X17255896Y-13757984D01*
X17255896Y-13757984D02*
X17217801Y-13757984D01*
X17217801Y-13757984D02*
X17198753Y-13748460D01*
X17198753Y-13748460D02*
X17189230Y-13729412D01*
X17189230Y-13729412D02*
X17189230Y-13653222D01*
X17189230Y-13653222D02*
X17198753Y-13634174D01*
X17198753Y-13634174D02*
X17217801Y-13624650D01*
X17217801Y-13624650D02*
X17255896Y-13624650D01*
X17255896Y-13624650D02*
X17274944Y-13634174D01*
X17274944Y-13634174D02*
X17284468Y-13653222D01*
X17284468Y-13653222D02*
X17284468Y-13672269D01*
X17284468Y-13672269D02*
X17189230Y-13691317D01*
X17360658Y-13748460D02*
X17379706Y-13757984D01*
X17379706Y-13757984D02*
X17417801Y-13757984D01*
X17417801Y-13757984D02*
X17436849Y-13748460D01*
X17436849Y-13748460D02*
X17446373Y-13729412D01*
X17446373Y-13729412D02*
X17446373Y-13719888D01*
X17446373Y-13719888D02*
X17436849Y-13700841D01*
X17436849Y-13700841D02*
X17417801Y-13691317D01*
X17417801Y-13691317D02*
X17389230Y-13691317D01*
X17389230Y-13691317D02*
X17370182Y-13681793D01*
X17370182Y-13681793D02*
X17360658Y-13662746D01*
X17360658Y-13662746D02*
X17360658Y-13653222D01*
X17360658Y-13653222D02*
X17370182Y-13634174D01*
X17370182Y-13634174D02*
X17389230Y-13624650D01*
X17389230Y-13624650D02*
X17417801Y-13624650D01*
X17417801Y-13624650D02*
X17436849Y-13634174D01*
X17513039Y-13834174D02*
X17522563Y-13824650D01*
X17522563Y-13824650D02*
X17541611Y-13796079D01*
X17541611Y-13796079D02*
X17551134Y-13777031D01*
X17551134Y-13777031D02*
X17560658Y-13748460D01*
X17560658Y-13748460D02*
X17570182Y-13700841D01*
X17570182Y-13700841D02*
X17570182Y-13662746D01*
X17570182Y-13662746D02*
X17560658Y-13615127D01*
X17560658Y-13615127D02*
X17551134Y-13586555D01*
X17551134Y-13586555D02*
X17541611Y-13567508D01*
X17541611Y-13567508D02*
X17522563Y-13538936D01*
X17522563Y-13538936D02*
X17513039Y-13529412D01*
D12*
X12500000Y-13883000D02*
X12500000Y-13978000D01*
X12452500Y-13930500D02*
X12547500Y-13930500D01*
D11*
X12846372Y-13821984D02*
X12865420Y-13821984D01*
X12865420Y-13821984D02*
X12884467Y-13831508D01*
X12884467Y-13831508D02*
X12893991Y-13841031D01*
X12893991Y-13841031D02*
X12903515Y-13860079D01*
X12903515Y-13860079D02*
X12913039Y-13898174D01*
X12913039Y-13898174D02*
X12913039Y-13945793D01*
X12913039Y-13945793D02*
X12903515Y-13983888D01*
X12903515Y-13983888D02*
X12893991Y-14002936D01*
X12893991Y-14002936D02*
X12884467Y-14012460D01*
X12884467Y-14012460D02*
X12865420Y-14021984D01*
X12865420Y-14021984D02*
X12846372Y-14021984D01*
X12846372Y-14021984D02*
X12827324Y-14012460D01*
X12827324Y-14012460D02*
X12817801Y-14002936D01*
X12817801Y-14002936D02*
X12808277Y-13983888D01*
X12808277Y-13983888D02*
X12798753Y-13945793D01*
X12798753Y-13945793D02*
X12798753Y-13898174D01*
X12798753Y-13898174D02*
X12808277Y-13860079D01*
X12808277Y-13860079D02*
X12817801Y-13841031D01*
X12817801Y-13841031D02*
X12827324Y-13831508D01*
X12827324Y-13831508D02*
X12846372Y-13821984D01*
X12998753Y-14002936D02*
X13008277Y-14012460D01*
X13008277Y-14012460D02*
X12998753Y-14021984D01*
X12998753Y-14021984D02*
X12989229Y-14012460D01*
X12989229Y-14012460D02*
X12998753Y-14002936D01*
X12998753Y-14002936D02*
X12998753Y-14021984D01*
X13103515Y-14021984D02*
X13141610Y-14021984D01*
X13141610Y-14021984D02*
X13160658Y-14012460D01*
X13160658Y-14012460D02*
X13170182Y-14002936D01*
X13170182Y-14002936D02*
X13189229Y-13974365D01*
X13189229Y-13974365D02*
X13198753Y-13936269D01*
X13198753Y-13936269D02*
X13198753Y-13860079D01*
X13198753Y-13860079D02*
X13189229Y-13841031D01*
X13189229Y-13841031D02*
X13179705Y-13831508D01*
X13179705Y-13831508D02*
X13160658Y-13821984D01*
X13160658Y-13821984D02*
X13122562Y-13821984D01*
X13122562Y-13821984D02*
X13103515Y-13831508D01*
X13103515Y-13831508D02*
X13093991Y-13841031D01*
X13093991Y-13841031D02*
X13084467Y-13860079D01*
X13084467Y-13860079D02*
X13084467Y-13907698D01*
X13084467Y-13907698D02*
X13093991Y-13926746D01*
X13093991Y-13926746D02*
X13103515Y-13936269D01*
X13103515Y-13936269D02*
X13122562Y-13945793D01*
X13122562Y-13945793D02*
X13160658Y-13945793D01*
X13160658Y-13945793D02*
X13179705Y-13936269D01*
X13179705Y-13936269D02*
X13189229Y-13926746D01*
X13189229Y-13926746D02*
X13198753Y-13907698D01*
X13379705Y-13821984D02*
X13284467Y-13821984D01*
X13284467Y-13821984D02*
X13274943Y-13917222D01*
X13274943Y-13917222D02*
X13284467Y-13907698D01*
X13284467Y-13907698D02*
X13303515Y-13898174D01*
X13303515Y-13898174D02*
X13351134Y-13898174D01*
X13351134Y-13898174D02*
X13370182Y-13907698D01*
X13370182Y-13907698D02*
X13379705Y-13917222D01*
X13379705Y-13917222D02*
X13389229Y-13936269D01*
X13389229Y-13936269D02*
X13389229Y-13983888D01*
X13389229Y-13983888D02*
X13379705Y-14002936D01*
X13379705Y-14002936D02*
X13370182Y-14012460D01*
X13370182Y-14012460D02*
X13351134Y-14021984D01*
X13351134Y-14021984D02*
X13303515Y-14021984D01*
X13303515Y-14021984D02*
X13284467Y-14012460D01*
X13284467Y-14012460D02*
X13274943Y-14002936D01*
X13513039Y-13821984D02*
X13532086Y-13821984D01*
X13532086Y-13821984D02*
X13551134Y-13831508D01*
X13551134Y-13831508D02*
X13560658Y-13841031D01*
X13560658Y-13841031D02*
X13570182Y-13860079D01*
X13570182Y-13860079D02*
X13579705Y-13898174D01*
X13579705Y-13898174D02*
X13579705Y-13945793D01*
X13579705Y-13945793D02*
X13570182Y-13983888D01*
X13570182Y-13983888D02*
X13560658Y-14002936D01*
X13560658Y-14002936D02*
X13551134Y-14012460D01*
X13551134Y-14012460D02*
X13532086Y-14021984D01*
X13532086Y-14021984D02*
X13513039Y-14021984D01*
X13513039Y-14021984D02*
X13493991Y-14012460D01*
X13493991Y-14012460D02*
X13484467Y-14002936D01*
X13484467Y-14002936D02*
X13474943Y-13983888D01*
X13474943Y-13983888D02*
X13465420Y-13945793D01*
X13465420Y-13945793D02*
X13465420Y-13898174D01*
X13465420Y-13898174D02*
X13474943Y-13860079D01*
X13474943Y-13860079D02*
X13484467Y-13841031D01*
X13484467Y-13841031D02*
X13493991Y-13831508D01*
X13493991Y-13831508D02*
X13513039Y-13821984D01*
X13665420Y-14021984D02*
X13665420Y-13888650D01*
X13665420Y-13907698D02*
X13674943Y-13898174D01*
X13674943Y-13898174D02*
X13693991Y-13888650D01*
X13693991Y-13888650D02*
X13722563Y-13888650D01*
X13722563Y-13888650D02*
X13741610Y-13898174D01*
X13741610Y-13898174D02*
X13751134Y-13917222D01*
X13751134Y-13917222D02*
X13751134Y-14021984D01*
X13751134Y-13917222D02*
X13760658Y-13898174D01*
X13760658Y-13898174D02*
X13779705Y-13888650D01*
X13779705Y-13888650D02*
X13808277Y-13888650D01*
X13808277Y-13888650D02*
X13827324Y-13898174D01*
X13827324Y-13898174D02*
X13836848Y-13917222D01*
X13836848Y-13917222D02*
X13836848Y-14021984D01*
X13932086Y-14021984D02*
X13932086Y-13888650D01*
X13932086Y-13907698D02*
X13941610Y-13898174D01*
X13941610Y-13898174D02*
X13960658Y-13888650D01*
X13960658Y-13888650D02*
X13989229Y-13888650D01*
X13989229Y-13888650D02*
X14008277Y-13898174D01*
X14008277Y-13898174D02*
X14017801Y-13917222D01*
X14017801Y-13917222D02*
X14017801Y-14021984D01*
X14017801Y-13917222D02*
X14027324Y-13898174D01*
X14027324Y-13898174D02*
X14046372Y-13888650D01*
X14046372Y-13888650D02*
X14074943Y-13888650D01*
X14074943Y-13888650D02*
X14093991Y-13898174D01*
X14093991Y-13898174D02*
X14103515Y-13917222D01*
X14103515Y-13917222D02*
X14103515Y-14021984D01*
X14493991Y-13812460D02*
X14322563Y-14069603D01*
X14751134Y-13821984D02*
X14770182Y-13821984D01*
X14770182Y-13821984D02*
X14789229Y-13831508D01*
X14789229Y-13831508D02*
X14798753Y-13841031D01*
X14798753Y-13841031D02*
X14808277Y-13860079D01*
X14808277Y-13860079D02*
X14817801Y-13898174D01*
X14817801Y-13898174D02*
X14817801Y-13945793D01*
X14817801Y-13945793D02*
X14808277Y-13983888D01*
X14808277Y-13983888D02*
X14798753Y-14002936D01*
X14798753Y-14002936D02*
X14789229Y-14012460D01*
X14789229Y-14012460D02*
X14770182Y-14021984D01*
X14770182Y-14021984D02*
X14751134Y-14021984D01*
X14751134Y-14021984D02*
X14732086Y-14012460D01*
X14732086Y-14012460D02*
X14722563Y-14002936D01*
X14722563Y-14002936D02*
X14713039Y-13983888D01*
X14713039Y-13983888D02*
X14703515Y-13945793D01*
X14703515Y-13945793D02*
X14703515Y-13898174D01*
X14703515Y-13898174D02*
X14713039Y-13860079D01*
X14713039Y-13860079D02*
X14722563Y-13841031D01*
X14722563Y-13841031D02*
X14732086Y-13831508D01*
X14732086Y-13831508D02*
X14751134Y-13821984D01*
X14903515Y-14002936D02*
X14913039Y-14012460D01*
X14913039Y-14012460D02*
X14903515Y-14021984D01*
X14903515Y-14021984D02*
X14893991Y-14012460D01*
X14893991Y-14012460D02*
X14903515Y-14002936D01*
X14903515Y-14002936D02*
X14903515Y-14021984D01*
X15036848Y-13821984D02*
X15055896Y-13821984D01*
X15055896Y-13821984D02*
X15074944Y-13831508D01*
X15074944Y-13831508D02*
X15084467Y-13841031D01*
X15084467Y-13841031D02*
X15093991Y-13860079D01*
X15093991Y-13860079D02*
X15103515Y-13898174D01*
X15103515Y-13898174D02*
X15103515Y-13945793D01*
X15103515Y-13945793D02*
X15093991Y-13983888D01*
X15093991Y-13983888D02*
X15084467Y-14002936D01*
X15084467Y-14002936D02*
X15074944Y-14012460D01*
X15074944Y-14012460D02*
X15055896Y-14021984D01*
X15055896Y-14021984D02*
X15036848Y-14021984D01*
X15036848Y-14021984D02*
X15017801Y-14012460D01*
X15017801Y-14012460D02*
X15008277Y-14002936D01*
X15008277Y-14002936D02*
X14998753Y-13983888D01*
X14998753Y-13983888D02*
X14989229Y-13945793D01*
X14989229Y-13945793D02*
X14989229Y-13898174D01*
X14989229Y-13898174D02*
X14998753Y-13860079D01*
X14998753Y-13860079D02*
X15008277Y-13841031D01*
X15008277Y-13841031D02*
X15017801Y-13831508D01*
X15017801Y-13831508D02*
X15036848Y-13821984D01*
X15170182Y-13821984D02*
X15293991Y-13821984D01*
X15293991Y-13821984D02*
X15227325Y-13898174D01*
X15227325Y-13898174D02*
X15255896Y-13898174D01*
X15255896Y-13898174D02*
X15274944Y-13907698D01*
X15274944Y-13907698D02*
X15284467Y-13917222D01*
X15284467Y-13917222D02*
X15293991Y-13936269D01*
X15293991Y-13936269D02*
X15293991Y-13983888D01*
X15293991Y-13983888D02*
X15284467Y-14002936D01*
X15284467Y-14002936D02*
X15274944Y-14012460D01*
X15274944Y-14012460D02*
X15255896Y-14021984D01*
X15255896Y-14021984D02*
X15198753Y-14021984D01*
X15198753Y-14021984D02*
X15179706Y-14012460D01*
X15179706Y-14012460D02*
X15170182Y-14002936D01*
X15360658Y-13821984D02*
X15493991Y-13821984D01*
X15493991Y-13821984D02*
X15408277Y-14021984D01*
X15655896Y-13888650D02*
X15655896Y-14021984D01*
X15608277Y-13812460D02*
X15560658Y-13955317D01*
X15560658Y-13955317D02*
X15684467Y-13955317D01*
X15751134Y-13821984D02*
X15751134Y-13860079D01*
X15827325Y-13821984D02*
X15827325Y-13860079D01*
X16122563Y-14098174D02*
X16113039Y-14088650D01*
X16113039Y-14088650D02*
X16093991Y-14060079D01*
X16093991Y-14060079D02*
X16084468Y-14041031D01*
X16084468Y-14041031D02*
X16074944Y-14012460D01*
X16074944Y-14012460D02*
X16065420Y-13964841D01*
X16065420Y-13964841D02*
X16065420Y-13926746D01*
X16065420Y-13926746D02*
X16074944Y-13879127D01*
X16074944Y-13879127D02*
X16084468Y-13850555D01*
X16084468Y-13850555D02*
X16093991Y-13831508D01*
X16093991Y-13831508D02*
X16113039Y-13802936D01*
X16113039Y-13802936D02*
X16122563Y-13793412D01*
X16303515Y-14021984D02*
X16189229Y-14021984D01*
X16246372Y-14021984D02*
X16246372Y-13821984D01*
X16246372Y-13821984D02*
X16227325Y-13850555D01*
X16227325Y-13850555D02*
X16208277Y-13869603D01*
X16208277Y-13869603D02*
X16189229Y-13879127D01*
X16417801Y-13907698D02*
X16398753Y-13898174D01*
X16398753Y-13898174D02*
X16389229Y-13888650D01*
X16389229Y-13888650D02*
X16379706Y-13869603D01*
X16379706Y-13869603D02*
X16379706Y-13860079D01*
X16379706Y-13860079D02*
X16389229Y-13841031D01*
X16389229Y-13841031D02*
X16398753Y-13831508D01*
X16398753Y-13831508D02*
X16417801Y-13821984D01*
X16417801Y-13821984D02*
X16455896Y-13821984D01*
X16455896Y-13821984D02*
X16474944Y-13831508D01*
X16474944Y-13831508D02*
X16484468Y-13841031D01*
X16484468Y-13841031D02*
X16493991Y-13860079D01*
X16493991Y-13860079D02*
X16493991Y-13869603D01*
X16493991Y-13869603D02*
X16484468Y-13888650D01*
X16484468Y-13888650D02*
X16474944Y-13898174D01*
X16474944Y-13898174D02*
X16455896Y-13907698D01*
X16455896Y-13907698D02*
X16417801Y-13907698D01*
X16417801Y-13907698D02*
X16398753Y-13917222D01*
X16398753Y-13917222D02*
X16389229Y-13926746D01*
X16389229Y-13926746D02*
X16379706Y-13945793D01*
X16379706Y-13945793D02*
X16379706Y-13983888D01*
X16379706Y-13983888D02*
X16389229Y-14002936D01*
X16389229Y-14002936D02*
X16398753Y-14012460D01*
X16398753Y-14012460D02*
X16417801Y-14021984D01*
X16417801Y-14021984D02*
X16455896Y-14021984D01*
X16455896Y-14021984D02*
X16474944Y-14012460D01*
X16474944Y-14012460D02*
X16484468Y-14002936D01*
X16484468Y-14002936D02*
X16493991Y-13983888D01*
X16493991Y-13983888D02*
X16493991Y-13945793D01*
X16493991Y-13945793D02*
X16484468Y-13926746D01*
X16484468Y-13926746D02*
X16474944Y-13917222D01*
X16474944Y-13917222D02*
X16455896Y-13907698D01*
X16732087Y-14021984D02*
X16732087Y-13821984D01*
X16817801Y-14021984D02*
X16817801Y-13917222D01*
X16817801Y-13917222D02*
X16808277Y-13898174D01*
X16808277Y-13898174D02*
X16789230Y-13888650D01*
X16789230Y-13888650D02*
X16760658Y-13888650D01*
X16760658Y-13888650D02*
X16741610Y-13898174D01*
X16741610Y-13898174D02*
X16732087Y-13907698D01*
X16941611Y-14021984D02*
X16922563Y-14012460D01*
X16922563Y-14012460D02*
X16913039Y-14002936D01*
X16913039Y-14002936D02*
X16903515Y-13983888D01*
X16903515Y-13983888D02*
X16903515Y-13926746D01*
X16903515Y-13926746D02*
X16913039Y-13907698D01*
X16913039Y-13907698D02*
X16922563Y-13898174D01*
X16922563Y-13898174D02*
X16941611Y-13888650D01*
X16941611Y-13888650D02*
X16970182Y-13888650D01*
X16970182Y-13888650D02*
X16989230Y-13898174D01*
X16989230Y-13898174D02*
X16998753Y-13907698D01*
X16998753Y-13907698D02*
X17008277Y-13926746D01*
X17008277Y-13926746D02*
X17008277Y-13983888D01*
X17008277Y-13983888D02*
X16998753Y-14002936D01*
X16998753Y-14002936D02*
X16989230Y-14012460D01*
X16989230Y-14012460D02*
X16970182Y-14021984D01*
X16970182Y-14021984D02*
X16941611Y-14021984D01*
X17122563Y-14021984D02*
X17103515Y-14012460D01*
X17103515Y-14012460D02*
X17093992Y-13993412D01*
X17093992Y-13993412D02*
X17093992Y-13821984D01*
X17274944Y-14012460D02*
X17255896Y-14021984D01*
X17255896Y-14021984D02*
X17217801Y-14021984D01*
X17217801Y-14021984D02*
X17198753Y-14012460D01*
X17198753Y-14012460D02*
X17189230Y-13993412D01*
X17189230Y-13993412D02*
X17189230Y-13917222D01*
X17189230Y-13917222D02*
X17198753Y-13898174D01*
X17198753Y-13898174D02*
X17217801Y-13888650D01*
X17217801Y-13888650D02*
X17255896Y-13888650D01*
X17255896Y-13888650D02*
X17274944Y-13898174D01*
X17274944Y-13898174D02*
X17284468Y-13917222D01*
X17284468Y-13917222D02*
X17284468Y-13936269D01*
X17284468Y-13936269D02*
X17189230Y-13955317D01*
X17360658Y-14012460D02*
X17379706Y-14021984D01*
X17379706Y-14021984D02*
X17417801Y-14021984D01*
X17417801Y-14021984D02*
X17436849Y-14012460D01*
X17436849Y-14012460D02*
X17446373Y-13993412D01*
X17446373Y-13993412D02*
X17446373Y-13983888D01*
X17446373Y-13983888D02*
X17436849Y-13964841D01*
X17436849Y-13964841D02*
X17417801Y-13955317D01*
X17417801Y-13955317D02*
X17389230Y-13955317D01*
X17389230Y-13955317D02*
X17370182Y-13945793D01*
X17370182Y-13945793D02*
X17360658Y-13926746D01*
X17360658Y-13926746D02*
X17360658Y-13917222D01*
X17360658Y-13917222D02*
X17370182Y-13898174D01*
X17370182Y-13898174D02*
X17389230Y-13888650D01*
X17389230Y-13888650D02*
X17417801Y-13888650D01*
X17417801Y-13888650D02*
X17436849Y-13898174D01*
X17513039Y-14098174D02*
X17522563Y-14088650D01*
X17522563Y-14088650D02*
X17541611Y-14060079D01*
X17541611Y-14060079D02*
X17551134Y-14041031D01*
X17551134Y-14041031D02*
X17560658Y-14012460D01*
X17560658Y-14012460D02*
X17570182Y-13964841D01*
X17570182Y-13964841D02*
X17570182Y-13926746D01*
X17570182Y-13926746D02*
X17560658Y-13879127D01*
X17560658Y-13879127D02*
X17551134Y-13850555D01*
X17551134Y-13850555D02*
X17541611Y-13831508D01*
X17541611Y-13831508D02*
X17522563Y-13802936D01*
X17522563Y-13802936D02*
X17513039Y-13793412D01*
D12*
X12532856Y-14229856D02*
X12532856Y-14159144D01*
X12462144Y-14159144D01*
X12462144Y-14229856D01*
X12532856Y-14229856D01*
D11*
X12913039Y-14285984D02*
X12798753Y-14285984D01*
X12855896Y-14285984D02*
X12855896Y-14085984D01*
X12855896Y-14085984D02*
X12836848Y-14114555D01*
X12836848Y-14114555D02*
X12817801Y-14133603D01*
X12817801Y-14133603D02*
X12798753Y-14143127D01*
X12998753Y-14266936D02*
X13008277Y-14276460D01*
X13008277Y-14276460D02*
X12998753Y-14285984D01*
X12998753Y-14285984D02*
X12989229Y-14276460D01*
X12989229Y-14276460D02*
X12998753Y-14266936D01*
X12998753Y-14266936D02*
X12998753Y-14285984D01*
X13132086Y-14085984D02*
X13151134Y-14085984D01*
X13151134Y-14085984D02*
X13170182Y-14095508D01*
X13170182Y-14095508D02*
X13179705Y-14105031D01*
X13179705Y-14105031D02*
X13189229Y-14124079D01*
X13189229Y-14124079D02*
X13198753Y-14162174D01*
X13198753Y-14162174D02*
X13198753Y-14209793D01*
X13198753Y-14209793D02*
X13189229Y-14247888D01*
X13189229Y-14247888D02*
X13179705Y-14266936D01*
X13179705Y-14266936D02*
X13170182Y-14276460D01*
X13170182Y-14276460D02*
X13151134Y-14285984D01*
X13151134Y-14285984D02*
X13132086Y-14285984D01*
X13132086Y-14285984D02*
X13113039Y-14276460D01*
X13113039Y-14276460D02*
X13103515Y-14266936D01*
X13103515Y-14266936D02*
X13093991Y-14247888D01*
X13093991Y-14247888D02*
X13084467Y-14209793D01*
X13084467Y-14209793D02*
X13084467Y-14162174D01*
X13084467Y-14162174D02*
X13093991Y-14124079D01*
X13093991Y-14124079D02*
X13103515Y-14105031D01*
X13103515Y-14105031D02*
X13113039Y-14095508D01*
X13113039Y-14095508D02*
X13132086Y-14085984D01*
X13322562Y-14085984D02*
X13341610Y-14085984D01*
X13341610Y-14085984D02*
X13360658Y-14095508D01*
X13360658Y-14095508D02*
X13370182Y-14105031D01*
X13370182Y-14105031D02*
X13379705Y-14124079D01*
X13379705Y-14124079D02*
X13389229Y-14162174D01*
X13389229Y-14162174D02*
X13389229Y-14209793D01*
X13389229Y-14209793D02*
X13379705Y-14247888D01*
X13379705Y-14247888D02*
X13370182Y-14266936D01*
X13370182Y-14266936D02*
X13360658Y-14276460D01*
X13360658Y-14276460D02*
X13341610Y-14285984D01*
X13341610Y-14285984D02*
X13322562Y-14285984D01*
X13322562Y-14285984D02*
X13303515Y-14276460D01*
X13303515Y-14276460D02*
X13293991Y-14266936D01*
X13293991Y-14266936D02*
X13284467Y-14247888D01*
X13284467Y-14247888D02*
X13274943Y-14209793D01*
X13274943Y-14209793D02*
X13274943Y-14162174D01*
X13274943Y-14162174D02*
X13284467Y-14124079D01*
X13284467Y-14124079D02*
X13293991Y-14105031D01*
X13293991Y-14105031D02*
X13303515Y-14095508D01*
X13303515Y-14095508D02*
X13322562Y-14085984D01*
X13513039Y-14085984D02*
X13532086Y-14085984D01*
X13532086Y-14085984D02*
X13551134Y-14095508D01*
X13551134Y-14095508D02*
X13560658Y-14105031D01*
X13560658Y-14105031D02*
X13570182Y-14124079D01*
X13570182Y-14124079D02*
X13579705Y-14162174D01*
X13579705Y-14162174D02*
X13579705Y-14209793D01*
X13579705Y-14209793D02*
X13570182Y-14247888D01*
X13570182Y-14247888D02*
X13560658Y-14266936D01*
X13560658Y-14266936D02*
X13551134Y-14276460D01*
X13551134Y-14276460D02*
X13532086Y-14285984D01*
X13532086Y-14285984D02*
X13513039Y-14285984D01*
X13513039Y-14285984D02*
X13493991Y-14276460D01*
X13493991Y-14276460D02*
X13484467Y-14266936D01*
X13484467Y-14266936D02*
X13474943Y-14247888D01*
X13474943Y-14247888D02*
X13465420Y-14209793D01*
X13465420Y-14209793D02*
X13465420Y-14162174D01*
X13465420Y-14162174D02*
X13474943Y-14124079D01*
X13474943Y-14124079D02*
X13484467Y-14105031D01*
X13484467Y-14105031D02*
X13493991Y-14095508D01*
X13493991Y-14095508D02*
X13513039Y-14085984D01*
X13665420Y-14285984D02*
X13665420Y-14152650D01*
X13665420Y-14171698D02*
X13674943Y-14162174D01*
X13674943Y-14162174D02*
X13693991Y-14152650D01*
X13693991Y-14152650D02*
X13722563Y-14152650D01*
X13722563Y-14152650D02*
X13741610Y-14162174D01*
X13741610Y-14162174D02*
X13751134Y-14181222D01*
X13751134Y-14181222D02*
X13751134Y-14285984D01*
X13751134Y-14181222D02*
X13760658Y-14162174D01*
X13760658Y-14162174D02*
X13779705Y-14152650D01*
X13779705Y-14152650D02*
X13808277Y-14152650D01*
X13808277Y-14152650D02*
X13827324Y-14162174D01*
X13827324Y-14162174D02*
X13836848Y-14181222D01*
X13836848Y-14181222D02*
X13836848Y-14285984D01*
X13932086Y-14285984D02*
X13932086Y-14152650D01*
X13932086Y-14171698D02*
X13941610Y-14162174D01*
X13941610Y-14162174D02*
X13960658Y-14152650D01*
X13960658Y-14152650D02*
X13989229Y-14152650D01*
X13989229Y-14152650D02*
X14008277Y-14162174D01*
X14008277Y-14162174D02*
X14017801Y-14181222D01*
X14017801Y-14181222D02*
X14017801Y-14285984D01*
X14017801Y-14181222D02*
X14027324Y-14162174D01*
X14027324Y-14162174D02*
X14046372Y-14152650D01*
X14046372Y-14152650D02*
X14074943Y-14152650D01*
X14074943Y-14152650D02*
X14093991Y-14162174D01*
X14093991Y-14162174D02*
X14103515Y-14181222D01*
X14103515Y-14181222D02*
X14103515Y-14285984D01*
X14493991Y-14076460D02*
X14322563Y-14333603D01*
X14751134Y-14085984D02*
X14770182Y-14085984D01*
X14770182Y-14085984D02*
X14789229Y-14095508D01*
X14789229Y-14095508D02*
X14798753Y-14105031D01*
X14798753Y-14105031D02*
X14808277Y-14124079D01*
X14808277Y-14124079D02*
X14817801Y-14162174D01*
X14817801Y-14162174D02*
X14817801Y-14209793D01*
X14817801Y-14209793D02*
X14808277Y-14247888D01*
X14808277Y-14247888D02*
X14798753Y-14266936D01*
X14798753Y-14266936D02*
X14789229Y-14276460D01*
X14789229Y-14276460D02*
X14770182Y-14285984D01*
X14770182Y-14285984D02*
X14751134Y-14285984D01*
X14751134Y-14285984D02*
X14732086Y-14276460D01*
X14732086Y-14276460D02*
X14722563Y-14266936D01*
X14722563Y-14266936D02*
X14713039Y-14247888D01*
X14713039Y-14247888D02*
X14703515Y-14209793D01*
X14703515Y-14209793D02*
X14703515Y-14162174D01*
X14703515Y-14162174D02*
X14713039Y-14124079D01*
X14713039Y-14124079D02*
X14722563Y-14105031D01*
X14722563Y-14105031D02*
X14732086Y-14095508D01*
X14732086Y-14095508D02*
X14751134Y-14085984D01*
X14903515Y-14266936D02*
X14913039Y-14276460D01*
X14913039Y-14276460D02*
X14903515Y-14285984D01*
X14903515Y-14285984D02*
X14893991Y-14276460D01*
X14893991Y-14276460D02*
X14903515Y-14266936D01*
X14903515Y-14266936D02*
X14903515Y-14285984D01*
X15036848Y-14085984D02*
X15055896Y-14085984D01*
X15055896Y-14085984D02*
X15074944Y-14095508D01*
X15074944Y-14095508D02*
X15084467Y-14105031D01*
X15084467Y-14105031D02*
X15093991Y-14124079D01*
X15093991Y-14124079D02*
X15103515Y-14162174D01*
X15103515Y-14162174D02*
X15103515Y-14209793D01*
X15103515Y-14209793D02*
X15093991Y-14247888D01*
X15093991Y-14247888D02*
X15084467Y-14266936D01*
X15084467Y-14266936D02*
X15074944Y-14276460D01*
X15074944Y-14276460D02*
X15055896Y-14285984D01*
X15055896Y-14285984D02*
X15036848Y-14285984D01*
X15036848Y-14285984D02*
X15017801Y-14276460D01*
X15017801Y-14276460D02*
X15008277Y-14266936D01*
X15008277Y-14266936D02*
X14998753Y-14247888D01*
X14998753Y-14247888D02*
X14989229Y-14209793D01*
X14989229Y-14209793D02*
X14989229Y-14162174D01*
X14989229Y-14162174D02*
X14998753Y-14124079D01*
X14998753Y-14124079D02*
X15008277Y-14105031D01*
X15008277Y-14105031D02*
X15017801Y-14095508D01*
X15017801Y-14095508D02*
X15036848Y-14085984D01*
X15170182Y-14085984D02*
X15293991Y-14085984D01*
X15293991Y-14085984D02*
X15227325Y-14162174D01*
X15227325Y-14162174D02*
X15255896Y-14162174D01*
X15255896Y-14162174D02*
X15274944Y-14171698D01*
X15274944Y-14171698D02*
X15284467Y-14181222D01*
X15284467Y-14181222D02*
X15293991Y-14200269D01*
X15293991Y-14200269D02*
X15293991Y-14247888D01*
X15293991Y-14247888D02*
X15284467Y-14266936D01*
X15284467Y-14266936D02*
X15274944Y-14276460D01*
X15274944Y-14276460D02*
X15255896Y-14285984D01*
X15255896Y-14285984D02*
X15198753Y-14285984D01*
X15198753Y-14285984D02*
X15179706Y-14276460D01*
X15179706Y-14276460D02*
X15170182Y-14266936D01*
X15389229Y-14285984D02*
X15427325Y-14285984D01*
X15427325Y-14285984D02*
X15446372Y-14276460D01*
X15446372Y-14276460D02*
X15455896Y-14266936D01*
X15455896Y-14266936D02*
X15474944Y-14238365D01*
X15474944Y-14238365D02*
X15484467Y-14200269D01*
X15484467Y-14200269D02*
X15484467Y-14124079D01*
X15484467Y-14124079D02*
X15474944Y-14105031D01*
X15474944Y-14105031D02*
X15465420Y-14095508D01*
X15465420Y-14095508D02*
X15446372Y-14085984D01*
X15446372Y-14085984D02*
X15408277Y-14085984D01*
X15408277Y-14085984D02*
X15389229Y-14095508D01*
X15389229Y-14095508D02*
X15379706Y-14105031D01*
X15379706Y-14105031D02*
X15370182Y-14124079D01*
X15370182Y-14124079D02*
X15370182Y-14171698D01*
X15370182Y-14171698D02*
X15379706Y-14190746D01*
X15379706Y-14190746D02*
X15389229Y-14200269D01*
X15389229Y-14200269D02*
X15408277Y-14209793D01*
X15408277Y-14209793D02*
X15446372Y-14209793D01*
X15446372Y-14209793D02*
X15465420Y-14200269D01*
X15465420Y-14200269D02*
X15474944Y-14190746D01*
X15474944Y-14190746D02*
X15484467Y-14171698D01*
X15655896Y-14152650D02*
X15655896Y-14285984D01*
X15608277Y-14076460D02*
X15560658Y-14219317D01*
X15560658Y-14219317D02*
X15684467Y-14219317D01*
X15751134Y-14085984D02*
X15751134Y-14124079D01*
X15827325Y-14085984D02*
X15827325Y-14124079D01*
X16122563Y-14362174D02*
X16113039Y-14352650D01*
X16113039Y-14352650D02*
X16093991Y-14324079D01*
X16093991Y-14324079D02*
X16084468Y-14305031D01*
X16084468Y-14305031D02*
X16074944Y-14276460D01*
X16074944Y-14276460D02*
X16065420Y-14228841D01*
X16065420Y-14228841D02*
X16065420Y-14190746D01*
X16065420Y-14190746D02*
X16074944Y-14143127D01*
X16074944Y-14143127D02*
X16084468Y-14114555D01*
X16084468Y-14114555D02*
X16093991Y-14095508D01*
X16093991Y-14095508D02*
X16113039Y-14066936D01*
X16113039Y-14066936D02*
X16122563Y-14057412D01*
X16293991Y-14085984D02*
X16198753Y-14085984D01*
X16198753Y-14085984D02*
X16189229Y-14181222D01*
X16189229Y-14181222D02*
X16198753Y-14171698D01*
X16198753Y-14171698D02*
X16217801Y-14162174D01*
X16217801Y-14162174D02*
X16265420Y-14162174D01*
X16265420Y-14162174D02*
X16284468Y-14171698D01*
X16284468Y-14171698D02*
X16293991Y-14181222D01*
X16293991Y-14181222D02*
X16303515Y-14200269D01*
X16303515Y-14200269D02*
X16303515Y-14247888D01*
X16303515Y-14247888D02*
X16293991Y-14266936D01*
X16293991Y-14266936D02*
X16284468Y-14276460D01*
X16284468Y-14276460D02*
X16265420Y-14285984D01*
X16265420Y-14285984D02*
X16217801Y-14285984D01*
X16217801Y-14285984D02*
X16198753Y-14276460D01*
X16198753Y-14276460D02*
X16189229Y-14266936D01*
X16379706Y-14105031D02*
X16389229Y-14095508D01*
X16389229Y-14095508D02*
X16408277Y-14085984D01*
X16408277Y-14085984D02*
X16455896Y-14085984D01*
X16455896Y-14085984D02*
X16474944Y-14095508D01*
X16474944Y-14095508D02*
X16484468Y-14105031D01*
X16484468Y-14105031D02*
X16493991Y-14124079D01*
X16493991Y-14124079D02*
X16493991Y-14143127D01*
X16493991Y-14143127D02*
X16484468Y-14171698D01*
X16484468Y-14171698D02*
X16370182Y-14285984D01*
X16370182Y-14285984D02*
X16493991Y-14285984D01*
X16732087Y-14285984D02*
X16732087Y-14085984D01*
X16817801Y-14285984D02*
X16817801Y-14181222D01*
X16817801Y-14181222D02*
X16808277Y-14162174D01*
X16808277Y-14162174D02*
X16789230Y-14152650D01*
X16789230Y-14152650D02*
X16760658Y-14152650D01*
X16760658Y-14152650D02*
X16741610Y-14162174D01*
X16741610Y-14162174D02*
X16732087Y-14171698D01*
X16941611Y-14285984D02*
X16922563Y-14276460D01*
X16922563Y-14276460D02*
X16913039Y-14266936D01*
X16913039Y-14266936D02*
X16903515Y-14247888D01*
X16903515Y-14247888D02*
X16903515Y-14190746D01*
X16903515Y-14190746D02*
X16913039Y-14171698D01*
X16913039Y-14171698D02*
X16922563Y-14162174D01*
X16922563Y-14162174D02*
X16941611Y-14152650D01*
X16941611Y-14152650D02*
X16970182Y-14152650D01*
X16970182Y-14152650D02*
X16989230Y-14162174D01*
X16989230Y-14162174D02*
X16998753Y-14171698D01*
X16998753Y-14171698D02*
X17008277Y-14190746D01*
X17008277Y-14190746D02*
X17008277Y-14247888D01*
X17008277Y-14247888D02*
X16998753Y-14266936D01*
X16998753Y-14266936D02*
X16989230Y-14276460D01*
X16989230Y-14276460D02*
X16970182Y-14285984D01*
X16970182Y-14285984D02*
X16941611Y-14285984D01*
X17122563Y-14285984D02*
X17103515Y-14276460D01*
X17103515Y-14276460D02*
X17093992Y-14257412D01*
X17093992Y-14257412D02*
X17093992Y-14085984D01*
X17274944Y-14276460D02*
X17255896Y-14285984D01*
X17255896Y-14285984D02*
X17217801Y-14285984D01*
X17217801Y-14285984D02*
X17198753Y-14276460D01*
X17198753Y-14276460D02*
X17189230Y-14257412D01*
X17189230Y-14257412D02*
X17189230Y-14181222D01*
X17189230Y-14181222D02*
X17198753Y-14162174D01*
X17198753Y-14162174D02*
X17217801Y-14152650D01*
X17217801Y-14152650D02*
X17255896Y-14152650D01*
X17255896Y-14152650D02*
X17274944Y-14162174D01*
X17274944Y-14162174D02*
X17284468Y-14181222D01*
X17284468Y-14181222D02*
X17284468Y-14200269D01*
X17284468Y-14200269D02*
X17189230Y-14219317D01*
X17360658Y-14276460D02*
X17379706Y-14285984D01*
X17379706Y-14285984D02*
X17417801Y-14285984D01*
X17417801Y-14285984D02*
X17436849Y-14276460D01*
X17436849Y-14276460D02*
X17446373Y-14257412D01*
X17446373Y-14257412D02*
X17446373Y-14247888D01*
X17446373Y-14247888D02*
X17436849Y-14228841D01*
X17436849Y-14228841D02*
X17417801Y-14219317D01*
X17417801Y-14219317D02*
X17389230Y-14219317D01*
X17389230Y-14219317D02*
X17370182Y-14209793D01*
X17370182Y-14209793D02*
X17360658Y-14190746D01*
X17360658Y-14190746D02*
X17360658Y-14181222D01*
X17360658Y-14181222D02*
X17370182Y-14162174D01*
X17370182Y-14162174D02*
X17389230Y-14152650D01*
X17389230Y-14152650D02*
X17417801Y-14152650D01*
X17417801Y-14152650D02*
X17436849Y-14162174D01*
X17513039Y-14362174D02*
X17522563Y-14352650D01*
X17522563Y-14352650D02*
X17541611Y-14324079D01*
X17541611Y-14324079D02*
X17551134Y-14305031D01*
X17551134Y-14305031D02*
X17560658Y-14276460D01*
X17560658Y-14276460D02*
X17570182Y-14228841D01*
X17570182Y-14228841D02*
X17570182Y-14190746D01*
X17570182Y-14190746D02*
X17560658Y-14143127D01*
X17560658Y-14143127D02*
X17551134Y-14114555D01*
X17551134Y-14114555D02*
X17541611Y-14095508D01*
X17541611Y-14095508D02*
X17522563Y-14066936D01*
X17522563Y-14066936D02*
X17513039Y-14057412D01*
M02*
