%TF.GenerationSoftware,KiCad,Pcbnew,9.0.3*%
%TF.CreationDate,2025-07-23T14:16:35+06:00*%
%TF.ProjectId,LFRCircuit,4c465243-6972-4637-9569-742e6b696361,rev?*%
%TF.SameCoordinates,Original*%
%TF.FileFunction,Legend,Top*%
%TF.FilePolarity,Positive*%
%FSLAX46Y46*%
G04 Gerber Fmt 4.6, Leading zero omitted, Abs format (unit mm)*
G04 Created by KiCad (PCBNEW 9.0.3) date 2025-07-23 14:16:35*
%MOMM*%
%LPD*%
G01*
G04 APERTURE LIST*
%ADD10C,0.400000*%
%ADD11C,0.150000*%
%ADD12C,0.120000*%
G04 APERTURE END LIST*
D10*
X176703633Y-90234438D02*
X177370299Y-92234438D01*
X177370299Y-92234438D02*
X178036966Y-90234438D01*
X178703633Y-91186819D02*
X179370300Y-91186819D01*
X179656014Y-92234438D02*
X178703633Y-92234438D01*
X178703633Y-92234438D02*
X178703633Y-90234438D01*
X178703633Y-90234438D02*
X179656014Y-90234438D01*
X180513157Y-92234438D02*
X180513157Y-90234438D01*
X180513157Y-90234438D02*
X181656014Y-92234438D01*
X181656014Y-92234438D02*
X181656014Y-90234438D01*
X183656014Y-90329676D02*
X183465538Y-90234438D01*
X183465538Y-90234438D02*
X183179824Y-90234438D01*
X183179824Y-90234438D02*
X182894109Y-90329676D01*
X182894109Y-90329676D02*
X182703633Y-90520152D01*
X182703633Y-90520152D02*
X182608395Y-90710628D01*
X182608395Y-90710628D02*
X182513157Y-91091580D01*
X182513157Y-91091580D02*
X182513157Y-91377295D01*
X182513157Y-91377295D02*
X182608395Y-91758247D01*
X182608395Y-91758247D02*
X182703633Y-91948723D01*
X182703633Y-91948723D02*
X182894109Y-92139200D01*
X182894109Y-92139200D02*
X183179824Y-92234438D01*
X183179824Y-92234438D02*
X183370300Y-92234438D01*
X183370300Y-92234438D02*
X183656014Y-92139200D01*
X183656014Y-92139200D02*
X183751252Y-92043961D01*
X183751252Y-92043961D02*
X183751252Y-91377295D01*
X183751252Y-91377295D02*
X183370300Y-91377295D01*
X184608395Y-91186819D02*
X185275062Y-91186819D01*
X185560776Y-92234438D02*
X184608395Y-92234438D01*
X184608395Y-92234438D02*
X184608395Y-90234438D01*
X184608395Y-90234438D02*
X185560776Y-90234438D01*
X186322681Y-91663009D02*
X187275062Y-91663009D01*
X186132205Y-92234438D02*
X186798871Y-90234438D01*
X186798871Y-90234438D02*
X187465538Y-92234438D01*
X188132205Y-92234438D02*
X188132205Y-90234438D01*
X188132205Y-90234438D02*
X189275062Y-92234438D01*
X189275062Y-92234438D02*
X189275062Y-90234438D01*
X191370300Y-92043961D02*
X191275062Y-92139200D01*
X191275062Y-92139200D02*
X190989348Y-92234438D01*
X190989348Y-92234438D02*
X190798872Y-92234438D01*
X190798872Y-92234438D02*
X190513157Y-92139200D01*
X190513157Y-92139200D02*
X190322681Y-91948723D01*
X190322681Y-91948723D02*
X190227443Y-91758247D01*
X190227443Y-91758247D02*
X190132205Y-91377295D01*
X190132205Y-91377295D02*
X190132205Y-91091580D01*
X190132205Y-91091580D02*
X190227443Y-90710628D01*
X190227443Y-90710628D02*
X190322681Y-90520152D01*
X190322681Y-90520152D02*
X190513157Y-90329676D01*
X190513157Y-90329676D02*
X190798872Y-90234438D01*
X190798872Y-90234438D02*
X190989348Y-90234438D01*
X190989348Y-90234438D02*
X191275062Y-90329676D01*
X191275062Y-90329676D02*
X191370300Y-90424914D01*
X192227443Y-91186819D02*
X192894110Y-91186819D01*
X193179824Y-92234438D02*
X192227443Y-92234438D01*
X192227443Y-92234438D02*
X192227443Y-90234438D01*
X192227443Y-90234438D02*
X193179824Y-90234438D01*
D11*
X170119104Y-110965238D02*
X170119104Y-110489048D01*
X170404819Y-111060476D02*
X169404819Y-110727143D01*
X169404819Y-110727143D02*
X170404819Y-110393810D01*
X170404819Y-110060476D02*
X169738152Y-110060476D01*
X169928628Y-110060476D02*
X169833390Y-110012857D01*
X169833390Y-110012857D02*
X169785771Y-109965238D01*
X169785771Y-109965238D02*
X169738152Y-109870000D01*
X169738152Y-109870000D02*
X169738152Y-109774762D01*
X170404819Y-109012857D02*
X169404819Y-109012857D01*
X170357200Y-109012857D02*
X170404819Y-109108095D01*
X170404819Y-109108095D02*
X170404819Y-109298571D01*
X170404819Y-109298571D02*
X170357200Y-109393809D01*
X170357200Y-109393809D02*
X170309580Y-109441428D01*
X170309580Y-109441428D02*
X170214342Y-109489047D01*
X170214342Y-109489047D02*
X169928628Y-109489047D01*
X169928628Y-109489047D02*
X169833390Y-109441428D01*
X169833390Y-109441428D02*
X169785771Y-109393809D01*
X169785771Y-109393809D02*
X169738152Y-109298571D01*
X169738152Y-109298571D02*
X169738152Y-109108095D01*
X169738152Y-109108095D02*
X169785771Y-109012857D01*
X169738152Y-108108095D02*
X170404819Y-108108095D01*
X169738152Y-108536666D02*
X170261961Y-108536666D01*
X170261961Y-108536666D02*
X170357200Y-108489047D01*
X170357200Y-108489047D02*
X170404819Y-108393809D01*
X170404819Y-108393809D02*
X170404819Y-108250952D01*
X170404819Y-108250952D02*
X170357200Y-108155714D01*
X170357200Y-108155714D02*
X170309580Y-108108095D01*
X170404819Y-107631904D02*
X169738152Y-107631904D01*
X169404819Y-107631904D02*
X169452438Y-107679523D01*
X169452438Y-107679523D02*
X169500057Y-107631904D01*
X169500057Y-107631904D02*
X169452438Y-107584285D01*
X169452438Y-107584285D02*
X169404819Y-107631904D01*
X169404819Y-107631904D02*
X169500057Y-107631904D01*
X169738152Y-107155714D02*
X170404819Y-107155714D01*
X169833390Y-107155714D02*
X169785771Y-107108095D01*
X169785771Y-107108095D02*
X169738152Y-107012857D01*
X169738152Y-107012857D02*
X169738152Y-106870000D01*
X169738152Y-106870000D02*
X169785771Y-106774762D01*
X169785771Y-106774762D02*
X169881009Y-106727143D01*
X169881009Y-106727143D02*
X170404819Y-106727143D01*
X170404819Y-106108095D02*
X170357200Y-106203333D01*
X170357200Y-106203333D02*
X170309580Y-106250952D01*
X170309580Y-106250952D02*
X170214342Y-106298571D01*
X170214342Y-106298571D02*
X169928628Y-106298571D01*
X169928628Y-106298571D02*
X169833390Y-106250952D01*
X169833390Y-106250952D02*
X169785771Y-106203333D01*
X169785771Y-106203333D02*
X169738152Y-106108095D01*
X169738152Y-106108095D02*
X169738152Y-105965238D01*
X169738152Y-105965238D02*
X169785771Y-105870000D01*
X169785771Y-105870000D02*
X169833390Y-105822381D01*
X169833390Y-105822381D02*
X169928628Y-105774762D01*
X169928628Y-105774762D02*
X170214342Y-105774762D01*
X170214342Y-105774762D02*
X170309580Y-105822381D01*
X170309580Y-105822381D02*
X170357200Y-105870000D01*
X170357200Y-105870000D02*
X170404819Y-105965238D01*
X170404819Y-105965238D02*
X170404819Y-106108095D01*
X170404819Y-105346190D02*
X169404819Y-105346190D01*
X169404819Y-105346190D02*
X170404819Y-104774762D01*
X170404819Y-104774762D02*
X169404819Y-104774762D01*
X170404819Y-103870000D02*
X169881009Y-103870000D01*
X169881009Y-103870000D02*
X169785771Y-103917619D01*
X169785771Y-103917619D02*
X169738152Y-104012857D01*
X169738152Y-104012857D02*
X169738152Y-104203333D01*
X169738152Y-104203333D02*
X169785771Y-104298571D01*
X170357200Y-103870000D02*
X170404819Y-103965238D01*
X170404819Y-103965238D02*
X170404819Y-104203333D01*
X170404819Y-104203333D02*
X170357200Y-104298571D01*
X170357200Y-104298571D02*
X170261961Y-104346190D01*
X170261961Y-104346190D02*
X170166723Y-104346190D01*
X170166723Y-104346190D02*
X170071485Y-104298571D01*
X170071485Y-104298571D02*
X170023866Y-104203333D01*
X170023866Y-104203333D02*
X170023866Y-103965238D01*
X170023866Y-103965238D02*
X169976247Y-103870000D01*
X169738152Y-103393809D02*
X170404819Y-103393809D01*
X169833390Y-103393809D02*
X169785771Y-103346190D01*
X169785771Y-103346190D02*
X169738152Y-103250952D01*
X169738152Y-103250952D02*
X169738152Y-103108095D01*
X169738152Y-103108095D02*
X169785771Y-103012857D01*
X169785771Y-103012857D02*
X169881009Y-102965238D01*
X169881009Y-102965238D02*
X170404819Y-102965238D01*
X170404819Y-102346190D02*
X170357200Y-102441428D01*
X170357200Y-102441428D02*
X170309580Y-102489047D01*
X170309580Y-102489047D02*
X170214342Y-102536666D01*
X170214342Y-102536666D02*
X169928628Y-102536666D01*
X169928628Y-102536666D02*
X169833390Y-102489047D01*
X169833390Y-102489047D02*
X169785771Y-102441428D01*
X169785771Y-102441428D02*
X169738152Y-102346190D01*
X169738152Y-102346190D02*
X169738152Y-102203333D01*
X169738152Y-102203333D02*
X169785771Y-102108095D01*
X169785771Y-102108095D02*
X169833390Y-102060476D01*
X169833390Y-102060476D02*
X169928628Y-102012857D01*
X169928628Y-102012857D02*
X170214342Y-102012857D01*
X170214342Y-102012857D02*
X170309580Y-102060476D01*
X170309580Y-102060476D02*
X170357200Y-102108095D01*
X170357200Y-102108095D02*
X170404819Y-102203333D01*
X170404819Y-102203333D02*
X170404819Y-102346190D01*
X169404819Y-101727142D02*
X169404819Y-101155714D01*
X170404819Y-101441428D02*
X169404819Y-101441428D01*
X169738152Y-100917618D02*
X170404819Y-100679523D01*
X169738152Y-100441428D02*
X170404819Y-100679523D01*
X170404819Y-100679523D02*
X170642914Y-100774761D01*
X170642914Y-100774761D02*
X170690533Y-100822380D01*
X170690533Y-100822380D02*
X170738152Y-100917618D01*
X169738152Y-100060475D02*
X170738152Y-100060475D01*
X169785771Y-100060475D02*
X169738152Y-99965237D01*
X169738152Y-99965237D02*
X169738152Y-99774761D01*
X169738152Y-99774761D02*
X169785771Y-99679523D01*
X169785771Y-99679523D02*
X169833390Y-99631904D01*
X169833390Y-99631904D02*
X169928628Y-99584285D01*
X169928628Y-99584285D02*
X170214342Y-99584285D01*
X170214342Y-99584285D02*
X170309580Y-99631904D01*
X170309580Y-99631904D02*
X170357200Y-99679523D01*
X170357200Y-99679523D02*
X170404819Y-99774761D01*
X170404819Y-99774761D02*
X170404819Y-99965237D01*
X170404819Y-99965237D02*
X170357200Y-100060475D01*
X170357200Y-98774761D02*
X170404819Y-98869999D01*
X170404819Y-98869999D02*
X170404819Y-99060475D01*
X170404819Y-99060475D02*
X170357200Y-99155713D01*
X170357200Y-99155713D02*
X170261961Y-99203332D01*
X170261961Y-99203332D02*
X169881009Y-99203332D01*
X169881009Y-99203332D02*
X169785771Y-99155713D01*
X169785771Y-99155713D02*
X169738152Y-99060475D01*
X169738152Y-99060475D02*
X169738152Y-98869999D01*
X169738152Y-98869999D02*
X169785771Y-98774761D01*
X169785771Y-98774761D02*
X169881009Y-98727142D01*
X169881009Y-98727142D02*
X169976247Y-98727142D01*
X169976247Y-98727142D02*
X170071485Y-99203332D01*
X170309580Y-97727142D02*
X170357200Y-97774761D01*
X170357200Y-97774761D02*
X170404819Y-97917618D01*
X170404819Y-97917618D02*
X170404819Y-98012856D01*
X170404819Y-98012856D02*
X170357200Y-98155713D01*
X170357200Y-98155713D02*
X170261961Y-98250951D01*
X170261961Y-98250951D02*
X170166723Y-98298570D01*
X170166723Y-98298570D02*
X169976247Y-98346189D01*
X169976247Y-98346189D02*
X169833390Y-98346189D01*
X169833390Y-98346189D02*
X169642914Y-98298570D01*
X169642914Y-98298570D02*
X169547676Y-98250951D01*
X169547676Y-98250951D02*
X169452438Y-98155713D01*
X169452438Y-98155713D02*
X169404819Y-98012856D01*
X169404819Y-98012856D02*
X169404819Y-97917618D01*
X169404819Y-97917618D02*
X169452438Y-97774761D01*
X169452438Y-97774761D02*
X169500057Y-97727142D01*
X170404819Y-96774761D02*
X170404819Y-97346189D01*
X170404819Y-97060475D02*
X169404819Y-97060475D01*
X169404819Y-97060475D02*
X169547676Y-97155713D01*
X169547676Y-97155713D02*
X169642914Y-97250951D01*
X169642914Y-97250951D02*
X169690533Y-97346189D01*
X129855180Y-101727143D02*
X129045657Y-101727143D01*
X129045657Y-101727143D02*
X128950419Y-101774762D01*
X128950419Y-101774762D02*
X128902800Y-101822381D01*
X128902800Y-101822381D02*
X128855180Y-101917619D01*
X128855180Y-101917619D02*
X128855180Y-102108095D01*
X128855180Y-102108095D02*
X128902800Y-102203333D01*
X128902800Y-102203333D02*
X128950419Y-102250952D01*
X128950419Y-102250952D02*
X129045657Y-102298571D01*
X129045657Y-102298571D02*
X129855180Y-102298571D01*
X128902800Y-102727143D02*
X128855180Y-102870000D01*
X128855180Y-102870000D02*
X128855180Y-103108095D01*
X128855180Y-103108095D02*
X128902800Y-103203333D01*
X128902800Y-103203333D02*
X128950419Y-103250952D01*
X128950419Y-103250952D02*
X129045657Y-103298571D01*
X129045657Y-103298571D02*
X129140895Y-103298571D01*
X129140895Y-103298571D02*
X129236133Y-103250952D01*
X129236133Y-103250952D02*
X129283752Y-103203333D01*
X129283752Y-103203333D02*
X129331371Y-103108095D01*
X129331371Y-103108095D02*
X129378990Y-102917619D01*
X129378990Y-102917619D02*
X129426609Y-102822381D01*
X129426609Y-102822381D02*
X129474228Y-102774762D01*
X129474228Y-102774762D02*
X129569466Y-102727143D01*
X129569466Y-102727143D02*
X129664704Y-102727143D01*
X129664704Y-102727143D02*
X129759942Y-102774762D01*
X129759942Y-102774762D02*
X129807561Y-102822381D01*
X129807561Y-102822381D02*
X129855180Y-102917619D01*
X129855180Y-102917619D02*
X129855180Y-103155714D01*
X129855180Y-103155714D02*
X129807561Y-103298571D01*
X129378990Y-104060476D02*
X129331371Y-104203333D01*
X129331371Y-104203333D02*
X129283752Y-104250952D01*
X129283752Y-104250952D02*
X129188514Y-104298571D01*
X129188514Y-104298571D02*
X129045657Y-104298571D01*
X129045657Y-104298571D02*
X128950419Y-104250952D01*
X128950419Y-104250952D02*
X128902800Y-104203333D01*
X128902800Y-104203333D02*
X128855180Y-104108095D01*
X128855180Y-104108095D02*
X128855180Y-103727143D01*
X128855180Y-103727143D02*
X129855180Y-103727143D01*
X129855180Y-103727143D02*
X129855180Y-104060476D01*
X129855180Y-104060476D02*
X129807561Y-104155714D01*
X129807561Y-104155714D02*
X129759942Y-104203333D01*
X129759942Y-104203333D02*
X129664704Y-104250952D01*
X129664704Y-104250952D02*
X129569466Y-104250952D01*
X129569466Y-104250952D02*
X129474228Y-104203333D01*
X129474228Y-104203333D02*
X129426609Y-104155714D01*
X129426609Y-104155714D02*
X129378990Y-104060476D01*
X129378990Y-104060476D02*
X129378990Y-103727143D01*
X128759942Y-104489048D02*
X128759942Y-105250952D01*
X128950419Y-106060476D02*
X128902800Y-106012857D01*
X128902800Y-106012857D02*
X128855180Y-105870000D01*
X128855180Y-105870000D02*
X128855180Y-105774762D01*
X128855180Y-105774762D02*
X128902800Y-105631905D01*
X128902800Y-105631905D02*
X128998038Y-105536667D01*
X128998038Y-105536667D02*
X129093276Y-105489048D01*
X129093276Y-105489048D02*
X129283752Y-105441429D01*
X129283752Y-105441429D02*
X129426609Y-105441429D01*
X129426609Y-105441429D02*
X129617085Y-105489048D01*
X129617085Y-105489048D02*
X129712323Y-105536667D01*
X129712323Y-105536667D02*
X129807561Y-105631905D01*
X129807561Y-105631905D02*
X129855180Y-105774762D01*
X129855180Y-105774762D02*
X129855180Y-105870000D01*
X129855180Y-105870000D02*
X129807561Y-106012857D01*
X129807561Y-106012857D02*
X129759942Y-106060476D01*
X152940475Y-115147200D02*
X153083332Y-115194819D01*
X153083332Y-115194819D02*
X153321427Y-115194819D01*
X153321427Y-115194819D02*
X153416665Y-115147200D01*
X153416665Y-115147200D02*
X153464284Y-115099580D01*
X153464284Y-115099580D02*
X153511903Y-115004342D01*
X153511903Y-115004342D02*
X153511903Y-114909104D01*
X153511903Y-114909104D02*
X153464284Y-114813866D01*
X153464284Y-114813866D02*
X153416665Y-114766247D01*
X153416665Y-114766247D02*
X153321427Y-114718628D01*
X153321427Y-114718628D02*
X153130951Y-114671009D01*
X153130951Y-114671009D02*
X153035713Y-114623390D01*
X153035713Y-114623390D02*
X152988094Y-114575771D01*
X152988094Y-114575771D02*
X152940475Y-114480533D01*
X152940475Y-114480533D02*
X152940475Y-114385295D01*
X152940475Y-114385295D02*
X152988094Y-114290057D01*
X152988094Y-114290057D02*
X153035713Y-114242438D01*
X153035713Y-114242438D02*
X153130951Y-114194819D01*
X153130951Y-114194819D02*
X153369046Y-114194819D01*
X153369046Y-114194819D02*
X153511903Y-114242438D01*
X154083332Y-115194819D02*
X153988094Y-115147200D01*
X153988094Y-115147200D02*
X153940475Y-115099580D01*
X153940475Y-115099580D02*
X153892856Y-115004342D01*
X153892856Y-115004342D02*
X153892856Y-114718628D01*
X153892856Y-114718628D02*
X153940475Y-114623390D01*
X153940475Y-114623390D02*
X153988094Y-114575771D01*
X153988094Y-114575771D02*
X154083332Y-114528152D01*
X154083332Y-114528152D02*
X154226189Y-114528152D01*
X154226189Y-114528152D02*
X154321427Y-114575771D01*
X154321427Y-114575771D02*
X154369046Y-114623390D01*
X154369046Y-114623390D02*
X154416665Y-114718628D01*
X154416665Y-114718628D02*
X154416665Y-115004342D01*
X154416665Y-115004342D02*
X154369046Y-115099580D01*
X154369046Y-115099580D02*
X154321427Y-115147200D01*
X154321427Y-115147200D02*
X154226189Y-115194819D01*
X154226189Y-115194819D02*
X154083332Y-115194819D01*
X154845237Y-114528152D02*
X154845237Y-115194819D01*
X154845237Y-114623390D02*
X154892856Y-114575771D01*
X154892856Y-114575771D02*
X154988094Y-114528152D01*
X154988094Y-114528152D02*
X155130951Y-114528152D01*
X155130951Y-114528152D02*
X155226189Y-114575771D01*
X155226189Y-114575771D02*
X155273808Y-114671009D01*
X155273808Y-114671009D02*
X155273808Y-115194819D01*
X156178570Y-115194819D02*
X156178570Y-114671009D01*
X156178570Y-114671009D02*
X156130951Y-114575771D01*
X156130951Y-114575771D02*
X156035713Y-114528152D01*
X156035713Y-114528152D02*
X155845237Y-114528152D01*
X155845237Y-114528152D02*
X155749999Y-114575771D01*
X156178570Y-115147200D02*
X156083332Y-115194819D01*
X156083332Y-115194819D02*
X155845237Y-115194819D01*
X155845237Y-115194819D02*
X155749999Y-115147200D01*
X155749999Y-115147200D02*
X155702380Y-115051961D01*
X155702380Y-115051961D02*
X155702380Y-114956723D01*
X155702380Y-114956723D02*
X155749999Y-114861485D01*
X155749999Y-114861485D02*
X155845237Y-114813866D01*
X155845237Y-114813866D02*
X156083332Y-114813866D01*
X156083332Y-114813866D02*
X156178570Y-114766247D01*
X156654761Y-115194819D02*
X156654761Y-114528152D01*
X156654761Y-114718628D02*
X156702380Y-114623390D01*
X156702380Y-114623390D02*
X156749999Y-114575771D01*
X156749999Y-114575771D02*
X156845237Y-114528152D01*
X156845237Y-114528152D02*
X156940475Y-114528152D01*
X157226190Y-115147200D02*
X157369047Y-115194819D01*
X157369047Y-115194819D02*
X157607142Y-115194819D01*
X157607142Y-115194819D02*
X157702380Y-115147200D01*
X157702380Y-115147200D02*
X157749999Y-115099580D01*
X157749999Y-115099580D02*
X157797618Y-115004342D01*
X157797618Y-115004342D02*
X157797618Y-114909104D01*
X157797618Y-114909104D02*
X157749999Y-114813866D01*
X157749999Y-114813866D02*
X157702380Y-114766247D01*
X157702380Y-114766247D02*
X157607142Y-114718628D01*
X157607142Y-114718628D02*
X157416666Y-114671009D01*
X157416666Y-114671009D02*
X157321428Y-114623390D01*
X157321428Y-114623390D02*
X157273809Y-114575771D01*
X157273809Y-114575771D02*
X157226190Y-114480533D01*
X157226190Y-114480533D02*
X157226190Y-114385295D01*
X157226190Y-114385295D02*
X157273809Y-114290057D01*
X157273809Y-114290057D02*
X157321428Y-114242438D01*
X157321428Y-114242438D02*
X157416666Y-114194819D01*
X157416666Y-114194819D02*
X157654761Y-114194819D01*
X157654761Y-114194819D02*
X157797618Y-114242438D01*
X158607142Y-115147200D02*
X158511904Y-115194819D01*
X158511904Y-115194819D02*
X158321428Y-115194819D01*
X158321428Y-115194819D02*
X158226190Y-115147200D01*
X158226190Y-115147200D02*
X158178571Y-115051961D01*
X158178571Y-115051961D02*
X158178571Y-114671009D01*
X158178571Y-114671009D02*
X158226190Y-114575771D01*
X158226190Y-114575771D02*
X158321428Y-114528152D01*
X158321428Y-114528152D02*
X158511904Y-114528152D01*
X158511904Y-114528152D02*
X158607142Y-114575771D01*
X158607142Y-114575771D02*
X158654761Y-114671009D01*
X158654761Y-114671009D02*
X158654761Y-114766247D01*
X158654761Y-114766247D02*
X158178571Y-114861485D01*
X159083333Y-114528152D02*
X159083333Y-115194819D01*
X159083333Y-114623390D02*
X159130952Y-114575771D01*
X159130952Y-114575771D02*
X159226190Y-114528152D01*
X159226190Y-114528152D02*
X159369047Y-114528152D01*
X159369047Y-114528152D02*
X159464285Y-114575771D01*
X159464285Y-114575771D02*
X159511904Y-114671009D01*
X159511904Y-114671009D02*
X159511904Y-115194819D01*
X159940476Y-115147200D02*
X160035714Y-115194819D01*
X160035714Y-115194819D02*
X160226190Y-115194819D01*
X160226190Y-115194819D02*
X160321428Y-115147200D01*
X160321428Y-115147200D02*
X160369047Y-115051961D01*
X160369047Y-115051961D02*
X160369047Y-115004342D01*
X160369047Y-115004342D02*
X160321428Y-114909104D01*
X160321428Y-114909104D02*
X160226190Y-114861485D01*
X160226190Y-114861485D02*
X160083333Y-114861485D01*
X160083333Y-114861485D02*
X159988095Y-114813866D01*
X159988095Y-114813866D02*
X159940476Y-114718628D01*
X159940476Y-114718628D02*
X159940476Y-114671009D01*
X159940476Y-114671009D02*
X159988095Y-114575771D01*
X159988095Y-114575771D02*
X160083333Y-114528152D01*
X160083333Y-114528152D02*
X160226190Y-114528152D01*
X160226190Y-114528152D02*
X160321428Y-114575771D01*
X160940476Y-115194819D02*
X160845238Y-115147200D01*
X160845238Y-115147200D02*
X160797619Y-115099580D01*
X160797619Y-115099580D02*
X160750000Y-115004342D01*
X160750000Y-115004342D02*
X160750000Y-114718628D01*
X160750000Y-114718628D02*
X160797619Y-114623390D01*
X160797619Y-114623390D02*
X160845238Y-114575771D01*
X160845238Y-114575771D02*
X160940476Y-114528152D01*
X160940476Y-114528152D02*
X161083333Y-114528152D01*
X161083333Y-114528152D02*
X161178571Y-114575771D01*
X161178571Y-114575771D02*
X161226190Y-114623390D01*
X161226190Y-114623390D02*
X161273809Y-114718628D01*
X161273809Y-114718628D02*
X161273809Y-115004342D01*
X161273809Y-115004342D02*
X161226190Y-115099580D01*
X161226190Y-115099580D02*
X161178571Y-115147200D01*
X161178571Y-115147200D02*
X161083333Y-115194819D01*
X161083333Y-115194819D02*
X160940476Y-115194819D01*
X161702381Y-115194819D02*
X161702381Y-114528152D01*
X161702381Y-114718628D02*
X161750000Y-114623390D01*
X161750000Y-114623390D02*
X161797619Y-114575771D01*
X161797619Y-114575771D02*
X161892857Y-114528152D01*
X161892857Y-114528152D02*
X161988095Y-114528152D01*
X162226191Y-114194819D02*
X162845238Y-114194819D01*
X162845238Y-114194819D02*
X162511905Y-114575771D01*
X162511905Y-114575771D02*
X162654762Y-114575771D01*
X162654762Y-114575771D02*
X162750000Y-114623390D01*
X162750000Y-114623390D02*
X162797619Y-114671009D01*
X162797619Y-114671009D02*
X162845238Y-114766247D01*
X162845238Y-114766247D02*
X162845238Y-115004342D01*
X162845238Y-115004342D02*
X162797619Y-115099580D01*
X162797619Y-115099580D02*
X162750000Y-115147200D01*
X162750000Y-115147200D02*
X162654762Y-115194819D01*
X162654762Y-115194819D02*
X162369048Y-115194819D01*
X162369048Y-115194819D02*
X162273810Y-115147200D01*
X162273810Y-115147200D02*
X162226191Y-115099580D01*
X163226191Y-114909104D02*
X163702381Y-114909104D01*
X163130953Y-115194819D02*
X163464286Y-114194819D01*
X163464286Y-114194819D02*
X163797619Y-115194819D01*
X164130953Y-115194819D02*
X164130953Y-114528152D01*
X164130953Y-114718628D02*
X164178572Y-114623390D01*
X164178572Y-114623390D02*
X164226191Y-114575771D01*
X164226191Y-114575771D02*
X164321429Y-114528152D01*
X164321429Y-114528152D02*
X164416667Y-114528152D01*
X164750001Y-115194819D02*
X164750001Y-114528152D01*
X164750001Y-114718628D02*
X164797620Y-114623390D01*
X164797620Y-114623390D02*
X164845239Y-114575771D01*
X164845239Y-114575771D02*
X164940477Y-114528152D01*
X164940477Y-114528152D02*
X165035715Y-114528152D01*
X165797620Y-115194819D02*
X165797620Y-114671009D01*
X165797620Y-114671009D02*
X165750001Y-114575771D01*
X165750001Y-114575771D02*
X165654763Y-114528152D01*
X165654763Y-114528152D02*
X165464287Y-114528152D01*
X165464287Y-114528152D02*
X165369049Y-114575771D01*
X165797620Y-115147200D02*
X165702382Y-115194819D01*
X165702382Y-115194819D02*
X165464287Y-115194819D01*
X165464287Y-115194819D02*
X165369049Y-115147200D01*
X165369049Y-115147200D02*
X165321430Y-115051961D01*
X165321430Y-115051961D02*
X165321430Y-114956723D01*
X165321430Y-114956723D02*
X165369049Y-114861485D01*
X165369049Y-114861485D02*
X165464287Y-114813866D01*
X165464287Y-114813866D02*
X165702382Y-114813866D01*
X165702382Y-114813866D02*
X165797620Y-114766247D01*
X166178573Y-114528152D02*
X166416668Y-115194819D01*
X166654763Y-114528152D02*
X166416668Y-115194819D01*
X166416668Y-115194819D02*
X166321430Y-115432914D01*
X166321430Y-115432914D02*
X166273811Y-115480533D01*
X166273811Y-115480533D02*
X166178573Y-115528152D01*
X167559525Y-115194819D02*
X166988097Y-115194819D01*
X167273811Y-115194819D02*
X167273811Y-114194819D01*
X167273811Y-114194819D02*
X167178573Y-114337676D01*
X167178573Y-114337676D02*
X167083335Y-114432914D01*
X167083335Y-114432914D02*
X166988097Y-114480533D01*
X139226189Y-115104819D02*
X138892856Y-114628628D01*
X138654761Y-115104819D02*
X138654761Y-114104819D01*
X138654761Y-114104819D02*
X139035713Y-114104819D01*
X139035713Y-114104819D02*
X139130951Y-114152438D01*
X139130951Y-114152438D02*
X139178570Y-114200057D01*
X139178570Y-114200057D02*
X139226189Y-114295295D01*
X139226189Y-114295295D02*
X139226189Y-114438152D01*
X139226189Y-114438152D02*
X139178570Y-114533390D01*
X139178570Y-114533390D02*
X139130951Y-114581009D01*
X139130951Y-114581009D02*
X139035713Y-114628628D01*
X139035713Y-114628628D02*
X138654761Y-114628628D01*
X139797618Y-115104819D02*
X139702380Y-115057200D01*
X139702380Y-115057200D02*
X139654761Y-115009580D01*
X139654761Y-115009580D02*
X139607142Y-114914342D01*
X139607142Y-114914342D02*
X139607142Y-114628628D01*
X139607142Y-114628628D02*
X139654761Y-114533390D01*
X139654761Y-114533390D02*
X139702380Y-114485771D01*
X139702380Y-114485771D02*
X139797618Y-114438152D01*
X139797618Y-114438152D02*
X139940475Y-114438152D01*
X139940475Y-114438152D02*
X140035713Y-114485771D01*
X140035713Y-114485771D02*
X140083332Y-114533390D01*
X140083332Y-114533390D02*
X140130951Y-114628628D01*
X140130951Y-114628628D02*
X140130951Y-114914342D01*
X140130951Y-114914342D02*
X140083332Y-115009580D01*
X140083332Y-115009580D02*
X140035713Y-115057200D01*
X140035713Y-115057200D02*
X139940475Y-115104819D01*
X139940475Y-115104819D02*
X139797618Y-115104819D01*
X140416666Y-114438152D02*
X140797618Y-114438152D01*
X140559523Y-114104819D02*
X140559523Y-114961961D01*
X140559523Y-114961961D02*
X140607142Y-115057200D01*
X140607142Y-115057200D02*
X140702380Y-115104819D01*
X140702380Y-115104819D02*
X140797618Y-115104819D01*
X141559523Y-115104819D02*
X141559523Y-114581009D01*
X141559523Y-114581009D02*
X141511904Y-114485771D01*
X141511904Y-114485771D02*
X141416666Y-114438152D01*
X141416666Y-114438152D02*
X141226190Y-114438152D01*
X141226190Y-114438152D02*
X141130952Y-114485771D01*
X141559523Y-115057200D02*
X141464285Y-115104819D01*
X141464285Y-115104819D02*
X141226190Y-115104819D01*
X141226190Y-115104819D02*
X141130952Y-115057200D01*
X141130952Y-115057200D02*
X141083333Y-114961961D01*
X141083333Y-114961961D02*
X141083333Y-114866723D01*
X141083333Y-114866723D02*
X141130952Y-114771485D01*
X141130952Y-114771485D02*
X141226190Y-114723866D01*
X141226190Y-114723866D02*
X141464285Y-114723866D01*
X141464285Y-114723866D02*
X141559523Y-114676247D01*
X142035714Y-115104819D02*
X142035714Y-114438152D01*
X142035714Y-114628628D02*
X142083333Y-114533390D01*
X142083333Y-114533390D02*
X142130952Y-114485771D01*
X142130952Y-114485771D02*
X142226190Y-114438152D01*
X142226190Y-114438152D02*
X142321428Y-114438152D01*
X142559524Y-114438152D02*
X142797619Y-115104819D01*
X143035714Y-114438152D02*
X142797619Y-115104819D01*
X142797619Y-115104819D02*
X142702381Y-115342914D01*
X142702381Y-115342914D02*
X142654762Y-115390533D01*
X142654762Y-115390533D02*
X142559524Y-115438152D01*
X143416667Y-114581009D02*
X143750000Y-114581009D01*
X143892857Y-115104819D02*
X143416667Y-115104819D01*
X143416667Y-115104819D02*
X143416667Y-114104819D01*
X143416667Y-114104819D02*
X143892857Y-114104819D01*
X144321429Y-114438152D02*
X144321429Y-115104819D01*
X144321429Y-114533390D02*
X144369048Y-114485771D01*
X144369048Y-114485771D02*
X144464286Y-114438152D01*
X144464286Y-114438152D02*
X144607143Y-114438152D01*
X144607143Y-114438152D02*
X144702381Y-114485771D01*
X144702381Y-114485771D02*
X144750000Y-114581009D01*
X144750000Y-114581009D02*
X144750000Y-115104819D01*
X145654762Y-115057200D02*
X145559524Y-115104819D01*
X145559524Y-115104819D02*
X145369048Y-115104819D01*
X145369048Y-115104819D02*
X145273810Y-115057200D01*
X145273810Y-115057200D02*
X145226191Y-115009580D01*
X145226191Y-115009580D02*
X145178572Y-114914342D01*
X145178572Y-114914342D02*
X145178572Y-114628628D01*
X145178572Y-114628628D02*
X145226191Y-114533390D01*
X145226191Y-114533390D02*
X145273810Y-114485771D01*
X145273810Y-114485771D02*
X145369048Y-114438152D01*
X145369048Y-114438152D02*
X145559524Y-114438152D01*
X145559524Y-114438152D02*
X145654762Y-114485771D01*
X146226191Y-115104819D02*
X146130953Y-115057200D01*
X146130953Y-115057200D02*
X146083334Y-115009580D01*
X146083334Y-115009580D02*
X146035715Y-114914342D01*
X146035715Y-114914342D02*
X146035715Y-114628628D01*
X146035715Y-114628628D02*
X146083334Y-114533390D01*
X146083334Y-114533390D02*
X146130953Y-114485771D01*
X146130953Y-114485771D02*
X146226191Y-114438152D01*
X146226191Y-114438152D02*
X146369048Y-114438152D01*
X146369048Y-114438152D02*
X146464286Y-114485771D01*
X146464286Y-114485771D02*
X146511905Y-114533390D01*
X146511905Y-114533390D02*
X146559524Y-114628628D01*
X146559524Y-114628628D02*
X146559524Y-114914342D01*
X146559524Y-114914342D02*
X146511905Y-115009580D01*
X146511905Y-115009580D02*
X146464286Y-115057200D01*
X146464286Y-115057200D02*
X146369048Y-115104819D01*
X146369048Y-115104819D02*
X146226191Y-115104819D01*
X147416667Y-115104819D02*
X147416667Y-114104819D01*
X147416667Y-115057200D02*
X147321429Y-115104819D01*
X147321429Y-115104819D02*
X147130953Y-115104819D01*
X147130953Y-115104819D02*
X147035715Y-115057200D01*
X147035715Y-115057200D02*
X146988096Y-115009580D01*
X146988096Y-115009580D02*
X146940477Y-114914342D01*
X146940477Y-114914342D02*
X146940477Y-114628628D01*
X146940477Y-114628628D02*
X146988096Y-114533390D01*
X146988096Y-114533390D02*
X147035715Y-114485771D01*
X147035715Y-114485771D02*
X147130953Y-114438152D01*
X147130953Y-114438152D02*
X147321429Y-114438152D01*
X147321429Y-114438152D02*
X147416667Y-114485771D01*
X148273810Y-115057200D02*
X148178572Y-115104819D01*
X148178572Y-115104819D02*
X147988096Y-115104819D01*
X147988096Y-115104819D02*
X147892858Y-115057200D01*
X147892858Y-115057200D02*
X147845239Y-114961961D01*
X147845239Y-114961961D02*
X147845239Y-114581009D01*
X147845239Y-114581009D02*
X147892858Y-114485771D01*
X147892858Y-114485771D02*
X147988096Y-114438152D01*
X147988096Y-114438152D02*
X148178572Y-114438152D01*
X148178572Y-114438152D02*
X148273810Y-114485771D01*
X148273810Y-114485771D02*
X148321429Y-114581009D01*
X148321429Y-114581009D02*
X148321429Y-114676247D01*
X148321429Y-114676247D02*
X147845239Y-114771485D01*
X148750001Y-115104819D02*
X148750001Y-114438152D01*
X148750001Y-114628628D02*
X148797620Y-114533390D01*
X148797620Y-114533390D02*
X148845239Y-114485771D01*
X148845239Y-114485771D02*
X148940477Y-114438152D01*
X148940477Y-114438152D02*
X149035715Y-114438152D01*
X149892858Y-115104819D02*
X149321430Y-115104819D01*
X149607144Y-115104819D02*
X149607144Y-114104819D01*
X149607144Y-114104819D02*
X149511906Y-114247676D01*
X149511906Y-114247676D02*
X149416668Y-114342914D01*
X149416668Y-114342914D02*
X149321430Y-114390533D01*
X174142856Y-115249819D02*
X174142856Y-114249819D01*
X175190474Y-115249819D02*
X174857141Y-114773628D01*
X174619046Y-115249819D02*
X174619046Y-114249819D01*
X174619046Y-114249819D02*
X174999998Y-114249819D01*
X174999998Y-114249819D02*
X175095236Y-114297438D01*
X175095236Y-114297438D02*
X175142855Y-114345057D01*
X175142855Y-114345057D02*
X175190474Y-114440295D01*
X175190474Y-114440295D02*
X175190474Y-114583152D01*
X175190474Y-114583152D02*
X175142855Y-114678390D01*
X175142855Y-114678390D02*
X175095236Y-114726009D01*
X175095236Y-114726009D02*
X174999998Y-114773628D01*
X174999998Y-114773628D02*
X174619046Y-114773628D01*
X175571427Y-115202200D02*
X175714284Y-115249819D01*
X175714284Y-115249819D02*
X175952379Y-115249819D01*
X175952379Y-115249819D02*
X176047617Y-115202200D01*
X176047617Y-115202200D02*
X176095236Y-115154580D01*
X176095236Y-115154580D02*
X176142855Y-115059342D01*
X176142855Y-115059342D02*
X176142855Y-114964104D01*
X176142855Y-114964104D02*
X176095236Y-114868866D01*
X176095236Y-114868866D02*
X176047617Y-114821247D01*
X176047617Y-114821247D02*
X175952379Y-114773628D01*
X175952379Y-114773628D02*
X175761903Y-114726009D01*
X175761903Y-114726009D02*
X175666665Y-114678390D01*
X175666665Y-114678390D02*
X175619046Y-114630771D01*
X175619046Y-114630771D02*
X175571427Y-114535533D01*
X175571427Y-114535533D02*
X175571427Y-114440295D01*
X175571427Y-114440295D02*
X175619046Y-114345057D01*
X175619046Y-114345057D02*
X175666665Y-114297438D01*
X175666665Y-114297438D02*
X175761903Y-114249819D01*
X175761903Y-114249819D02*
X175999998Y-114249819D01*
X175999998Y-114249819D02*
X176142855Y-114297438D01*
X176952379Y-115202200D02*
X176857141Y-115249819D01*
X176857141Y-115249819D02*
X176666665Y-115249819D01*
X176666665Y-115249819D02*
X176571427Y-115202200D01*
X176571427Y-115202200D02*
X176523808Y-115106961D01*
X176523808Y-115106961D02*
X176523808Y-114726009D01*
X176523808Y-114726009D02*
X176571427Y-114630771D01*
X176571427Y-114630771D02*
X176666665Y-114583152D01*
X176666665Y-114583152D02*
X176857141Y-114583152D01*
X176857141Y-114583152D02*
X176952379Y-114630771D01*
X176952379Y-114630771D02*
X176999998Y-114726009D01*
X176999998Y-114726009D02*
X176999998Y-114821247D01*
X176999998Y-114821247D02*
X176523808Y-114916485D01*
X177428570Y-114583152D02*
X177428570Y-115249819D01*
X177428570Y-114678390D02*
X177476189Y-114630771D01*
X177476189Y-114630771D02*
X177571427Y-114583152D01*
X177571427Y-114583152D02*
X177714284Y-114583152D01*
X177714284Y-114583152D02*
X177809522Y-114630771D01*
X177809522Y-114630771D02*
X177857141Y-114726009D01*
X177857141Y-114726009D02*
X177857141Y-115249819D01*
X178285713Y-115202200D02*
X178380951Y-115249819D01*
X178380951Y-115249819D02*
X178571427Y-115249819D01*
X178571427Y-115249819D02*
X178666665Y-115202200D01*
X178666665Y-115202200D02*
X178714284Y-115106961D01*
X178714284Y-115106961D02*
X178714284Y-115059342D01*
X178714284Y-115059342D02*
X178666665Y-114964104D01*
X178666665Y-114964104D02*
X178571427Y-114916485D01*
X178571427Y-114916485D02*
X178428570Y-114916485D01*
X178428570Y-114916485D02*
X178333332Y-114868866D01*
X178333332Y-114868866D02*
X178285713Y-114773628D01*
X178285713Y-114773628D02*
X178285713Y-114726009D01*
X178285713Y-114726009D02*
X178333332Y-114630771D01*
X178333332Y-114630771D02*
X178428570Y-114583152D01*
X178428570Y-114583152D02*
X178571427Y-114583152D01*
X178571427Y-114583152D02*
X178666665Y-114630771D01*
X179285713Y-115249819D02*
X179190475Y-115202200D01*
X179190475Y-115202200D02*
X179142856Y-115154580D01*
X179142856Y-115154580D02*
X179095237Y-115059342D01*
X179095237Y-115059342D02*
X179095237Y-114773628D01*
X179095237Y-114773628D02*
X179142856Y-114678390D01*
X179142856Y-114678390D02*
X179190475Y-114630771D01*
X179190475Y-114630771D02*
X179285713Y-114583152D01*
X179285713Y-114583152D02*
X179428570Y-114583152D01*
X179428570Y-114583152D02*
X179523808Y-114630771D01*
X179523808Y-114630771D02*
X179571427Y-114678390D01*
X179571427Y-114678390D02*
X179619046Y-114773628D01*
X179619046Y-114773628D02*
X179619046Y-115059342D01*
X179619046Y-115059342D02*
X179571427Y-115154580D01*
X179571427Y-115154580D02*
X179523808Y-115202200D01*
X179523808Y-115202200D02*
X179428570Y-115249819D01*
X179428570Y-115249819D02*
X179285713Y-115249819D01*
X180047618Y-115249819D02*
X180047618Y-114583152D01*
X180047618Y-114773628D02*
X180095237Y-114678390D01*
X180095237Y-114678390D02*
X180142856Y-114630771D01*
X180142856Y-114630771D02*
X180238094Y-114583152D01*
X180238094Y-114583152D02*
X180333332Y-114583152D01*
X181095237Y-114249819D02*
X180904761Y-114249819D01*
X180904761Y-114249819D02*
X180809523Y-114297438D01*
X180809523Y-114297438D02*
X180761904Y-114345057D01*
X180761904Y-114345057D02*
X180666666Y-114487914D01*
X180666666Y-114487914D02*
X180619047Y-114678390D01*
X180619047Y-114678390D02*
X180619047Y-115059342D01*
X180619047Y-115059342D02*
X180666666Y-115154580D01*
X180666666Y-115154580D02*
X180714285Y-115202200D01*
X180714285Y-115202200D02*
X180809523Y-115249819D01*
X180809523Y-115249819D02*
X180999999Y-115249819D01*
X180999999Y-115249819D02*
X181095237Y-115202200D01*
X181095237Y-115202200D02*
X181142856Y-115154580D01*
X181142856Y-115154580D02*
X181190475Y-115059342D01*
X181190475Y-115059342D02*
X181190475Y-114821247D01*
X181190475Y-114821247D02*
X181142856Y-114726009D01*
X181142856Y-114726009D02*
X181095237Y-114678390D01*
X181095237Y-114678390D02*
X180999999Y-114630771D01*
X180999999Y-114630771D02*
X180809523Y-114630771D01*
X180809523Y-114630771D02*
X180714285Y-114678390D01*
X180714285Y-114678390D02*
X180666666Y-114726009D01*
X180666666Y-114726009D02*
X180619047Y-114821247D01*
X181571428Y-114964104D02*
X182047618Y-114964104D01*
X181476190Y-115249819D02*
X181809523Y-114249819D01*
X181809523Y-114249819D02*
X182142856Y-115249819D01*
X182476190Y-115249819D02*
X182476190Y-114583152D01*
X182476190Y-114773628D02*
X182523809Y-114678390D01*
X182523809Y-114678390D02*
X182571428Y-114630771D01*
X182571428Y-114630771D02*
X182666666Y-114583152D01*
X182666666Y-114583152D02*
X182761904Y-114583152D01*
X183095238Y-115249819D02*
X183095238Y-114583152D01*
X183095238Y-114773628D02*
X183142857Y-114678390D01*
X183142857Y-114678390D02*
X183190476Y-114630771D01*
X183190476Y-114630771D02*
X183285714Y-114583152D01*
X183285714Y-114583152D02*
X183380952Y-114583152D01*
X184142857Y-115249819D02*
X184142857Y-114726009D01*
X184142857Y-114726009D02*
X184095238Y-114630771D01*
X184095238Y-114630771D02*
X184000000Y-114583152D01*
X184000000Y-114583152D02*
X183809524Y-114583152D01*
X183809524Y-114583152D02*
X183714286Y-114630771D01*
X184142857Y-115202200D02*
X184047619Y-115249819D01*
X184047619Y-115249819D02*
X183809524Y-115249819D01*
X183809524Y-115249819D02*
X183714286Y-115202200D01*
X183714286Y-115202200D02*
X183666667Y-115106961D01*
X183666667Y-115106961D02*
X183666667Y-115011723D01*
X183666667Y-115011723D02*
X183714286Y-114916485D01*
X183714286Y-114916485D02*
X183809524Y-114868866D01*
X183809524Y-114868866D02*
X184047619Y-114868866D01*
X184047619Y-114868866D02*
X184142857Y-114821247D01*
X184523810Y-114583152D02*
X184761905Y-115249819D01*
X185000000Y-114583152D02*
X184761905Y-115249819D01*
X184761905Y-115249819D02*
X184666667Y-115487914D01*
X184666667Y-115487914D02*
X184619048Y-115535533D01*
X184619048Y-115535533D02*
X184523810Y-115583152D01*
X185904762Y-115249819D02*
X185333334Y-115249819D01*
X185619048Y-115249819D02*
X185619048Y-114249819D01*
X185619048Y-114249819D02*
X185523810Y-114392676D01*
X185523810Y-114392676D02*
X185428572Y-114487914D01*
X185428572Y-114487914D02*
X185333334Y-114535533D01*
X202976009Y-93085714D02*
X203023628Y-92942857D01*
X203023628Y-92942857D02*
X203071247Y-92895238D01*
X203071247Y-92895238D02*
X203166485Y-92847619D01*
X203166485Y-92847619D02*
X203309342Y-92847619D01*
X203309342Y-92847619D02*
X203404580Y-92895238D01*
X203404580Y-92895238D02*
X203452200Y-92942857D01*
X203452200Y-92942857D02*
X203499819Y-93038095D01*
X203499819Y-93038095D02*
X203499819Y-93419047D01*
X203499819Y-93419047D02*
X202499819Y-93419047D01*
X202499819Y-93419047D02*
X202499819Y-93085714D01*
X202499819Y-93085714D02*
X202547438Y-92990476D01*
X202547438Y-92990476D02*
X202595057Y-92942857D01*
X202595057Y-92942857D02*
X202690295Y-92895238D01*
X202690295Y-92895238D02*
X202785533Y-92895238D01*
X202785533Y-92895238D02*
X202880771Y-92942857D01*
X202880771Y-92942857D02*
X202928390Y-92990476D01*
X202928390Y-92990476D02*
X202976009Y-93085714D01*
X202976009Y-93085714D02*
X202976009Y-93419047D01*
X202499819Y-92561904D02*
X202499819Y-91990476D01*
X203499819Y-92276190D02*
X202499819Y-92276190D01*
X202499819Y-91752380D02*
X202499819Y-91133333D01*
X202499819Y-91133333D02*
X202880771Y-91466666D01*
X202880771Y-91466666D02*
X202880771Y-91323809D01*
X202880771Y-91323809D02*
X202928390Y-91228571D01*
X202928390Y-91228571D02*
X202976009Y-91180952D01*
X202976009Y-91180952D02*
X203071247Y-91133333D01*
X203071247Y-91133333D02*
X203309342Y-91133333D01*
X203309342Y-91133333D02*
X203404580Y-91180952D01*
X203404580Y-91180952D02*
X203452200Y-91228571D01*
X203452200Y-91228571D02*
X203499819Y-91323809D01*
X203499819Y-91323809D02*
X203499819Y-91609523D01*
X203499819Y-91609523D02*
X203452200Y-91704761D01*
X203452200Y-91704761D02*
X203404580Y-91752380D01*
X202976009Y-102535714D02*
X203023628Y-102392857D01*
X203023628Y-102392857D02*
X203071247Y-102345238D01*
X203071247Y-102345238D02*
X203166485Y-102297619D01*
X203166485Y-102297619D02*
X203309342Y-102297619D01*
X203309342Y-102297619D02*
X203404580Y-102345238D01*
X203404580Y-102345238D02*
X203452200Y-102392857D01*
X203452200Y-102392857D02*
X203499819Y-102488095D01*
X203499819Y-102488095D02*
X203499819Y-102869047D01*
X203499819Y-102869047D02*
X202499819Y-102869047D01*
X202499819Y-102869047D02*
X202499819Y-102535714D01*
X202499819Y-102535714D02*
X202547438Y-102440476D01*
X202547438Y-102440476D02*
X202595057Y-102392857D01*
X202595057Y-102392857D02*
X202690295Y-102345238D01*
X202690295Y-102345238D02*
X202785533Y-102345238D01*
X202785533Y-102345238D02*
X202880771Y-102392857D01*
X202880771Y-102392857D02*
X202928390Y-102440476D01*
X202928390Y-102440476D02*
X202976009Y-102535714D01*
X202976009Y-102535714D02*
X202976009Y-102869047D01*
X202499819Y-102011904D02*
X202499819Y-101440476D01*
X203499819Y-101726190D02*
X202499819Y-101726190D01*
X202595057Y-101154761D02*
X202547438Y-101107142D01*
X202547438Y-101107142D02*
X202499819Y-101011904D01*
X202499819Y-101011904D02*
X202499819Y-100773809D01*
X202499819Y-100773809D02*
X202547438Y-100678571D01*
X202547438Y-100678571D02*
X202595057Y-100630952D01*
X202595057Y-100630952D02*
X202690295Y-100583333D01*
X202690295Y-100583333D02*
X202785533Y-100583333D01*
X202785533Y-100583333D02*
X202928390Y-100630952D01*
X202928390Y-100630952D02*
X203499819Y-101202380D01*
X203499819Y-101202380D02*
X203499819Y-100583333D01*
X202976009Y-111985714D02*
X203023628Y-111842857D01*
X203023628Y-111842857D02*
X203071247Y-111795238D01*
X203071247Y-111795238D02*
X203166485Y-111747619D01*
X203166485Y-111747619D02*
X203309342Y-111747619D01*
X203309342Y-111747619D02*
X203404580Y-111795238D01*
X203404580Y-111795238D02*
X203452200Y-111842857D01*
X203452200Y-111842857D02*
X203499819Y-111938095D01*
X203499819Y-111938095D02*
X203499819Y-112319047D01*
X203499819Y-112319047D02*
X202499819Y-112319047D01*
X202499819Y-112319047D02*
X202499819Y-111985714D01*
X202499819Y-111985714D02*
X202547438Y-111890476D01*
X202547438Y-111890476D02*
X202595057Y-111842857D01*
X202595057Y-111842857D02*
X202690295Y-111795238D01*
X202690295Y-111795238D02*
X202785533Y-111795238D01*
X202785533Y-111795238D02*
X202880771Y-111842857D01*
X202880771Y-111842857D02*
X202928390Y-111890476D01*
X202928390Y-111890476D02*
X202976009Y-111985714D01*
X202976009Y-111985714D02*
X202976009Y-112319047D01*
X202499819Y-111461904D02*
X202499819Y-110890476D01*
X203499819Y-111176190D02*
X202499819Y-111176190D01*
X203499819Y-110033333D02*
X203499819Y-110604761D01*
X203499819Y-110319047D02*
X202499819Y-110319047D01*
X202499819Y-110319047D02*
X202642676Y-110414285D01*
X202642676Y-110414285D02*
X202737914Y-110509523D01*
X202737914Y-110509523D02*
X202785533Y-110604761D01*
X186984819Y-79678570D02*
X185984819Y-79678570D01*
X186984819Y-79202380D02*
X185984819Y-79202380D01*
X185984819Y-79202380D02*
X186984819Y-78630952D01*
X186984819Y-78630952D02*
X185984819Y-78630952D01*
X186699104Y-78202380D02*
X186699104Y-77726190D01*
X186984819Y-78297618D02*
X185984819Y-77964285D01*
X185984819Y-77964285D02*
X186984819Y-77630952D01*
X186984819Y-76773809D02*
X186984819Y-77345237D01*
X186984819Y-77059523D02*
X185984819Y-77059523D01*
X185984819Y-77059523D02*
X186127676Y-77154761D01*
X186127676Y-77154761D02*
X186222914Y-77249999D01*
X186222914Y-77249999D02*
X186270533Y-77345237D01*
X157944819Y-82951904D02*
X158754342Y-82951904D01*
X158754342Y-82951904D02*
X158849580Y-82904285D01*
X158849580Y-82904285D02*
X158897200Y-82856666D01*
X158897200Y-82856666D02*
X158944819Y-82761428D01*
X158944819Y-82761428D02*
X158944819Y-82570952D01*
X158944819Y-82570952D02*
X158897200Y-82475714D01*
X158897200Y-82475714D02*
X158849580Y-82428095D01*
X158849580Y-82428095D02*
X158754342Y-82380476D01*
X158754342Y-82380476D02*
X157944819Y-82380476D01*
X158944819Y-81380476D02*
X158944819Y-81951904D01*
X158944819Y-81666190D02*
X157944819Y-81666190D01*
X157944819Y-81666190D02*
X158087676Y-81761428D01*
X158087676Y-81761428D02*
X158182914Y-81856666D01*
X158182914Y-81856666D02*
X158230533Y-81951904D01*
X174690476Y-87654819D02*
X174690476Y-86654819D01*
X174690476Y-86654819D02*
X175023809Y-87369104D01*
X175023809Y-87369104D02*
X175357142Y-86654819D01*
X175357142Y-86654819D02*
X175357142Y-87654819D01*
X175785714Y-86750057D02*
X175833333Y-86702438D01*
X175833333Y-86702438D02*
X175928571Y-86654819D01*
X175928571Y-86654819D02*
X176166666Y-86654819D01*
X176166666Y-86654819D02*
X176261904Y-86702438D01*
X176261904Y-86702438D02*
X176309523Y-86750057D01*
X176309523Y-86750057D02*
X176357142Y-86845295D01*
X176357142Y-86845295D02*
X176357142Y-86940533D01*
X176357142Y-86940533D02*
X176309523Y-87083390D01*
X176309523Y-87083390D02*
X175738095Y-87654819D01*
X175738095Y-87654819D02*
X176357142Y-87654819D01*
X165440476Y-87654819D02*
X165440476Y-86654819D01*
X165440476Y-86654819D02*
X165773809Y-87369104D01*
X165773809Y-87369104D02*
X166107142Y-86654819D01*
X166107142Y-86654819D02*
X166107142Y-87654819D01*
X167107142Y-87654819D02*
X166535714Y-87654819D01*
X166821428Y-87654819D02*
X166821428Y-86654819D01*
X166821428Y-86654819D02*
X166726190Y-86797676D01*
X166726190Y-86797676D02*
X166630952Y-86892914D01*
X166630952Y-86892914D02*
X166535714Y-86940533D01*
D12*
%TO.C,ArduinoNanoTypeC1*%
X168810000Y-94850000D02*
X166140000Y-94850000D01*
X163600000Y-94850000D02*
X125370000Y-94850000D01*
X125370000Y-94850000D02*
X125370000Y-99930000D01*
X166140000Y-97520000D02*
X166140000Y-94850000D01*
X163600000Y-97520000D02*
X163600000Y-94850000D01*
X163600000Y-97520000D02*
X166140000Y-97520000D01*
X163600000Y-97520000D02*
X128040000Y-97520000D01*
X128040000Y-97520000D02*
X128040000Y-94850000D01*
X133250000Y-99930000D02*
X133250000Y-107810000D01*
X122830000Y-99930000D02*
X133250000Y-99930000D01*
X133250000Y-107810000D02*
X122830000Y-107810000D01*
X122830000Y-107810000D02*
X122830000Y-99930000D01*
X166140000Y-110220000D02*
X128040000Y-110220000D01*
X166140000Y-110220000D02*
X166140000Y-112890000D01*
X128040000Y-110220000D02*
X128040000Y-112890000D01*
X168810000Y-112890000D02*
X168810000Y-94850000D01*
X125370000Y-112890000D02*
X125370000Y-107810000D01*
X125370000Y-112890000D02*
X168810000Y-112890000D01*
%TO.C,SonarSensor3Array1*%
X152690000Y-115840000D02*
X154110000Y-115840000D01*
X152690000Y-127560000D02*
X152690000Y-115840000D01*
X154110000Y-115840000D02*
X154110000Y-120340000D01*
X154110000Y-120340000D02*
X160250000Y-120340000D01*
X154950000Y-116150000D02*
X155550000Y-116150000D01*
X155000000Y-121450000D02*
X155000000Y-126950000D01*
X155000000Y-126950000D02*
X155500000Y-126950000D01*
X155250000Y-116750000D02*
X154950000Y-116150000D01*
X155500000Y-121450000D02*
X155000000Y-121450000D01*
X155500000Y-126950000D02*
X155500000Y-121450000D01*
X155550000Y-116150000D02*
X155250000Y-116750000D01*
X157500000Y-121450000D02*
X157500000Y-126950000D01*
X157500000Y-126950000D02*
X158000000Y-126950000D01*
X158000000Y-121450000D02*
X157500000Y-121450000D01*
X158000000Y-126950000D02*
X158000000Y-121450000D01*
X160000000Y-121450000D02*
X160000000Y-126950000D01*
X160000000Y-126950000D02*
X160500000Y-126950000D01*
X160250000Y-127560000D02*
X152690000Y-127560000D01*
X160250000Y-127560000D02*
X167810000Y-127560000D01*
X160500000Y-121450000D02*
X160000000Y-121450000D01*
X160500000Y-126950000D02*
X160500000Y-121450000D01*
X162500000Y-121450000D02*
X162500000Y-126950000D01*
X162500000Y-126950000D02*
X163000000Y-126950000D01*
X163000000Y-121450000D02*
X162500000Y-121450000D01*
X163000000Y-126950000D02*
X163000000Y-121450000D01*
X165000000Y-121450000D02*
X165000000Y-126950000D01*
X165000000Y-126950000D02*
X165500000Y-126950000D01*
X165500000Y-121450000D02*
X165000000Y-121450000D01*
X165500000Y-126950000D02*
X165500000Y-121450000D01*
X166390000Y-115840000D02*
X166390000Y-120340000D01*
X166390000Y-120340000D02*
X160250000Y-120340000D01*
X167810000Y-115840000D02*
X166390000Y-115840000D01*
X167810000Y-127560000D02*
X167810000Y-115840000D01*
%TO.C,RotaryEncoder1*%
X136690000Y-115740000D02*
X138110000Y-115740000D01*
X136690000Y-127460000D02*
X136690000Y-115740000D01*
X138110000Y-115740000D02*
X138110000Y-120240000D01*
X138950000Y-117650000D02*
X139550000Y-117650000D01*
X139000000Y-121350000D02*
X139000000Y-126850000D01*
X139000000Y-126850000D02*
X139500000Y-126850000D01*
X139250000Y-118250000D02*
X138950000Y-117650000D01*
X139500000Y-121350000D02*
X139000000Y-121350000D01*
X139500000Y-126850000D02*
X139500000Y-121350000D01*
X139550000Y-117650000D02*
X139250000Y-118250000D01*
X141500000Y-121350000D02*
X141500000Y-126850000D01*
X141500000Y-126850000D02*
X142000000Y-126850000D01*
X142000000Y-121350000D02*
X141500000Y-121350000D01*
X142000000Y-126850000D02*
X142000000Y-121350000D01*
X144000000Y-121350000D02*
X144000000Y-126850000D01*
X144000000Y-126850000D02*
X144500000Y-126850000D01*
X144250000Y-127460000D02*
X136690000Y-127460000D01*
X144250000Y-127460000D02*
X151810000Y-127460000D01*
X144500000Y-121350000D02*
X144000000Y-121350000D01*
X144500000Y-126850000D02*
X144500000Y-121350000D01*
X146500000Y-121350000D02*
X146500000Y-126850000D01*
X146500000Y-126850000D02*
X147000000Y-126850000D01*
X147000000Y-121350000D02*
X146500000Y-121350000D01*
X147000000Y-126850000D02*
X147000000Y-121350000D01*
X149000000Y-121350000D02*
X149000000Y-126850000D01*
X149000000Y-126850000D02*
X149500000Y-126850000D01*
X149500000Y-121350000D02*
X149000000Y-121350000D01*
X149500000Y-126850000D02*
X149500000Y-121350000D01*
X150390000Y-115740000D02*
X150390000Y-120240000D01*
X151810000Y-115740000D02*
X150390000Y-115740000D01*
X151810000Y-127460000D02*
X151810000Y-115740000D01*
%TO.C,IRSensor6Array1*%
X168690000Y-115895000D02*
X170110000Y-115895000D01*
X168690000Y-127615000D02*
X168690000Y-115895000D01*
X170110000Y-115895000D02*
X170110000Y-120395000D01*
X170110000Y-120395000D02*
X180000000Y-120395000D01*
X170950000Y-116205000D02*
X171550000Y-116205000D01*
X171000000Y-121505000D02*
X171000000Y-127005000D01*
X171000000Y-127005000D02*
X171500000Y-127005000D01*
X171250000Y-116805000D02*
X170950000Y-116205000D01*
X171500000Y-121505000D02*
X171000000Y-121505000D01*
X171500000Y-127005000D02*
X171500000Y-121505000D01*
X171550000Y-116205000D02*
X171250000Y-116805000D01*
X173500000Y-121505000D02*
X173500000Y-127005000D01*
X173500000Y-127005000D02*
X174000000Y-127005000D01*
X174000000Y-121505000D02*
X173500000Y-121505000D01*
X174000000Y-127005000D02*
X174000000Y-121505000D01*
X176000000Y-121505000D02*
X176000000Y-127005000D01*
X176000000Y-127005000D02*
X176500000Y-127005000D01*
X176500000Y-121505000D02*
X176000000Y-121505000D01*
X176500000Y-127005000D02*
X176500000Y-121505000D01*
X178500000Y-121505000D02*
X178500000Y-127005000D01*
X178500000Y-127005000D02*
X179000000Y-127005000D01*
X179000000Y-121505000D02*
X178500000Y-121505000D01*
X179000000Y-127005000D02*
X179000000Y-121505000D01*
X180000000Y-127615000D02*
X168690000Y-127615000D01*
X180000000Y-127615000D02*
X191310000Y-127615000D01*
X181000000Y-121505000D02*
X181000000Y-127005000D01*
X181000000Y-127005000D02*
X181500000Y-127005000D01*
X181500000Y-121505000D02*
X181000000Y-121505000D01*
X181500000Y-127005000D02*
X181500000Y-121505000D01*
X183500000Y-121505000D02*
X183500000Y-127005000D01*
X183500000Y-127005000D02*
X184000000Y-127005000D01*
X184000000Y-121505000D02*
X183500000Y-121505000D01*
X184000000Y-127005000D02*
X184000000Y-121505000D01*
X186000000Y-121505000D02*
X186000000Y-127005000D01*
X186000000Y-127005000D02*
X186500000Y-127005000D01*
X186500000Y-121505000D02*
X186000000Y-121505000D01*
X186500000Y-127005000D02*
X186500000Y-121505000D01*
X188500000Y-121505000D02*
X188500000Y-127005000D01*
X188500000Y-127005000D02*
X189000000Y-127005000D01*
X189000000Y-121505000D02*
X188500000Y-121505000D01*
X189000000Y-127005000D02*
X189000000Y-121505000D01*
X189890000Y-115895000D02*
X189890000Y-120395000D01*
X189890000Y-120395000D02*
X180000000Y-120395000D01*
X191310000Y-115895000D02*
X189890000Y-115895000D01*
X191310000Y-127615000D02*
X191310000Y-115895000D01*
%TO.C,BT3*%
X204145000Y-96110000D02*
X204145000Y-94690000D01*
X215865000Y-96110000D02*
X204145000Y-96110000D01*
X204145000Y-94690000D02*
X208645000Y-94690000D01*
X208645000Y-94690000D02*
X208645000Y-92300000D01*
X204455000Y-93850000D02*
X204455000Y-93250000D01*
X209755000Y-93800000D02*
X215255000Y-93800000D01*
X215255000Y-93800000D02*
X215255000Y-93300000D01*
X205055000Y-93550000D02*
X204455000Y-93850000D01*
X209755000Y-93300000D02*
X209755000Y-93800000D01*
X215255000Y-93300000D02*
X209755000Y-93300000D01*
X204455000Y-93250000D02*
X205055000Y-93550000D01*
X215865000Y-92300000D02*
X215865000Y-96110000D01*
X215865000Y-92300000D02*
X215865000Y-88490000D01*
X209755000Y-91300000D02*
X215255000Y-91300000D01*
X215255000Y-91300000D02*
X215255000Y-90800000D01*
X209755000Y-90800000D02*
X209755000Y-91300000D01*
X215255000Y-90800000D02*
X209755000Y-90800000D01*
X204145000Y-89910000D02*
X208645000Y-89910000D01*
X208645000Y-89910000D02*
X208645000Y-92300000D01*
X204145000Y-88490000D02*
X204145000Y-89910000D01*
X215865000Y-88490000D02*
X204145000Y-88490000D01*
%TO.C,BT2*%
X204145000Y-105560000D02*
X204145000Y-104140000D01*
X215865000Y-105560000D02*
X204145000Y-105560000D01*
X204145000Y-104140000D02*
X208645000Y-104140000D01*
X208645000Y-104140000D02*
X208645000Y-101750000D01*
X204455000Y-103300000D02*
X204455000Y-102700000D01*
X209755000Y-103250000D02*
X215255000Y-103250000D01*
X215255000Y-103250000D02*
X215255000Y-102750000D01*
X205055000Y-103000000D02*
X204455000Y-103300000D01*
X209755000Y-102750000D02*
X209755000Y-103250000D01*
X215255000Y-102750000D02*
X209755000Y-102750000D01*
X204455000Y-102700000D02*
X205055000Y-103000000D01*
X215865000Y-101750000D02*
X215865000Y-105560000D01*
X215865000Y-101750000D02*
X215865000Y-97940000D01*
X209755000Y-100750000D02*
X215255000Y-100750000D01*
X215255000Y-100750000D02*
X215255000Y-100250000D01*
X209755000Y-100250000D02*
X209755000Y-100750000D01*
X215255000Y-100250000D02*
X209755000Y-100250000D01*
X204145000Y-99360000D02*
X208645000Y-99360000D01*
X208645000Y-99360000D02*
X208645000Y-101750000D01*
X204145000Y-97940000D02*
X204145000Y-99360000D01*
X215865000Y-97940000D02*
X204145000Y-97940000D01*
%TO.C,BT1*%
X204145000Y-115010000D02*
X204145000Y-113590000D01*
X215865000Y-115010000D02*
X204145000Y-115010000D01*
X204145000Y-113590000D02*
X208645000Y-113590000D01*
X208645000Y-113590000D02*
X208645000Y-111200000D01*
X204455000Y-112750000D02*
X204455000Y-112150000D01*
X209755000Y-112700000D02*
X215255000Y-112700000D01*
X215255000Y-112700000D02*
X215255000Y-112200000D01*
X205055000Y-112450000D02*
X204455000Y-112750000D01*
X209755000Y-112200000D02*
X209755000Y-112700000D01*
X215255000Y-112200000D02*
X209755000Y-112200000D01*
X204455000Y-112150000D02*
X205055000Y-112450000D01*
X215865000Y-111200000D02*
X215865000Y-115010000D01*
X215865000Y-111200000D02*
X215865000Y-107390000D01*
X209755000Y-110200000D02*
X215255000Y-110200000D01*
X215255000Y-110200000D02*
X215255000Y-109700000D01*
X209755000Y-109700000D02*
X209755000Y-110200000D01*
X215255000Y-109700000D02*
X209755000Y-109700000D01*
X204145000Y-108810000D02*
X208645000Y-108810000D01*
X208645000Y-108810000D02*
X208645000Y-111200000D01*
X204145000Y-107390000D02*
X204145000Y-108810000D01*
X215865000Y-107390000D02*
X204145000Y-107390000D01*
%TO.C,INA1*%
X187970000Y-76920000D02*
X189300000Y-76920000D01*
X187970000Y-78250000D02*
X187970000Y-76920000D01*
X190570000Y-76920000D02*
X208410000Y-76920000D01*
X190570000Y-79580000D02*
X190570000Y-76920000D01*
X190570000Y-79580000D02*
X208410000Y-79580000D01*
X208410000Y-79580000D02*
X208410000Y-76920000D01*
%TO.C,U1*%
X137050000Y-79540000D02*
X137050000Y-84840000D01*
X137050000Y-84840000D02*
X157490000Y-84840000D01*
X157490000Y-79540000D02*
X137050000Y-79540000D01*
X157490000Y-81190000D02*
X157490000Y-79540000D01*
X157490000Y-84840000D02*
X157490000Y-83190000D01*
X157490000Y-83190000D02*
G75*
G02*
X157490000Y-81190000I0J1000000D01*
G01*
%TO.C,M2*%
X171690000Y-74390000D02*
X171690000Y-86110000D01*
X171690000Y-86110000D02*
X173110000Y-86110000D01*
X173110000Y-86110000D02*
X173110000Y-81610000D01*
X174000000Y-75000000D02*
X174000000Y-80500000D01*
X174000000Y-80500000D02*
X174500000Y-80500000D01*
X174500000Y-75000000D02*
X174000000Y-75000000D01*
X174500000Y-80500000D02*
X174500000Y-75000000D01*
X175500000Y-74390000D02*
X171690000Y-74390000D01*
X175500000Y-74390000D02*
X179310000Y-74390000D01*
X176450000Y-84200000D02*
X176750000Y-83600000D01*
X176500000Y-75000000D02*
X176500000Y-80500000D01*
X176500000Y-80500000D02*
X177000000Y-80500000D01*
X176750000Y-83600000D02*
X177050000Y-84200000D01*
X177000000Y-75000000D02*
X176500000Y-75000000D01*
X177000000Y-80500000D02*
X177000000Y-75000000D01*
X177050000Y-84200000D02*
X176450000Y-84200000D01*
X177890000Y-86110000D02*
X177890000Y-81610000D01*
X179310000Y-74390000D02*
X179310000Y-86110000D01*
X179310000Y-86110000D02*
X177890000Y-86110000D01*
%TO.C,M1*%
X162440000Y-74390000D02*
X162440000Y-86110000D01*
X162440000Y-86110000D02*
X163860000Y-86110000D01*
X163860000Y-86110000D02*
X163860000Y-81610000D01*
X164750000Y-75000000D02*
X164750000Y-80500000D01*
X164750000Y-80500000D02*
X165250000Y-80500000D01*
X165250000Y-75000000D02*
X164750000Y-75000000D01*
X165250000Y-80500000D02*
X165250000Y-75000000D01*
X166250000Y-74390000D02*
X162440000Y-74390000D01*
X166250000Y-74390000D02*
X170060000Y-74390000D01*
X167200000Y-84200000D02*
X167500000Y-83600000D01*
X167250000Y-75000000D02*
X167250000Y-80500000D01*
X167250000Y-80500000D02*
X167750000Y-80500000D01*
X167500000Y-83600000D02*
X167800000Y-84200000D01*
X167750000Y-75000000D02*
X167250000Y-75000000D01*
X167750000Y-80500000D02*
X167750000Y-75000000D01*
X167800000Y-84200000D02*
X167200000Y-84200000D01*
X168640000Y-86110000D02*
X168640000Y-81610000D01*
X170060000Y-74390000D02*
X170060000Y-86110000D01*
X170060000Y-86110000D02*
X168640000Y-86110000D01*
%TD*%
M02*
