%TF.GenerationSoftware,KiCad,Pcbnew,9.0.3*%
%TF.CreationDate,2025-07-23T14:00:13+06:00*%
%TF.ProjectId,LFRCircuit,4c465243-6972-4637-9569-742e6b696361,rev?*%
%TF.SameCoordinates,Original*%
%TF.FileFunction,Legend,Top*%
%TF.FilePolarity,Positive*%
%FSLAX46Y46*%
G04 Gerber Fmt 4.6, Leading zero omitted, Abs format (unit mm)*
G04 Created by KiCad (PCBNEW 9.0.3) date 2025-07-23 14:00:13*
%MOMM*%
%LPD*%
G01*
G04 APERTURE LIST*
%ADD10C,0.400000*%
%ADD11C,0.150000*%
%ADD12C,0.120000*%
G04 APERTURE END LIST*
D10*
X176703633Y-90234438D02*
X177370299Y-92234438D01*
X177370299Y-92234438D02*
X178036966Y-90234438D01*
X178703633Y-91186819D02*
X179370300Y-91186819D01*
X179656014Y-92234438D02*
X178703633Y-92234438D01*
X178703633Y-92234438D02*
X178703633Y-90234438D01*
X178703633Y-90234438D02*
X179656014Y-90234438D01*
X180513157Y-92234438D02*
X180513157Y-90234438D01*
X180513157Y-90234438D02*
X181656014Y-92234438D01*
X181656014Y-92234438D02*
X181656014Y-90234438D01*
X183656014Y-90329676D02*
X183465538Y-90234438D01*
X183465538Y-90234438D02*
X183179824Y-90234438D01*
X183179824Y-90234438D02*
X182894109Y-90329676D01*
X182894109Y-90329676D02*
X182703633Y-90520152D01*
X182703633Y-90520152D02*
X182608395Y-90710628D01*
X182608395Y-90710628D02*
X182513157Y-91091580D01*
X182513157Y-91091580D02*
X182513157Y-91377295D01*
X182513157Y-91377295D02*
X182608395Y-91758247D01*
X182608395Y-91758247D02*
X182703633Y-91948723D01*
X182703633Y-91948723D02*
X182894109Y-92139200D01*
X182894109Y-92139200D02*
X183179824Y-92234438D01*
X183179824Y-92234438D02*
X183370300Y-92234438D01*
X183370300Y-92234438D02*
X183656014Y-92139200D01*
X183656014Y-92139200D02*
X183751252Y-92043961D01*
X183751252Y-92043961D02*
X183751252Y-91377295D01*
X183751252Y-91377295D02*
X183370300Y-91377295D01*
X184608395Y-91186819D02*
X185275062Y-91186819D01*
X185560776Y-92234438D02*
X184608395Y-92234438D01*
X184608395Y-92234438D02*
X184608395Y-90234438D01*
X184608395Y-90234438D02*
X185560776Y-90234438D01*
X186322681Y-91663009D02*
X187275062Y-91663009D01*
X186132205Y-92234438D02*
X186798871Y-90234438D01*
X186798871Y-90234438D02*
X187465538Y-92234438D01*
X188132205Y-92234438D02*
X188132205Y-90234438D01*
X188132205Y-90234438D02*
X189275062Y-92234438D01*
X189275062Y-92234438D02*
X189275062Y-90234438D01*
X191370300Y-92043961D02*
X191275062Y-92139200D01*
X191275062Y-92139200D02*
X190989348Y-92234438D01*
X190989348Y-92234438D02*
X190798872Y-92234438D01*
X190798872Y-92234438D02*
X190513157Y-92139200D01*
X190513157Y-92139200D02*
X190322681Y-91948723D01*
X190322681Y-91948723D02*
X190227443Y-91758247D01*
X190227443Y-91758247D02*
X190132205Y-91377295D01*
X190132205Y-91377295D02*
X190132205Y-91091580D01*
X190132205Y-91091580D02*
X190227443Y-90710628D01*
X190227443Y-90710628D02*
X190322681Y-90520152D01*
X190322681Y-90520152D02*
X190513157Y-90329676D01*
X190513157Y-90329676D02*
X190798872Y-90234438D01*
X190798872Y-90234438D02*
X190989348Y-90234438D01*
X190989348Y-90234438D02*
X191275062Y-90329676D01*
X191275062Y-90329676D02*
X191370300Y-90424914D01*
X192227443Y-91186819D02*
X192894110Y-91186819D01*
X193179824Y-92234438D02*
X192227443Y-92234438D01*
X192227443Y-92234438D02*
X192227443Y-90234438D01*
X192227443Y-90234438D02*
X193179824Y-90234438D01*
D11*
X172799104Y-111379047D02*
X172799104Y-110902857D01*
X173084819Y-111474285D02*
X172084819Y-111140952D01*
X172084819Y-111140952D02*
X173084819Y-110807619D01*
X173084819Y-110474285D02*
X172418152Y-110474285D01*
X172608628Y-110474285D02*
X172513390Y-110426666D01*
X172513390Y-110426666D02*
X172465771Y-110379047D01*
X172465771Y-110379047D02*
X172418152Y-110283809D01*
X172418152Y-110283809D02*
X172418152Y-110188571D01*
X173084819Y-109426666D02*
X172084819Y-109426666D01*
X173037200Y-109426666D02*
X173084819Y-109521904D01*
X173084819Y-109521904D02*
X173084819Y-109712380D01*
X173084819Y-109712380D02*
X173037200Y-109807618D01*
X173037200Y-109807618D02*
X172989580Y-109855237D01*
X172989580Y-109855237D02*
X172894342Y-109902856D01*
X172894342Y-109902856D02*
X172608628Y-109902856D01*
X172608628Y-109902856D02*
X172513390Y-109855237D01*
X172513390Y-109855237D02*
X172465771Y-109807618D01*
X172465771Y-109807618D02*
X172418152Y-109712380D01*
X172418152Y-109712380D02*
X172418152Y-109521904D01*
X172418152Y-109521904D02*
X172465771Y-109426666D01*
X172418152Y-108521904D02*
X173084819Y-108521904D01*
X172418152Y-108950475D02*
X172941961Y-108950475D01*
X172941961Y-108950475D02*
X173037200Y-108902856D01*
X173037200Y-108902856D02*
X173084819Y-108807618D01*
X173084819Y-108807618D02*
X173084819Y-108664761D01*
X173084819Y-108664761D02*
X173037200Y-108569523D01*
X173037200Y-108569523D02*
X172989580Y-108521904D01*
X173084819Y-108045713D02*
X172418152Y-108045713D01*
X172084819Y-108045713D02*
X172132438Y-108093332D01*
X172132438Y-108093332D02*
X172180057Y-108045713D01*
X172180057Y-108045713D02*
X172132438Y-107998094D01*
X172132438Y-107998094D02*
X172084819Y-108045713D01*
X172084819Y-108045713D02*
X172180057Y-108045713D01*
X172418152Y-107569523D02*
X173084819Y-107569523D01*
X172513390Y-107569523D02*
X172465771Y-107521904D01*
X172465771Y-107521904D02*
X172418152Y-107426666D01*
X172418152Y-107426666D02*
X172418152Y-107283809D01*
X172418152Y-107283809D02*
X172465771Y-107188571D01*
X172465771Y-107188571D02*
X172561009Y-107140952D01*
X172561009Y-107140952D02*
X173084819Y-107140952D01*
X173084819Y-106521904D02*
X173037200Y-106617142D01*
X173037200Y-106617142D02*
X172989580Y-106664761D01*
X172989580Y-106664761D02*
X172894342Y-106712380D01*
X172894342Y-106712380D02*
X172608628Y-106712380D01*
X172608628Y-106712380D02*
X172513390Y-106664761D01*
X172513390Y-106664761D02*
X172465771Y-106617142D01*
X172465771Y-106617142D02*
X172418152Y-106521904D01*
X172418152Y-106521904D02*
X172418152Y-106379047D01*
X172418152Y-106379047D02*
X172465771Y-106283809D01*
X172465771Y-106283809D02*
X172513390Y-106236190D01*
X172513390Y-106236190D02*
X172608628Y-106188571D01*
X172608628Y-106188571D02*
X172894342Y-106188571D01*
X172894342Y-106188571D02*
X172989580Y-106236190D01*
X172989580Y-106236190D02*
X173037200Y-106283809D01*
X173037200Y-106283809D02*
X173084819Y-106379047D01*
X173084819Y-106379047D02*
X173084819Y-106521904D01*
X173084819Y-105759999D02*
X172084819Y-105759999D01*
X172084819Y-105759999D02*
X173084819Y-105188571D01*
X173084819Y-105188571D02*
X172084819Y-105188571D01*
X173084819Y-104283809D02*
X172561009Y-104283809D01*
X172561009Y-104283809D02*
X172465771Y-104331428D01*
X172465771Y-104331428D02*
X172418152Y-104426666D01*
X172418152Y-104426666D02*
X172418152Y-104617142D01*
X172418152Y-104617142D02*
X172465771Y-104712380D01*
X173037200Y-104283809D02*
X173084819Y-104379047D01*
X173084819Y-104379047D02*
X173084819Y-104617142D01*
X173084819Y-104617142D02*
X173037200Y-104712380D01*
X173037200Y-104712380D02*
X172941961Y-104759999D01*
X172941961Y-104759999D02*
X172846723Y-104759999D01*
X172846723Y-104759999D02*
X172751485Y-104712380D01*
X172751485Y-104712380D02*
X172703866Y-104617142D01*
X172703866Y-104617142D02*
X172703866Y-104379047D01*
X172703866Y-104379047D02*
X172656247Y-104283809D01*
X172418152Y-103807618D02*
X173084819Y-103807618D01*
X172513390Y-103807618D02*
X172465771Y-103759999D01*
X172465771Y-103759999D02*
X172418152Y-103664761D01*
X172418152Y-103664761D02*
X172418152Y-103521904D01*
X172418152Y-103521904D02*
X172465771Y-103426666D01*
X172465771Y-103426666D02*
X172561009Y-103379047D01*
X172561009Y-103379047D02*
X173084819Y-103379047D01*
X173084819Y-102759999D02*
X173037200Y-102855237D01*
X173037200Y-102855237D02*
X172989580Y-102902856D01*
X172989580Y-102902856D02*
X172894342Y-102950475D01*
X172894342Y-102950475D02*
X172608628Y-102950475D01*
X172608628Y-102950475D02*
X172513390Y-102902856D01*
X172513390Y-102902856D02*
X172465771Y-102855237D01*
X172465771Y-102855237D02*
X172418152Y-102759999D01*
X172418152Y-102759999D02*
X172418152Y-102617142D01*
X172418152Y-102617142D02*
X172465771Y-102521904D01*
X172465771Y-102521904D02*
X172513390Y-102474285D01*
X172513390Y-102474285D02*
X172608628Y-102426666D01*
X172608628Y-102426666D02*
X172894342Y-102426666D01*
X172894342Y-102426666D02*
X172989580Y-102474285D01*
X172989580Y-102474285D02*
X173037200Y-102521904D01*
X173037200Y-102521904D02*
X173084819Y-102617142D01*
X173084819Y-102617142D02*
X173084819Y-102759999D01*
X172084819Y-102140951D02*
X172084819Y-101569523D01*
X173084819Y-101855237D02*
X172084819Y-101855237D01*
X172418152Y-101331427D02*
X173084819Y-101093332D01*
X172418152Y-100855237D02*
X173084819Y-101093332D01*
X173084819Y-101093332D02*
X173322914Y-101188570D01*
X173322914Y-101188570D02*
X173370533Y-101236189D01*
X173370533Y-101236189D02*
X173418152Y-101331427D01*
X172418152Y-100474284D02*
X173418152Y-100474284D01*
X172465771Y-100474284D02*
X172418152Y-100379046D01*
X172418152Y-100379046D02*
X172418152Y-100188570D01*
X172418152Y-100188570D02*
X172465771Y-100093332D01*
X172465771Y-100093332D02*
X172513390Y-100045713D01*
X172513390Y-100045713D02*
X172608628Y-99998094D01*
X172608628Y-99998094D02*
X172894342Y-99998094D01*
X172894342Y-99998094D02*
X172989580Y-100045713D01*
X172989580Y-100045713D02*
X173037200Y-100093332D01*
X173037200Y-100093332D02*
X173084819Y-100188570D01*
X173084819Y-100188570D02*
X173084819Y-100379046D01*
X173084819Y-100379046D02*
X173037200Y-100474284D01*
X173037200Y-99188570D02*
X173084819Y-99283808D01*
X173084819Y-99283808D02*
X173084819Y-99474284D01*
X173084819Y-99474284D02*
X173037200Y-99569522D01*
X173037200Y-99569522D02*
X172941961Y-99617141D01*
X172941961Y-99617141D02*
X172561009Y-99617141D01*
X172561009Y-99617141D02*
X172465771Y-99569522D01*
X172465771Y-99569522D02*
X172418152Y-99474284D01*
X172418152Y-99474284D02*
X172418152Y-99283808D01*
X172418152Y-99283808D02*
X172465771Y-99188570D01*
X172465771Y-99188570D02*
X172561009Y-99140951D01*
X172561009Y-99140951D02*
X172656247Y-99140951D01*
X172656247Y-99140951D02*
X172751485Y-99617141D01*
X172989580Y-98140951D02*
X173037200Y-98188570D01*
X173037200Y-98188570D02*
X173084819Y-98331427D01*
X173084819Y-98331427D02*
X173084819Y-98426665D01*
X173084819Y-98426665D02*
X173037200Y-98569522D01*
X173037200Y-98569522D02*
X172941961Y-98664760D01*
X172941961Y-98664760D02*
X172846723Y-98712379D01*
X172846723Y-98712379D02*
X172656247Y-98759998D01*
X172656247Y-98759998D02*
X172513390Y-98759998D01*
X172513390Y-98759998D02*
X172322914Y-98712379D01*
X172322914Y-98712379D02*
X172227676Y-98664760D01*
X172227676Y-98664760D02*
X172132438Y-98569522D01*
X172132438Y-98569522D02*
X172084819Y-98426665D01*
X172084819Y-98426665D02*
X172084819Y-98331427D01*
X172084819Y-98331427D02*
X172132438Y-98188570D01*
X172132438Y-98188570D02*
X172180057Y-98140951D01*
X132535180Y-102617143D02*
X131725657Y-102617143D01*
X131725657Y-102617143D02*
X131630419Y-102664762D01*
X131630419Y-102664762D02*
X131582800Y-102712381D01*
X131582800Y-102712381D02*
X131535180Y-102807619D01*
X131535180Y-102807619D02*
X131535180Y-102998095D01*
X131535180Y-102998095D02*
X131582800Y-103093333D01*
X131582800Y-103093333D02*
X131630419Y-103140952D01*
X131630419Y-103140952D02*
X131725657Y-103188571D01*
X131725657Y-103188571D02*
X132535180Y-103188571D01*
X131582800Y-103617143D02*
X131535180Y-103760000D01*
X131535180Y-103760000D02*
X131535180Y-103998095D01*
X131535180Y-103998095D02*
X131582800Y-104093333D01*
X131582800Y-104093333D02*
X131630419Y-104140952D01*
X131630419Y-104140952D02*
X131725657Y-104188571D01*
X131725657Y-104188571D02*
X131820895Y-104188571D01*
X131820895Y-104188571D02*
X131916133Y-104140952D01*
X131916133Y-104140952D02*
X131963752Y-104093333D01*
X131963752Y-104093333D02*
X132011371Y-103998095D01*
X132011371Y-103998095D02*
X132058990Y-103807619D01*
X132058990Y-103807619D02*
X132106609Y-103712381D01*
X132106609Y-103712381D02*
X132154228Y-103664762D01*
X132154228Y-103664762D02*
X132249466Y-103617143D01*
X132249466Y-103617143D02*
X132344704Y-103617143D01*
X132344704Y-103617143D02*
X132439942Y-103664762D01*
X132439942Y-103664762D02*
X132487561Y-103712381D01*
X132487561Y-103712381D02*
X132535180Y-103807619D01*
X132535180Y-103807619D02*
X132535180Y-104045714D01*
X132535180Y-104045714D02*
X132487561Y-104188571D01*
X132058990Y-104950476D02*
X132011371Y-105093333D01*
X132011371Y-105093333D02*
X131963752Y-105140952D01*
X131963752Y-105140952D02*
X131868514Y-105188571D01*
X131868514Y-105188571D02*
X131725657Y-105188571D01*
X131725657Y-105188571D02*
X131630419Y-105140952D01*
X131630419Y-105140952D02*
X131582800Y-105093333D01*
X131582800Y-105093333D02*
X131535180Y-104998095D01*
X131535180Y-104998095D02*
X131535180Y-104617143D01*
X131535180Y-104617143D02*
X132535180Y-104617143D01*
X132535180Y-104617143D02*
X132535180Y-104950476D01*
X132535180Y-104950476D02*
X132487561Y-105045714D01*
X132487561Y-105045714D02*
X132439942Y-105093333D01*
X132439942Y-105093333D02*
X132344704Y-105140952D01*
X132344704Y-105140952D02*
X132249466Y-105140952D01*
X132249466Y-105140952D02*
X132154228Y-105093333D01*
X132154228Y-105093333D02*
X132106609Y-105045714D01*
X132106609Y-105045714D02*
X132058990Y-104950476D01*
X132058990Y-104950476D02*
X132058990Y-104617143D01*
X131439942Y-105379048D02*
X131439942Y-106140952D01*
X131630419Y-106950476D02*
X131582800Y-106902857D01*
X131582800Y-106902857D02*
X131535180Y-106760000D01*
X131535180Y-106760000D02*
X131535180Y-106664762D01*
X131535180Y-106664762D02*
X131582800Y-106521905D01*
X131582800Y-106521905D02*
X131678038Y-106426667D01*
X131678038Y-106426667D02*
X131773276Y-106379048D01*
X131773276Y-106379048D02*
X131963752Y-106331429D01*
X131963752Y-106331429D02*
X132106609Y-106331429D01*
X132106609Y-106331429D02*
X132297085Y-106379048D01*
X132297085Y-106379048D02*
X132392323Y-106426667D01*
X132392323Y-106426667D02*
X132487561Y-106521905D01*
X132487561Y-106521905D02*
X132535180Y-106664762D01*
X132535180Y-106664762D02*
X132535180Y-106760000D01*
X132535180Y-106760000D02*
X132487561Y-106902857D01*
X132487561Y-106902857D02*
X132439942Y-106950476D01*
X157944819Y-82951904D02*
X158754342Y-82951904D01*
X158754342Y-82951904D02*
X158849580Y-82904285D01*
X158849580Y-82904285D02*
X158897200Y-82856666D01*
X158897200Y-82856666D02*
X158944819Y-82761428D01*
X158944819Y-82761428D02*
X158944819Y-82570952D01*
X158944819Y-82570952D02*
X158897200Y-82475714D01*
X158897200Y-82475714D02*
X158849580Y-82428095D01*
X158849580Y-82428095D02*
X158754342Y-82380476D01*
X158754342Y-82380476D02*
X157944819Y-82380476D01*
X158944819Y-81380476D02*
X158944819Y-81951904D01*
X158944819Y-81666190D02*
X157944819Y-81666190D01*
X157944819Y-81666190D02*
X158087676Y-81761428D01*
X158087676Y-81761428D02*
X158182914Y-81856666D01*
X158182914Y-81856666D02*
X158230533Y-81951904D01*
X156369047Y-115249819D02*
X156369047Y-114249819D01*
X157416665Y-115249819D02*
X157083332Y-114773628D01*
X156845237Y-115249819D02*
X156845237Y-114249819D01*
X156845237Y-114249819D02*
X157226189Y-114249819D01*
X157226189Y-114249819D02*
X157321427Y-114297438D01*
X157321427Y-114297438D02*
X157369046Y-114345057D01*
X157369046Y-114345057D02*
X157416665Y-114440295D01*
X157416665Y-114440295D02*
X157416665Y-114583152D01*
X157416665Y-114583152D02*
X157369046Y-114678390D01*
X157369046Y-114678390D02*
X157321427Y-114726009D01*
X157321427Y-114726009D02*
X157226189Y-114773628D01*
X157226189Y-114773628D02*
X156845237Y-114773628D01*
X157797618Y-115202200D02*
X157940475Y-115249819D01*
X157940475Y-115249819D02*
X158178570Y-115249819D01*
X158178570Y-115249819D02*
X158273808Y-115202200D01*
X158273808Y-115202200D02*
X158321427Y-115154580D01*
X158321427Y-115154580D02*
X158369046Y-115059342D01*
X158369046Y-115059342D02*
X158369046Y-114964104D01*
X158369046Y-114964104D02*
X158321427Y-114868866D01*
X158321427Y-114868866D02*
X158273808Y-114821247D01*
X158273808Y-114821247D02*
X158178570Y-114773628D01*
X158178570Y-114773628D02*
X157988094Y-114726009D01*
X157988094Y-114726009D02*
X157892856Y-114678390D01*
X157892856Y-114678390D02*
X157845237Y-114630771D01*
X157845237Y-114630771D02*
X157797618Y-114535533D01*
X157797618Y-114535533D02*
X157797618Y-114440295D01*
X157797618Y-114440295D02*
X157845237Y-114345057D01*
X157845237Y-114345057D02*
X157892856Y-114297438D01*
X157892856Y-114297438D02*
X157988094Y-114249819D01*
X157988094Y-114249819D02*
X158226189Y-114249819D01*
X158226189Y-114249819D02*
X158369046Y-114297438D01*
X159178570Y-115202200D02*
X159083332Y-115249819D01*
X159083332Y-115249819D02*
X158892856Y-115249819D01*
X158892856Y-115249819D02*
X158797618Y-115202200D01*
X158797618Y-115202200D02*
X158749999Y-115106961D01*
X158749999Y-115106961D02*
X158749999Y-114726009D01*
X158749999Y-114726009D02*
X158797618Y-114630771D01*
X158797618Y-114630771D02*
X158892856Y-114583152D01*
X158892856Y-114583152D02*
X159083332Y-114583152D01*
X159083332Y-114583152D02*
X159178570Y-114630771D01*
X159178570Y-114630771D02*
X159226189Y-114726009D01*
X159226189Y-114726009D02*
X159226189Y-114821247D01*
X159226189Y-114821247D02*
X158749999Y-114916485D01*
X159654761Y-114583152D02*
X159654761Y-115249819D01*
X159654761Y-114678390D02*
X159702380Y-114630771D01*
X159702380Y-114630771D02*
X159797618Y-114583152D01*
X159797618Y-114583152D02*
X159940475Y-114583152D01*
X159940475Y-114583152D02*
X160035713Y-114630771D01*
X160035713Y-114630771D02*
X160083332Y-114726009D01*
X160083332Y-114726009D02*
X160083332Y-115249819D01*
X160511904Y-115202200D02*
X160607142Y-115249819D01*
X160607142Y-115249819D02*
X160797618Y-115249819D01*
X160797618Y-115249819D02*
X160892856Y-115202200D01*
X160892856Y-115202200D02*
X160940475Y-115106961D01*
X160940475Y-115106961D02*
X160940475Y-115059342D01*
X160940475Y-115059342D02*
X160892856Y-114964104D01*
X160892856Y-114964104D02*
X160797618Y-114916485D01*
X160797618Y-114916485D02*
X160654761Y-114916485D01*
X160654761Y-114916485D02*
X160559523Y-114868866D01*
X160559523Y-114868866D02*
X160511904Y-114773628D01*
X160511904Y-114773628D02*
X160511904Y-114726009D01*
X160511904Y-114726009D02*
X160559523Y-114630771D01*
X160559523Y-114630771D02*
X160654761Y-114583152D01*
X160654761Y-114583152D02*
X160797618Y-114583152D01*
X160797618Y-114583152D02*
X160892856Y-114630771D01*
X161511904Y-115249819D02*
X161416666Y-115202200D01*
X161416666Y-115202200D02*
X161369047Y-115154580D01*
X161369047Y-115154580D02*
X161321428Y-115059342D01*
X161321428Y-115059342D02*
X161321428Y-114773628D01*
X161321428Y-114773628D02*
X161369047Y-114678390D01*
X161369047Y-114678390D02*
X161416666Y-114630771D01*
X161416666Y-114630771D02*
X161511904Y-114583152D01*
X161511904Y-114583152D02*
X161654761Y-114583152D01*
X161654761Y-114583152D02*
X161749999Y-114630771D01*
X161749999Y-114630771D02*
X161797618Y-114678390D01*
X161797618Y-114678390D02*
X161845237Y-114773628D01*
X161845237Y-114773628D02*
X161845237Y-115059342D01*
X161845237Y-115059342D02*
X161797618Y-115154580D01*
X161797618Y-115154580D02*
X161749999Y-115202200D01*
X161749999Y-115202200D02*
X161654761Y-115249819D01*
X161654761Y-115249819D02*
X161511904Y-115249819D01*
X162273809Y-115249819D02*
X162273809Y-114583152D01*
X162273809Y-114773628D02*
X162321428Y-114678390D01*
X162321428Y-114678390D02*
X162369047Y-114630771D01*
X162369047Y-114630771D02*
X162464285Y-114583152D01*
X162464285Y-114583152D02*
X162559523Y-114583152D01*
X163321428Y-114249819D02*
X163130952Y-114249819D01*
X163130952Y-114249819D02*
X163035714Y-114297438D01*
X163035714Y-114297438D02*
X162988095Y-114345057D01*
X162988095Y-114345057D02*
X162892857Y-114487914D01*
X162892857Y-114487914D02*
X162845238Y-114678390D01*
X162845238Y-114678390D02*
X162845238Y-115059342D01*
X162845238Y-115059342D02*
X162892857Y-115154580D01*
X162892857Y-115154580D02*
X162940476Y-115202200D01*
X162940476Y-115202200D02*
X163035714Y-115249819D01*
X163035714Y-115249819D02*
X163226190Y-115249819D01*
X163226190Y-115249819D02*
X163321428Y-115202200D01*
X163321428Y-115202200D02*
X163369047Y-115154580D01*
X163369047Y-115154580D02*
X163416666Y-115059342D01*
X163416666Y-115059342D02*
X163416666Y-114821247D01*
X163416666Y-114821247D02*
X163369047Y-114726009D01*
X163369047Y-114726009D02*
X163321428Y-114678390D01*
X163321428Y-114678390D02*
X163226190Y-114630771D01*
X163226190Y-114630771D02*
X163035714Y-114630771D01*
X163035714Y-114630771D02*
X162940476Y-114678390D01*
X162940476Y-114678390D02*
X162892857Y-114726009D01*
X162892857Y-114726009D02*
X162845238Y-114821247D01*
X163797619Y-114964104D02*
X164273809Y-114964104D01*
X163702381Y-115249819D02*
X164035714Y-114249819D01*
X164035714Y-114249819D02*
X164369047Y-115249819D01*
X164702381Y-115249819D02*
X164702381Y-114583152D01*
X164702381Y-114773628D02*
X164750000Y-114678390D01*
X164750000Y-114678390D02*
X164797619Y-114630771D01*
X164797619Y-114630771D02*
X164892857Y-114583152D01*
X164892857Y-114583152D02*
X164988095Y-114583152D01*
X165321429Y-115249819D02*
X165321429Y-114583152D01*
X165321429Y-114773628D02*
X165369048Y-114678390D01*
X165369048Y-114678390D02*
X165416667Y-114630771D01*
X165416667Y-114630771D02*
X165511905Y-114583152D01*
X165511905Y-114583152D02*
X165607143Y-114583152D01*
X166369048Y-115249819D02*
X166369048Y-114726009D01*
X166369048Y-114726009D02*
X166321429Y-114630771D01*
X166321429Y-114630771D02*
X166226191Y-114583152D01*
X166226191Y-114583152D02*
X166035715Y-114583152D01*
X166035715Y-114583152D02*
X165940477Y-114630771D01*
X166369048Y-115202200D02*
X166273810Y-115249819D01*
X166273810Y-115249819D02*
X166035715Y-115249819D01*
X166035715Y-115249819D02*
X165940477Y-115202200D01*
X165940477Y-115202200D02*
X165892858Y-115106961D01*
X165892858Y-115106961D02*
X165892858Y-115011723D01*
X165892858Y-115011723D02*
X165940477Y-114916485D01*
X165940477Y-114916485D02*
X166035715Y-114868866D01*
X166035715Y-114868866D02*
X166273810Y-114868866D01*
X166273810Y-114868866D02*
X166369048Y-114821247D01*
X166750001Y-114583152D02*
X166988096Y-115249819D01*
X167226191Y-114583152D02*
X166988096Y-115249819D01*
X166988096Y-115249819D02*
X166892858Y-115487914D01*
X166892858Y-115487914D02*
X166845239Y-115535533D01*
X166845239Y-115535533D02*
X166750001Y-115583152D01*
X202654580Y-101178571D02*
X202702200Y-101226190D01*
X202702200Y-101226190D02*
X202749819Y-101369047D01*
X202749819Y-101369047D02*
X202749819Y-101464285D01*
X202749819Y-101464285D02*
X202702200Y-101607142D01*
X202702200Y-101607142D02*
X202606961Y-101702380D01*
X202606961Y-101702380D02*
X202511723Y-101749999D01*
X202511723Y-101749999D02*
X202321247Y-101797618D01*
X202321247Y-101797618D02*
X202178390Y-101797618D01*
X202178390Y-101797618D02*
X201987914Y-101749999D01*
X201987914Y-101749999D02*
X201892676Y-101702380D01*
X201892676Y-101702380D02*
X201797438Y-101607142D01*
X201797438Y-101607142D02*
X201749819Y-101464285D01*
X201749819Y-101464285D02*
X201749819Y-101369047D01*
X201749819Y-101369047D02*
X201797438Y-101226190D01*
X201797438Y-101226190D02*
X201845057Y-101178571D01*
X202226009Y-100749999D02*
X202226009Y-100416666D01*
X202749819Y-100273809D02*
X202749819Y-100749999D01*
X202749819Y-100749999D02*
X201749819Y-100749999D01*
X201749819Y-100749999D02*
X201749819Y-100273809D01*
X202749819Y-99369047D02*
X202749819Y-99845237D01*
X202749819Y-99845237D02*
X201749819Y-99845237D01*
X202749819Y-98559523D02*
X202749819Y-99035713D01*
X202749819Y-99035713D02*
X201749819Y-99035713D01*
X201845057Y-98273808D02*
X201797438Y-98226189D01*
X201797438Y-98226189D02*
X201749819Y-98130951D01*
X201749819Y-98130951D02*
X201749819Y-97892856D01*
X201749819Y-97892856D02*
X201797438Y-97797618D01*
X201797438Y-97797618D02*
X201845057Y-97749999D01*
X201845057Y-97749999D02*
X201940295Y-97702380D01*
X201940295Y-97702380D02*
X202035533Y-97702380D01*
X202035533Y-97702380D02*
X202178390Y-97749999D01*
X202178390Y-97749999D02*
X202749819Y-98321427D01*
X202749819Y-98321427D02*
X202749819Y-97702380D01*
X174690476Y-87654819D02*
X174690476Y-86654819D01*
X174690476Y-86654819D02*
X175023809Y-87369104D01*
X175023809Y-87369104D02*
X175357142Y-86654819D01*
X175357142Y-86654819D02*
X175357142Y-87654819D01*
X175785714Y-86750057D02*
X175833333Y-86702438D01*
X175833333Y-86702438D02*
X175928571Y-86654819D01*
X175928571Y-86654819D02*
X176166666Y-86654819D01*
X176166666Y-86654819D02*
X176261904Y-86702438D01*
X176261904Y-86702438D02*
X176309523Y-86750057D01*
X176309523Y-86750057D02*
X176357142Y-86845295D01*
X176357142Y-86845295D02*
X176357142Y-86940533D01*
X176357142Y-86940533D02*
X176309523Y-87083390D01*
X176309523Y-87083390D02*
X175738095Y-87654819D01*
X175738095Y-87654819D02*
X176357142Y-87654819D01*
X136452379Y-115254819D02*
X136119046Y-114778628D01*
X135880951Y-115254819D02*
X135880951Y-114254819D01*
X135880951Y-114254819D02*
X136261903Y-114254819D01*
X136261903Y-114254819D02*
X136357141Y-114302438D01*
X136357141Y-114302438D02*
X136404760Y-114350057D01*
X136404760Y-114350057D02*
X136452379Y-114445295D01*
X136452379Y-114445295D02*
X136452379Y-114588152D01*
X136452379Y-114588152D02*
X136404760Y-114683390D01*
X136404760Y-114683390D02*
X136357141Y-114731009D01*
X136357141Y-114731009D02*
X136261903Y-114778628D01*
X136261903Y-114778628D02*
X135880951Y-114778628D01*
X137023808Y-115254819D02*
X136928570Y-115207200D01*
X136928570Y-115207200D02*
X136880951Y-115159580D01*
X136880951Y-115159580D02*
X136833332Y-115064342D01*
X136833332Y-115064342D02*
X136833332Y-114778628D01*
X136833332Y-114778628D02*
X136880951Y-114683390D01*
X136880951Y-114683390D02*
X136928570Y-114635771D01*
X136928570Y-114635771D02*
X137023808Y-114588152D01*
X137023808Y-114588152D02*
X137166665Y-114588152D01*
X137166665Y-114588152D02*
X137261903Y-114635771D01*
X137261903Y-114635771D02*
X137309522Y-114683390D01*
X137309522Y-114683390D02*
X137357141Y-114778628D01*
X137357141Y-114778628D02*
X137357141Y-115064342D01*
X137357141Y-115064342D02*
X137309522Y-115159580D01*
X137309522Y-115159580D02*
X137261903Y-115207200D01*
X137261903Y-115207200D02*
X137166665Y-115254819D01*
X137166665Y-115254819D02*
X137023808Y-115254819D01*
X137642856Y-114588152D02*
X138023808Y-114588152D01*
X137785713Y-114254819D02*
X137785713Y-115111961D01*
X137785713Y-115111961D02*
X137833332Y-115207200D01*
X137833332Y-115207200D02*
X137928570Y-115254819D01*
X137928570Y-115254819D02*
X138023808Y-115254819D01*
X138785713Y-115254819D02*
X138785713Y-114731009D01*
X138785713Y-114731009D02*
X138738094Y-114635771D01*
X138738094Y-114635771D02*
X138642856Y-114588152D01*
X138642856Y-114588152D02*
X138452380Y-114588152D01*
X138452380Y-114588152D02*
X138357142Y-114635771D01*
X138785713Y-115207200D02*
X138690475Y-115254819D01*
X138690475Y-115254819D02*
X138452380Y-115254819D01*
X138452380Y-115254819D02*
X138357142Y-115207200D01*
X138357142Y-115207200D02*
X138309523Y-115111961D01*
X138309523Y-115111961D02*
X138309523Y-115016723D01*
X138309523Y-115016723D02*
X138357142Y-114921485D01*
X138357142Y-114921485D02*
X138452380Y-114873866D01*
X138452380Y-114873866D02*
X138690475Y-114873866D01*
X138690475Y-114873866D02*
X138785713Y-114826247D01*
X139261904Y-115254819D02*
X139261904Y-114588152D01*
X139261904Y-114778628D02*
X139309523Y-114683390D01*
X139309523Y-114683390D02*
X139357142Y-114635771D01*
X139357142Y-114635771D02*
X139452380Y-114588152D01*
X139452380Y-114588152D02*
X139547618Y-114588152D01*
X139785714Y-114588152D02*
X140023809Y-115254819D01*
X140261904Y-114588152D02*
X140023809Y-115254819D01*
X140023809Y-115254819D02*
X139928571Y-115492914D01*
X139928571Y-115492914D02*
X139880952Y-115540533D01*
X139880952Y-115540533D02*
X139785714Y-115588152D01*
X140642857Y-114731009D02*
X140976190Y-114731009D01*
X141119047Y-115254819D02*
X140642857Y-115254819D01*
X140642857Y-115254819D02*
X140642857Y-114254819D01*
X140642857Y-114254819D02*
X141119047Y-114254819D01*
X141547619Y-114588152D02*
X141547619Y-115254819D01*
X141547619Y-114683390D02*
X141595238Y-114635771D01*
X141595238Y-114635771D02*
X141690476Y-114588152D01*
X141690476Y-114588152D02*
X141833333Y-114588152D01*
X141833333Y-114588152D02*
X141928571Y-114635771D01*
X141928571Y-114635771D02*
X141976190Y-114731009D01*
X141976190Y-114731009D02*
X141976190Y-115254819D01*
X142880952Y-115207200D02*
X142785714Y-115254819D01*
X142785714Y-115254819D02*
X142595238Y-115254819D01*
X142595238Y-115254819D02*
X142500000Y-115207200D01*
X142500000Y-115207200D02*
X142452381Y-115159580D01*
X142452381Y-115159580D02*
X142404762Y-115064342D01*
X142404762Y-115064342D02*
X142404762Y-114778628D01*
X142404762Y-114778628D02*
X142452381Y-114683390D01*
X142452381Y-114683390D02*
X142500000Y-114635771D01*
X142500000Y-114635771D02*
X142595238Y-114588152D01*
X142595238Y-114588152D02*
X142785714Y-114588152D01*
X142785714Y-114588152D02*
X142880952Y-114635771D01*
X143452381Y-115254819D02*
X143357143Y-115207200D01*
X143357143Y-115207200D02*
X143309524Y-115159580D01*
X143309524Y-115159580D02*
X143261905Y-115064342D01*
X143261905Y-115064342D02*
X143261905Y-114778628D01*
X143261905Y-114778628D02*
X143309524Y-114683390D01*
X143309524Y-114683390D02*
X143357143Y-114635771D01*
X143357143Y-114635771D02*
X143452381Y-114588152D01*
X143452381Y-114588152D02*
X143595238Y-114588152D01*
X143595238Y-114588152D02*
X143690476Y-114635771D01*
X143690476Y-114635771D02*
X143738095Y-114683390D01*
X143738095Y-114683390D02*
X143785714Y-114778628D01*
X143785714Y-114778628D02*
X143785714Y-115064342D01*
X143785714Y-115064342D02*
X143738095Y-115159580D01*
X143738095Y-115159580D02*
X143690476Y-115207200D01*
X143690476Y-115207200D02*
X143595238Y-115254819D01*
X143595238Y-115254819D02*
X143452381Y-115254819D01*
X144642857Y-115254819D02*
X144642857Y-114254819D01*
X144642857Y-115207200D02*
X144547619Y-115254819D01*
X144547619Y-115254819D02*
X144357143Y-115254819D01*
X144357143Y-115254819D02*
X144261905Y-115207200D01*
X144261905Y-115207200D02*
X144214286Y-115159580D01*
X144214286Y-115159580D02*
X144166667Y-115064342D01*
X144166667Y-115064342D02*
X144166667Y-114778628D01*
X144166667Y-114778628D02*
X144214286Y-114683390D01*
X144214286Y-114683390D02*
X144261905Y-114635771D01*
X144261905Y-114635771D02*
X144357143Y-114588152D01*
X144357143Y-114588152D02*
X144547619Y-114588152D01*
X144547619Y-114588152D02*
X144642857Y-114635771D01*
X145500000Y-115207200D02*
X145404762Y-115254819D01*
X145404762Y-115254819D02*
X145214286Y-115254819D01*
X145214286Y-115254819D02*
X145119048Y-115207200D01*
X145119048Y-115207200D02*
X145071429Y-115111961D01*
X145071429Y-115111961D02*
X145071429Y-114731009D01*
X145071429Y-114731009D02*
X145119048Y-114635771D01*
X145119048Y-114635771D02*
X145214286Y-114588152D01*
X145214286Y-114588152D02*
X145404762Y-114588152D01*
X145404762Y-114588152D02*
X145500000Y-114635771D01*
X145500000Y-114635771D02*
X145547619Y-114731009D01*
X145547619Y-114731009D02*
X145547619Y-114826247D01*
X145547619Y-114826247D02*
X145071429Y-114921485D01*
X145976191Y-115254819D02*
X145976191Y-114588152D01*
X145976191Y-114778628D02*
X146023810Y-114683390D01*
X146023810Y-114683390D02*
X146071429Y-114635771D01*
X146071429Y-114635771D02*
X146166667Y-114588152D01*
X146166667Y-114588152D02*
X146261905Y-114588152D01*
X165440476Y-87654819D02*
X165440476Y-86654819D01*
X165440476Y-86654819D02*
X165773809Y-87369104D01*
X165773809Y-87369104D02*
X166107142Y-86654819D01*
X166107142Y-86654819D02*
X166107142Y-87654819D01*
X167107142Y-87654819D02*
X166535714Y-87654819D01*
X166821428Y-87654819D02*
X166821428Y-86654819D01*
X166821428Y-86654819D02*
X166726190Y-86797676D01*
X166726190Y-86797676D02*
X166630952Y-86892914D01*
X166630952Y-86892914D02*
X166535714Y-86940533D01*
X175166665Y-115202200D02*
X175309522Y-115249819D01*
X175309522Y-115249819D02*
X175547617Y-115249819D01*
X175547617Y-115249819D02*
X175642855Y-115202200D01*
X175642855Y-115202200D02*
X175690474Y-115154580D01*
X175690474Y-115154580D02*
X175738093Y-115059342D01*
X175738093Y-115059342D02*
X175738093Y-114964104D01*
X175738093Y-114964104D02*
X175690474Y-114868866D01*
X175690474Y-114868866D02*
X175642855Y-114821247D01*
X175642855Y-114821247D02*
X175547617Y-114773628D01*
X175547617Y-114773628D02*
X175357141Y-114726009D01*
X175357141Y-114726009D02*
X175261903Y-114678390D01*
X175261903Y-114678390D02*
X175214284Y-114630771D01*
X175214284Y-114630771D02*
X175166665Y-114535533D01*
X175166665Y-114535533D02*
X175166665Y-114440295D01*
X175166665Y-114440295D02*
X175214284Y-114345057D01*
X175214284Y-114345057D02*
X175261903Y-114297438D01*
X175261903Y-114297438D02*
X175357141Y-114249819D01*
X175357141Y-114249819D02*
X175595236Y-114249819D01*
X175595236Y-114249819D02*
X175738093Y-114297438D01*
X176309522Y-115249819D02*
X176214284Y-115202200D01*
X176214284Y-115202200D02*
X176166665Y-115154580D01*
X176166665Y-115154580D02*
X176119046Y-115059342D01*
X176119046Y-115059342D02*
X176119046Y-114773628D01*
X176119046Y-114773628D02*
X176166665Y-114678390D01*
X176166665Y-114678390D02*
X176214284Y-114630771D01*
X176214284Y-114630771D02*
X176309522Y-114583152D01*
X176309522Y-114583152D02*
X176452379Y-114583152D01*
X176452379Y-114583152D02*
X176547617Y-114630771D01*
X176547617Y-114630771D02*
X176595236Y-114678390D01*
X176595236Y-114678390D02*
X176642855Y-114773628D01*
X176642855Y-114773628D02*
X176642855Y-115059342D01*
X176642855Y-115059342D02*
X176595236Y-115154580D01*
X176595236Y-115154580D02*
X176547617Y-115202200D01*
X176547617Y-115202200D02*
X176452379Y-115249819D01*
X176452379Y-115249819D02*
X176309522Y-115249819D01*
X177071427Y-114583152D02*
X177071427Y-115249819D01*
X177071427Y-114678390D02*
X177119046Y-114630771D01*
X177119046Y-114630771D02*
X177214284Y-114583152D01*
X177214284Y-114583152D02*
X177357141Y-114583152D01*
X177357141Y-114583152D02*
X177452379Y-114630771D01*
X177452379Y-114630771D02*
X177499998Y-114726009D01*
X177499998Y-114726009D02*
X177499998Y-115249819D01*
X178404760Y-115249819D02*
X178404760Y-114726009D01*
X178404760Y-114726009D02*
X178357141Y-114630771D01*
X178357141Y-114630771D02*
X178261903Y-114583152D01*
X178261903Y-114583152D02*
X178071427Y-114583152D01*
X178071427Y-114583152D02*
X177976189Y-114630771D01*
X178404760Y-115202200D02*
X178309522Y-115249819D01*
X178309522Y-115249819D02*
X178071427Y-115249819D01*
X178071427Y-115249819D02*
X177976189Y-115202200D01*
X177976189Y-115202200D02*
X177928570Y-115106961D01*
X177928570Y-115106961D02*
X177928570Y-115011723D01*
X177928570Y-115011723D02*
X177976189Y-114916485D01*
X177976189Y-114916485D02*
X178071427Y-114868866D01*
X178071427Y-114868866D02*
X178309522Y-114868866D01*
X178309522Y-114868866D02*
X178404760Y-114821247D01*
X178880951Y-115249819D02*
X178880951Y-114583152D01*
X178880951Y-114773628D02*
X178928570Y-114678390D01*
X178928570Y-114678390D02*
X178976189Y-114630771D01*
X178976189Y-114630771D02*
X179071427Y-114583152D01*
X179071427Y-114583152D02*
X179166665Y-114583152D01*
X179452380Y-115202200D02*
X179595237Y-115249819D01*
X179595237Y-115249819D02*
X179833332Y-115249819D01*
X179833332Y-115249819D02*
X179928570Y-115202200D01*
X179928570Y-115202200D02*
X179976189Y-115154580D01*
X179976189Y-115154580D02*
X180023808Y-115059342D01*
X180023808Y-115059342D02*
X180023808Y-114964104D01*
X180023808Y-114964104D02*
X179976189Y-114868866D01*
X179976189Y-114868866D02*
X179928570Y-114821247D01*
X179928570Y-114821247D02*
X179833332Y-114773628D01*
X179833332Y-114773628D02*
X179642856Y-114726009D01*
X179642856Y-114726009D02*
X179547618Y-114678390D01*
X179547618Y-114678390D02*
X179499999Y-114630771D01*
X179499999Y-114630771D02*
X179452380Y-114535533D01*
X179452380Y-114535533D02*
X179452380Y-114440295D01*
X179452380Y-114440295D02*
X179499999Y-114345057D01*
X179499999Y-114345057D02*
X179547618Y-114297438D01*
X179547618Y-114297438D02*
X179642856Y-114249819D01*
X179642856Y-114249819D02*
X179880951Y-114249819D01*
X179880951Y-114249819D02*
X180023808Y-114297438D01*
X180833332Y-115202200D02*
X180738094Y-115249819D01*
X180738094Y-115249819D02*
X180547618Y-115249819D01*
X180547618Y-115249819D02*
X180452380Y-115202200D01*
X180452380Y-115202200D02*
X180404761Y-115106961D01*
X180404761Y-115106961D02*
X180404761Y-114726009D01*
X180404761Y-114726009D02*
X180452380Y-114630771D01*
X180452380Y-114630771D02*
X180547618Y-114583152D01*
X180547618Y-114583152D02*
X180738094Y-114583152D01*
X180738094Y-114583152D02*
X180833332Y-114630771D01*
X180833332Y-114630771D02*
X180880951Y-114726009D01*
X180880951Y-114726009D02*
X180880951Y-114821247D01*
X180880951Y-114821247D02*
X180404761Y-114916485D01*
X181309523Y-114583152D02*
X181309523Y-115249819D01*
X181309523Y-114678390D02*
X181357142Y-114630771D01*
X181357142Y-114630771D02*
X181452380Y-114583152D01*
X181452380Y-114583152D02*
X181595237Y-114583152D01*
X181595237Y-114583152D02*
X181690475Y-114630771D01*
X181690475Y-114630771D02*
X181738094Y-114726009D01*
X181738094Y-114726009D02*
X181738094Y-115249819D01*
X182166666Y-115202200D02*
X182261904Y-115249819D01*
X182261904Y-115249819D02*
X182452380Y-115249819D01*
X182452380Y-115249819D02*
X182547618Y-115202200D01*
X182547618Y-115202200D02*
X182595237Y-115106961D01*
X182595237Y-115106961D02*
X182595237Y-115059342D01*
X182595237Y-115059342D02*
X182547618Y-114964104D01*
X182547618Y-114964104D02*
X182452380Y-114916485D01*
X182452380Y-114916485D02*
X182309523Y-114916485D01*
X182309523Y-114916485D02*
X182214285Y-114868866D01*
X182214285Y-114868866D02*
X182166666Y-114773628D01*
X182166666Y-114773628D02*
X182166666Y-114726009D01*
X182166666Y-114726009D02*
X182214285Y-114630771D01*
X182214285Y-114630771D02*
X182309523Y-114583152D01*
X182309523Y-114583152D02*
X182452380Y-114583152D01*
X182452380Y-114583152D02*
X182547618Y-114630771D01*
X183166666Y-115249819D02*
X183071428Y-115202200D01*
X183071428Y-115202200D02*
X183023809Y-115154580D01*
X183023809Y-115154580D02*
X182976190Y-115059342D01*
X182976190Y-115059342D02*
X182976190Y-114773628D01*
X182976190Y-114773628D02*
X183023809Y-114678390D01*
X183023809Y-114678390D02*
X183071428Y-114630771D01*
X183071428Y-114630771D02*
X183166666Y-114583152D01*
X183166666Y-114583152D02*
X183309523Y-114583152D01*
X183309523Y-114583152D02*
X183404761Y-114630771D01*
X183404761Y-114630771D02*
X183452380Y-114678390D01*
X183452380Y-114678390D02*
X183499999Y-114773628D01*
X183499999Y-114773628D02*
X183499999Y-115059342D01*
X183499999Y-115059342D02*
X183452380Y-115154580D01*
X183452380Y-115154580D02*
X183404761Y-115202200D01*
X183404761Y-115202200D02*
X183309523Y-115249819D01*
X183309523Y-115249819D02*
X183166666Y-115249819D01*
X183928571Y-115249819D02*
X183928571Y-114583152D01*
X183928571Y-114773628D02*
X183976190Y-114678390D01*
X183976190Y-114678390D02*
X184023809Y-114630771D01*
X184023809Y-114630771D02*
X184119047Y-114583152D01*
X184119047Y-114583152D02*
X184214285Y-114583152D01*
X184452381Y-114249819D02*
X185071428Y-114249819D01*
X185071428Y-114249819D02*
X184738095Y-114630771D01*
X184738095Y-114630771D02*
X184880952Y-114630771D01*
X184880952Y-114630771D02*
X184976190Y-114678390D01*
X184976190Y-114678390D02*
X185023809Y-114726009D01*
X185023809Y-114726009D02*
X185071428Y-114821247D01*
X185071428Y-114821247D02*
X185071428Y-115059342D01*
X185071428Y-115059342D02*
X185023809Y-115154580D01*
X185023809Y-115154580D02*
X184976190Y-115202200D01*
X184976190Y-115202200D02*
X184880952Y-115249819D01*
X184880952Y-115249819D02*
X184595238Y-115249819D01*
X184595238Y-115249819D02*
X184500000Y-115202200D01*
X184500000Y-115202200D02*
X184452381Y-115154580D01*
X185452381Y-114964104D02*
X185928571Y-114964104D01*
X185357143Y-115249819D02*
X185690476Y-114249819D01*
X185690476Y-114249819D02*
X186023809Y-115249819D01*
X186357143Y-115249819D02*
X186357143Y-114583152D01*
X186357143Y-114773628D02*
X186404762Y-114678390D01*
X186404762Y-114678390D02*
X186452381Y-114630771D01*
X186452381Y-114630771D02*
X186547619Y-114583152D01*
X186547619Y-114583152D02*
X186642857Y-114583152D01*
X186976191Y-115249819D02*
X186976191Y-114583152D01*
X186976191Y-114773628D02*
X187023810Y-114678390D01*
X187023810Y-114678390D02*
X187071429Y-114630771D01*
X187071429Y-114630771D02*
X187166667Y-114583152D01*
X187166667Y-114583152D02*
X187261905Y-114583152D01*
X188023810Y-115249819D02*
X188023810Y-114726009D01*
X188023810Y-114726009D02*
X187976191Y-114630771D01*
X187976191Y-114630771D02*
X187880953Y-114583152D01*
X187880953Y-114583152D02*
X187690477Y-114583152D01*
X187690477Y-114583152D02*
X187595239Y-114630771D01*
X188023810Y-115202200D02*
X187928572Y-115249819D01*
X187928572Y-115249819D02*
X187690477Y-115249819D01*
X187690477Y-115249819D02*
X187595239Y-115202200D01*
X187595239Y-115202200D02*
X187547620Y-115106961D01*
X187547620Y-115106961D02*
X187547620Y-115011723D01*
X187547620Y-115011723D02*
X187595239Y-114916485D01*
X187595239Y-114916485D02*
X187690477Y-114868866D01*
X187690477Y-114868866D02*
X187928572Y-114868866D01*
X187928572Y-114868866D02*
X188023810Y-114821247D01*
X188404763Y-114583152D02*
X188642858Y-115249819D01*
X188880953Y-114583152D02*
X188642858Y-115249819D01*
X188642858Y-115249819D02*
X188547620Y-115487914D01*
X188547620Y-115487914D02*
X188500001Y-115535533D01*
X188500001Y-115535533D02*
X188404763Y-115583152D01*
X186984819Y-79678570D02*
X185984819Y-79678570D01*
X186984819Y-79202380D02*
X185984819Y-79202380D01*
X185984819Y-79202380D02*
X186984819Y-78630952D01*
X186984819Y-78630952D02*
X185984819Y-78630952D01*
X186699104Y-78202380D02*
X186699104Y-77726190D01*
X186984819Y-78297618D02*
X185984819Y-77964285D01*
X185984819Y-77964285D02*
X186984819Y-77630952D01*
X186984819Y-76773809D02*
X186984819Y-77345237D01*
X186984819Y-77059523D02*
X185984819Y-77059523D01*
X185984819Y-77059523D02*
X186127676Y-77154761D01*
X186127676Y-77154761D02*
X186222914Y-77249999D01*
X186222914Y-77249999D02*
X186270533Y-77345237D01*
X202654580Y-109678571D02*
X202702200Y-109726190D01*
X202702200Y-109726190D02*
X202749819Y-109869047D01*
X202749819Y-109869047D02*
X202749819Y-109964285D01*
X202749819Y-109964285D02*
X202702200Y-110107142D01*
X202702200Y-110107142D02*
X202606961Y-110202380D01*
X202606961Y-110202380D02*
X202511723Y-110249999D01*
X202511723Y-110249999D02*
X202321247Y-110297618D01*
X202321247Y-110297618D02*
X202178390Y-110297618D01*
X202178390Y-110297618D02*
X201987914Y-110249999D01*
X201987914Y-110249999D02*
X201892676Y-110202380D01*
X201892676Y-110202380D02*
X201797438Y-110107142D01*
X201797438Y-110107142D02*
X201749819Y-109964285D01*
X201749819Y-109964285D02*
X201749819Y-109869047D01*
X201749819Y-109869047D02*
X201797438Y-109726190D01*
X201797438Y-109726190D02*
X201845057Y-109678571D01*
X202226009Y-109249999D02*
X202226009Y-108916666D01*
X202749819Y-108773809D02*
X202749819Y-109249999D01*
X202749819Y-109249999D02*
X201749819Y-109249999D01*
X201749819Y-109249999D02*
X201749819Y-108773809D01*
X202749819Y-107869047D02*
X202749819Y-108345237D01*
X202749819Y-108345237D02*
X201749819Y-108345237D01*
X202749819Y-107059523D02*
X202749819Y-107535713D01*
X202749819Y-107535713D02*
X201749819Y-107535713D01*
X202749819Y-106202380D02*
X202749819Y-106773808D01*
X202749819Y-106488094D02*
X201749819Y-106488094D01*
X201749819Y-106488094D02*
X201892676Y-106583332D01*
X201892676Y-106583332D02*
X201987914Y-106678570D01*
X201987914Y-106678570D02*
X202035533Y-106773808D01*
X202654580Y-92678571D02*
X202702200Y-92726190D01*
X202702200Y-92726190D02*
X202749819Y-92869047D01*
X202749819Y-92869047D02*
X202749819Y-92964285D01*
X202749819Y-92964285D02*
X202702200Y-93107142D01*
X202702200Y-93107142D02*
X202606961Y-93202380D01*
X202606961Y-93202380D02*
X202511723Y-93249999D01*
X202511723Y-93249999D02*
X202321247Y-93297618D01*
X202321247Y-93297618D02*
X202178390Y-93297618D01*
X202178390Y-93297618D02*
X201987914Y-93249999D01*
X201987914Y-93249999D02*
X201892676Y-93202380D01*
X201892676Y-93202380D02*
X201797438Y-93107142D01*
X201797438Y-93107142D02*
X201749819Y-92964285D01*
X201749819Y-92964285D02*
X201749819Y-92869047D01*
X201749819Y-92869047D02*
X201797438Y-92726190D01*
X201797438Y-92726190D02*
X201845057Y-92678571D01*
X202226009Y-92249999D02*
X202226009Y-91916666D01*
X202749819Y-91773809D02*
X202749819Y-92249999D01*
X202749819Y-92249999D02*
X201749819Y-92249999D01*
X201749819Y-92249999D02*
X201749819Y-91773809D01*
X202749819Y-90869047D02*
X202749819Y-91345237D01*
X202749819Y-91345237D02*
X201749819Y-91345237D01*
X202749819Y-90059523D02*
X202749819Y-90535713D01*
X202749819Y-90535713D02*
X201749819Y-90535713D01*
X201749819Y-89821427D02*
X201749819Y-89202380D01*
X201749819Y-89202380D02*
X202130771Y-89535713D01*
X202130771Y-89535713D02*
X202130771Y-89392856D01*
X202130771Y-89392856D02*
X202178390Y-89297618D01*
X202178390Y-89297618D02*
X202226009Y-89249999D01*
X202226009Y-89249999D02*
X202321247Y-89202380D01*
X202321247Y-89202380D02*
X202559342Y-89202380D01*
X202559342Y-89202380D02*
X202654580Y-89249999D01*
X202654580Y-89249999D02*
X202702200Y-89297618D01*
X202702200Y-89297618D02*
X202749819Y-89392856D01*
X202749819Y-89392856D02*
X202749819Y-89678570D01*
X202749819Y-89678570D02*
X202702200Y-89773808D01*
X202702200Y-89773808D02*
X202654580Y-89821427D01*
D12*
%TO.C,ArduinoNanoTypeC*%
X125510000Y-100820000D02*
X135930000Y-100820000D01*
X125510000Y-108700000D02*
X125510000Y-100820000D01*
X128050000Y-95740000D02*
X128050000Y-100820000D01*
X128050000Y-113780000D02*
X128050000Y-108700000D01*
X128050000Y-113780000D02*
X171490000Y-113780000D01*
X130720000Y-98410000D02*
X130720000Y-95740000D01*
X130720000Y-111110000D02*
X130720000Y-113780000D01*
X135930000Y-100820000D02*
X135930000Y-108700000D01*
X135930000Y-108700000D02*
X125510000Y-108700000D01*
X166280000Y-95740000D02*
X128050000Y-95740000D01*
X166280000Y-98410000D02*
X130720000Y-98410000D01*
X166280000Y-98410000D02*
X166280000Y-95740000D01*
X166280000Y-98410000D02*
X168820000Y-98410000D01*
X168820000Y-98410000D02*
X168820000Y-95740000D01*
X168820000Y-111110000D02*
X130720000Y-111110000D01*
X168820000Y-111110000D02*
X168820000Y-113780000D01*
X171490000Y-95740000D02*
X168820000Y-95740000D01*
X171490000Y-113780000D02*
X171490000Y-95740000D01*
%TO.C,U1*%
X137050000Y-79540000D02*
X137050000Y-84840000D01*
X137050000Y-84840000D02*
X157490000Y-84840000D01*
X157490000Y-79540000D02*
X137050000Y-79540000D01*
X157490000Y-81190000D02*
X157490000Y-79540000D01*
X157490000Y-84840000D02*
X157490000Y-83190000D01*
X157490000Y-83190000D02*
G75*
G02*
X157490000Y-81190000I0J1000000D01*
G01*
%TO.C,IRSensor6Array*%
X150440000Y-115895000D02*
X151860000Y-115895000D01*
X150440000Y-127615000D02*
X150440000Y-115895000D01*
X151860000Y-115895000D02*
X151860000Y-120395000D01*
X151860000Y-120395000D02*
X161750000Y-120395000D01*
X152700000Y-116205000D02*
X153300000Y-116205000D01*
X152750000Y-121505000D02*
X152750000Y-127005000D01*
X152750000Y-127005000D02*
X153250000Y-127005000D01*
X153000000Y-116805000D02*
X152700000Y-116205000D01*
X153250000Y-121505000D02*
X152750000Y-121505000D01*
X153250000Y-127005000D02*
X153250000Y-121505000D01*
X153300000Y-116205000D02*
X153000000Y-116805000D01*
X155250000Y-121505000D02*
X155250000Y-127005000D01*
X155250000Y-127005000D02*
X155750000Y-127005000D01*
X155750000Y-121505000D02*
X155250000Y-121505000D01*
X155750000Y-127005000D02*
X155750000Y-121505000D01*
X157750000Y-121505000D02*
X157750000Y-127005000D01*
X157750000Y-127005000D02*
X158250000Y-127005000D01*
X158250000Y-121505000D02*
X157750000Y-121505000D01*
X158250000Y-127005000D02*
X158250000Y-121505000D01*
X160250000Y-121505000D02*
X160250000Y-127005000D01*
X160250000Y-127005000D02*
X160750000Y-127005000D01*
X160750000Y-121505000D02*
X160250000Y-121505000D01*
X160750000Y-127005000D02*
X160750000Y-121505000D01*
X161750000Y-127615000D02*
X150440000Y-127615000D01*
X161750000Y-127615000D02*
X173060000Y-127615000D01*
X162750000Y-121505000D02*
X162750000Y-127005000D01*
X162750000Y-127005000D02*
X163250000Y-127005000D01*
X163250000Y-121505000D02*
X162750000Y-121505000D01*
X163250000Y-127005000D02*
X163250000Y-121505000D01*
X165250000Y-121505000D02*
X165250000Y-127005000D01*
X165250000Y-127005000D02*
X165750000Y-127005000D01*
X165750000Y-121505000D02*
X165250000Y-121505000D01*
X165750000Y-127005000D02*
X165750000Y-121505000D01*
X167750000Y-121505000D02*
X167750000Y-127005000D01*
X167750000Y-127005000D02*
X168250000Y-127005000D01*
X168250000Y-121505000D02*
X167750000Y-121505000D01*
X168250000Y-127005000D02*
X168250000Y-121505000D01*
X170250000Y-121505000D02*
X170250000Y-127005000D01*
X170250000Y-127005000D02*
X170750000Y-127005000D01*
X170750000Y-121505000D02*
X170250000Y-121505000D01*
X170750000Y-127005000D02*
X170750000Y-121505000D01*
X171640000Y-115895000D02*
X171640000Y-120395000D01*
X171640000Y-120395000D02*
X161750000Y-120395000D01*
X173060000Y-115895000D02*
X171640000Y-115895000D01*
X173060000Y-127615000D02*
X173060000Y-115895000D01*
%TO.C,CELL2*%
X203395000Y-95940000D02*
X203395000Y-97360000D01*
X203395000Y-97360000D02*
X207895000Y-97360000D01*
X203395000Y-102140000D02*
X207895000Y-102140000D01*
X203395000Y-103560000D02*
X203395000Y-102140000D01*
X203705000Y-100700000D02*
X204305000Y-101000000D01*
X203705000Y-101300000D02*
X203705000Y-100700000D01*
X204305000Y-101000000D02*
X203705000Y-101300000D01*
X207895000Y-97360000D02*
X207895000Y-99750000D01*
X207895000Y-102140000D02*
X207895000Y-99750000D01*
X209005000Y-98250000D02*
X209005000Y-98750000D01*
X209005000Y-98750000D02*
X214505000Y-98750000D01*
X209005000Y-100750000D02*
X209005000Y-101250000D01*
X209005000Y-101250000D02*
X214505000Y-101250000D01*
X214505000Y-98250000D02*
X209005000Y-98250000D01*
X214505000Y-98750000D02*
X214505000Y-98250000D01*
X214505000Y-100750000D02*
X209005000Y-100750000D01*
X214505000Y-101250000D02*
X214505000Y-100750000D01*
X215115000Y-95940000D02*
X203395000Y-95940000D01*
X215115000Y-99750000D02*
X215115000Y-95940000D01*
X215115000Y-99750000D02*
X215115000Y-103560000D01*
X215115000Y-103560000D02*
X203395000Y-103560000D01*
%TO.C,M2*%
X171690000Y-74390000D02*
X171690000Y-86110000D01*
X171690000Y-86110000D02*
X173110000Y-86110000D01*
X173110000Y-86110000D02*
X173110000Y-81610000D01*
X174000000Y-75000000D02*
X174000000Y-80500000D01*
X174000000Y-80500000D02*
X174500000Y-80500000D01*
X174500000Y-75000000D02*
X174000000Y-75000000D01*
X174500000Y-80500000D02*
X174500000Y-75000000D01*
X175500000Y-74390000D02*
X171690000Y-74390000D01*
X175500000Y-74390000D02*
X179310000Y-74390000D01*
X176450000Y-84200000D02*
X176750000Y-83600000D01*
X176500000Y-75000000D02*
X176500000Y-80500000D01*
X176500000Y-80500000D02*
X177000000Y-80500000D01*
X176750000Y-83600000D02*
X177050000Y-84200000D01*
X177000000Y-75000000D02*
X176500000Y-75000000D01*
X177000000Y-80500000D02*
X177000000Y-75000000D01*
X177050000Y-84200000D02*
X176450000Y-84200000D01*
X177890000Y-86110000D02*
X177890000Y-81610000D01*
X179310000Y-74390000D02*
X179310000Y-86110000D01*
X179310000Y-86110000D02*
X177890000Y-86110000D01*
%TO.C,RotaryEncoder*%
X133440000Y-115890000D02*
X134860000Y-115890000D01*
X133440000Y-127610000D02*
X133440000Y-115890000D01*
X134860000Y-115890000D02*
X134860000Y-120390000D01*
X135700000Y-117800000D02*
X136300000Y-117800000D01*
X135750000Y-121500000D02*
X135750000Y-127000000D01*
X135750000Y-127000000D02*
X136250000Y-127000000D01*
X136000000Y-118400000D02*
X135700000Y-117800000D01*
X136250000Y-121500000D02*
X135750000Y-121500000D01*
X136250000Y-127000000D02*
X136250000Y-121500000D01*
X136300000Y-117800000D02*
X136000000Y-118400000D01*
X138250000Y-121500000D02*
X138250000Y-127000000D01*
X138250000Y-127000000D02*
X138750000Y-127000000D01*
X138750000Y-121500000D02*
X138250000Y-121500000D01*
X138750000Y-127000000D02*
X138750000Y-121500000D01*
X140750000Y-121500000D02*
X140750000Y-127000000D01*
X140750000Y-127000000D02*
X141250000Y-127000000D01*
X141000000Y-127610000D02*
X133440000Y-127610000D01*
X141000000Y-127610000D02*
X148560000Y-127610000D01*
X141250000Y-121500000D02*
X140750000Y-121500000D01*
X141250000Y-127000000D02*
X141250000Y-121500000D01*
X143250000Y-121500000D02*
X143250000Y-127000000D01*
X143250000Y-127000000D02*
X143750000Y-127000000D01*
X143750000Y-121500000D02*
X143250000Y-121500000D01*
X143750000Y-127000000D02*
X143750000Y-121500000D01*
X145750000Y-121500000D02*
X145750000Y-127000000D01*
X145750000Y-127000000D02*
X146250000Y-127000000D01*
X146250000Y-121500000D02*
X145750000Y-121500000D01*
X146250000Y-127000000D02*
X146250000Y-121500000D01*
X147140000Y-115890000D02*
X147140000Y-120390000D01*
X148560000Y-115890000D02*
X147140000Y-115890000D01*
X148560000Y-127610000D02*
X148560000Y-115890000D01*
%TO.C,M1*%
X162440000Y-74390000D02*
X162440000Y-86110000D01*
X162440000Y-86110000D02*
X163860000Y-86110000D01*
X163860000Y-86110000D02*
X163860000Y-81610000D01*
X164750000Y-75000000D02*
X164750000Y-80500000D01*
X164750000Y-80500000D02*
X165250000Y-80500000D01*
X165250000Y-75000000D02*
X164750000Y-75000000D01*
X165250000Y-80500000D02*
X165250000Y-75000000D01*
X166250000Y-74390000D02*
X162440000Y-74390000D01*
X166250000Y-74390000D02*
X170060000Y-74390000D01*
X167200000Y-84200000D02*
X167500000Y-83600000D01*
X167250000Y-75000000D02*
X167250000Y-80500000D01*
X167250000Y-80500000D02*
X167750000Y-80500000D01*
X167500000Y-83600000D02*
X167800000Y-84200000D01*
X167750000Y-75000000D02*
X167250000Y-75000000D01*
X167750000Y-80500000D02*
X167750000Y-75000000D01*
X167800000Y-84200000D02*
X167200000Y-84200000D01*
X168640000Y-86110000D02*
X168640000Y-81610000D01*
X170060000Y-74390000D02*
X170060000Y-86110000D01*
X170060000Y-86110000D02*
X168640000Y-86110000D01*
%TO.C,SonarSensor3Array*%
X174440000Y-115895000D02*
X175860000Y-115895000D01*
X174440000Y-127615000D02*
X174440000Y-115895000D01*
X175860000Y-115895000D02*
X175860000Y-120395000D01*
X175860000Y-120395000D02*
X182000000Y-120395000D01*
X176700000Y-116205000D02*
X177300000Y-116205000D01*
X176750000Y-121505000D02*
X176750000Y-127005000D01*
X176750000Y-127005000D02*
X177250000Y-127005000D01*
X177000000Y-116805000D02*
X176700000Y-116205000D01*
X177250000Y-121505000D02*
X176750000Y-121505000D01*
X177250000Y-127005000D02*
X177250000Y-121505000D01*
X177300000Y-116205000D02*
X177000000Y-116805000D01*
X179250000Y-121505000D02*
X179250000Y-127005000D01*
X179250000Y-127005000D02*
X179750000Y-127005000D01*
X179750000Y-121505000D02*
X179250000Y-121505000D01*
X179750000Y-127005000D02*
X179750000Y-121505000D01*
X181750000Y-121505000D02*
X181750000Y-127005000D01*
X181750000Y-127005000D02*
X182250000Y-127005000D01*
X182000000Y-127615000D02*
X174440000Y-127615000D01*
X182000000Y-127615000D02*
X189560000Y-127615000D01*
X182250000Y-121505000D02*
X181750000Y-121505000D01*
X182250000Y-127005000D02*
X182250000Y-121505000D01*
X184250000Y-121505000D02*
X184250000Y-127005000D01*
X184250000Y-127005000D02*
X184750000Y-127005000D01*
X184750000Y-121505000D02*
X184250000Y-121505000D01*
X184750000Y-127005000D02*
X184750000Y-121505000D01*
X186750000Y-121505000D02*
X186750000Y-127005000D01*
X186750000Y-127005000D02*
X187250000Y-127005000D01*
X187250000Y-121505000D02*
X186750000Y-121505000D01*
X187250000Y-127005000D02*
X187250000Y-121505000D01*
X188140000Y-115895000D02*
X188140000Y-120395000D01*
X188140000Y-120395000D02*
X182000000Y-120395000D01*
X189560000Y-115895000D02*
X188140000Y-115895000D01*
X189560000Y-127615000D02*
X189560000Y-115895000D01*
%TO.C,INA1*%
X187970000Y-76920000D02*
X189300000Y-76920000D01*
X187970000Y-78250000D02*
X187970000Y-76920000D01*
X190570000Y-76920000D02*
X208410000Y-76920000D01*
X190570000Y-79580000D02*
X190570000Y-76920000D01*
X190570000Y-79580000D02*
X208410000Y-79580000D01*
X208410000Y-79580000D02*
X208410000Y-76920000D01*
%TO.C,CELL1*%
X203395000Y-104440000D02*
X203395000Y-105860000D01*
X203395000Y-105860000D02*
X207895000Y-105860000D01*
X203395000Y-110640000D02*
X207895000Y-110640000D01*
X203395000Y-112060000D02*
X203395000Y-110640000D01*
X203705000Y-109200000D02*
X204305000Y-109500000D01*
X203705000Y-109800000D02*
X203705000Y-109200000D01*
X204305000Y-109500000D02*
X203705000Y-109800000D01*
X207895000Y-105860000D02*
X207895000Y-108250000D01*
X207895000Y-110640000D02*
X207895000Y-108250000D01*
X209005000Y-106750000D02*
X209005000Y-107250000D01*
X209005000Y-107250000D02*
X214505000Y-107250000D01*
X209005000Y-109250000D02*
X209005000Y-109750000D01*
X209005000Y-109750000D02*
X214505000Y-109750000D01*
X214505000Y-106750000D02*
X209005000Y-106750000D01*
X214505000Y-107250000D02*
X214505000Y-106750000D01*
X214505000Y-109250000D02*
X209005000Y-109250000D01*
X214505000Y-109750000D02*
X214505000Y-109250000D01*
X215115000Y-104440000D02*
X203395000Y-104440000D01*
X215115000Y-108250000D02*
X215115000Y-104440000D01*
X215115000Y-108250000D02*
X215115000Y-112060000D01*
X215115000Y-112060000D02*
X203395000Y-112060000D01*
%TO.C,CELL3*%
X203395000Y-87440000D02*
X203395000Y-88860000D01*
X203395000Y-88860000D02*
X207895000Y-88860000D01*
X203395000Y-93640000D02*
X207895000Y-93640000D01*
X203395000Y-95060000D02*
X203395000Y-93640000D01*
X203705000Y-92200000D02*
X204305000Y-92500000D01*
X203705000Y-92800000D02*
X203705000Y-92200000D01*
X204305000Y-92500000D02*
X203705000Y-92800000D01*
X207895000Y-88860000D02*
X207895000Y-91250000D01*
X207895000Y-93640000D02*
X207895000Y-91250000D01*
X209005000Y-89750000D02*
X209005000Y-90250000D01*
X209005000Y-90250000D02*
X214505000Y-90250000D01*
X209005000Y-92250000D02*
X209005000Y-92750000D01*
X209005000Y-92750000D02*
X214505000Y-92750000D01*
X214505000Y-89750000D02*
X209005000Y-89750000D01*
X214505000Y-90250000D02*
X214505000Y-89750000D01*
X214505000Y-92250000D02*
X209005000Y-92250000D01*
X214505000Y-92750000D02*
X214505000Y-92250000D01*
X215115000Y-87440000D02*
X203395000Y-87440000D01*
X215115000Y-91250000D02*
X215115000Y-87440000D01*
X215115000Y-91250000D02*
X215115000Y-95060000D01*
X215115000Y-95060000D02*
X203395000Y-95060000D01*
%TD*%
M02*
