%TF.GenerationSoftware,KiCad,Pcbnew,9.0.3*%
%TF.CreationDate,2025-07-23T14:00:13+06:00*%
%TF.ProjectId,LFRCircuit,4c465243-6972-4637-9569-742e6b696361,rev?*%
%TF.SameCoordinates,Original*%
%TF.FileFunction,Copper,L1,Top*%
%TF.FilePolarity,Positive*%
%FSLAX46Y46*%
G04 Gerber Fmt 4.6, Leading zero omitted, Abs format (unit mm)*
G04 Created by KiCad (PCBNEW 9.0.3) date 2025-07-23 14:00:13*
%MOMM*%
%LPD*%
G01*
G04 APERTURE LIST*
G04 Aperture macros list*
%AMRoundRect*
0 Rectangle with rounded corners*
0 $1 Rounding radius*
0 $2 $3 $4 $5 $6 $7 $8 $9 X,Y pos of 4 corners*
0 Add a 4 corners polygon primitive as box body*
4,1,4,$2,$3,$4,$5,$6,$7,$8,$9,$2,$3,0*
0 Add four circle primitives for the rounded corners*
1,1,$1+$1,$2,$3*
1,1,$1+$1,$4,$5*
1,1,$1+$1,$6,$7*
1,1,$1+$1,$8,$9*
0 Add four rect primitives between the rounded corners*
20,1,$1+$1,$2,$3,$4,$5,0*
20,1,$1+$1,$4,$5,$6,$7,0*
20,1,$1+$1,$6,$7,$8,$9,0*
20,1,$1+$1,$8,$9,$2,$3,0*%
G04 Aperture macros list end*
%TA.AperFunction,ComponentPad*%
%ADD10R,1.700000X1.700000*%
%TD*%
%TA.AperFunction,ComponentPad*%
%ADD11O,1.700000X1.700000*%
%TD*%
%TA.AperFunction,ComponentPad*%
%ADD12R,1.600000X1.600000*%
%TD*%
%TA.AperFunction,ComponentPad*%
%ADD13O,1.600000X1.600000*%
%TD*%
%TA.AperFunction,ComponentPad*%
%ADD14RoundRect,0.250000X-0.550000X0.550000X-0.550000X-0.550000X0.550000X-0.550000X0.550000X0.550000X0*%
%TD*%
%TA.AperFunction,ComponentPad*%
%ADD15C,1.600000*%
%TD*%
%TA.AperFunction,ComponentPad*%
%ADD16RoundRect,0.250000X-0.600000X-0.725000X0.600000X-0.725000X0.600000X0.725000X-0.600000X0.725000X0*%
%TD*%
%TA.AperFunction,ComponentPad*%
%ADD17O,1.700000X1.950000*%
%TD*%
%TA.AperFunction,ComponentPad*%
%ADD18RoundRect,0.250000X0.750000X-0.600000X0.750000X0.600000X-0.750000X0.600000X-0.750000X-0.600000X0*%
%TD*%
%TA.AperFunction,ComponentPad*%
%ADD19O,2.000000X1.700000*%
%TD*%
%TA.AperFunction,ComponentPad*%
%ADD20RoundRect,0.250000X0.600000X0.750000X-0.600000X0.750000X-0.600000X-0.750000X0.600000X-0.750000X0*%
%TD*%
%TA.AperFunction,ComponentPad*%
%ADD21O,1.700000X2.000000*%
%TD*%
%TA.AperFunction,ComponentPad*%
%ADD22C,1.700000*%
%TD*%
%TA.AperFunction,ViaPad*%
%ADD23C,0.600000*%
%TD*%
%TA.AperFunction,Conductor*%
%ADD24C,0.200000*%
%TD*%
G04 APERTURE END LIST*
D10*
%TO.P,J1,1,GND*%
%TO.N,GND*%
X183670000Y-97250000D03*
D11*
%TO.P,J1,2,VCC*%
%TO.N,+5V*%
X186210000Y-97250000D03*
%TO.P,J1,3,SCL*%
%TO.N,/SCL*%
X188750000Y-97250000D03*
%TO.P,J1,4,SDA*%
%TO.N,/SDA*%
X191290000Y-97250000D03*
%TD*%
D12*
%TO.P,ArduinoNanoTypeC,1,TX1*%
%TO.N,unconnected-(ArduinoNanoTypeC1-TX1-Pad1)*%
X167550000Y-97140000D03*
D13*
%TO.P,ArduinoNanoTypeC,2,RX0*%
%TO.N,unconnected-(ArduinoNanoTypeC1-RX0-Pad2)*%
X165010000Y-97140000D03*
%TO.P,ArduinoNanoTypeC,3,RST*%
%TO.N,unconnected-(ArduinoNanoTypeC1-RST-Pad3)*%
X162470000Y-97140000D03*
%TO.P,ArduinoNanoTypeC,4,GND*%
%TO.N,GND*%
X159930000Y-97140000D03*
%TO.P,ArduinoNanoTypeC,5,D2*%
%TO.N,/Alert*%
X157390000Y-97140000D03*
%TO.P,ArduinoNanoTypeC,6,D3~*%
%TO.N,/M1A*%
X154850000Y-97140000D03*
%TO.P,ArduinoNanoTypeC,7,D4*%
%TO.N,/S1*%
X152310000Y-97140000D03*
%TO.P,ArduinoNanoTypeC,8,D5~*%
%TO.N,/M1B*%
X149770000Y-97140000D03*
%TO.P,ArduinoNanoTypeC,9,D6~*%
%TO.N,/M2A*%
X147230000Y-97140000D03*
%TO.P,ArduinoNanoTypeC,10,D7*%
%TO.N,/S2*%
X144690000Y-97140000D03*
%TO.P,ArduinoNanoTypeC,11,D8*%
%TO.N,/S3*%
X142150000Y-97140000D03*
%TO.P,ArduinoNanoTypeC,12,D9~*%
%TO.N,/M2B*%
X139610000Y-97140000D03*
%TO.P,ArduinoNanoTypeC,13,D10~*%
%TO.N,/RE_CLK*%
X137070000Y-97140000D03*
%TO.P,ArduinoNanoTypeC,14,D11~*%
%TO.N,/RE_DT*%
X134530000Y-97140000D03*
%TO.P,ArduinoNanoTypeC,15,D12*%
%TO.N,/RE_SW*%
X131990000Y-97140000D03*
%TO.P,ArduinoNanoTypeC,16,D13*%
%TO.N,unconnected-(ArduinoNanoTypeC1-D13-Pad16)*%
X131990000Y-112380000D03*
%TO.P,ArduinoNanoTypeC,17,3.3V*%
%TO.N,unconnected-(ArduinoNanoTypeC1-3.3V-Pad17)*%
X134530000Y-112380000D03*
%TO.P,ArduinoNanoTypeC,18,AREF*%
%TO.N,unconnected-(ArduinoNanoTypeC1-AREF-Pad18)*%
X137070000Y-112380000D03*
%TO.P,ArduinoNanoTypeC,19,A0*%
%TO.N,/IR1*%
X139610000Y-112380000D03*
%TO.P,ArduinoNanoTypeC,20,A1*%
%TO.N,/IR2*%
X142150000Y-112380000D03*
%TO.P,ArduinoNanoTypeC,21,A2*%
%TO.N,/IR3*%
X144690000Y-112380000D03*
%TO.P,ArduinoNanoTypeC,22,A3*%
%TO.N,/IR4*%
X147230000Y-112380000D03*
%TO.P,ArduinoNanoTypeC,23,A4/SDA*%
%TO.N,/SDA*%
X149770000Y-112380000D03*
%TO.P,ArduinoNanoTypeC,24,A5/SCL*%
%TO.N,/SCL*%
X152310000Y-112380000D03*
%TO.P,ArduinoNanoTypeC,25,A6*%
%TO.N,/IR5*%
X154850000Y-112380000D03*
%TO.P,ArduinoNanoTypeC,26,A7*%
%TO.N,/IR6*%
X157390000Y-112380000D03*
%TO.P,ArduinoNanoTypeC,27,+5V*%
%TO.N,unconnected-(ArduinoNanoTypeC1-+5V-Pad27)*%
X159930000Y-112380000D03*
%TO.P,ArduinoNanoTypeC,28,RST*%
%TO.N,unconnected-(ArduinoNanoTypeC1-RST-Pad28)*%
X162470000Y-112380000D03*
%TO.P,ArduinoNanoTypeC,29,GND
*%
%TO.N,GND*%
X165010000Y-112380000D03*
%TO.P,ArduinoNanoTypeC,30,VIN*%
%TO.N,+5V*%
X167550000Y-112380000D03*
%TD*%
D14*
%TO.P,U1,1,EN1\u002C2*%
%TO.N,+12V*%
X156160000Y-78380000D03*
D15*
%TO.P,U1,2,1A*%
%TO.N,/M1A*%
X153620000Y-78380000D03*
%TO.P,U1,3,1Y*%
%TO.N,Net-(D1-K)*%
X151080000Y-78380000D03*
%TO.P,U1,4,GND*%
%TO.N,GND*%
X148540000Y-78380000D03*
%TO.P,U1,5,GND*%
X146000000Y-78380000D03*
%TO.P,U1,6,2Y*%
%TO.N,Net-(D2-K)*%
X143460000Y-78380000D03*
%TO.P,U1,7,2A*%
%TO.N,/M1B*%
X140920000Y-78380000D03*
%TO.P,U1,8,VCC2*%
%TO.N,+5V*%
X138380000Y-78380000D03*
%TO.P,U1,9,EN3\u002C4*%
%TO.N,+12V*%
X138380000Y-86000000D03*
%TO.P,U1,10,3A*%
%TO.N,/M2B*%
X140920000Y-86000000D03*
%TO.P,U1,11,3Y*%
%TO.N,Net-(D3-K)*%
X143460000Y-86000000D03*
%TO.P,U1,12,GND*%
%TO.N,GND*%
X146000000Y-86000000D03*
%TO.P,U1,13,GND*%
X148540000Y-86000000D03*
%TO.P,U1,14,4Y*%
%TO.N,Net-(D4-K)*%
X151080000Y-86000000D03*
%TO.P,U1,15,4A*%
%TO.N,/M2A*%
X153620000Y-86000000D03*
%TO.P,U1,16,VCC1*%
%TO.N,+12V*%
X156160000Y-86000000D03*
%TD*%
D16*
%TO.P,IRSensor6Array,1,IR1*%
%TO.N,/IR1*%
X153000000Y-118305000D03*
D17*
%TO.P,IRSensor6Array,2,IR2*%
%TO.N,/IR2*%
X155500000Y-118305000D03*
%TO.P,IRSensor6Array,3,IR3*%
%TO.N,/IR3*%
X158000000Y-118305000D03*
%TO.P,IRSensor6Array,4,IR4*%
%TO.N,/IR4*%
X160500000Y-118305000D03*
%TO.P,IRSensor6Array,5,IR5*%
%TO.N,/IR5*%
X163000000Y-118305000D03*
%TO.P,IRSensor6Array,6,IR6*%
%TO.N,/IR6*%
X165500000Y-118305000D03*
%TO.P,IRSensor6Array,7,VIN*%
%TO.N,+5V*%
X168000000Y-118305000D03*
%TO.P,IRSensor6Array,8,GND*%
%TO.N,GND*%
X170500000Y-118305000D03*
%TD*%
D18*
%TO.P,CELL2,1,+*%
%TO.N,Net-(BT2-+)*%
X205805000Y-101000000D03*
D19*
%TO.P,CELL2,2,-*%
%TO.N,Net-(BT1-+)*%
X205805000Y-98500000D03*
%TD*%
D20*
%TO.P,M2,1,+*%
%TO.N,Net-(D3-K)*%
X176750000Y-82100000D03*
D21*
%TO.P,M2,2,-*%
%TO.N,Net-(D4-K)*%
X174250000Y-82100000D03*
%TD*%
D16*
%TO.P,RotaryEncoder,1,CLK*%
%TO.N,/RE_CLK*%
X136000000Y-119900000D03*
D17*
%TO.P,RotaryEncoder,2,DT*%
%TO.N,/RE_DT*%
X138500000Y-119900000D03*
%TO.P,RotaryEncoder,3,SW*%
%TO.N,/RE_SW*%
X141000000Y-119900000D03*
%TO.P,RotaryEncoder,4,+*%
%TO.N,+5V*%
X143500000Y-119900000D03*
%TO.P,RotaryEncoder,5,GND*%
%TO.N,GND*%
X146000000Y-119900000D03*
%TD*%
D20*
%TO.P,M1,1,+*%
%TO.N,Net-(D1-K)*%
X167500000Y-82100000D03*
D21*
%TO.P,M1,2,-*%
%TO.N,Net-(D2-K)*%
X165000000Y-82100000D03*
%TD*%
D16*
%TO.P,SonarSensor3Array,1,S1*%
%TO.N,/S1*%
X177000000Y-118305000D03*
D17*
%TO.P,SonarSensor3Array,2,S2*%
%TO.N,/S2*%
X179500000Y-118305000D03*
%TO.P,SonarSensor3Array,3,S3*%
%TO.N,/S3*%
X182000000Y-118305000D03*
%TO.P,SonarSensor3Array,4,VCC*%
%TO.N,+5V*%
X184500000Y-118305000D03*
%TO.P,SonarSensor3Array,5,GND*%
%TO.N,GND*%
X187000000Y-118305000D03*
%TD*%
D10*
%TO.P,INA1,1,IN+*%
%TO.N,+12V*%
X189300000Y-78250000D03*
D22*
%TO.P,INA1,2,IN-*%
%TO.N,/12Vout*%
X191840000Y-78250000D03*
%TO.P,INA1,3,VBS*%
X194380000Y-78250000D03*
%TO.P,INA1,4,ALE*%
%TO.N,/Alert*%
X196920000Y-78250000D03*
%TO.P,INA1,5,SCL*%
%TO.N,/SCL*%
X199460000Y-78250000D03*
%TO.P,INA1,6,SDA
*%
%TO.N,/SDA*%
X202000000Y-78250000D03*
%TO.P,INA1,7,GND*%
%TO.N,GND*%
X204540000Y-78250000D03*
%TO.P,INA1,8,VCC*%
%TO.N,+5V*%
X207080000Y-78250000D03*
%TD*%
D18*
%TO.P,CELL1,1,+*%
%TO.N,Net-(BT1-+)*%
X205805000Y-109500000D03*
D19*
%TO.P,CELL1,2,-*%
%TO.N,GND*%
X205805000Y-107000000D03*
%TD*%
D18*
%TO.P,CELL3,1,+*%
%TO.N,+12V*%
X205805000Y-92500000D03*
D19*
%TO.P,CELL3,2,-*%
%TO.N,Net-(BT2-+)*%
X205805000Y-90000000D03*
%TD*%
D23*
%TO.N,Net-(U2-SW)*%
X187958600Y-90066800D03*
X199000300Y-92889000D03*
%TO.N,Net-(U2-BOOT)*%
X196601100Y-88540200D03*
X191559700Y-88552700D03*
%TO.N,Net-(D4-K)*%
X161771300Y-84703000D03*
%TO.N,Net-(D1-K)*%
X164256900Y-80236300D03*
%TO.N,+12V*%
X168656900Y-88540200D03*
X192848900Y-89445800D03*
X198865000Y-94413700D03*
%TO.N,/SCL*%
X152533700Y-102529800D03*
%TO.N,/S2*%
X176319800Y-96607400D03*
%TO.N,/Alert*%
X159601700Y-79555700D03*
%TO.N,+5V*%
X200419900Y-96607400D03*
%TO.N,/S3*%
X179229500Y-98259100D03*
%TO.N,/S1*%
X153580000Y-113153400D03*
%TD*%
D24*
%TO.N,/12Vout*%
X191840000Y-78250000D02*
X194380000Y-78250000D01*
%TO.N,Net-(U2-SW)*%
X190780800Y-92889000D02*
X199000300Y-92889000D01*
X187958600Y-90066800D02*
X190780800Y-92889000D01*
X199000300Y-92889000D02*
X198928900Y-92889000D01*
X198928900Y-92889000D02*
X199000300Y-92889000D01*
X187958600Y-90066800D02*
X188312800Y-90421000D01*
X188312800Y-90421000D02*
X187958600Y-90066800D01*
X199000300Y-92889000D02*
X199000300Y-92887400D01*
X199000300Y-92887400D02*
X199000300Y-92889000D01*
%TO.N,Net-(U2-BOOT)*%
X191572200Y-88540200D02*
X191559700Y-88552700D01*
X196601100Y-88540200D02*
X191572200Y-88540200D01*
X191559700Y-88552700D02*
X191572200Y-88540200D01*
X191572200Y-88540200D02*
X191559700Y-88552700D01*
%TO.N,Net-(D3-K)*%
X144609300Y-87149300D02*
X143460000Y-86000000D01*
X151537900Y-87149300D02*
X144609300Y-87149300D01*
X152350100Y-86337100D02*
X151537900Y-87149300D01*
X152350100Y-85705200D02*
X152350100Y-86337100D01*
X153202200Y-84853100D02*
X152350100Y-85705200D01*
X157375200Y-84853100D02*
X153202200Y-84853100D01*
X157831000Y-85308900D02*
X157375200Y-84853100D01*
X173541100Y-85308900D02*
X157831000Y-85308900D01*
X176750000Y-82100000D02*
X173541100Y-85308900D01*
%TO.N,Net-(D4-K)*%
X174250000Y-82100000D02*
X173098300Y-82100000D01*
X170495300Y-84703000D02*
X161771300Y-84703000D01*
X173098300Y-82100000D02*
X170495300Y-84703000D01*
X152868100Y-84419000D02*
X152750400Y-84536700D01*
X161487300Y-84419000D02*
X152868100Y-84419000D01*
X161771300Y-84703000D02*
X161487300Y-84419000D01*
X152377000Y-84703000D02*
X151080000Y-86000000D01*
X152584100Y-84703000D02*
X152377000Y-84703000D01*
X152750400Y-84536700D02*
X152584100Y-84703000D01*
X152750400Y-84536700D02*
X152584100Y-84703000D01*
%TO.N,Net-(D1-K)*%
X152936300Y-80236300D02*
X164256900Y-80236300D01*
X151080000Y-78380000D02*
X152936300Y-80236300D01*
X164256900Y-80236300D02*
X164505000Y-79988200D01*
X165636300Y-80236300D02*
X167500000Y-82100000D01*
X164256900Y-80236300D02*
X165636300Y-80236300D01*
X164505000Y-79988200D02*
X164256900Y-80236300D01*
%TO.N,Net-(D2-K)*%
X147180000Y-82100000D02*
X165000000Y-82100000D01*
X143460000Y-78380000D02*
X147180000Y-82100000D01*
%TO.N,+12V*%
X188018300Y-78380000D02*
X188148300Y-78250000D01*
X156160000Y-78380000D02*
X188018300Y-78380000D01*
X189300000Y-78250000D02*
X188148300Y-78250000D01*
X156160000Y-86000000D02*
X156160000Y-87149300D01*
X167266000Y-87149300D02*
X168656900Y-88540200D01*
X156160000Y-87149300D02*
X167266000Y-87149300D01*
X155758300Y-87551000D02*
X156160000Y-87149300D01*
X139931000Y-87551000D02*
X155758300Y-87551000D01*
X138380000Y-86000000D02*
X139931000Y-87551000D01*
X202750800Y-89445800D02*
X205805000Y-92500000D01*
X192848900Y-89445800D02*
X202750800Y-89445800D01*
X200778700Y-92500000D02*
X205805000Y-92500000D01*
X198865000Y-94413700D02*
X200778700Y-92500000D01*
X198865000Y-94413700D02*
X199049900Y-94228800D01*
X199049900Y-94228800D02*
X198865000Y-94413700D01*
%TO.N,/IR4*%
X148331700Y-112608300D02*
X148331700Y-112380000D01*
X150027200Y-114303800D02*
X148331700Y-112608300D01*
X155779000Y-114303800D02*
X150027200Y-114303800D01*
X159348300Y-117873100D02*
X155779000Y-114303800D01*
X159348300Y-118305000D02*
X159348300Y-117873100D01*
X160500000Y-118305000D02*
X159348300Y-118305000D01*
X147230000Y-112380000D02*
X148331700Y-112380000D01*
%TO.N,/SDA*%
X150871700Y-112151700D02*
X150871700Y-112380000D01*
X153037300Y-109986100D02*
X150871700Y-112151700D01*
X177690100Y-109986100D02*
X153037300Y-109986100D01*
X190138300Y-97537900D02*
X177690100Y-109986100D01*
X190138300Y-97250000D02*
X190138300Y-97537900D01*
X191290000Y-97250000D02*
X190138300Y-97250000D01*
X149770000Y-112380000D02*
X150871700Y-112380000D01*
%TO.N,/SCL*%
X183470200Y-102529800D02*
X188750000Y-97250000D01*
X152533700Y-102529800D02*
X183470200Y-102529800D01*
X152533700Y-102529800D02*
X152310000Y-102529800D01*
X152310000Y-102529800D02*
X152533700Y-102529800D01*
%TO.N,/IR1*%
X140711700Y-112608300D02*
X140711700Y-112380000D01*
X146408400Y-118305000D02*
X140711700Y-112608300D01*
X153000000Y-118305000D02*
X146408400Y-118305000D01*
X139610000Y-112380000D02*
X140711700Y-112380000D01*
%TO.N,/S2*%
X170109200Y-96607400D02*
X176319800Y-96607400D01*
X168651700Y-98064900D02*
X170109200Y-96607400D01*
X168651700Y-98065000D02*
X168651700Y-98064900D01*
X168475000Y-98241700D02*
X168651700Y-98065000D01*
X144690000Y-98241700D02*
X168475000Y-98241700D01*
X144690000Y-97140000D02*
X144690000Y-98241700D01*
X176319800Y-96607400D02*
X178348300Y-96607400D01*
X178348300Y-96607400D02*
X176319800Y-96607400D01*
%TO.N,/IR3*%
X158000000Y-118305000D02*
X156848300Y-118305000D01*
X156848300Y-117873000D02*
X156848300Y-118305000D01*
X154268700Y-115293400D02*
X156848300Y-117873000D01*
X148567400Y-115293400D02*
X154268700Y-115293400D01*
X145791700Y-112517700D02*
X148567400Y-115293400D01*
X145791700Y-112380000D02*
X145791700Y-112517700D01*
X144690000Y-112380000D02*
X145791700Y-112380000D01*
%TO.N,/Alert*%
X195614300Y-79555700D02*
X159601700Y-79555700D01*
X196920000Y-78250000D02*
X195614300Y-79555700D01*
%TO.N,+5V*%
X143500000Y-119900000D02*
X144651700Y-119900000D01*
X168000000Y-118305000D02*
X166848300Y-118305000D01*
X164417300Y-121187700D02*
X166848300Y-118756700D01*
X145507500Y-121187700D02*
X164417300Y-121187700D01*
X144651700Y-120331900D02*
X145507500Y-121187700D01*
X144651700Y-119900000D02*
X144651700Y-120331900D01*
X184500000Y-118305000D02*
X183348300Y-118305000D01*
X183348300Y-118756700D02*
X183348300Y-118305000D01*
X182473400Y-119631600D02*
X183348300Y-118756700D01*
X167723200Y-119631600D02*
X182473400Y-119631600D01*
X166848300Y-118756700D02*
X167723200Y-119631600D01*
X166848300Y-118756700D02*
X166848300Y-118305000D01*
X187361700Y-96981500D02*
X187361700Y-97250000D01*
X188250500Y-96092700D02*
X187361700Y-96981500D01*
X199905200Y-96092700D02*
X188250500Y-96092700D01*
X200419900Y-96607400D02*
X199905200Y-96092700D01*
X186210000Y-97250000D02*
X187361700Y-97250000D01*
X200419900Y-96607400D02*
X200291300Y-96478800D01*
X200291300Y-96478800D02*
X200419900Y-96607400D01*
%TO.N,/IR2*%
X142150000Y-112380000D02*
X143251700Y-112380000D01*
X155500000Y-118305000D02*
X154348300Y-118305000D01*
X143251700Y-112517700D02*
X143251700Y-112380000D01*
X147239300Y-116505300D02*
X143251700Y-112517700D01*
X153316000Y-116505300D02*
X147239300Y-116505300D01*
X154348300Y-117537600D02*
X153316000Y-116505300D01*
X154348300Y-118305000D02*
X154348300Y-117537600D01*
%TO.N,/S3*%
X142150000Y-97140000D02*
X143251700Y-97140000D01*
X179229500Y-98259100D02*
X180848300Y-98259100D01*
X180848300Y-98259100D02*
X179229500Y-98259100D01*
X168623900Y-98660800D02*
X168876700Y-98408000D01*
X144507900Y-98660800D02*
X168623900Y-98660800D01*
X143251700Y-97404600D02*
X144507900Y-98660800D01*
X143251700Y-97140000D02*
X143251700Y-97404600D01*
X168876700Y-98408000D02*
X169024100Y-98260600D01*
X168876700Y-98408000D02*
X169024100Y-98260600D01*
X179228000Y-98260600D02*
X179229500Y-98259100D01*
X169024100Y-98260600D02*
X179228000Y-98260600D01*
%TO.N,/S1*%
X153939400Y-113512800D02*
X153580000Y-113153400D01*
X172207800Y-113512800D02*
X153939400Y-113512800D01*
X177000000Y-118305000D02*
X172207800Y-113512800D01*
X153580000Y-113153400D02*
X153939400Y-113512800D01*
X153939400Y-113512800D02*
X153580000Y-113153400D01*
%TO.N,GND*%
X146000000Y-86000000D02*
X148540000Y-86000000D01*
X146000000Y-78380000D02*
X148540000Y-78380000D01*
X169348300Y-117853300D02*
X169348300Y-118305000D01*
X168506400Y-117011400D02*
X169348300Y-117853300D01*
X162444800Y-117011400D02*
X168506400Y-117011400D01*
X161750000Y-117706200D02*
X162444800Y-117011400D01*
X161750000Y-118833600D02*
X161750000Y-117706200D01*
X160683600Y-119900000D02*
X161750000Y-118833600D01*
X146000000Y-119900000D02*
X160683600Y-119900000D01*
X170500000Y-118305000D02*
X169348300Y-118305000D01*
%TD*%
%TA.AperFunction,Conductor*%
%TO.N,+12V*%
G36*
X211503032Y-75000648D02*
G01*
X211836929Y-75017052D01*
X211849037Y-75018245D01*
X211952146Y-75033539D01*
X212176699Y-75066849D01*
X212188617Y-75069219D01*
X212509951Y-75149709D01*
X212521588Y-75153240D01*
X212592806Y-75178722D01*
X212833467Y-75264832D01*
X212844688Y-75269479D01*
X213144163Y-75411120D01*
X213154871Y-75416844D01*
X213438988Y-75587137D01*
X213449106Y-75593897D01*
X213715170Y-75791224D01*
X213724576Y-75798944D01*
X213970013Y-76021395D01*
X213978604Y-76029986D01*
X214120187Y-76186199D01*
X214201055Y-76275423D01*
X214208775Y-76284829D01*
X214406102Y-76550893D01*
X214412862Y-76561011D01*
X214541776Y-76776092D01*
X214583148Y-76845116D01*
X214588883Y-76855844D01*
X214706964Y-77105506D01*
X214730514Y-77155297D01*
X214735170Y-77166540D01*
X214846759Y-77478411D01*
X214850292Y-77490055D01*
X214930777Y-77811369D01*
X214933151Y-77823305D01*
X214981754Y-78150962D01*
X214982947Y-78163071D01*
X214993196Y-78371680D01*
X214998949Y-78488794D01*
X214999351Y-78496966D01*
X214999500Y-78503051D01*
X214999500Y-123596948D01*
X214999351Y-123603033D01*
X214982947Y-123936928D01*
X214981754Y-123949037D01*
X214933151Y-124276694D01*
X214930777Y-124288630D01*
X214850292Y-124609944D01*
X214846759Y-124621588D01*
X214735170Y-124933459D01*
X214730514Y-124944702D01*
X214588885Y-125244151D01*
X214583148Y-125254883D01*
X214412862Y-125538988D01*
X214406102Y-125549106D01*
X214208775Y-125815170D01*
X214201055Y-125824576D01*
X213978611Y-126070006D01*
X213970006Y-126078611D01*
X213724576Y-126301055D01*
X213715170Y-126308775D01*
X213449106Y-126506102D01*
X213438988Y-126512862D01*
X213154883Y-126683148D01*
X213144151Y-126688885D01*
X212844702Y-126830514D01*
X212833459Y-126835170D01*
X212521588Y-126946759D01*
X212509944Y-126950292D01*
X212188630Y-127030777D01*
X212176694Y-127033151D01*
X211849037Y-127081754D01*
X211836928Y-127082947D01*
X211521989Y-127098419D01*
X211503031Y-127099351D01*
X211496949Y-127099500D01*
X129503051Y-127099500D01*
X129496968Y-127099351D01*
X129476900Y-127098365D01*
X129163071Y-127082947D01*
X129150962Y-127081754D01*
X128823305Y-127033151D01*
X128811369Y-127030777D01*
X128490055Y-126950292D01*
X128478411Y-126946759D01*
X128166540Y-126835170D01*
X128155301Y-126830515D01*
X127855844Y-126688883D01*
X127845121Y-126683150D01*
X127561011Y-126512862D01*
X127550893Y-126506102D01*
X127284829Y-126308775D01*
X127275423Y-126301055D01*
X127236475Y-126265755D01*
X127029986Y-126078604D01*
X127021395Y-126070013D01*
X126798944Y-125824576D01*
X126791224Y-125815170D01*
X126593897Y-125549106D01*
X126587137Y-125538988D01*
X126416844Y-125254871D01*
X126411120Y-125244163D01*
X126269479Y-124944688D01*
X126264829Y-124933459D01*
X126153240Y-124621588D01*
X126149707Y-124609944D01*
X126140958Y-124575015D01*
X126069219Y-124288617D01*
X126066848Y-124276694D01*
X126018245Y-123949037D01*
X126017052Y-123936927D01*
X126000649Y-123603032D01*
X126000500Y-123596948D01*
X126000500Y-123459568D01*
X126999500Y-123459568D01*
X126999500Y-123740431D01*
X127030942Y-124019494D01*
X127030945Y-124019512D01*
X127093439Y-124293317D01*
X127093443Y-124293329D01*
X127186200Y-124558411D01*
X127308053Y-124811442D01*
X127308055Y-124811445D01*
X127457477Y-125049248D01*
X127464512Y-125058069D01*
X127621465Y-125254883D01*
X127632584Y-125268825D01*
X127831175Y-125467416D01*
X128050752Y-125642523D01*
X128288555Y-125791945D01*
X128541592Y-125913801D01*
X128740680Y-125983465D01*
X128806670Y-126006556D01*
X128806682Y-126006560D01*
X129080491Y-126069055D01*
X129080497Y-126069055D01*
X129080505Y-126069057D01*
X129266547Y-126090018D01*
X129359569Y-126100499D01*
X129359572Y-126100500D01*
X129359575Y-126100500D01*
X129640428Y-126100500D01*
X129640429Y-126100499D01*
X129783055Y-126084429D01*
X129919494Y-126069057D01*
X129919499Y-126069056D01*
X129919509Y-126069055D01*
X130193318Y-126006560D01*
X130458408Y-125913801D01*
X130711445Y-125791945D01*
X130949248Y-125642523D01*
X131168825Y-125467416D01*
X131367416Y-125268825D01*
X131542523Y-125049248D01*
X131691945Y-124811445D01*
X131813801Y-124558408D01*
X131906560Y-124293318D01*
X131969055Y-124019509D01*
X132000500Y-123740425D01*
X132000500Y-123459575D01*
X132000499Y-123459568D01*
X208999500Y-123459568D01*
X208999500Y-123740431D01*
X209030942Y-124019494D01*
X209030945Y-124019512D01*
X209093439Y-124293317D01*
X209093443Y-124293329D01*
X209186200Y-124558411D01*
X209308053Y-124811442D01*
X209308055Y-124811445D01*
X209457477Y-125049248D01*
X209464512Y-125058069D01*
X209621465Y-125254883D01*
X209632584Y-125268825D01*
X209831175Y-125467416D01*
X210050752Y-125642523D01*
X210288555Y-125791945D01*
X210541592Y-125913801D01*
X210740680Y-125983465D01*
X210806670Y-126006556D01*
X210806682Y-126006560D01*
X211080491Y-126069055D01*
X211080497Y-126069055D01*
X211080505Y-126069057D01*
X211266547Y-126090018D01*
X211359569Y-126100499D01*
X211359572Y-126100500D01*
X211359575Y-126100500D01*
X211640428Y-126100500D01*
X211640429Y-126100499D01*
X211783055Y-126084429D01*
X211919494Y-126069057D01*
X211919499Y-126069056D01*
X211919509Y-126069055D01*
X212193318Y-126006560D01*
X212458408Y-125913801D01*
X212711445Y-125791945D01*
X212949248Y-125642523D01*
X213168825Y-125467416D01*
X213367416Y-125268825D01*
X213542523Y-125049248D01*
X213691945Y-124811445D01*
X213813801Y-124558408D01*
X213906560Y-124293318D01*
X213969055Y-124019509D01*
X214000500Y-123740425D01*
X214000500Y-123459575D01*
X213969055Y-123180491D01*
X213906560Y-122906682D01*
X213813801Y-122641592D01*
X213691945Y-122388555D01*
X213542523Y-122150752D01*
X213367416Y-121931175D01*
X213168825Y-121732584D01*
X213150962Y-121718339D01*
X213088114Y-121668219D01*
X212949248Y-121557477D01*
X212711445Y-121408055D01*
X212711442Y-121408053D01*
X212458411Y-121286200D01*
X212193329Y-121193443D01*
X212193317Y-121193439D01*
X211919512Y-121130945D01*
X211919494Y-121130942D01*
X211640431Y-121099500D01*
X211640425Y-121099500D01*
X211359575Y-121099500D01*
X211359568Y-121099500D01*
X211080505Y-121130942D01*
X211080487Y-121130945D01*
X210806682Y-121193439D01*
X210806670Y-121193443D01*
X210541588Y-121286200D01*
X210288557Y-121408053D01*
X210050753Y-121557476D01*
X209831175Y-121732583D01*
X209632583Y-121931175D01*
X209457476Y-122150753D01*
X209308053Y-122388557D01*
X209186200Y-122641588D01*
X209093443Y-122906670D01*
X209093439Y-122906682D01*
X209030945Y-123180487D01*
X209030942Y-123180505D01*
X208999500Y-123459568D01*
X132000499Y-123459568D01*
X131969055Y-123180491D01*
X131906560Y-122906682D01*
X131813801Y-122641592D01*
X131691945Y-122388555D01*
X131542523Y-122150752D01*
X131367416Y-121931175D01*
X131168825Y-121732584D01*
X131150962Y-121718339D01*
X131088114Y-121668219D01*
X130949248Y-121557477D01*
X130711445Y-121408055D01*
X130711442Y-121408053D01*
X130458411Y-121286200D01*
X130193329Y-121193443D01*
X130193317Y-121193439D01*
X129919512Y-121130945D01*
X129919494Y-121130942D01*
X129640431Y-121099500D01*
X129640425Y-121099500D01*
X129359575Y-121099500D01*
X129359568Y-121099500D01*
X129080505Y-121130942D01*
X129080487Y-121130945D01*
X128806682Y-121193439D01*
X128806670Y-121193443D01*
X128541588Y-121286200D01*
X128288557Y-121408053D01*
X128050753Y-121557476D01*
X127831175Y-121732583D01*
X127632583Y-121931175D01*
X127457476Y-122150753D01*
X127308053Y-122388557D01*
X127186200Y-122641588D01*
X127093443Y-122906670D01*
X127093439Y-122906682D01*
X127030945Y-123180487D01*
X127030942Y-123180505D01*
X126999500Y-123459568D01*
X126000500Y-123459568D01*
X126000500Y-112277648D01*
X130689500Y-112277648D01*
X130689500Y-112482351D01*
X130721522Y-112684534D01*
X130784781Y-112879223D01*
X130877715Y-113061613D01*
X130998028Y-113227213D01*
X131142786Y-113371971D01*
X131290077Y-113478982D01*
X131308390Y-113492287D01*
X131424607Y-113551503D01*
X131490776Y-113585218D01*
X131490778Y-113585218D01*
X131490781Y-113585220D01*
X131574833Y-113612530D01*
X131685465Y-113648477D01*
X131781509Y-113663689D01*
X131887648Y-113680500D01*
X131887649Y-113680500D01*
X132092351Y-113680500D01*
X132092352Y-113680500D01*
X132294534Y-113648477D01*
X132489219Y-113585220D01*
X132671610Y-113492287D01*
X132764590Y-113424732D01*
X132837213Y-113371971D01*
X132837215Y-113371968D01*
X132837219Y-113371966D01*
X132981966Y-113227219D01*
X132981968Y-113227215D01*
X132981971Y-113227213D01*
X133102284Y-113061614D01*
X133102286Y-113061611D01*
X133102287Y-113061610D01*
X133149516Y-112968917D01*
X133197489Y-112918123D01*
X133265310Y-112901328D01*
X133331445Y-112923865D01*
X133370483Y-112968917D01*
X133379859Y-112987317D01*
X133417715Y-113061614D01*
X133538028Y-113227213D01*
X133682786Y-113371971D01*
X133830077Y-113478982D01*
X133848390Y-113492287D01*
X133964607Y-113551503D01*
X134030776Y-113585218D01*
X134030778Y-113585218D01*
X134030781Y-113585220D01*
X134114833Y-113612530D01*
X134225465Y-113648477D01*
X134321509Y-113663689D01*
X134427648Y-113680500D01*
X134427649Y-113680500D01*
X134632351Y-113680500D01*
X134632352Y-113680500D01*
X134834534Y-113648477D01*
X135029219Y-113585220D01*
X135211610Y-113492287D01*
X135304590Y-113424732D01*
X135377213Y-113371971D01*
X135377215Y-113371968D01*
X135377219Y-113371966D01*
X135521966Y-113227219D01*
X135521968Y-113227215D01*
X135521971Y-113227213D01*
X135642284Y-113061614D01*
X135642286Y-113061611D01*
X135642287Y-113061610D01*
X135689516Y-112968917D01*
X135737489Y-112918123D01*
X135805310Y-112901328D01*
X135871445Y-112923865D01*
X135910483Y-112968917D01*
X135919859Y-112987317D01*
X135957715Y-113061614D01*
X136078028Y-113227213D01*
X136222786Y-113371971D01*
X136370077Y-113478982D01*
X136388390Y-113492287D01*
X136504607Y-113551503D01*
X136570776Y-113585218D01*
X136570778Y-113585218D01*
X136570781Y-113585220D01*
X136654833Y-113612530D01*
X136765465Y-113648477D01*
X136861509Y-113663689D01*
X136967648Y-113680500D01*
X136967649Y-113680500D01*
X137172351Y-113680500D01*
X137172352Y-113680500D01*
X137374534Y-113648477D01*
X137569219Y-113585220D01*
X137751610Y-113492287D01*
X137844590Y-113424732D01*
X137917213Y-113371971D01*
X137917215Y-113371968D01*
X137917219Y-113371966D01*
X138061966Y-113227219D01*
X138061968Y-113227215D01*
X138061971Y-113227213D01*
X138182284Y-113061614D01*
X138182286Y-113061611D01*
X138182287Y-113061610D01*
X138229516Y-112968917D01*
X138277489Y-112918123D01*
X138345310Y-112901328D01*
X138411445Y-112923865D01*
X138450483Y-112968917D01*
X138459859Y-112987317D01*
X138497715Y-113061614D01*
X138618028Y-113227213D01*
X138762786Y-113371971D01*
X138910077Y-113478982D01*
X138928390Y-113492287D01*
X139044607Y-113551503D01*
X139110776Y-113585218D01*
X139110778Y-113585218D01*
X139110781Y-113585220D01*
X139194833Y-113612530D01*
X139305465Y-113648477D01*
X139401509Y-113663689D01*
X139507648Y-113680500D01*
X139507649Y-113680500D01*
X139712351Y-113680500D01*
X139712352Y-113680500D01*
X139914534Y-113648477D01*
X140109219Y-113585220D01*
X140291610Y-113492287D01*
X140384590Y-113424732D01*
X140457213Y-113371971D01*
X140460915Y-113368809D01*
X140462431Y-113370583D01*
X140515317Y-113341706D01*
X140585009Y-113346690D01*
X140629356Y-113375191D01*
X145561930Y-118307765D01*
X145595415Y-118369088D01*
X145590431Y-118438780D01*
X145548559Y-118494713D01*
X145512569Y-118513376D01*
X145481587Y-118523442D01*
X145292179Y-118619951D01*
X145120213Y-118744890D01*
X144969894Y-118895209D01*
X144969890Y-118895214D01*
X144850318Y-119059793D01*
X144794989Y-119102459D01*
X144725375Y-119108438D01*
X144663580Y-119075833D01*
X144649682Y-119059793D01*
X144530109Y-118895214D01*
X144530105Y-118895209D01*
X144379786Y-118744890D01*
X144207820Y-118619951D01*
X144018414Y-118523444D01*
X144018413Y-118523443D01*
X144018412Y-118523443D01*
X143816243Y-118457754D01*
X143816241Y-118457753D01*
X143816240Y-118457753D01*
X143654957Y-118432208D01*
X143606287Y-118424500D01*
X143393713Y-118424500D01*
X143345042Y-118432208D01*
X143183760Y-118457753D01*
X142981585Y-118523444D01*
X142792179Y-118619951D01*
X142620213Y-118744890D01*
X142469894Y-118895209D01*
X142469890Y-118895214D01*
X142350318Y-119059793D01*
X142294989Y-119102459D01*
X142225375Y-119108438D01*
X142163580Y-119075833D01*
X142149682Y-119059793D01*
X142030109Y-118895214D01*
X142030105Y-118895209D01*
X141879786Y-118744890D01*
X141707820Y-118619951D01*
X141518414Y-118523444D01*
X141518413Y-118523443D01*
X141518412Y-118523443D01*
X141316243Y-118457754D01*
X141316241Y-118457753D01*
X141316240Y-118457753D01*
X141154957Y-118432208D01*
X141106287Y-118424500D01*
X140893713Y-118424500D01*
X140845042Y-118432208D01*
X140683760Y-118457753D01*
X140481585Y-118523444D01*
X140292179Y-118619951D01*
X140120213Y-118744890D01*
X139969894Y-118895209D01*
X139969890Y-118895214D01*
X139850318Y-119059793D01*
X139794989Y-119102459D01*
X139725375Y-119108438D01*
X139663580Y-119075833D01*
X139649682Y-119059793D01*
X139530109Y-118895214D01*
X139530105Y-118895209D01*
X139379786Y-118744890D01*
X139207820Y-118619951D01*
X139018414Y-118523444D01*
X139018413Y-118523443D01*
X139018412Y-118523443D01*
X138816243Y-118457754D01*
X138816241Y-118457753D01*
X138816240Y-118457753D01*
X138654957Y-118432208D01*
X138606287Y-118424500D01*
X138393713Y-118424500D01*
X138345042Y-118432208D01*
X138183760Y-118457753D01*
X137981585Y-118523444D01*
X137792179Y-118619951D01*
X137620215Y-118744889D01*
X137481398Y-118883706D01*
X137420075Y-118917190D01*
X137350383Y-118912206D01*
X137294450Y-118870334D01*
X137288178Y-118861120D01*
X137192712Y-118706344D01*
X137068657Y-118582289D01*
X137068656Y-118582288D01*
X136956931Y-118513376D01*
X136919336Y-118490187D01*
X136919331Y-118490185D01*
X136917862Y-118489698D01*
X136752797Y-118435001D01*
X136752795Y-118435000D01*
X136650010Y-118424500D01*
X135349998Y-118424500D01*
X135349981Y-118424501D01*
X135247203Y-118435000D01*
X135247200Y-118435001D01*
X135080668Y-118490185D01*
X135080663Y-118490187D01*
X134931342Y-118582289D01*
X134807289Y-118706342D01*
X134715187Y-118855663D01*
X134715185Y-118855668D01*
X134698540Y-118905901D01*
X134660001Y-119022203D01*
X134660001Y-119022204D01*
X134660000Y-119022204D01*
X134649500Y-119124983D01*
X134649500Y-120675001D01*
X134649501Y-120675018D01*
X134660000Y-120777796D01*
X134660001Y-120777799D01*
X134705894Y-120916294D01*
X134715186Y-120944334D01*
X134807288Y-121093656D01*
X134931344Y-121217712D01*
X135080666Y-121309814D01*
X135247203Y-121364999D01*
X135349991Y-121375500D01*
X136650008Y-121375499D01*
X136752797Y-121364999D01*
X136919334Y-121309814D01*
X137068656Y-121217712D01*
X137192712Y-121093656D01*
X137284814Y-120944334D01*
X137284814Y-120944331D01*
X137288178Y-120938879D01*
X137340126Y-120892154D01*
X137409088Y-120880931D01*
X137473170Y-120908774D01*
X137481398Y-120916294D01*
X137620213Y-121055109D01*
X137792179Y-121180048D01*
X137792181Y-121180049D01*
X137792184Y-121180051D01*
X137981588Y-121276557D01*
X138183757Y-121342246D01*
X138393713Y-121375500D01*
X138393714Y-121375500D01*
X138606286Y-121375500D01*
X138606287Y-121375500D01*
X138816243Y-121342246D01*
X139018412Y-121276557D01*
X139207816Y-121180051D01*
X139318686Y-121099500D01*
X139379786Y-121055109D01*
X139379788Y-121055106D01*
X139379792Y-121055104D01*
X139530104Y-120904792D01*
X139649683Y-120740204D01*
X139705011Y-120697540D01*
X139774624Y-120691561D01*
X139836420Y-120724166D01*
X139850313Y-120740199D01*
X139952560Y-120880931D01*
X139969896Y-120904792D01*
X140120213Y-121055109D01*
X140292179Y-121180048D01*
X140292181Y-121180049D01*
X140292184Y-121180051D01*
X140481588Y-121276557D01*
X140683757Y-121342246D01*
X140893713Y-121375500D01*
X140893714Y-121375500D01*
X141106286Y-121375500D01*
X141106287Y-121375500D01*
X141316243Y-121342246D01*
X141518412Y-121276557D01*
X141707816Y-121180051D01*
X141818686Y-121099500D01*
X141879786Y-121055109D01*
X141879788Y-121055106D01*
X141879792Y-121055104D01*
X142030104Y-120904792D01*
X142149683Y-120740204D01*
X142205011Y-120697540D01*
X142274624Y-120691561D01*
X142336420Y-120724166D01*
X142350313Y-120740199D01*
X142452560Y-120880931D01*
X142469896Y-120904792D01*
X142620213Y-121055109D01*
X142792179Y-121180048D01*
X142792181Y-121180049D01*
X142792184Y-121180051D01*
X142981588Y-121276557D01*
X143183757Y-121342246D01*
X143393713Y-121375500D01*
X143393714Y-121375500D01*
X143606286Y-121375500D01*
X143606287Y-121375500D01*
X143816243Y-121342246D01*
X144018412Y-121276557D01*
X144207816Y-121180051D01*
X144326728Y-121093657D01*
X144378604Y-121055968D01*
X144444410Y-121032488D01*
X144512464Y-121048314D01*
X144539170Y-121068605D01*
X145022639Y-121552074D01*
X145022649Y-121552085D01*
X145026979Y-121556415D01*
X145026980Y-121556416D01*
X145138784Y-121668220D01*
X145225595Y-121718339D01*
X145225597Y-121718341D01*
X145250265Y-121732583D01*
X145275715Y-121747277D01*
X145428443Y-121788201D01*
X145428446Y-121788201D01*
X145594153Y-121788201D01*
X145594169Y-121788200D01*
X164330631Y-121788200D01*
X164330647Y-121788201D01*
X164338243Y-121788201D01*
X164496354Y-121788201D01*
X164496357Y-121788201D01*
X164649085Y-121747277D01*
X164699204Y-121718339D01*
X164786016Y-121668220D01*
X164897820Y-121556416D01*
X164897820Y-121556414D01*
X164908028Y-121546207D01*
X164908029Y-121546204D01*
X166760622Y-119693612D01*
X166821941Y-119660130D01*
X166891633Y-119665114D01*
X166935980Y-119693615D01*
X167238339Y-119995974D01*
X167238349Y-119995985D01*
X167242679Y-120000315D01*
X167242680Y-120000316D01*
X167354484Y-120112120D01*
X167354486Y-120112121D01*
X167354490Y-120112124D01*
X167491409Y-120191173D01*
X167491416Y-120191177D01*
X167603219Y-120221134D01*
X167644142Y-120232100D01*
X167644143Y-120232100D01*
X182386731Y-120232100D01*
X182386747Y-120232101D01*
X182394343Y-120232101D01*
X182552454Y-120232101D01*
X182552457Y-120232101D01*
X182705185Y-120191177D01*
X182755304Y-120162239D01*
X182842116Y-120112120D01*
X182953920Y-120000316D01*
X182953920Y-120000314D01*
X182964128Y-119990107D01*
X182964130Y-119990104D01*
X183472299Y-119481934D01*
X183533620Y-119448451D01*
X183603312Y-119453435D01*
X183632863Y-119469299D01*
X183650257Y-119481936D01*
X183792184Y-119585051D01*
X183981588Y-119681557D01*
X184183757Y-119747246D01*
X184393713Y-119780500D01*
X184393714Y-119780500D01*
X184606286Y-119780500D01*
X184606287Y-119780500D01*
X184816243Y-119747246D01*
X185018412Y-119681557D01*
X185207816Y-119585051D01*
X185349743Y-119481936D01*
X185379786Y-119460109D01*
X185379788Y-119460106D01*
X185379792Y-119460104D01*
X185530104Y-119309792D01*
X185649683Y-119145204D01*
X185705011Y-119102540D01*
X185774624Y-119096561D01*
X185836420Y-119129166D01*
X185850313Y-119145199D01*
X185969892Y-119309786D01*
X185969896Y-119309792D01*
X186120213Y-119460109D01*
X186292179Y-119585048D01*
X186292181Y-119585049D01*
X186292184Y-119585051D01*
X186481588Y-119681557D01*
X186683757Y-119747246D01*
X186893713Y-119780500D01*
X186893714Y-119780500D01*
X187106286Y-119780500D01*
X187106287Y-119780500D01*
X187316243Y-119747246D01*
X187518412Y-119681557D01*
X187707816Y-119585051D01*
X187849743Y-119481936D01*
X187879786Y-119460109D01*
X187879788Y-119460106D01*
X187879792Y-119460104D01*
X188030104Y-119309792D01*
X188030106Y-119309788D01*
X188030109Y-119309786D01*
X188155048Y-119137820D01*
X188155047Y-119137820D01*
X188155051Y-119137816D01*
X188251557Y-118948412D01*
X188317246Y-118746243D01*
X188350500Y-118536287D01*
X188350500Y-118073713D01*
X188317246Y-117863757D01*
X188251557Y-117661588D01*
X188155051Y-117472184D01*
X188155049Y-117472181D01*
X188155048Y-117472179D01*
X188030109Y-117300213D01*
X187879786Y-117149890D01*
X187707820Y-117024951D01*
X187518414Y-116928444D01*
X187518413Y-116928443D01*
X187518412Y-116928443D01*
X187316243Y-116862754D01*
X187316241Y-116862753D01*
X187316240Y-116862753D01*
X187154957Y-116837208D01*
X187106287Y-116829500D01*
X186893713Y-116829500D01*
X186845042Y-116837208D01*
X186683760Y-116862753D01*
X186481585Y-116928444D01*
X186292179Y-117024951D01*
X186120213Y-117149890D01*
X185969894Y-117300209D01*
X185969890Y-117300214D01*
X185850318Y-117464793D01*
X185794989Y-117507459D01*
X185725375Y-117513438D01*
X185663580Y-117480833D01*
X185649682Y-117464793D01*
X185530109Y-117300214D01*
X185530105Y-117300209D01*
X185379786Y-117149890D01*
X185207820Y-117024951D01*
X185018414Y-116928444D01*
X185018413Y-116928443D01*
X185018412Y-116928443D01*
X184816243Y-116862754D01*
X184816241Y-116862753D01*
X184816240Y-116862753D01*
X184654957Y-116837208D01*
X184606287Y-116829500D01*
X184393713Y-116829500D01*
X184345042Y-116837208D01*
X184183760Y-116862753D01*
X183981585Y-116928444D01*
X183792179Y-117024951D01*
X183620213Y-117149890D01*
X183469894Y-117300209D01*
X183469890Y-117300214D01*
X183350318Y-117464793D01*
X183294989Y-117507459D01*
X183225375Y-117513438D01*
X183163580Y-117480833D01*
X183149682Y-117464793D01*
X183030109Y-117300214D01*
X183030105Y-117300209D01*
X182879786Y-117149890D01*
X182707820Y-117024951D01*
X182518414Y-116928444D01*
X182518413Y-116928443D01*
X182518412Y-116928443D01*
X182316243Y-116862754D01*
X182316241Y-116862753D01*
X182316240Y-116862753D01*
X182154957Y-116837208D01*
X182106287Y-116829500D01*
X181893713Y-116829500D01*
X181845042Y-116837208D01*
X181683760Y-116862753D01*
X181481585Y-116928444D01*
X181292179Y-117024951D01*
X181120213Y-117149890D01*
X180969894Y-117300209D01*
X180969890Y-117300214D01*
X180850318Y-117464793D01*
X180794989Y-117507459D01*
X180725375Y-117513438D01*
X180663580Y-117480833D01*
X180649682Y-117464793D01*
X180530109Y-117300214D01*
X180530105Y-117300209D01*
X180379786Y-117149890D01*
X180207820Y-117024951D01*
X180018414Y-116928444D01*
X180018413Y-116928443D01*
X180018412Y-116928443D01*
X179816243Y-116862754D01*
X179816241Y-116862753D01*
X179816240Y-116862753D01*
X179654957Y-116837208D01*
X179606287Y-116829500D01*
X179393713Y-116829500D01*
X179345042Y-116837208D01*
X179183760Y-116862753D01*
X178981585Y-116928444D01*
X178792179Y-117024951D01*
X178620215Y-117149889D01*
X178481398Y-117288706D01*
X178420075Y-117322190D01*
X178350383Y-117317206D01*
X178294450Y-117275334D01*
X178288178Y-117266120D01*
X178276660Y-117247447D01*
X178192712Y-117111344D01*
X178068656Y-116987288D01*
X177944298Y-116910584D01*
X177919336Y-116895187D01*
X177919331Y-116895185D01*
X177855447Y-116874016D01*
X177752797Y-116840001D01*
X177752795Y-116840000D01*
X177650016Y-116829500D01*
X177650009Y-116829500D01*
X176425097Y-116829500D01*
X176358058Y-116809815D01*
X176337416Y-116793181D01*
X172695390Y-113151155D01*
X172695388Y-113151152D01*
X172576517Y-113032281D01*
X172576509Y-113032275D01*
X172457656Y-112963656D01*
X172457656Y-112963655D01*
X172457651Y-112963654D01*
X172449151Y-112958746D01*
X172439586Y-112953223D01*
X172388658Y-112939577D01*
X172286857Y-112912299D01*
X172128743Y-112912299D01*
X172121147Y-112912299D01*
X172121131Y-112912300D01*
X168915143Y-112912300D01*
X168848104Y-112892615D01*
X168802349Y-112839811D01*
X168792405Y-112770653D01*
X168797212Y-112749981D01*
X168818477Y-112684534D01*
X168850500Y-112482351D01*
X168850500Y-112277648D01*
X168818477Y-112075465D01*
X168755218Y-111880776D01*
X168709515Y-111791080D01*
X168662287Y-111698390D01*
X168654556Y-111687749D01*
X168541971Y-111532786D01*
X168397213Y-111388028D01*
X168231613Y-111267715D01*
X168231612Y-111267714D01*
X168231610Y-111267713D01*
X168174653Y-111238691D01*
X168049223Y-111174781D01*
X167854534Y-111111522D01*
X167679995Y-111083878D01*
X167652352Y-111079500D01*
X167447648Y-111079500D01*
X167423329Y-111083351D01*
X167245465Y-111111522D01*
X167050776Y-111174781D01*
X166868386Y-111267715D01*
X166702786Y-111388028D01*
X166558028Y-111532786D01*
X166437715Y-111698386D01*
X166390485Y-111791080D01*
X166342510Y-111841876D01*
X166274689Y-111858671D01*
X166208554Y-111836134D01*
X166169515Y-111791080D01*
X166163615Y-111779500D01*
X166122287Y-111698390D01*
X166114556Y-111687749D01*
X166001971Y-111532786D01*
X165857213Y-111388028D01*
X165691613Y-111267715D01*
X165691612Y-111267714D01*
X165691610Y-111267713D01*
X165634653Y-111238691D01*
X165509223Y-111174781D01*
X165314534Y-111111522D01*
X165139995Y-111083878D01*
X165112352Y-111079500D01*
X164907648Y-111079500D01*
X164883329Y-111083351D01*
X164705465Y-111111522D01*
X164510776Y-111174781D01*
X164328386Y-111267715D01*
X164162786Y-111388028D01*
X164018028Y-111532786D01*
X163897715Y-111698386D01*
X163850485Y-111791080D01*
X163802510Y-111841876D01*
X163734689Y-111858671D01*
X163668554Y-111836134D01*
X163629515Y-111791080D01*
X163623615Y-111779500D01*
X163582287Y-111698390D01*
X163574556Y-111687749D01*
X163461971Y-111532786D01*
X163317213Y-111388028D01*
X163151613Y-111267715D01*
X163151612Y-111267714D01*
X163151610Y-111267713D01*
X163094653Y-111238691D01*
X162969223Y-111174781D01*
X162774534Y-111111522D01*
X162599995Y-111083878D01*
X162572352Y-111079500D01*
X162367648Y-111079500D01*
X162343329Y-111083351D01*
X162165465Y-111111522D01*
X161970776Y-111174781D01*
X161788386Y-111267715D01*
X161622786Y-111388028D01*
X161478028Y-111532786D01*
X161357715Y-111698386D01*
X161310485Y-111791080D01*
X161262510Y-111841876D01*
X161194689Y-111858671D01*
X161128554Y-111836134D01*
X161089515Y-111791080D01*
X161083615Y-111779500D01*
X161042287Y-111698390D01*
X161034556Y-111687749D01*
X160921971Y-111532786D01*
X160777213Y-111388028D01*
X160611613Y-111267715D01*
X160611612Y-111267714D01*
X160611610Y-111267713D01*
X160554653Y-111238691D01*
X160429223Y-111174781D01*
X160234534Y-111111522D01*
X160059995Y-111083878D01*
X160032352Y-111079500D01*
X159827648Y-111079500D01*
X159803329Y-111083351D01*
X159625465Y-111111522D01*
X159430776Y-111174781D01*
X159248386Y-111267715D01*
X159082786Y-111388028D01*
X158938028Y-111532786D01*
X158817715Y-111698386D01*
X158770485Y-111791080D01*
X158722510Y-111841876D01*
X158654689Y-111858671D01*
X158588554Y-111836134D01*
X158549515Y-111791080D01*
X158543615Y-111779500D01*
X158502287Y-111698390D01*
X158494556Y-111687749D01*
X158381971Y-111532786D01*
X158237213Y-111388028D01*
X158071613Y-111267715D01*
X158071612Y-111267714D01*
X158071610Y-111267713D01*
X158014653Y-111238691D01*
X157889223Y-111174781D01*
X157694534Y-111111522D01*
X157519995Y-111083878D01*
X157492352Y-111079500D01*
X157287648Y-111079500D01*
X157263329Y-111083351D01*
X157085465Y-111111522D01*
X156890776Y-111174781D01*
X156708386Y-111267715D01*
X156542786Y-111388028D01*
X156398028Y-111532786D01*
X156277715Y-111698386D01*
X156230485Y-111791080D01*
X156182510Y-111841876D01*
X156114689Y-111858671D01*
X156048554Y-111836134D01*
X156009515Y-111791080D01*
X156003615Y-111779500D01*
X155962287Y-111698390D01*
X155954556Y-111687749D01*
X155841971Y-111532786D01*
X155697213Y-111388028D01*
X155531613Y-111267715D01*
X155531612Y-111267714D01*
X155531610Y-111267713D01*
X155474653Y-111238691D01*
X155349223Y-111174781D01*
X155154534Y-111111522D01*
X154979995Y-111083878D01*
X154952352Y-111079500D01*
X154747648Y-111079500D01*
X154723329Y-111083351D01*
X154545465Y-111111522D01*
X154350776Y-111174781D01*
X154168386Y-111267715D01*
X154002786Y-111388028D01*
X153858028Y-111532786D01*
X153737715Y-111698386D01*
X153690485Y-111791080D01*
X153642510Y-111841876D01*
X153574689Y-111858671D01*
X153508554Y-111836134D01*
X153469515Y-111791080D01*
X153463615Y-111779500D01*
X153422287Y-111698390D01*
X153414556Y-111687749D01*
X153301971Y-111532786D01*
X153157213Y-111388028D01*
X152991611Y-111267713D01*
X152887512Y-111214671D01*
X152836717Y-111166697D01*
X152819922Y-111098875D01*
X152842460Y-111032741D01*
X152856120Y-111016513D01*
X153249716Y-110622919D01*
X153311039Y-110589434D01*
X153337397Y-110586600D01*
X177603431Y-110586600D01*
X177603447Y-110586601D01*
X177611043Y-110586601D01*
X177769154Y-110586601D01*
X177769157Y-110586601D01*
X177921885Y-110545677D01*
X177972004Y-110516739D01*
X178058816Y-110466620D01*
X178170620Y-110354816D01*
X178170620Y-110354814D01*
X178180828Y-110344607D01*
X178180830Y-110344604D01*
X181631721Y-106893713D01*
X204304500Y-106893713D01*
X204304500Y-107106286D01*
X204337753Y-107316239D01*
X204403444Y-107518414D01*
X204499951Y-107707820D01*
X204624890Y-107879786D01*
X204763705Y-108018601D01*
X204797190Y-108079924D01*
X204792206Y-108149616D01*
X204750334Y-108205549D01*
X204741121Y-108211821D01*
X204586342Y-108307289D01*
X204462289Y-108431342D01*
X204370187Y-108580663D01*
X204370186Y-108580666D01*
X204315001Y-108747203D01*
X204315001Y-108747204D01*
X204315000Y-108747204D01*
X204304500Y-108849983D01*
X204304500Y-110150001D01*
X204304501Y-110150018D01*
X204315000Y-110252796D01*
X204315001Y-110252799D01*
X204345422Y-110344601D01*
X204370186Y-110419334D01*
X204462288Y-110568656D01*
X204586344Y-110692712D01*
X204735666Y-110784814D01*
X204902203Y-110839999D01*
X205004991Y-110850500D01*
X206605008Y-110850499D01*
X206707797Y-110839999D01*
X206874334Y-110784814D01*
X207023656Y-110692712D01*
X207147712Y-110568656D01*
X207239814Y-110419334D01*
X207294999Y-110252797D01*
X207305500Y-110150009D01*
X207305499Y-108849992D01*
X207294999Y-108747203D01*
X207239814Y-108580666D01*
X207147712Y-108431344D01*
X207023656Y-108307288D01*
X206874334Y-108215186D01*
X206874333Y-108215185D01*
X206868878Y-108211821D01*
X206822154Y-108159873D01*
X206810931Y-108090910D01*
X206838775Y-108026828D01*
X206846272Y-108018623D01*
X206985104Y-107879792D01*
X207110051Y-107707816D01*
X207206557Y-107518412D01*
X207272246Y-107316243D01*
X207305500Y-107106287D01*
X207305500Y-106893713D01*
X207272246Y-106683757D01*
X207206557Y-106481588D01*
X207110051Y-106292184D01*
X207110049Y-106292181D01*
X207110048Y-106292179D01*
X206985109Y-106120213D01*
X206834786Y-105969890D01*
X206662820Y-105844951D01*
X206473414Y-105748444D01*
X206473413Y-105748443D01*
X206473412Y-105748443D01*
X206271243Y-105682754D01*
X206271241Y-105682753D01*
X206271240Y-105682753D01*
X206109957Y-105657208D01*
X206061287Y-105649500D01*
X205548713Y-105649500D01*
X205500042Y-105657208D01*
X205338760Y-105682753D01*
X205136585Y-105748444D01*
X204947179Y-105844951D01*
X204775213Y-105969890D01*
X204624890Y-106120213D01*
X204499951Y-106292179D01*
X204403444Y-106481585D01*
X204337753Y-106683760D01*
X204304500Y-106893713D01*
X181631721Y-106893713D01*
X190240231Y-98285202D01*
X190301552Y-98251719D01*
X190371244Y-98256703D01*
X190406227Y-98277294D01*
X190406266Y-98277241D01*
X190406820Y-98277644D01*
X190408455Y-98278606D01*
X190410204Y-98280100D01*
X190410208Y-98280104D01*
X190410212Y-98280107D01*
X190410218Y-98280112D01*
X190582179Y-98405048D01*
X190582181Y-98405049D01*
X190582184Y-98405051D01*
X190771588Y-98501557D01*
X190973757Y-98567246D01*
X191183713Y-98600500D01*
X191183714Y-98600500D01*
X191396286Y-98600500D01*
X191396287Y-98600500D01*
X191606243Y-98567246D01*
X191808412Y-98501557D01*
X191997816Y-98405051D01*
X192013422Y-98393713D01*
X204304500Y-98393713D01*
X204304500Y-98606286D01*
X204337110Y-98812181D01*
X204337754Y-98816243D01*
X204387222Y-98968490D01*
X204403444Y-99018414D01*
X204499951Y-99207820D01*
X204624890Y-99379786D01*
X204763705Y-99518601D01*
X204797190Y-99579924D01*
X204792206Y-99649616D01*
X204750334Y-99705549D01*
X204741121Y-99711821D01*
X204586342Y-99807289D01*
X204462289Y-99931342D01*
X204370187Y-100080663D01*
X204370186Y-100080666D01*
X204315001Y-100247203D01*
X204315001Y-100247204D01*
X204315000Y-100247204D01*
X204304500Y-100349983D01*
X204304500Y-101650001D01*
X204304501Y-101650018D01*
X204315000Y-101752796D01*
X204315001Y-101752799D01*
X204337403Y-101820402D01*
X204370186Y-101919334D01*
X204462288Y-102068656D01*
X204586344Y-102192712D01*
X204735666Y-102284814D01*
X204902203Y-102339999D01*
X205004991Y-102350500D01*
X206605008Y-102350499D01*
X206707797Y-102339999D01*
X206874334Y-102284814D01*
X207023656Y-102192712D01*
X207147712Y-102068656D01*
X207239814Y-101919334D01*
X207294999Y-101752797D01*
X207305500Y-101650009D01*
X207305499Y-100349992D01*
X207294999Y-100247203D01*
X207239814Y-100080666D01*
X207147712Y-99931344D01*
X207023656Y-99807288D01*
X206874334Y-99715186D01*
X206874333Y-99715185D01*
X206868878Y-99711821D01*
X206822154Y-99659873D01*
X206810931Y-99590910D01*
X206838775Y-99526828D01*
X206846272Y-99518623D01*
X206985104Y-99379792D01*
X207110051Y-99207816D01*
X207206557Y-99018412D01*
X207272246Y-98816243D01*
X207305500Y-98606287D01*
X207305500Y-98393713D01*
X207272246Y-98183757D01*
X207206557Y-97981588D01*
X207110051Y-97792184D01*
X207110049Y-97792181D01*
X207110048Y-97792179D01*
X206985109Y-97620213D01*
X206834786Y-97469890D01*
X206662820Y-97344951D01*
X206473414Y-97248444D01*
X206473413Y-97248443D01*
X206473412Y-97248443D01*
X206271243Y-97182754D01*
X206271241Y-97182753D01*
X206271240Y-97182753D01*
X206109957Y-97157208D01*
X206061287Y-97149500D01*
X205548713Y-97149500D01*
X205500042Y-97157208D01*
X205338760Y-97182753D01*
X205136585Y-97248444D01*
X204947179Y-97344951D01*
X204775213Y-97469890D01*
X204624890Y-97620213D01*
X204499951Y-97792179D01*
X204403444Y-97981585D01*
X204337753Y-98183760D01*
X204304500Y-98393713D01*
X192013422Y-98393713D01*
X192158206Y-98288522D01*
X192158209Y-98288520D01*
X192169783Y-98280111D01*
X192169786Y-98280107D01*
X192169792Y-98280104D01*
X192320104Y-98129792D01*
X192320106Y-98129788D01*
X192320109Y-98129786D01*
X192445048Y-97957820D01*
X192445047Y-97957820D01*
X192445051Y-97957816D01*
X192541557Y-97768412D01*
X192607246Y-97566243D01*
X192640500Y-97356287D01*
X192640500Y-97143713D01*
X192607246Y-96933757D01*
X192581823Y-96855516D01*
X192579829Y-96785677D01*
X192615909Y-96725844D01*
X192678610Y-96695016D01*
X192699755Y-96693200D01*
X199519020Y-96693200D01*
X199586059Y-96712885D01*
X199631814Y-96765689D01*
X199640637Y-96793009D01*
X199650161Y-96840889D01*
X199650164Y-96840901D01*
X199710502Y-96986572D01*
X199710509Y-96986585D01*
X199798110Y-97117688D01*
X199798113Y-97117692D01*
X199909607Y-97229186D01*
X199909611Y-97229189D01*
X200040714Y-97316790D01*
X200040727Y-97316797D01*
X200136066Y-97356287D01*
X200186403Y-97377137D01*
X200341053Y-97407899D01*
X200341056Y-97407900D01*
X200341058Y-97407900D01*
X200498744Y-97407900D01*
X200498745Y-97407899D01*
X200653397Y-97377137D01*
X200799079Y-97316794D01*
X200930189Y-97229189D01*
X201041689Y-97117689D01*
X201129294Y-96986579D01*
X201133628Y-96976117D01*
X201189635Y-96840901D01*
X201189637Y-96840897D01*
X201220400Y-96686242D01*
X201220400Y-96528558D01*
X201220400Y-96528555D01*
X201220399Y-96528553D01*
X201211116Y-96481887D01*
X201189637Y-96373903D01*
X201189635Y-96373898D01*
X201129297Y-96228227D01*
X201129290Y-96228214D01*
X201041689Y-96097111D01*
X201041686Y-96097107D01*
X200930192Y-95985613D01*
X200930188Y-95985610D01*
X200799085Y-95898009D01*
X200799072Y-95898002D01*
X200653401Y-95837664D01*
X200653391Y-95837661D01*
X200498051Y-95806762D01*
X200481294Y-95797996D01*
X200462816Y-95793977D01*
X200437778Y-95775233D01*
X200436141Y-95774377D01*
X200434562Y-95772826D01*
X200273917Y-95612181D01*
X200273916Y-95612180D01*
X200187104Y-95562060D01*
X200187104Y-95562059D01*
X200187100Y-95562058D01*
X200136985Y-95533123D01*
X199984257Y-95492199D01*
X199826143Y-95492199D01*
X199818547Y-95492199D01*
X199818531Y-95492200D01*
X188337169Y-95492200D01*
X188337153Y-95492199D01*
X188329557Y-95492199D01*
X188171443Y-95492199D01*
X188064087Y-95520965D01*
X188018710Y-95533124D01*
X188018709Y-95533125D01*
X187968596Y-95562059D01*
X187968595Y-95562060D01*
X187925189Y-95587120D01*
X187881785Y-95612179D01*
X187881782Y-95612181D01*
X187269611Y-96224353D01*
X187208288Y-96257838D01*
X187138596Y-96252854D01*
X187094249Y-96224353D01*
X187089786Y-96219890D01*
X186917820Y-96094951D01*
X186728414Y-95998444D01*
X186728413Y-95998443D01*
X186728412Y-95998443D01*
X186526243Y-95932754D01*
X186526241Y-95932753D01*
X186526240Y-95932753D01*
X186364957Y-95907208D01*
X186316287Y-95899500D01*
X186103713Y-95899500D01*
X186055042Y-95907208D01*
X185893760Y-95932753D01*
X185792672Y-95965598D01*
X185731075Y-95985613D01*
X185691585Y-95998444D01*
X185502179Y-96094951D01*
X185330215Y-96219889D01*
X185216673Y-96333431D01*
X185155350Y-96366915D01*
X185085658Y-96361931D01*
X185029725Y-96320059D01*
X185012810Y-96289082D01*
X184963797Y-96157671D01*
X184963793Y-96157664D01*
X184877547Y-96042455D01*
X184877544Y-96042452D01*
X184762335Y-95956206D01*
X184762328Y-95956202D01*
X184627482Y-95905908D01*
X184627483Y-95905908D01*
X184567883Y-95899501D01*
X184567881Y-95899500D01*
X184567873Y-95899500D01*
X184567864Y-95899500D01*
X182772129Y-95899500D01*
X182772123Y-95899501D01*
X182712516Y-95905908D01*
X182577671Y-95956202D01*
X182577664Y-95956206D01*
X182462455Y-96042452D01*
X182462452Y-96042455D01*
X182376206Y-96157664D01*
X182376202Y-96157671D01*
X182325908Y-96292517D01*
X182319501Y-96352116D01*
X182319500Y-96352135D01*
X182319500Y-98147870D01*
X182319501Y-98147876D01*
X182325908Y-98207483D01*
X182376202Y-98342328D01*
X182376206Y-98342335D01*
X182462452Y-98457544D01*
X182462455Y-98457547D01*
X182577664Y-98543793D01*
X182577671Y-98543797D01*
X182712517Y-98594091D01*
X182712516Y-98594091D01*
X182719444Y-98594835D01*
X182772127Y-98600500D01*
X184567872Y-98600499D01*
X184627483Y-98594091D01*
X184762331Y-98543796D01*
X184877546Y-98457546D01*
X184963796Y-98342331D01*
X185012810Y-98210916D01*
X185054681Y-98154984D01*
X185120145Y-98130566D01*
X185188418Y-98145417D01*
X185216673Y-98166569D01*
X185330213Y-98280109D01*
X185502179Y-98405048D01*
X185502181Y-98405049D01*
X185502184Y-98405051D01*
X185691588Y-98501557D01*
X185893757Y-98567246D01*
X186103713Y-98600500D01*
X186103714Y-98600500D01*
X186250901Y-98600500D01*
X186317940Y-98620185D01*
X186363695Y-98672989D01*
X186373639Y-98742147D01*
X186344614Y-98805703D01*
X186338582Y-98812181D01*
X183257784Y-101892981D01*
X183196461Y-101926466D01*
X183170103Y-101929300D01*
X153113466Y-101929300D01*
X153046427Y-101909615D01*
X153044575Y-101908402D01*
X152912885Y-101820409D01*
X152912872Y-101820402D01*
X152767201Y-101760064D01*
X152767189Y-101760061D01*
X152612545Y-101729300D01*
X152612542Y-101729300D01*
X152454858Y-101729300D01*
X152454855Y-101729300D01*
X152300210Y-101760061D01*
X152300198Y-101760064D01*
X152154527Y-101820402D01*
X152154514Y-101820409D01*
X152023411Y-101908010D01*
X152023407Y-101908013D01*
X151911913Y-102019507D01*
X151911907Y-102019515D01*
X151824307Y-102150617D01*
X151798936Y-102211865D01*
X151791765Y-102226406D01*
X151750424Y-102298014D01*
X151750422Y-102298019D01*
X151709500Y-102450743D01*
X151709500Y-102608856D01*
X151750423Y-102761583D01*
X151750425Y-102761588D01*
X151791767Y-102833197D01*
X151798940Y-102847741D01*
X151824306Y-102908980D01*
X151824307Y-102908981D01*
X151911907Y-103040084D01*
X151911913Y-103040092D01*
X152023407Y-103151586D01*
X152023411Y-103151589D01*
X152154514Y-103239190D01*
X152154527Y-103239197D01*
X152233618Y-103271957D01*
X152300203Y-103299537D01*
X152454853Y-103330299D01*
X152454856Y-103330300D01*
X152454858Y-103330300D01*
X152612544Y-103330300D01*
X152612545Y-103330299D01*
X152767197Y-103299537D01*
X152912879Y-103239194D01*
X152912885Y-103239190D01*
X153044575Y-103151198D01*
X153111253Y-103130320D01*
X153113466Y-103130300D01*
X183383540Y-103130300D01*
X183391141Y-103130300D01*
X183391143Y-103130301D01*
X183397310Y-103130301D01*
X183438571Y-103142419D01*
X183464340Y-103149986D01*
X183464341Y-103149988D01*
X183464348Y-103149990D01*
X183492131Y-103182059D01*
X183510095Y-103202790D01*
X183510095Y-103202794D01*
X183510099Y-103202798D01*
X183515605Y-103241112D01*
X183520039Y-103271948D01*
X183520037Y-103271951D01*
X183520038Y-103271957D01*
X183506632Y-103301306D01*
X183491014Y-103335504D01*
X183491008Y-103335509D01*
X183491008Y-103335511D01*
X183491006Y-103335511D01*
X183484982Y-103341982D01*
X177477684Y-109349281D01*
X177416361Y-109382766D01*
X177390003Y-109385600D01*
X153123969Y-109385600D01*
X153123953Y-109385599D01*
X153116357Y-109385599D01*
X152958243Y-109385599D01*
X152850887Y-109414365D01*
X152805510Y-109426524D01*
X152805509Y-109426525D01*
X152755396Y-109455459D01*
X152755395Y-109455460D01*
X152711989Y-109480520D01*
X152668585Y-109505579D01*
X152668582Y-109505581D01*
X152556778Y-109617386D01*
X150789355Y-111384808D01*
X150728032Y-111418293D01*
X150658340Y-111413309D01*
X150621981Y-111389942D01*
X150620915Y-111391191D01*
X150617213Y-111388028D01*
X150451613Y-111267715D01*
X150451612Y-111267714D01*
X150451610Y-111267713D01*
X150394653Y-111238691D01*
X150269223Y-111174781D01*
X150074534Y-111111522D01*
X149899995Y-111083878D01*
X149872352Y-111079500D01*
X149667648Y-111079500D01*
X149643329Y-111083351D01*
X149465465Y-111111522D01*
X149270776Y-111174781D01*
X149088386Y-111267715D01*
X148922786Y-111388028D01*
X148778028Y-111532786D01*
X148657714Y-111698386D01*
X148637269Y-111738512D01*
X148616004Y-111761026D01*
X148596288Y-111784906D01*
X148592223Y-111786205D01*
X148589294Y-111789307D01*
X148559237Y-111796749D01*
X148529736Y-111806180D01*
X148523947Y-111805487D01*
X148521472Y-111806101D01*
X148494691Y-111801990D01*
X148432650Y-111785366D01*
X148372990Y-111749001D01*
X148354260Y-111721887D01*
X148342286Y-111698388D01*
X148221971Y-111532786D01*
X148077213Y-111388028D01*
X147911613Y-111267715D01*
X147911612Y-111267714D01*
X147911610Y-111267713D01*
X147854653Y-111238691D01*
X147729223Y-111174781D01*
X147534534Y-111111522D01*
X147359995Y-111083878D01*
X147332352Y-111079500D01*
X147127648Y-111079500D01*
X147103329Y-111083351D01*
X146925465Y-111111522D01*
X146730776Y-111174781D01*
X146548386Y-111267715D01*
X146382786Y-111388028D01*
X146238028Y-111532786D01*
X146117714Y-111698386D01*
X146097269Y-111738512D01*
X146076004Y-111761026D01*
X146056288Y-111784906D01*
X146052223Y-111786205D01*
X146049294Y-111789307D01*
X146019237Y-111796749D01*
X145989736Y-111806180D01*
X145983947Y-111805487D01*
X145981472Y-111806101D01*
X145954691Y-111801990D01*
X145892650Y-111785366D01*
X145832990Y-111749001D01*
X145814260Y-111721887D01*
X145802286Y-111698388D01*
X145681971Y-111532786D01*
X145537213Y-111388028D01*
X145371613Y-111267715D01*
X145371612Y-111267714D01*
X145371610Y-111267713D01*
X145314653Y-111238691D01*
X145189223Y-111174781D01*
X144994534Y-111111522D01*
X144819995Y-111083878D01*
X144792352Y-111079500D01*
X144587648Y-111079500D01*
X144563329Y-111083351D01*
X144385465Y-111111522D01*
X144190776Y-111174781D01*
X144008386Y-111267715D01*
X143842786Y-111388028D01*
X143698028Y-111532786D01*
X143577714Y-111698386D01*
X143557269Y-111738512D01*
X143536004Y-111761026D01*
X143516288Y-111784906D01*
X143512223Y-111786205D01*
X143509294Y-111789307D01*
X143479237Y-111796749D01*
X143449736Y-111806180D01*
X143443947Y-111805487D01*
X143441472Y-111806101D01*
X143414691Y-111801990D01*
X143352650Y-111785366D01*
X143292990Y-111749001D01*
X143274260Y-111721887D01*
X143262286Y-111698388D01*
X143141971Y-111532786D01*
X142997213Y-111388028D01*
X142831613Y-111267715D01*
X142831612Y-111267714D01*
X142831610Y-111267713D01*
X142774653Y-111238691D01*
X142649223Y-111174781D01*
X142454534Y-111111522D01*
X142279995Y-111083878D01*
X142252352Y-111079500D01*
X142047648Y-111079500D01*
X142023329Y-111083351D01*
X141845465Y-111111522D01*
X141650776Y-111174781D01*
X141468386Y-111267715D01*
X141302786Y-111388028D01*
X141158028Y-111532786D01*
X141037714Y-111698386D01*
X141017269Y-111738512D01*
X140996004Y-111761026D01*
X140976288Y-111784906D01*
X140972223Y-111786205D01*
X140969294Y-111789307D01*
X140939237Y-111796749D01*
X140909736Y-111806180D01*
X140903947Y-111805487D01*
X140901472Y-111806101D01*
X140874691Y-111801990D01*
X140812650Y-111785366D01*
X140752990Y-111749001D01*
X140734260Y-111721887D01*
X140722286Y-111698388D01*
X140601971Y-111532786D01*
X140457213Y-111388028D01*
X140291613Y-111267715D01*
X140291612Y-111267714D01*
X140291610Y-111267713D01*
X140234653Y-111238691D01*
X140109223Y-111174781D01*
X139914534Y-111111522D01*
X139739995Y-111083878D01*
X139712352Y-111079500D01*
X139507648Y-111079500D01*
X139483329Y-111083351D01*
X139305465Y-111111522D01*
X139110776Y-111174781D01*
X138928386Y-111267715D01*
X138762786Y-111388028D01*
X138618028Y-111532786D01*
X138497715Y-111698386D01*
X138450485Y-111791080D01*
X138402510Y-111841876D01*
X138334689Y-111858671D01*
X138268554Y-111836134D01*
X138229515Y-111791080D01*
X138223615Y-111779500D01*
X138182287Y-111698390D01*
X138174556Y-111687749D01*
X138061971Y-111532786D01*
X137917213Y-111388028D01*
X137751613Y-111267715D01*
X137751612Y-111267714D01*
X137751610Y-111267713D01*
X137694653Y-111238691D01*
X137569223Y-111174781D01*
X137374534Y-111111522D01*
X137199995Y-111083878D01*
X137172352Y-111079500D01*
X136967648Y-111079500D01*
X136943329Y-111083351D01*
X136765465Y-111111522D01*
X136570776Y-111174781D01*
X136388386Y-111267715D01*
X136222786Y-111388028D01*
X136078028Y-111532786D01*
X135957715Y-111698386D01*
X135910485Y-111791080D01*
X135862510Y-111841876D01*
X135794689Y-111858671D01*
X135728554Y-111836134D01*
X135689515Y-111791080D01*
X135683615Y-111779500D01*
X135642287Y-111698390D01*
X135634556Y-111687749D01*
X135521971Y-111532786D01*
X135377213Y-111388028D01*
X135211613Y-111267715D01*
X135211612Y-111267714D01*
X135211610Y-111267713D01*
X135154653Y-111238691D01*
X135029223Y-111174781D01*
X134834534Y-111111522D01*
X134659995Y-111083878D01*
X134632352Y-111079500D01*
X134427648Y-111079500D01*
X134403329Y-111083351D01*
X134225465Y-111111522D01*
X134030776Y-111174781D01*
X133848386Y-111267715D01*
X133682786Y-111388028D01*
X133538028Y-111532786D01*
X133417715Y-111698386D01*
X133370485Y-111791080D01*
X133322510Y-111841876D01*
X133254689Y-111858671D01*
X133188554Y-111836134D01*
X133149515Y-111791080D01*
X133143615Y-111779500D01*
X133102287Y-111698390D01*
X133094556Y-111687749D01*
X132981971Y-111532786D01*
X132837213Y-111388028D01*
X132671613Y-111267715D01*
X132671612Y-111267714D01*
X132671610Y-111267713D01*
X132614653Y-111238691D01*
X132489223Y-111174781D01*
X132294534Y-111111522D01*
X132119995Y-111083878D01*
X132092352Y-111079500D01*
X131887648Y-111079500D01*
X131863329Y-111083351D01*
X131685465Y-111111522D01*
X131490776Y-111174781D01*
X131308386Y-111267715D01*
X131142786Y-111388028D01*
X130998028Y-111532786D01*
X130877715Y-111698386D01*
X130784781Y-111880776D01*
X130721522Y-112075465D01*
X130689500Y-112277648D01*
X126000500Y-112277648D01*
X126000500Y-97037648D01*
X130689500Y-97037648D01*
X130689500Y-97242351D01*
X130721522Y-97444534D01*
X130784781Y-97639223D01*
X130877715Y-97821613D01*
X130998028Y-97987213D01*
X131142786Y-98131971D01*
X131297749Y-98244556D01*
X131308390Y-98252287D01*
X131424607Y-98311503D01*
X131490776Y-98345218D01*
X131490778Y-98345218D01*
X131490781Y-98345220D01*
X131595137Y-98379127D01*
X131685465Y-98408477D01*
X131786557Y-98424488D01*
X131887648Y-98440500D01*
X131887649Y-98440500D01*
X132092351Y-98440500D01*
X132092352Y-98440500D01*
X132294534Y-98408477D01*
X132489219Y-98345220D01*
X132671610Y-98252287D01*
X132789592Y-98166569D01*
X132837213Y-98131971D01*
X132837215Y-98131968D01*
X132837219Y-98131966D01*
X132981966Y-97987219D01*
X132981968Y-97987215D01*
X132981971Y-97987213D01*
X133102284Y-97821614D01*
X133102285Y-97821613D01*
X133102287Y-97821610D01*
X133149516Y-97728917D01*
X133197489Y-97678123D01*
X133265310Y-97661328D01*
X133331445Y-97683865D01*
X133370483Y-97728917D01*
X133395786Y-97778575D01*
X133417715Y-97821614D01*
X133538028Y-97987213D01*
X133682786Y-98131971D01*
X133837749Y-98244556D01*
X133848390Y-98252287D01*
X133964607Y-98311503D01*
X134030776Y-98345218D01*
X134030778Y-98345218D01*
X134030781Y-98345220D01*
X134135137Y-98379127D01*
X134225465Y-98408477D01*
X134326557Y-98424488D01*
X134427648Y-98440500D01*
X134427649Y-98440500D01*
X134632351Y-98440500D01*
X134632352Y-98440500D01*
X134834534Y-98408477D01*
X135029219Y-98345220D01*
X135211610Y-98252287D01*
X135329592Y-98166569D01*
X135377213Y-98131971D01*
X135377215Y-98131968D01*
X135377219Y-98131966D01*
X135521966Y-97987219D01*
X135521968Y-97987215D01*
X135521971Y-97987213D01*
X135642284Y-97821614D01*
X135642285Y-97821613D01*
X135642287Y-97821610D01*
X135689516Y-97728917D01*
X135737489Y-97678123D01*
X135805310Y-97661328D01*
X135871445Y-97683865D01*
X135910483Y-97728917D01*
X135935786Y-97778575D01*
X135957715Y-97821614D01*
X136078028Y-97987213D01*
X136222786Y-98131971D01*
X136377749Y-98244556D01*
X136388390Y-98252287D01*
X136504607Y-98311503D01*
X136570776Y-98345218D01*
X136570778Y-98345218D01*
X136570781Y-98345220D01*
X136675137Y-98379127D01*
X136765465Y-98408477D01*
X136866557Y-98424488D01*
X136967648Y-98440500D01*
X136967649Y-98440500D01*
X137172351Y-98440500D01*
X137172352Y-98440500D01*
X137374534Y-98408477D01*
X137569219Y-98345220D01*
X137751610Y-98252287D01*
X137869592Y-98166569D01*
X137917213Y-98131971D01*
X137917215Y-98131968D01*
X137917219Y-98131966D01*
X138061966Y-97987219D01*
X138061968Y-97987215D01*
X138061971Y-97987213D01*
X138182284Y-97821614D01*
X138182285Y-97821613D01*
X138182287Y-97821610D01*
X138229516Y-97728917D01*
X138277489Y-97678123D01*
X138345310Y-97661328D01*
X138411445Y-97683865D01*
X138450483Y-97728917D01*
X138475786Y-97778575D01*
X138497715Y-97821614D01*
X138618028Y-97987213D01*
X138762786Y-98131971D01*
X138917749Y-98244556D01*
X138928390Y-98252287D01*
X139044607Y-98311503D01*
X139110776Y-98345218D01*
X139110778Y-98345218D01*
X139110781Y-98345220D01*
X139215137Y-98379127D01*
X139305465Y-98408477D01*
X139406557Y-98424488D01*
X139507648Y-98440500D01*
X139507649Y-98440500D01*
X139712351Y-98440500D01*
X139712352Y-98440500D01*
X139914534Y-98408477D01*
X140109219Y-98345220D01*
X140291610Y-98252287D01*
X140409592Y-98166569D01*
X140457213Y-98131971D01*
X140457215Y-98131968D01*
X140457219Y-98131966D01*
X140601966Y-97987219D01*
X140601968Y-97987215D01*
X140601971Y-97987213D01*
X140722284Y-97821614D01*
X140722285Y-97821613D01*
X140722287Y-97821610D01*
X140769516Y-97728917D01*
X140817489Y-97678123D01*
X140885310Y-97661328D01*
X140951445Y-97683865D01*
X140990483Y-97728917D01*
X141015786Y-97778575D01*
X141037715Y-97821614D01*
X141158028Y-97987213D01*
X141302786Y-98131971D01*
X141457749Y-98244556D01*
X141468390Y-98252287D01*
X141584607Y-98311503D01*
X141650776Y-98345218D01*
X141650778Y-98345218D01*
X141650781Y-98345220D01*
X141755137Y-98379127D01*
X141845465Y-98408477D01*
X141946557Y-98424488D01*
X142047648Y-98440500D01*
X142047649Y-98440500D01*
X142252351Y-98440500D01*
X142252352Y-98440500D01*
X142454534Y-98408477D01*
X142649219Y-98345220D01*
X142831610Y-98252287D01*
X142925930Y-98183760D01*
X142988348Y-98138412D01*
X143054155Y-98114932D01*
X143122208Y-98130758D01*
X143148914Y-98151049D01*
X144023039Y-99025174D01*
X144023049Y-99025185D01*
X144027379Y-99029515D01*
X144027380Y-99029516D01*
X144139184Y-99141320D01*
X144225995Y-99191439D01*
X144225997Y-99191441D01*
X144264051Y-99213411D01*
X144276115Y-99220377D01*
X144428843Y-99261300D01*
X144586957Y-99261300D01*
X168537231Y-99261300D01*
X168537247Y-99261301D01*
X168544843Y-99261301D01*
X168702954Y-99261301D01*
X168702957Y-99261301D01*
X168855685Y-99220377D01*
X168905804Y-99191439D01*
X168992616Y-99141320D01*
X169104420Y-99029516D01*
X169104421Y-99029513D01*
X169236517Y-98897418D01*
X169297841Y-98863934D01*
X169324198Y-98861100D01*
X178651979Y-98861100D01*
X178719018Y-98880785D01*
X178720870Y-98881998D01*
X178850314Y-98968490D01*
X178850327Y-98968497D01*
X178987186Y-99025185D01*
X178996003Y-99028837D01*
X179150653Y-99059599D01*
X179150656Y-99059600D01*
X179150658Y-99059600D01*
X179308344Y-99059600D01*
X179308345Y-99059599D01*
X179462997Y-99028837D01*
X179608679Y-98968494D01*
X179715052Y-98897418D01*
X179740375Y-98880498D01*
X179807053Y-98859620D01*
X179809266Y-98859600D01*
X180927355Y-98859600D01*
X180927357Y-98859600D01*
X181080084Y-98818677D01*
X181217016Y-98739620D01*
X181328820Y-98627816D01*
X181407877Y-98490884D01*
X181448800Y-98338157D01*
X181448800Y-98180043D01*
X181407877Y-98027316D01*
X181381476Y-97981588D01*
X181328824Y-97890390D01*
X181328818Y-97890382D01*
X181217017Y-97778581D01*
X181217009Y-97778575D01*
X181080090Y-97699526D01*
X181080086Y-97699524D01*
X181080084Y-97699523D01*
X180927357Y-97658600D01*
X180927356Y-97658600D01*
X179809266Y-97658600D01*
X179742227Y-97638915D01*
X179740375Y-97637702D01*
X179608685Y-97549709D01*
X179608672Y-97549702D01*
X179463001Y-97489364D01*
X179462989Y-97489361D01*
X179308345Y-97458600D01*
X179308342Y-97458600D01*
X179150658Y-97458600D01*
X179150655Y-97458600D01*
X178996010Y-97489361D01*
X178995998Y-97489364D01*
X178850327Y-97549702D01*
X178850314Y-97549709D01*
X178716380Y-97639202D01*
X178649702Y-97660080D01*
X178647489Y-97660100D01*
X170205097Y-97660100D01*
X170138058Y-97640415D01*
X170092303Y-97587611D01*
X170082359Y-97518453D01*
X170111384Y-97454897D01*
X170117416Y-97448419D01*
X170321616Y-97244219D01*
X170382939Y-97210734D01*
X170409297Y-97207900D01*
X175740034Y-97207900D01*
X175807073Y-97227585D01*
X175808925Y-97228798D01*
X175940614Y-97316790D01*
X175940627Y-97316797D01*
X176035966Y-97356287D01*
X176086303Y-97377137D01*
X176240953Y-97407899D01*
X176240956Y-97407900D01*
X176240958Y-97407900D01*
X176398644Y-97407900D01*
X176398645Y-97407899D01*
X176553297Y-97377137D01*
X176698979Y-97316794D01*
X176698985Y-97316790D01*
X176830675Y-97228798D01*
X176897353Y-97207920D01*
X176899566Y-97207900D01*
X178427355Y-97207900D01*
X178427357Y-97207900D01*
X178580084Y-97166977D01*
X178717016Y-97087920D01*
X178828820Y-96976116D01*
X178907877Y-96839184D01*
X178948800Y-96686457D01*
X178948800Y-96528343D01*
X178907877Y-96375616D01*
X178894316Y-96352127D01*
X178828824Y-96238690D01*
X178828818Y-96238682D01*
X178717017Y-96126881D01*
X178717009Y-96126875D01*
X178580090Y-96047826D01*
X178580086Y-96047824D01*
X178580084Y-96047823D01*
X178427357Y-96006900D01*
X178427356Y-96006900D01*
X176899566Y-96006900D01*
X176832527Y-95987215D01*
X176830675Y-95986002D01*
X176698985Y-95898009D01*
X176698972Y-95898002D01*
X176553301Y-95837664D01*
X176553289Y-95837661D01*
X176398645Y-95806900D01*
X176398642Y-95806900D01*
X176240958Y-95806900D01*
X176240955Y-95806900D01*
X176086310Y-95837661D01*
X176086298Y-95837664D01*
X175940627Y-95898002D01*
X175940614Y-95898009D01*
X175808925Y-95986002D01*
X175742247Y-96006880D01*
X175740034Y-96006900D01*
X170188257Y-96006900D01*
X170030142Y-96006900D01*
X169877415Y-96047823D01*
X169877414Y-96047823D01*
X169877412Y-96047824D01*
X169877409Y-96047825D01*
X169827296Y-96076759D01*
X169827295Y-96076760D01*
X169795791Y-96094949D01*
X169740485Y-96126879D01*
X169740482Y-96126881D01*
X169062180Y-96805184D01*
X169000857Y-96838669D01*
X168931165Y-96833685D01*
X168875232Y-96791813D01*
X168850815Y-96726349D01*
X168850499Y-96717503D01*
X168850499Y-96292129D01*
X168850498Y-96292123D01*
X168850171Y-96289082D01*
X168844091Y-96232517D01*
X168839381Y-96219890D01*
X168793797Y-96097671D01*
X168793793Y-96097664D01*
X168707547Y-95982455D01*
X168707544Y-95982452D01*
X168592335Y-95896206D01*
X168592328Y-95896202D01*
X168457482Y-95845908D01*
X168457483Y-95845908D01*
X168397883Y-95839501D01*
X168397881Y-95839500D01*
X168397873Y-95839500D01*
X168397864Y-95839500D01*
X166702129Y-95839500D01*
X166702123Y-95839501D01*
X166642516Y-95845908D01*
X166507671Y-95896202D01*
X166507664Y-95896206D01*
X166392455Y-95982452D01*
X166392452Y-95982455D01*
X166306206Y-96097664D01*
X166306202Y-96097671D01*
X166255908Y-96232516D01*
X166251939Y-96269440D01*
X166225201Y-96333991D01*
X166167809Y-96373839D01*
X166097983Y-96376332D01*
X166037895Y-96340679D01*
X166028332Y-96329070D01*
X166001967Y-96292782D01*
X165857213Y-96148028D01*
X165691613Y-96027715D01*
X165691612Y-96027714D01*
X165691610Y-96027713D01*
X165634164Y-95998443D01*
X165509223Y-95934781D01*
X165314534Y-95871522D01*
X165139995Y-95843878D01*
X165112352Y-95839500D01*
X164907648Y-95839500D01*
X164883329Y-95843351D01*
X164705465Y-95871522D01*
X164510776Y-95934781D01*
X164328386Y-96027715D01*
X164162786Y-96148028D01*
X164018028Y-96292786D01*
X163897715Y-96458386D01*
X163850485Y-96551080D01*
X163802510Y-96601876D01*
X163734689Y-96618671D01*
X163668554Y-96596134D01*
X163629515Y-96551080D01*
X163617930Y-96528343D01*
X163582287Y-96458390D01*
X163522144Y-96375609D01*
X163461971Y-96292786D01*
X163317213Y-96148028D01*
X163151613Y-96027715D01*
X163151612Y-96027714D01*
X163151610Y-96027713D01*
X163094164Y-95998443D01*
X162969223Y-95934781D01*
X162774534Y-95871522D01*
X162599995Y-95843878D01*
X162572352Y-95839500D01*
X162367648Y-95839500D01*
X162343329Y-95843351D01*
X162165465Y-95871522D01*
X161970776Y-95934781D01*
X161788386Y-96027715D01*
X161622786Y-96148028D01*
X161478028Y-96292786D01*
X161357715Y-96458386D01*
X161310485Y-96551080D01*
X161262510Y-96601876D01*
X161194689Y-96618671D01*
X161128554Y-96596134D01*
X161089515Y-96551080D01*
X161077930Y-96528343D01*
X161042287Y-96458390D01*
X160982144Y-96375609D01*
X160921971Y-96292786D01*
X160777213Y-96148028D01*
X160611613Y-96027715D01*
X160611612Y-96027714D01*
X160611610Y-96027713D01*
X160554164Y-95998443D01*
X160429223Y-95934781D01*
X160234534Y-95871522D01*
X160059995Y-95843878D01*
X160032352Y-95839500D01*
X159827648Y-95839500D01*
X159803329Y-95843351D01*
X159625465Y-95871522D01*
X159430776Y-95934781D01*
X159248386Y-96027715D01*
X159082786Y-96148028D01*
X158938028Y-96292786D01*
X158817715Y-96458386D01*
X158770485Y-96551080D01*
X158722510Y-96601876D01*
X158654689Y-96618671D01*
X158588554Y-96596134D01*
X158549515Y-96551080D01*
X158537930Y-96528343D01*
X158502287Y-96458390D01*
X158442144Y-96375609D01*
X158381971Y-96292786D01*
X158237213Y-96148028D01*
X158071613Y-96027715D01*
X158071612Y-96027714D01*
X158071610Y-96027713D01*
X158014164Y-95998443D01*
X157889223Y-95934781D01*
X157694534Y-95871522D01*
X157519995Y-95843878D01*
X157492352Y-95839500D01*
X157287648Y-95839500D01*
X157263329Y-95843351D01*
X157085465Y-95871522D01*
X156890776Y-95934781D01*
X156708386Y-96027715D01*
X156542786Y-96148028D01*
X156398028Y-96292786D01*
X156277715Y-96458386D01*
X156230485Y-96551080D01*
X156182510Y-96601876D01*
X156114689Y-96618671D01*
X156048554Y-96596134D01*
X156009515Y-96551080D01*
X155997930Y-96528343D01*
X155962287Y-96458390D01*
X155902144Y-96375609D01*
X155841971Y-96292786D01*
X155697213Y-96148028D01*
X155531613Y-96027715D01*
X155531612Y-96027714D01*
X155531610Y-96027713D01*
X155474164Y-95998443D01*
X155349223Y-95934781D01*
X155154534Y-95871522D01*
X154979995Y-95843878D01*
X154952352Y-95839500D01*
X154747648Y-95839500D01*
X154723329Y-95843351D01*
X154545465Y-95871522D01*
X154350776Y-95934781D01*
X154168386Y-96027715D01*
X154002786Y-96148028D01*
X153858028Y-96292786D01*
X153737715Y-96458386D01*
X153690485Y-96551080D01*
X153642510Y-96601876D01*
X153574689Y-96618671D01*
X153508554Y-96596134D01*
X153469515Y-96551080D01*
X153457930Y-96528343D01*
X153422287Y-96458390D01*
X153362144Y-96375609D01*
X153301971Y-96292786D01*
X153157213Y-96148028D01*
X152991613Y-96027715D01*
X152991612Y-96027714D01*
X152991610Y-96027713D01*
X152934164Y-95998443D01*
X152809223Y-95934781D01*
X152614534Y-95871522D01*
X152439995Y-95843878D01*
X152412352Y-95839500D01*
X152207648Y-95839500D01*
X152183329Y-95843351D01*
X152005465Y-95871522D01*
X151810776Y-95934781D01*
X151628386Y-96027715D01*
X151462786Y-96148028D01*
X151318028Y-96292786D01*
X151197715Y-96458386D01*
X151150485Y-96551080D01*
X151102510Y-96601876D01*
X151034689Y-96618671D01*
X150968554Y-96596134D01*
X150929515Y-96551080D01*
X150917930Y-96528343D01*
X150882287Y-96458390D01*
X150822144Y-96375609D01*
X150761971Y-96292786D01*
X150617213Y-96148028D01*
X150451613Y-96027715D01*
X150451612Y-96027714D01*
X150451610Y-96027713D01*
X150394164Y-95998443D01*
X150269223Y-95934781D01*
X150074534Y-95871522D01*
X149899995Y-95843878D01*
X149872352Y-95839500D01*
X149667648Y-95839500D01*
X149643329Y-95843351D01*
X149465465Y-95871522D01*
X149270776Y-95934781D01*
X149088386Y-96027715D01*
X148922786Y-96148028D01*
X148778028Y-96292786D01*
X148657715Y-96458386D01*
X148610485Y-96551080D01*
X148562510Y-96601876D01*
X148494689Y-96618671D01*
X148428554Y-96596134D01*
X148389515Y-96551080D01*
X148377930Y-96528343D01*
X148342287Y-96458390D01*
X148282144Y-96375609D01*
X148221971Y-96292786D01*
X148077213Y-96148028D01*
X147911613Y-96027715D01*
X147911612Y-96027714D01*
X147911610Y-96027713D01*
X147854164Y-95998443D01*
X147729223Y-95934781D01*
X147534534Y-95871522D01*
X147359995Y-95843878D01*
X147332352Y-95839500D01*
X147127648Y-95839500D01*
X147103329Y-95843351D01*
X146925465Y-95871522D01*
X146730776Y-95934781D01*
X146548386Y-96027715D01*
X146382786Y-96148028D01*
X146238028Y-96292786D01*
X146117715Y-96458386D01*
X146070485Y-96551080D01*
X146022510Y-96601876D01*
X145954689Y-96618671D01*
X145888554Y-96596134D01*
X145849515Y-96551080D01*
X145837930Y-96528343D01*
X145802287Y-96458390D01*
X145742144Y-96375609D01*
X145681971Y-96292786D01*
X145537213Y-96148028D01*
X145371613Y-96027715D01*
X145371612Y-96027714D01*
X145371610Y-96027713D01*
X145314164Y-95998443D01*
X145189223Y-95934781D01*
X144994534Y-95871522D01*
X144819995Y-95843878D01*
X144792352Y-95839500D01*
X144587648Y-95839500D01*
X144563329Y-95843351D01*
X144385465Y-95871522D01*
X144190776Y-95934781D01*
X144008386Y-96027715D01*
X143842786Y-96148028D01*
X143698028Y-96292786D01*
X143577714Y-96458386D01*
X143557269Y-96498512D01*
X143536004Y-96521026D01*
X143516288Y-96544906D01*
X143512223Y-96546205D01*
X143509294Y-96549307D01*
X143479237Y-96556749D01*
X143449736Y-96566180D01*
X143443947Y-96565487D01*
X143441472Y-96566101D01*
X143414691Y-96561990D01*
X143352650Y-96545366D01*
X143292990Y-96509001D01*
X143274260Y-96481887D01*
X143262286Y-96458388D01*
X143141971Y-96292786D01*
X142997213Y-96148028D01*
X142831613Y-96027715D01*
X142831612Y-96027714D01*
X142831610Y-96027713D01*
X142774164Y-95998443D01*
X142649223Y-95934781D01*
X142454534Y-95871522D01*
X142279995Y-95843878D01*
X142252352Y-95839500D01*
X142047648Y-95839500D01*
X142023329Y-95843351D01*
X141845465Y-95871522D01*
X141650776Y-95934781D01*
X141468386Y-96027715D01*
X141302786Y-96148028D01*
X141158028Y-96292786D01*
X141037715Y-96458386D01*
X140990485Y-96551080D01*
X140942510Y-96601876D01*
X140874689Y-96618671D01*
X140808554Y-96596134D01*
X140769515Y-96551080D01*
X140757930Y-96528343D01*
X140722287Y-96458390D01*
X140662144Y-96375609D01*
X140601971Y-96292786D01*
X140457213Y-96148028D01*
X140291613Y-96027715D01*
X140291612Y-96027714D01*
X140291610Y-96027713D01*
X140234164Y-95998443D01*
X140109223Y-95934781D01*
X139914534Y-95871522D01*
X139739995Y-95843878D01*
X139712352Y-95839500D01*
X139507648Y-95839500D01*
X139483329Y-95843351D01*
X139305465Y-95871522D01*
X139110776Y-95934781D01*
X138928386Y-96027715D01*
X138762786Y-96148028D01*
X138618028Y-96292786D01*
X138497715Y-96458386D01*
X138450485Y-96551080D01*
X138402510Y-96601876D01*
X138334689Y-96618671D01*
X138268554Y-96596134D01*
X138229515Y-96551080D01*
X138217930Y-96528343D01*
X138182287Y-96458390D01*
X138122144Y-96375609D01*
X138061971Y-96292786D01*
X137917213Y-96148028D01*
X137751613Y-96027715D01*
X137751612Y-96027714D01*
X137751610Y-96027713D01*
X137694164Y-95998443D01*
X137569223Y-95934781D01*
X137374534Y-95871522D01*
X137199995Y-95843878D01*
X137172352Y-95839500D01*
X136967648Y-95839500D01*
X136943329Y-95843351D01*
X136765465Y-95871522D01*
X136570776Y-95934781D01*
X136388386Y-96027715D01*
X136222786Y-96148028D01*
X136078028Y-96292786D01*
X135957715Y-96458386D01*
X135910485Y-96551080D01*
X135862510Y-96601876D01*
X135794689Y-96618671D01*
X135728554Y-96596134D01*
X135689515Y-96551080D01*
X135677930Y-96528343D01*
X135642287Y-96458390D01*
X135582144Y-96375609D01*
X135521971Y-96292786D01*
X135377213Y-96148028D01*
X135211613Y-96027715D01*
X135211612Y-96027714D01*
X135211610Y-96027713D01*
X135154164Y-95998443D01*
X135029223Y-95934781D01*
X134834534Y-95871522D01*
X134659995Y-95843878D01*
X134632352Y-95839500D01*
X134427648Y-95839500D01*
X134403329Y-95843351D01*
X134225465Y-95871522D01*
X134030776Y-95934781D01*
X133848386Y-96027715D01*
X133682786Y-96148028D01*
X133538028Y-96292786D01*
X133417715Y-96458386D01*
X133370485Y-96551080D01*
X133322510Y-96601876D01*
X133254689Y-96618671D01*
X133188554Y-96596134D01*
X133149515Y-96551080D01*
X133137930Y-96528343D01*
X133102287Y-96458390D01*
X133042144Y-96375609D01*
X132981971Y-96292786D01*
X132837213Y-96148028D01*
X132671613Y-96027715D01*
X132671612Y-96027714D01*
X132671610Y-96027713D01*
X132614164Y-95998443D01*
X132489223Y-95934781D01*
X132294534Y-95871522D01*
X132119995Y-95843878D01*
X132092352Y-95839500D01*
X131887648Y-95839500D01*
X131863329Y-95843351D01*
X131685465Y-95871522D01*
X131490776Y-95934781D01*
X131308386Y-96027715D01*
X131142786Y-96148028D01*
X130998028Y-96292786D01*
X130877715Y-96458386D01*
X130784781Y-96640776D01*
X130721522Y-96835465D01*
X130689500Y-97037648D01*
X126000500Y-97037648D01*
X126000500Y-89987953D01*
X187158100Y-89987953D01*
X187158100Y-90145646D01*
X187188861Y-90300289D01*
X187188864Y-90300301D01*
X187249202Y-90445972D01*
X187249209Y-90445985D01*
X187336810Y-90577088D01*
X187336813Y-90577092D01*
X187448307Y-90688586D01*
X187448311Y-90688589D01*
X187579414Y-90776190D01*
X187579427Y-90776197D01*
X187725098Y-90836535D01*
X187725103Y-90836537D01*
X187789747Y-90849395D01*
X187880449Y-90867438D01*
X187942360Y-90899823D01*
X187943938Y-90901373D01*
X190412084Y-93369520D01*
X190412086Y-93369521D01*
X190412090Y-93369524D01*
X190498001Y-93419124D01*
X190549016Y-93448577D01*
X190701743Y-93489501D01*
X190701745Y-93489501D01*
X190867454Y-93489501D01*
X190867470Y-93489500D01*
X198420534Y-93489500D01*
X198487573Y-93509185D01*
X198489425Y-93510398D01*
X198621114Y-93598390D01*
X198621127Y-93598397D01*
X198766798Y-93658735D01*
X198766803Y-93658737D01*
X198921453Y-93689499D01*
X198921456Y-93689500D01*
X198921458Y-93689500D01*
X199079144Y-93689500D01*
X199079145Y-93689499D01*
X199233797Y-93658737D01*
X199379479Y-93598394D01*
X199510589Y-93510789D01*
X199622089Y-93399289D01*
X199709694Y-93268179D01*
X199770037Y-93122497D01*
X199800800Y-92967842D01*
X199800800Y-92810158D01*
X199800800Y-92810155D01*
X199800799Y-92810153D01*
X199783430Y-92722829D01*
X199770038Y-92655508D01*
X199770037Y-92655507D01*
X199770037Y-92655503D01*
X199732892Y-92565826D01*
X199709697Y-92509827D01*
X199709690Y-92509814D01*
X199622089Y-92378711D01*
X199622086Y-92378707D01*
X199510592Y-92267213D01*
X199510588Y-92267210D01*
X199379485Y-92179609D01*
X199379472Y-92179602D01*
X199233801Y-92119264D01*
X199233789Y-92119261D01*
X199079145Y-92088500D01*
X199079142Y-92088500D01*
X198921458Y-92088500D01*
X198921455Y-92088500D01*
X198766810Y-92119261D01*
X198766798Y-92119264D01*
X198621127Y-92179602D01*
X198621114Y-92179609D01*
X198489425Y-92267602D01*
X198422747Y-92288480D01*
X198420534Y-92288500D01*
X191080898Y-92288500D01*
X191013859Y-92268815D01*
X190993217Y-92252181D01*
X188793173Y-90052137D01*
X188784110Y-90035539D01*
X188770979Y-90021931D01*
X188760572Y-89992434D01*
X188759688Y-89990814D01*
X188759237Y-89988648D01*
X188744196Y-89913033D01*
X188740353Y-89893713D01*
X204304500Y-89893713D01*
X204304500Y-90106286D01*
X204337753Y-90316239D01*
X204403444Y-90518414D01*
X204499951Y-90707820D01*
X204624890Y-90879786D01*
X204764068Y-91018964D01*
X204797553Y-91080287D01*
X204792569Y-91149979D01*
X204750697Y-91205912D01*
X204741484Y-91212183D01*
X204586659Y-91307680D01*
X204586655Y-91307683D01*
X204462684Y-91431654D01*
X204370643Y-91580875D01*
X204370641Y-91580880D01*
X204315494Y-91747302D01*
X204315493Y-91747309D01*
X204305000Y-91850013D01*
X204305000Y-92250000D01*
X205371988Y-92250000D01*
X205339075Y-92307007D01*
X205305000Y-92434174D01*
X205305000Y-92565826D01*
X205339075Y-92692993D01*
X205371988Y-92750000D01*
X204305001Y-92750000D01*
X204305001Y-93149986D01*
X204315494Y-93252697D01*
X204370641Y-93419119D01*
X204370643Y-93419124D01*
X204462684Y-93568345D01*
X204586654Y-93692315D01*
X204735875Y-93784356D01*
X204735880Y-93784358D01*
X204902302Y-93839505D01*
X204902309Y-93839506D01*
X205005019Y-93849999D01*
X205554999Y-93849999D01*
X205555000Y-93849998D01*
X205555000Y-92933012D01*
X205612007Y-92965925D01*
X205739174Y-93000000D01*
X205870826Y-93000000D01*
X205997993Y-92965925D01*
X206055000Y-92933012D01*
X206055000Y-93849999D01*
X206604972Y-93849999D01*
X206604986Y-93849998D01*
X206707697Y-93839505D01*
X206874119Y-93784358D01*
X206874124Y-93784356D01*
X207023345Y-93692315D01*
X207147315Y-93568345D01*
X207239356Y-93419124D01*
X207239358Y-93419119D01*
X207294505Y-93252697D01*
X207294506Y-93252690D01*
X207304999Y-93149986D01*
X207305000Y-93149973D01*
X207305000Y-92750000D01*
X206238012Y-92750000D01*
X206270925Y-92692993D01*
X206305000Y-92565826D01*
X206305000Y-92434174D01*
X206270925Y-92307007D01*
X206238012Y-92250000D01*
X207304999Y-92250000D01*
X207304999Y-91850028D01*
X207304998Y-91850013D01*
X207294505Y-91747302D01*
X207239358Y-91580880D01*
X207239356Y-91580875D01*
X207147315Y-91431654D01*
X207023345Y-91307684D01*
X206868515Y-91212184D01*
X206821791Y-91160236D01*
X206810568Y-91091273D01*
X206838412Y-91027191D01*
X206845909Y-91018986D01*
X206985104Y-90879792D01*
X207110051Y-90707816D01*
X207206557Y-90518412D01*
X207272246Y-90316243D01*
X207305500Y-90106287D01*
X207305500Y-89893713D01*
X207272246Y-89683757D01*
X207206557Y-89481588D01*
X207110051Y-89292184D01*
X207110049Y-89292181D01*
X207110048Y-89292179D01*
X206985109Y-89120213D01*
X206834786Y-88969890D01*
X206662820Y-88844951D01*
X206473414Y-88748444D01*
X206473413Y-88748443D01*
X206473412Y-88748443D01*
X206271243Y-88682754D01*
X206271241Y-88682753D01*
X206271240Y-88682753D01*
X206109957Y-88657208D01*
X206061287Y-88649500D01*
X205548713Y-88649500D01*
X205500042Y-88657208D01*
X205338760Y-88682753D01*
X205136585Y-88748444D01*
X204947179Y-88844951D01*
X204775213Y-88969890D01*
X204624890Y-89120213D01*
X204499951Y-89292179D01*
X204403444Y-89481585D01*
X204337753Y-89683760D01*
X204304500Y-89893713D01*
X188740353Y-89893713D01*
X188728337Y-89833303D01*
X188728335Y-89833298D01*
X188667997Y-89687627D01*
X188667990Y-89687614D01*
X188580389Y-89556511D01*
X188580386Y-89556507D01*
X188468892Y-89445013D01*
X188468888Y-89445010D01*
X188337785Y-89357409D01*
X188337772Y-89357402D01*
X188192101Y-89297064D01*
X188192089Y-89297061D01*
X188037445Y-89266300D01*
X188037442Y-89266300D01*
X187879758Y-89266300D01*
X187879755Y-89266300D01*
X187725110Y-89297061D01*
X187725098Y-89297064D01*
X187579427Y-89357402D01*
X187579414Y-89357409D01*
X187448311Y-89445010D01*
X187448307Y-89445013D01*
X187336813Y-89556507D01*
X187336810Y-89556511D01*
X187249209Y-89687614D01*
X187249202Y-89687627D01*
X187188864Y-89833298D01*
X187188861Y-89833310D01*
X187158100Y-89987953D01*
X126000500Y-89987953D01*
X126000500Y-88473853D01*
X190759200Y-88473853D01*
X190759200Y-88631546D01*
X190789961Y-88786189D01*
X190789964Y-88786201D01*
X190850302Y-88931872D01*
X190850309Y-88931885D01*
X190937910Y-89062988D01*
X190937913Y-89062992D01*
X191049407Y-89174486D01*
X191049411Y-89174489D01*
X191180514Y-89262090D01*
X191180527Y-89262097D01*
X191326198Y-89322435D01*
X191326203Y-89322437D01*
X191418012Y-89340699D01*
X191480853Y-89353199D01*
X191480856Y-89353200D01*
X191480858Y-89353200D01*
X191638544Y-89353200D01*
X191638545Y-89353199D01*
X191793197Y-89322437D01*
X191938879Y-89262094D01*
X192069989Y-89174489D01*
X192069993Y-89174484D01*
X192074699Y-89170624D01*
X192076083Y-89172310D01*
X192128783Y-89143534D01*
X192155141Y-89140700D01*
X196021334Y-89140700D01*
X196088373Y-89160385D01*
X196090225Y-89161598D01*
X196221914Y-89249590D01*
X196221927Y-89249597D01*
X196367598Y-89309935D01*
X196367603Y-89309937D01*
X196522253Y-89340699D01*
X196522256Y-89340700D01*
X196522258Y-89340700D01*
X196679944Y-89340700D01*
X196679945Y-89340699D01*
X196834597Y-89309937D01*
X196980279Y-89249594D01*
X197111389Y-89161989D01*
X197222889Y-89050489D01*
X197310494Y-88919379D01*
X197370837Y-88773697D01*
X197401600Y-88619042D01*
X197401600Y-88461358D01*
X197401600Y-88461355D01*
X197401599Y-88461353D01*
X197370837Y-88306703D01*
X197370835Y-88306698D01*
X197310497Y-88161027D01*
X197310490Y-88161014D01*
X197222889Y-88029911D01*
X197222886Y-88029907D01*
X197111392Y-87918413D01*
X197111388Y-87918410D01*
X196980285Y-87830809D01*
X196980272Y-87830802D01*
X196834601Y-87770464D01*
X196834589Y-87770461D01*
X196679945Y-87739700D01*
X196679942Y-87739700D01*
X196522258Y-87739700D01*
X196522255Y-87739700D01*
X196367610Y-87770461D01*
X196367598Y-87770464D01*
X196221927Y-87830802D01*
X196221914Y-87830809D01*
X196090225Y-87918802D01*
X196023547Y-87939680D01*
X196021334Y-87939700D01*
X192120758Y-87939700D01*
X192053719Y-87920015D01*
X192051867Y-87918802D01*
X191938885Y-87843309D01*
X191938872Y-87843302D01*
X191793201Y-87782964D01*
X191793189Y-87782961D01*
X191638545Y-87752200D01*
X191638542Y-87752200D01*
X191480858Y-87752200D01*
X191480855Y-87752200D01*
X191326210Y-87782961D01*
X191326198Y-87782964D01*
X191180527Y-87843302D01*
X191180514Y-87843309D01*
X191049411Y-87930910D01*
X191049407Y-87930913D01*
X190937913Y-88042407D01*
X190937910Y-88042411D01*
X190850309Y-88173514D01*
X190850302Y-88173527D01*
X190789964Y-88319198D01*
X190789961Y-88319210D01*
X190759200Y-88473853D01*
X126000500Y-88473853D01*
X126000500Y-85897682D01*
X137080000Y-85897682D01*
X137080000Y-86102317D01*
X137112009Y-86304417D01*
X137175244Y-86499031D01*
X137268141Y-86681350D01*
X137268147Y-86681359D01*
X137300523Y-86725921D01*
X137300524Y-86725922D01*
X137980000Y-86046446D01*
X137980000Y-86052661D01*
X138007259Y-86154394D01*
X138059920Y-86245606D01*
X138134394Y-86320080D01*
X138225606Y-86372741D01*
X138327339Y-86400000D01*
X138333553Y-86400000D01*
X137654076Y-87079474D01*
X137698650Y-87111859D01*
X137880968Y-87204755D01*
X138075582Y-87267990D01*
X138277683Y-87300000D01*
X138482317Y-87300000D01*
X138684417Y-87267990D01*
X138879031Y-87204755D01*
X139061349Y-87111859D01*
X139105921Y-87079474D01*
X138426447Y-86400000D01*
X138432661Y-86400000D01*
X138534394Y-86372741D01*
X138625606Y-86320080D01*
X138700080Y-86245606D01*
X138752741Y-86154394D01*
X138780000Y-86052661D01*
X138780000Y-86046447D01*
X139459474Y-86725921D01*
X139491861Y-86681347D01*
X139491861Y-86681346D01*
X139539234Y-86588371D01*
X139587208Y-86537575D01*
X139655028Y-86520779D01*
X139721164Y-86543316D01*
X139760203Y-86588369D01*
X139807713Y-86681611D01*
X139928028Y-86847213D01*
X140072786Y-86991971D01*
X140193226Y-87079474D01*
X140238390Y-87112287D01*
X140354607Y-87171503D01*
X140420776Y-87205218D01*
X140420778Y-87205218D01*
X140420781Y-87205220D01*
X140525137Y-87239127D01*
X140615465Y-87268477D01*
X140716557Y-87284488D01*
X140817648Y-87300500D01*
X140817649Y-87300500D01*
X141022351Y-87300500D01*
X141022352Y-87300500D01*
X141224534Y-87268477D01*
X141419219Y-87205220D01*
X141601610Y-87112287D01*
X141694590Y-87044732D01*
X141767213Y-86991971D01*
X141767215Y-86991968D01*
X141767219Y-86991966D01*
X141911966Y-86847219D01*
X141911968Y-86847215D01*
X141911971Y-86847213D01*
X142032284Y-86681614D01*
X142032286Y-86681611D01*
X142032287Y-86681610D01*
X142079516Y-86588917D01*
X142127489Y-86538123D01*
X142195310Y-86521328D01*
X142261445Y-86543865D01*
X142300485Y-86588919D01*
X142347715Y-86681614D01*
X142468028Y-86847213D01*
X142612786Y-86991971D01*
X142733226Y-87079474D01*
X142778390Y-87112287D01*
X142894607Y-87171503D01*
X142960776Y-87205218D01*
X142960778Y-87205218D01*
X142960781Y-87205220D01*
X143065137Y-87239127D01*
X143155465Y-87268477D01*
X143256557Y-87284488D01*
X143357648Y-87300500D01*
X143357649Y-87300500D01*
X143562351Y-87300500D01*
X143562352Y-87300500D01*
X143764534Y-87268477D01*
X143778842Y-87263827D01*
X143848679Y-87261831D01*
X143904841Y-87294077D01*
X144240584Y-87629820D01*
X144240586Y-87629821D01*
X144240590Y-87629824D01*
X144377509Y-87708873D01*
X144377516Y-87708877D01*
X144530243Y-87749801D01*
X144530245Y-87749801D01*
X144695954Y-87749801D01*
X144695970Y-87749800D01*
X151451231Y-87749800D01*
X151451247Y-87749801D01*
X151458843Y-87749801D01*
X151616954Y-87749801D01*
X151616957Y-87749801D01*
X151769685Y-87708877D01*
X151819804Y-87679939D01*
X151906616Y-87629820D01*
X152018420Y-87518016D01*
X152018420Y-87518014D01*
X152028628Y-87507807D01*
X152028629Y-87507804D01*
X152570947Y-86965487D01*
X152632266Y-86932005D01*
X152701958Y-86936989D01*
X152746305Y-86965490D01*
X152772786Y-86991971D01*
X152893226Y-87079474D01*
X152938390Y-87112287D01*
X153054607Y-87171503D01*
X153120776Y-87205218D01*
X153120778Y-87205218D01*
X153120781Y-87205220D01*
X153225137Y-87239127D01*
X153315465Y-87268477D01*
X153416557Y-87284488D01*
X153517648Y-87300500D01*
X153517649Y-87300500D01*
X153722351Y-87300500D01*
X153722352Y-87300500D01*
X153924534Y-87268477D01*
X154119219Y-87205220D01*
X154301610Y-87112287D01*
X154394590Y-87044732D01*
X154467213Y-86991971D01*
X154467215Y-86991968D01*
X154467219Y-86991966D01*
X154611966Y-86847219D01*
X154611968Y-86847215D01*
X154611971Y-86847213D01*
X154732286Y-86681611D01*
X154732415Y-86681359D01*
X154779795Y-86588369D01*
X154827769Y-86537573D01*
X154895590Y-86520778D01*
X154961725Y-86543315D01*
X155000765Y-86588369D01*
X155048141Y-86681350D01*
X155048147Y-86681359D01*
X155080523Y-86725921D01*
X155080524Y-86725922D01*
X155760000Y-86046446D01*
X155760000Y-86052661D01*
X155787259Y-86154394D01*
X155839920Y-86245606D01*
X155914394Y-86320080D01*
X156005606Y-86372741D01*
X156107339Y-86400000D01*
X156113553Y-86400000D01*
X155434076Y-87079474D01*
X155478650Y-87111859D01*
X155660968Y-87204755D01*
X155855582Y-87267990D01*
X156057683Y-87300000D01*
X156262317Y-87300000D01*
X156464417Y-87267990D01*
X156659031Y-87204755D01*
X156841349Y-87111859D01*
X156885921Y-87079474D01*
X156206447Y-86400000D01*
X156212661Y-86400000D01*
X156314394Y-86372741D01*
X156405606Y-86320080D01*
X156480080Y-86245606D01*
X156532741Y-86154394D01*
X156560000Y-86052661D01*
X156560000Y-86046447D01*
X157239474Y-86725921D01*
X157271859Y-86681349D01*
X157364755Y-86499031D01*
X157427990Y-86304417D01*
X157460000Y-86102317D01*
X157460000Y-85992774D01*
X157479685Y-85925735D01*
X157532489Y-85879980D01*
X157601647Y-85870036D01*
X157616085Y-85872997D01*
X157751943Y-85909401D01*
X157751945Y-85909401D01*
X157917654Y-85909401D01*
X157917670Y-85909400D01*
X173454431Y-85909400D01*
X173454447Y-85909401D01*
X173462043Y-85909401D01*
X173620154Y-85909401D01*
X173620157Y-85909401D01*
X173772885Y-85868477D01*
X173823004Y-85839539D01*
X173909816Y-85789420D01*
X174021620Y-85677616D01*
X174021620Y-85677614D01*
X174031828Y-85667407D01*
X174031830Y-85667404D01*
X176062417Y-83636816D01*
X176123738Y-83603333D01*
X176150087Y-83600499D01*
X177400008Y-83600499D01*
X177502797Y-83589999D01*
X177669334Y-83534814D01*
X177818656Y-83442712D01*
X177942712Y-83318656D01*
X178034814Y-83169334D01*
X178089999Y-83002797D01*
X178100500Y-82900009D01*
X178100499Y-81299992D01*
X178089999Y-81197203D01*
X178034814Y-81030666D01*
X177942712Y-80881344D01*
X177818656Y-80757288D01*
X177669334Y-80665186D01*
X177502797Y-80610001D01*
X177502795Y-80610000D01*
X177400010Y-80599500D01*
X176099998Y-80599500D01*
X176099981Y-80599501D01*
X175997203Y-80610000D01*
X175997200Y-80610001D01*
X175830668Y-80665185D01*
X175830663Y-80665187D01*
X175681342Y-80757289D01*
X175557289Y-80881342D01*
X175461821Y-81036121D01*
X175409873Y-81082845D01*
X175340910Y-81094068D01*
X175276828Y-81066224D01*
X175268601Y-81058705D01*
X175129786Y-80919890D01*
X174957820Y-80794951D01*
X174768414Y-80698444D01*
X174768413Y-80698443D01*
X174768412Y-80698443D01*
X174566243Y-80632754D01*
X174566241Y-80632753D01*
X174566240Y-80632753D01*
X174404957Y-80607208D01*
X174356287Y-80599500D01*
X174143713Y-80599500D01*
X174095042Y-80607208D01*
X173933760Y-80632753D01*
X173731585Y-80698444D01*
X173542179Y-80794951D01*
X173370213Y-80919890D01*
X173219890Y-81070213D01*
X173094951Y-81242179D01*
X172998443Y-81431587D01*
X172993092Y-81448054D01*
X172953652Y-81505727D01*
X172924395Y-81523538D01*
X172916039Y-81527152D01*
X172866515Y-81540423D01*
X172816395Y-81569360D01*
X172810196Y-81572939D01*
X172729585Y-81619479D01*
X172729582Y-81619481D01*
X172617780Y-81731284D01*
X172617778Y-81731286D01*
X171449049Y-82900016D01*
X170282884Y-84066181D01*
X170221561Y-84099666D01*
X170195203Y-84102500D01*
X162351066Y-84102500D01*
X162284027Y-84082815D01*
X162282175Y-84081602D01*
X162150485Y-83993609D01*
X162150472Y-83993602D01*
X162004801Y-83933264D01*
X162004789Y-83933261D01*
X161850145Y-83902500D01*
X161850142Y-83902500D01*
X161826920Y-83902500D01*
X161764919Y-83885886D01*
X161719085Y-83859423D01*
X161566357Y-83818499D01*
X161408243Y-83818499D01*
X161400647Y-83818499D01*
X161400631Y-83818500D01*
X152954769Y-83818500D01*
X152954753Y-83818499D01*
X152947157Y-83818499D01*
X152789043Y-83818499D01*
X152681687Y-83847265D01*
X152636310Y-83859424D01*
X152636309Y-83859425D01*
X152586196Y-83888359D01*
X152586195Y-83888360D01*
X152561704Y-83902500D01*
X152499385Y-83938479D01*
X152499382Y-83938481D01*
X152381684Y-84056180D01*
X152381680Y-84056184D01*
X152370798Y-84067065D01*
X152309474Y-84100547D01*
X152299315Y-84102318D01*
X152297950Y-84102497D01*
X152145216Y-84143422D01*
X152102673Y-84167985D01*
X152102672Y-84167984D01*
X152008287Y-84222477D01*
X152008282Y-84222481D01*
X151896478Y-84334286D01*
X151524842Y-84705921D01*
X151463519Y-84739406D01*
X151398848Y-84736173D01*
X151384534Y-84731522D01*
X151209995Y-84703878D01*
X151182352Y-84699500D01*
X150977648Y-84699500D01*
X150953329Y-84703351D01*
X150775465Y-84731522D01*
X150580776Y-84794781D01*
X150398386Y-84887715D01*
X150232786Y-85008028D01*
X150088028Y-85152786D01*
X149967715Y-85318386D01*
X149920485Y-85411080D01*
X149872510Y-85461876D01*
X149804689Y-85478671D01*
X149738554Y-85456134D01*
X149699515Y-85411080D01*
X149684999Y-85382591D01*
X149652287Y-85318390D01*
X149620092Y-85274077D01*
X149531971Y-85152786D01*
X149387213Y-85008028D01*
X149221613Y-84887715D01*
X149221612Y-84887714D01*
X149221610Y-84887713D01*
X149164653Y-84858691D01*
X149039223Y-84794781D01*
X148844534Y-84731522D01*
X148669995Y-84703878D01*
X148642352Y-84699500D01*
X148437648Y-84699500D01*
X148413329Y-84703351D01*
X148235465Y-84731522D01*
X148040776Y-84794781D01*
X147858386Y-84887715D01*
X147692786Y-85008028D01*
X147548028Y-85152786D01*
X147427715Y-85318385D01*
X147420883Y-85331795D01*
X147410433Y-85342859D01*
X147404111Y-85356703D01*
X147386931Y-85367743D01*
X147372909Y-85382591D01*
X147357227Y-85386832D01*
X147345333Y-85394477D01*
X147310398Y-85399500D01*
X147229602Y-85399500D01*
X147162563Y-85379815D01*
X147119117Y-85331795D01*
X147112284Y-85318385D01*
X146991971Y-85152786D01*
X146847213Y-85008028D01*
X146681613Y-84887715D01*
X146681612Y-84887714D01*
X146681610Y-84887713D01*
X146624653Y-84858691D01*
X146499223Y-84794781D01*
X146304534Y-84731522D01*
X146129995Y-84703878D01*
X146102352Y-84699500D01*
X145897648Y-84699500D01*
X145873329Y-84703351D01*
X145695465Y-84731522D01*
X145500776Y-84794781D01*
X145318386Y-84887715D01*
X145152786Y-85008028D01*
X145008028Y-85152786D01*
X144887715Y-85318386D01*
X144840485Y-85411080D01*
X144792510Y-85461876D01*
X144724689Y-85478671D01*
X144658554Y-85456134D01*
X144619515Y-85411080D01*
X144604999Y-85382591D01*
X144572287Y-85318390D01*
X144540092Y-85274077D01*
X144451971Y-85152786D01*
X144307213Y-85008028D01*
X144141613Y-84887715D01*
X144141612Y-84887714D01*
X144141610Y-84887713D01*
X144084653Y-84858691D01*
X143959223Y-84794781D01*
X143764534Y-84731522D01*
X143589995Y-84703878D01*
X143562352Y-84699500D01*
X143357648Y-84699500D01*
X143333329Y-84703351D01*
X143155465Y-84731522D01*
X142960776Y-84794781D01*
X142778386Y-84887715D01*
X142612786Y-85008028D01*
X142468028Y-85152786D01*
X142347715Y-85318386D01*
X142300485Y-85411080D01*
X142252510Y-85461876D01*
X142184689Y-85478671D01*
X142118554Y-85456134D01*
X142079515Y-85411080D01*
X142064999Y-85382591D01*
X142032287Y-85318390D01*
X142000092Y-85274077D01*
X141911971Y-85152786D01*
X141767213Y-85008028D01*
X141601613Y-84887715D01*
X141601612Y-84887714D01*
X141601610Y-84887713D01*
X141544653Y-84858691D01*
X141419223Y-84794781D01*
X141224534Y-84731522D01*
X141049995Y-84703878D01*
X141022352Y-84699500D01*
X140817648Y-84699500D01*
X140793329Y-84703351D01*
X140615465Y-84731522D01*
X140420776Y-84794781D01*
X140238386Y-84887715D01*
X140072786Y-85008028D01*
X139928028Y-85152786D01*
X139807713Y-85318388D01*
X139760203Y-85411630D01*
X139712228Y-85462426D01*
X139644407Y-85479220D01*
X139578272Y-85456682D01*
X139539234Y-85411628D01*
X139491861Y-85318652D01*
X139459474Y-85274077D01*
X139459474Y-85274076D01*
X138780000Y-85953551D01*
X138780000Y-85947339D01*
X138752741Y-85845606D01*
X138700080Y-85754394D01*
X138625606Y-85679920D01*
X138534394Y-85627259D01*
X138432661Y-85600000D01*
X138426446Y-85600000D01*
X139105922Y-84920524D01*
X139105921Y-84920523D01*
X139061359Y-84888147D01*
X139061350Y-84888141D01*
X138879031Y-84795244D01*
X138684417Y-84732009D01*
X138482317Y-84700000D01*
X138277683Y-84700000D01*
X138075582Y-84732009D01*
X137880968Y-84795244D01*
X137698644Y-84888143D01*
X137654077Y-84920523D01*
X137654077Y-84920524D01*
X138333554Y-85600000D01*
X138327339Y-85600000D01*
X138225606Y-85627259D01*
X138134394Y-85679920D01*
X138059920Y-85754394D01*
X138007259Y-85845606D01*
X137980000Y-85947339D01*
X137980000Y-85953553D01*
X137300524Y-85274077D01*
X137300523Y-85274077D01*
X137268143Y-85318644D01*
X137175244Y-85500968D01*
X137112009Y-85695582D01*
X137080000Y-85897682D01*
X126000500Y-85897682D01*
X126000500Y-78503051D01*
X126000649Y-78496966D01*
X126001051Y-78488794D01*
X126006804Y-78371680D01*
X126007774Y-78351932D01*
X126863499Y-78351932D01*
X126863499Y-78648067D01*
X126896653Y-78942313D01*
X126896655Y-78942329D01*
X126962548Y-79231026D01*
X126962552Y-79231038D01*
X127060354Y-79510538D01*
X127188835Y-79777332D01*
X127188837Y-79777335D01*
X127346385Y-80028071D01*
X127531016Y-80259591D01*
X127740409Y-80468984D01*
X127971929Y-80653615D01*
X128222665Y-80811163D01*
X128489465Y-80939647D01*
X128684418Y-81007864D01*
X128768961Y-81037447D01*
X128768973Y-81037451D01*
X129057674Y-81103345D01*
X129351932Y-81136500D01*
X129351933Y-81136501D01*
X129351937Y-81136501D01*
X129648067Y-81136501D01*
X129648067Y-81136500D01*
X129942326Y-81103345D01*
X130231027Y-81037451D01*
X130510535Y-80939647D01*
X130777335Y-80811163D01*
X131028071Y-80653615D01*
X131259591Y-80468984D01*
X131468984Y-80259591D01*
X131653615Y-80028071D01*
X131811163Y-79777335D01*
X131939647Y-79510535D01*
X132037451Y-79231027D01*
X132103345Y-78942326D01*
X132136501Y-78648063D01*
X132136501Y-78351937D01*
X132136500Y-78351932D01*
X132129146Y-78286661D01*
X132129146Y-78286660D01*
X132128131Y-78277648D01*
X137079500Y-78277648D01*
X137079500Y-78482351D01*
X137111522Y-78684534D01*
X137174781Y-78879223D01*
X137226117Y-78979973D01*
X137259459Y-79045411D01*
X137267715Y-79061613D01*
X137388028Y-79227213D01*
X137532786Y-79371971D01*
X137651759Y-79458408D01*
X137698390Y-79492287D01*
X137812192Y-79550272D01*
X137880776Y-79585218D01*
X137880778Y-79585218D01*
X137880781Y-79585220D01*
X137960330Y-79611067D01*
X138075465Y-79648477D01*
X138176557Y-79664488D01*
X138277648Y-79680500D01*
X138277649Y-79680500D01*
X138482351Y-79680500D01*
X138482352Y-79680500D01*
X138684534Y-79648477D01*
X138879219Y-79585220D01*
X139061610Y-79492287D01*
X139155436Y-79424119D01*
X139227213Y-79371971D01*
X139227215Y-79371968D01*
X139227219Y-79371966D01*
X139371966Y-79227219D01*
X139371968Y-79227215D01*
X139371971Y-79227213D01*
X139492284Y-79061614D01*
X139492285Y-79061613D01*
X139492287Y-79061610D01*
X139539516Y-78968917D01*
X139587489Y-78918123D01*
X139655310Y-78901328D01*
X139721445Y-78923865D01*
X139760483Y-78968917D01*
X139782566Y-79012256D01*
X139807715Y-79061614D01*
X139928028Y-79227213D01*
X140072786Y-79371971D01*
X140191759Y-79458408D01*
X140238390Y-79492287D01*
X140352192Y-79550272D01*
X140420776Y-79585218D01*
X140420778Y-79585218D01*
X140420781Y-79585220D01*
X140500330Y-79611067D01*
X140615465Y-79648477D01*
X140716557Y-79664488D01*
X140817648Y-79680500D01*
X140817649Y-79680500D01*
X141022351Y-79680500D01*
X141022352Y-79680500D01*
X141224534Y-79648477D01*
X141419219Y-79585220D01*
X141601610Y-79492287D01*
X141695436Y-79424119D01*
X141767213Y-79371971D01*
X141767215Y-79371968D01*
X141767219Y-79371966D01*
X141911966Y-79227219D01*
X141911968Y-79227215D01*
X141911971Y-79227213D01*
X142032284Y-79061614D01*
X142032285Y-79061613D01*
X142032287Y-79061610D01*
X142079516Y-78968917D01*
X142127489Y-78918123D01*
X142195310Y-78901328D01*
X142261445Y-78923865D01*
X142300483Y-78968917D01*
X142322566Y-79012256D01*
X142347715Y-79061614D01*
X142468028Y-79227213D01*
X142612786Y-79371971D01*
X142731759Y-79458408D01*
X142778390Y-79492287D01*
X142892192Y-79550272D01*
X142960776Y-79585218D01*
X142960778Y-79585218D01*
X142960781Y-79585220D01*
X143040330Y-79611067D01*
X143155465Y-79648477D01*
X143256557Y-79664488D01*
X143357648Y-79680500D01*
X143357649Y-79680500D01*
X143562351Y-79680500D01*
X143562352Y-79680500D01*
X143764534Y-79648477D01*
X143778842Y-79643827D01*
X143848682Y-79641831D01*
X143904842Y-79674077D01*
X146695139Y-82464374D01*
X146695149Y-82464385D01*
X146699479Y-82468715D01*
X146699480Y-82468716D01*
X146811284Y-82580520D01*
X146811286Y-82580521D01*
X146811290Y-82580524D01*
X146948209Y-82659573D01*
X146948216Y-82659577D01*
X147060019Y-82689534D01*
X147100942Y-82700500D01*
X147100943Y-82700500D01*
X163637852Y-82700500D01*
X163704891Y-82720185D01*
X163748337Y-82768205D01*
X163799396Y-82868414D01*
X163843183Y-82954351D01*
X163844951Y-82957819D01*
X163969890Y-83129786D01*
X164120213Y-83280109D01*
X164292179Y-83405048D01*
X164292181Y-83405049D01*
X164292184Y-83405051D01*
X164481588Y-83501557D01*
X164683757Y-83567246D01*
X164893713Y-83600500D01*
X164893714Y-83600500D01*
X165106286Y-83600500D01*
X165106287Y-83600500D01*
X165316243Y-83567246D01*
X165518412Y-83501557D01*
X165707816Y-83405051D01*
X165879792Y-83280104D01*
X166018604Y-83141291D01*
X166079923Y-83107809D01*
X166149615Y-83112793D01*
X166205549Y-83154664D01*
X166211821Y-83163878D01*
X166215185Y-83169333D01*
X166215186Y-83169334D01*
X166307288Y-83318656D01*
X166431344Y-83442712D01*
X166580666Y-83534814D01*
X166747203Y-83589999D01*
X166849991Y-83600500D01*
X168150008Y-83600499D01*
X168252797Y-83589999D01*
X168419334Y-83534814D01*
X168568656Y-83442712D01*
X168692712Y-83318656D01*
X168784814Y-83169334D01*
X168839999Y-83002797D01*
X168850500Y-82900009D01*
X168850499Y-81299992D01*
X168839999Y-81197203D01*
X168784814Y-81030666D01*
X168692712Y-80881344D01*
X168568656Y-80757288D01*
X168419334Y-80665186D01*
X168252797Y-80610001D01*
X168252795Y-80610000D01*
X168150016Y-80599500D01*
X166900097Y-80599500D01*
X166833058Y-80579815D01*
X166812416Y-80563181D01*
X166617116Y-80367881D01*
X166583631Y-80306558D01*
X166588615Y-80236866D01*
X166630487Y-80180933D01*
X166695951Y-80156516D01*
X166704797Y-80156200D01*
X195527631Y-80156200D01*
X195527647Y-80156201D01*
X195535243Y-80156201D01*
X195693354Y-80156201D01*
X195693357Y-80156201D01*
X195846085Y-80115277D01*
X195896204Y-80086339D01*
X195983016Y-80036220D01*
X196094820Y-79924416D01*
X196094820Y-79924414D01*
X196105028Y-79914207D01*
X196105030Y-79914204D01*
X196435478Y-79583755D01*
X196496799Y-79550272D01*
X196561473Y-79553506D01*
X196603757Y-79567246D01*
X196813713Y-79600500D01*
X196813714Y-79600500D01*
X197026286Y-79600500D01*
X197026287Y-79600500D01*
X197236243Y-79567246D01*
X197438412Y-79501557D01*
X197627816Y-79405051D01*
X197673354Y-79371966D01*
X197799786Y-79280109D01*
X197799788Y-79280106D01*
X197799792Y-79280104D01*
X197950104Y-79129792D01*
X197950106Y-79129788D01*
X197950109Y-79129786D01*
X198075048Y-78957820D01*
X198075047Y-78957820D01*
X198075051Y-78957816D01*
X198079514Y-78949054D01*
X198127488Y-78898259D01*
X198195308Y-78881463D01*
X198261444Y-78903999D01*
X198300486Y-78949056D01*
X198304951Y-78957820D01*
X198429890Y-79129786D01*
X198580213Y-79280109D01*
X198752179Y-79405048D01*
X198752181Y-79405049D01*
X198752184Y-79405051D01*
X198941588Y-79501557D01*
X199143757Y-79567246D01*
X199353713Y-79600500D01*
X199353714Y-79600500D01*
X199566286Y-79600500D01*
X199566287Y-79600500D01*
X199776243Y-79567246D01*
X199978412Y-79501557D01*
X200167816Y-79405051D01*
X200213354Y-79371966D01*
X200339786Y-79280109D01*
X200339788Y-79280106D01*
X200339792Y-79280104D01*
X200490104Y-79129792D01*
X200490106Y-79129788D01*
X200490109Y-79129786D01*
X200615048Y-78957820D01*
X200615047Y-78957820D01*
X200615051Y-78957816D01*
X200619514Y-78949054D01*
X200667488Y-78898259D01*
X200735308Y-78881463D01*
X200801444Y-78903999D01*
X200840486Y-78949056D01*
X200844951Y-78957820D01*
X200969890Y-79129786D01*
X201120213Y-79280109D01*
X201292179Y-79405048D01*
X201292181Y-79405049D01*
X201292184Y-79405051D01*
X201481588Y-79501557D01*
X201683757Y-79567246D01*
X201893713Y-79600500D01*
X201893714Y-79600500D01*
X202106286Y-79600500D01*
X202106287Y-79600500D01*
X202316243Y-79567246D01*
X202518412Y-79501557D01*
X202707816Y-79405051D01*
X202753354Y-79371966D01*
X202879786Y-79280109D01*
X202879788Y-79280106D01*
X202879792Y-79280104D01*
X203030104Y-79129792D01*
X203030106Y-79129788D01*
X203030109Y-79129786D01*
X203155048Y-78957820D01*
X203155047Y-78957820D01*
X203155051Y-78957816D01*
X203159514Y-78949054D01*
X203207488Y-78898259D01*
X203275308Y-78881463D01*
X203341444Y-78903999D01*
X203380486Y-78949056D01*
X203384951Y-78957820D01*
X203509890Y-79129786D01*
X203660213Y-79280109D01*
X203832179Y-79405048D01*
X203832181Y-79405049D01*
X203832184Y-79405051D01*
X204021588Y-79501557D01*
X204223757Y-79567246D01*
X204433713Y-79600500D01*
X204433714Y-79600500D01*
X204646286Y-79600500D01*
X204646287Y-79600500D01*
X204856243Y-79567246D01*
X205058412Y-79501557D01*
X205247816Y-79405051D01*
X205293354Y-79371966D01*
X205419786Y-79280109D01*
X205419788Y-79280106D01*
X205419792Y-79280104D01*
X205570104Y-79129792D01*
X205570106Y-79129788D01*
X205570109Y-79129786D01*
X205695048Y-78957820D01*
X205695047Y-78957820D01*
X205695051Y-78957816D01*
X205699514Y-78949054D01*
X205747488Y-78898259D01*
X205815308Y-78881463D01*
X205881444Y-78903999D01*
X205920486Y-78949056D01*
X205924951Y-78957820D01*
X206049890Y-79129786D01*
X206200213Y-79280109D01*
X206372179Y-79405048D01*
X206372181Y-79405049D01*
X206372184Y-79405051D01*
X206561588Y-79501557D01*
X206763757Y-79567246D01*
X206973713Y-79600500D01*
X206973714Y-79600500D01*
X207186286Y-79600500D01*
X207186287Y-79600500D01*
X207396243Y-79567246D01*
X207598412Y-79501557D01*
X207787816Y-79405051D01*
X207833354Y-79371966D01*
X207959786Y-79280109D01*
X207959788Y-79280106D01*
X207959792Y-79280104D01*
X208110104Y-79129792D01*
X208110106Y-79129788D01*
X208110109Y-79129786D01*
X208235048Y-78957820D01*
X208235047Y-78957820D01*
X208235051Y-78957816D01*
X208331557Y-78768412D01*
X208397246Y-78566243D01*
X208429980Y-78359568D01*
X208999500Y-78359568D01*
X208999500Y-78640431D01*
X209030942Y-78919494D01*
X209030945Y-78919512D01*
X209093439Y-79193317D01*
X209093443Y-79193329D01*
X209186200Y-79458411D01*
X209308053Y-79711442D01*
X209308055Y-79711445D01*
X209457477Y-79949248D01*
X209632584Y-80168825D01*
X209831175Y-80367416D01*
X210050752Y-80542523D01*
X210288555Y-80691945D01*
X210541592Y-80813801D01*
X210668160Y-80858089D01*
X210806670Y-80906556D01*
X210806682Y-80906560D01*
X211080491Y-80969055D01*
X211080497Y-80969055D01*
X211080505Y-80969057D01*
X211266547Y-80990018D01*
X211359569Y-81000499D01*
X211359572Y-81000500D01*
X211359575Y-81000500D01*
X211640428Y-81000500D01*
X211640429Y-81000499D01*
X211783055Y-80984429D01*
X211919494Y-80969057D01*
X211919499Y-80969056D01*
X211919509Y-80969055D01*
X212193318Y-80906560D01*
X212458408Y-80813801D01*
X212711445Y-80691945D01*
X212949248Y-80542523D01*
X213168825Y-80367416D01*
X213367416Y-80168825D01*
X213542523Y-79949248D01*
X213691945Y-79711445D01*
X213813801Y-79458408D01*
X213906560Y-79193318D01*
X213969055Y-78919509D01*
X213971104Y-78901328D01*
X213992475Y-78711650D01*
X214000500Y-78640425D01*
X214000500Y-78359575D01*
X213986891Y-78238794D01*
X213969057Y-78080505D01*
X213969054Y-78080487D01*
X213906560Y-77806682D01*
X213906556Y-77806670D01*
X213877229Y-77722859D01*
X213813801Y-77541592D01*
X213691945Y-77288555D01*
X213542523Y-77050752D01*
X213367416Y-76831175D01*
X213168825Y-76632584D01*
X212949248Y-76457477D01*
X212711445Y-76308055D01*
X212711442Y-76308053D01*
X212458411Y-76186200D01*
X212193329Y-76093443D01*
X212193317Y-76093439D01*
X211919512Y-76030945D01*
X211919494Y-76030942D01*
X211640431Y-75999500D01*
X211640425Y-75999500D01*
X211359575Y-75999500D01*
X211359568Y-75999500D01*
X211080505Y-76030942D01*
X211080487Y-76030945D01*
X210806682Y-76093439D01*
X210806670Y-76093443D01*
X210541588Y-76186200D01*
X210288557Y-76308053D01*
X210050753Y-76457476D01*
X209831175Y-76632583D01*
X209632583Y-76831175D01*
X209457476Y-77050753D01*
X209308053Y-77288557D01*
X209186200Y-77541588D01*
X209093443Y-77806670D01*
X209093439Y-77806682D01*
X209030945Y-78080487D01*
X209030942Y-78080505D01*
X208999500Y-78359568D01*
X208429980Y-78359568D01*
X208430500Y-78356287D01*
X208430500Y-78143713D01*
X208397246Y-77933757D01*
X208331557Y-77731588D01*
X208235051Y-77542184D01*
X208235049Y-77542181D01*
X208235048Y-77542179D01*
X208110109Y-77370213D01*
X207959786Y-77219890D01*
X207787820Y-77094951D01*
X207598414Y-76998444D01*
X207598413Y-76998443D01*
X207598412Y-76998443D01*
X207396243Y-76932754D01*
X207396241Y-76932753D01*
X207396240Y-76932753D01*
X207234957Y-76907208D01*
X207186287Y-76899500D01*
X206973713Y-76899500D01*
X206925042Y-76907208D01*
X206763760Y-76932753D01*
X206561585Y-76998444D01*
X206372179Y-77094951D01*
X206200213Y-77219890D01*
X206049890Y-77370213D01*
X205924949Y-77542182D01*
X205920484Y-77550946D01*
X205872509Y-77601742D01*
X205804688Y-77618536D01*
X205738553Y-77595998D01*
X205699516Y-77550946D01*
X205695050Y-77542182D01*
X205570109Y-77370213D01*
X205419786Y-77219890D01*
X205247820Y-77094951D01*
X205058414Y-76998444D01*
X205058413Y-76998443D01*
X205058412Y-76998443D01*
X204856243Y-76932754D01*
X204856241Y-76932753D01*
X204856240Y-76932753D01*
X204694957Y-76907208D01*
X204646287Y-76899500D01*
X204433713Y-76899500D01*
X204385042Y-76907208D01*
X204223760Y-76932753D01*
X204021585Y-76998444D01*
X203832179Y-77094951D01*
X203660213Y-77219890D01*
X203509890Y-77370213D01*
X203384949Y-77542182D01*
X203380484Y-77550946D01*
X203332509Y-77601742D01*
X203264688Y-77618536D01*
X203198553Y-77595998D01*
X203159516Y-77550946D01*
X203155050Y-77542182D01*
X203030109Y-77370213D01*
X202879786Y-77219890D01*
X202707820Y-77094951D01*
X202518414Y-76998444D01*
X202518413Y-76998443D01*
X202518412Y-76998443D01*
X202316243Y-76932754D01*
X202316241Y-76932753D01*
X202316240Y-76932753D01*
X202154957Y-76907208D01*
X202106287Y-76899500D01*
X201893713Y-76899500D01*
X201845042Y-76907208D01*
X201683760Y-76932753D01*
X201481585Y-76998444D01*
X201292179Y-77094951D01*
X201120213Y-77219890D01*
X200969890Y-77370213D01*
X200844949Y-77542182D01*
X200840484Y-77550946D01*
X200792509Y-77601742D01*
X200724688Y-77618536D01*
X200658553Y-77595998D01*
X200619516Y-77550946D01*
X200615050Y-77542182D01*
X200490109Y-77370213D01*
X200339786Y-77219890D01*
X200167820Y-77094951D01*
X199978414Y-76998444D01*
X199978413Y-76998443D01*
X199978412Y-76998443D01*
X199776243Y-76932754D01*
X199776241Y-76932753D01*
X199776240Y-76932753D01*
X199614957Y-76907208D01*
X199566287Y-76899500D01*
X199353713Y-76899500D01*
X199305042Y-76907208D01*
X199143760Y-76932753D01*
X198941585Y-76998444D01*
X198752179Y-77094951D01*
X198580213Y-77219890D01*
X198429890Y-77370213D01*
X198304949Y-77542182D01*
X198300484Y-77550946D01*
X198252509Y-77601742D01*
X198184688Y-77618536D01*
X198118553Y-77595998D01*
X198079516Y-77550946D01*
X198075050Y-77542182D01*
X197950109Y-77370213D01*
X197799786Y-77219890D01*
X197627820Y-77094951D01*
X197438414Y-76998444D01*
X197438413Y-76998443D01*
X197438412Y-76998443D01*
X197236243Y-76932754D01*
X197236241Y-76932753D01*
X197236240Y-76932753D01*
X197074957Y-76907208D01*
X197026287Y-76899500D01*
X196813713Y-76899500D01*
X196765042Y-76907208D01*
X196603760Y-76932753D01*
X196401585Y-76998444D01*
X196212179Y-77094951D01*
X196040213Y-77219890D01*
X195889890Y-77370213D01*
X195764949Y-77542182D01*
X195760484Y-77550946D01*
X195712509Y-77601742D01*
X195644688Y-77618536D01*
X195578553Y-77595998D01*
X195539516Y-77550946D01*
X195535050Y-77542182D01*
X195410109Y-77370213D01*
X195259786Y-77219890D01*
X195087820Y-77094951D01*
X194898414Y-76998444D01*
X194898413Y-76998443D01*
X194898412Y-76998443D01*
X194696243Y-76932754D01*
X194696241Y-76932753D01*
X194696240Y-76932753D01*
X194534957Y-76907208D01*
X194486287Y-76899500D01*
X194273713Y-76899500D01*
X194225042Y-76907208D01*
X194063760Y-76932753D01*
X193861585Y-76998444D01*
X193672179Y-77094951D01*
X193500213Y-77219890D01*
X193349890Y-77370213D01*
X193224949Y-77542182D01*
X193220484Y-77550946D01*
X193172509Y-77601742D01*
X193104688Y-77618536D01*
X193038553Y-77595998D01*
X192999516Y-77550946D01*
X192995050Y-77542182D01*
X192870109Y-77370213D01*
X192719786Y-77219890D01*
X192547820Y-77094951D01*
X192358414Y-76998444D01*
X192358413Y-76998443D01*
X192358412Y-76998443D01*
X192156243Y-76932754D01*
X192156241Y-76932753D01*
X192156240Y-76932753D01*
X191994957Y-76907208D01*
X191946287Y-76899500D01*
X191733713Y-76899500D01*
X191685042Y-76907208D01*
X191523760Y-76932753D01*
X191321585Y-76998444D01*
X191132179Y-77094951D01*
X190960215Y-77219889D01*
X190846285Y-77333819D01*
X190784962Y-77367303D01*
X190715270Y-77362319D01*
X190659337Y-77320447D01*
X190642422Y-77289470D01*
X190593354Y-77157913D01*
X190593350Y-77157906D01*
X190507190Y-77042812D01*
X190507187Y-77042809D01*
X190392093Y-76956649D01*
X190392086Y-76956645D01*
X190257379Y-76906403D01*
X190257372Y-76906401D01*
X190197844Y-76900000D01*
X189550000Y-76900000D01*
X189550000Y-77816988D01*
X189492993Y-77784075D01*
X189365826Y-77750000D01*
X189234174Y-77750000D01*
X189107007Y-77784075D01*
X189050000Y-77816988D01*
X189050000Y-76900000D01*
X188402155Y-76900000D01*
X188342627Y-76906401D01*
X188342620Y-76906403D01*
X188207913Y-76956645D01*
X188207906Y-76956649D01*
X188092812Y-77042809D01*
X188092809Y-77042812D01*
X188006649Y-77157906D01*
X188006645Y-77157913D01*
X187956403Y-77292620D01*
X187956401Y-77292627D01*
X187950000Y-77352155D01*
X187950000Y-78000000D01*
X188866988Y-78000000D01*
X188834075Y-78057007D01*
X188800000Y-78184174D01*
X188800000Y-78315826D01*
X188834075Y-78442993D01*
X188866988Y-78500000D01*
X187950000Y-78500000D01*
X187950000Y-78831200D01*
X187930315Y-78898239D01*
X187877511Y-78943994D01*
X187826000Y-78955200D01*
X160181466Y-78955200D01*
X160114427Y-78935515D01*
X160112575Y-78934302D01*
X159980885Y-78846309D01*
X159980872Y-78846302D01*
X159835201Y-78785964D01*
X159835189Y-78785961D01*
X159680545Y-78755200D01*
X159680542Y-78755200D01*
X159522858Y-78755200D01*
X159522855Y-78755200D01*
X159368210Y-78785961D01*
X159368198Y-78785964D01*
X159222527Y-78846302D01*
X159222514Y-78846309D01*
X159091411Y-78933910D01*
X159091407Y-78933913D01*
X158979913Y-79045407D01*
X158979910Y-79045411D01*
X158892309Y-79176514D01*
X158892302Y-79176527D01*
X158831964Y-79322198D01*
X158831961Y-79322210D01*
X158801200Y-79476853D01*
X158801200Y-79511800D01*
X158781515Y-79578839D01*
X158728711Y-79624594D01*
X158677200Y-79635800D01*
X157364223Y-79635800D01*
X157297184Y-79616115D01*
X157251429Y-79563311D01*
X157241485Y-79494153D01*
X157270510Y-79430597D01*
X157276542Y-79424119D01*
X157302315Y-79398345D01*
X157394356Y-79249124D01*
X157394358Y-79249119D01*
X157449505Y-79082697D01*
X157449506Y-79082690D01*
X157459999Y-78979986D01*
X157460000Y-78979973D01*
X157460000Y-78630000D01*
X156475686Y-78630000D01*
X156480080Y-78625606D01*
X156532741Y-78534394D01*
X156560000Y-78432661D01*
X156560000Y-78327339D01*
X156532741Y-78225606D01*
X156480080Y-78134394D01*
X156475686Y-78130000D01*
X157459999Y-78130000D01*
X157459999Y-77780028D01*
X157459998Y-77780013D01*
X157449505Y-77677302D01*
X157394358Y-77510880D01*
X157394354Y-77510871D01*
X157334571Y-77413947D01*
X157334570Y-77413945D01*
X157302319Y-77361659D01*
X157302316Y-77361655D01*
X157178345Y-77237684D01*
X157029124Y-77145643D01*
X157029119Y-77145641D01*
X156862697Y-77090494D01*
X156862690Y-77090493D01*
X156759986Y-77080000D01*
X156410000Y-77080000D01*
X156410000Y-78064314D01*
X156405606Y-78059920D01*
X156314394Y-78007259D01*
X156212661Y-77980000D01*
X156107339Y-77980000D01*
X156005606Y-78007259D01*
X155914394Y-78059920D01*
X155910000Y-78064314D01*
X155910000Y-77080000D01*
X155560028Y-77080000D01*
X155560012Y-77080001D01*
X155457302Y-77090494D01*
X155290880Y-77145641D01*
X155290875Y-77145643D01*
X155141654Y-77237684D01*
X155017684Y-77361654D01*
X154925643Y-77510875D01*
X154925641Y-77510880D01*
X154898407Y-77593068D01*
X154858634Y-77650513D01*
X154794118Y-77677336D01*
X154725342Y-77665021D01*
X154680382Y-77626949D01*
X154662068Y-77601742D01*
X154611966Y-77532781D01*
X154467219Y-77388034D01*
X154467213Y-77388028D01*
X154301613Y-77267715D01*
X154301612Y-77267714D01*
X154301610Y-77267713D01*
X154242675Y-77237684D01*
X154119223Y-77174781D01*
X153924534Y-77111522D01*
X153749995Y-77083878D01*
X153722352Y-77079500D01*
X153517648Y-77079500D01*
X153493329Y-77083351D01*
X153315465Y-77111522D01*
X153120776Y-77174781D01*
X152938386Y-77267715D01*
X152772786Y-77388028D01*
X152628028Y-77532786D01*
X152507715Y-77698386D01*
X152460485Y-77791080D01*
X152412510Y-77841876D01*
X152344689Y-77858671D01*
X152278554Y-77836134D01*
X152239515Y-77791080D01*
X152224999Y-77762591D01*
X152192287Y-77698390D01*
X152184556Y-77687749D01*
X152071971Y-77532786D01*
X151927213Y-77388028D01*
X151761613Y-77267715D01*
X151761612Y-77267714D01*
X151761610Y-77267713D01*
X151702675Y-77237684D01*
X151579223Y-77174781D01*
X151384534Y-77111522D01*
X151209995Y-77083878D01*
X151182352Y-77079500D01*
X150977648Y-77079500D01*
X150953329Y-77083351D01*
X150775465Y-77111522D01*
X150580776Y-77174781D01*
X150398386Y-77267715D01*
X150232786Y-77388028D01*
X150088028Y-77532786D01*
X149967715Y-77698386D01*
X149920485Y-77791080D01*
X149872510Y-77841876D01*
X149804689Y-77858671D01*
X149738554Y-77836134D01*
X149699515Y-77791080D01*
X149684999Y-77762591D01*
X149652287Y-77698390D01*
X149644556Y-77687749D01*
X149531971Y-77532786D01*
X149387213Y-77388028D01*
X149221613Y-77267715D01*
X149221612Y-77267714D01*
X149221610Y-77267713D01*
X149162675Y-77237684D01*
X149039223Y-77174781D01*
X148844534Y-77111522D01*
X148669995Y-77083878D01*
X148642352Y-77079500D01*
X148437648Y-77079500D01*
X148413329Y-77083351D01*
X148235465Y-77111522D01*
X148040776Y-77174781D01*
X147858386Y-77267715D01*
X147692786Y-77388028D01*
X147548028Y-77532786D01*
X147427715Y-77698385D01*
X147420883Y-77711795D01*
X147410433Y-77722859D01*
X147404111Y-77736703D01*
X147386931Y-77747743D01*
X147372909Y-77762591D01*
X147357227Y-77766832D01*
X147345333Y-77774477D01*
X147310398Y-77779500D01*
X147229602Y-77779500D01*
X147162563Y-77759815D01*
X147119117Y-77711795D01*
X147112284Y-77698385D01*
X146991971Y-77532786D01*
X146847213Y-77388028D01*
X146681613Y-77267715D01*
X146681612Y-77267714D01*
X146681610Y-77267713D01*
X146622675Y-77237684D01*
X146499223Y-77174781D01*
X146304534Y-77111522D01*
X146129995Y-77083878D01*
X146102352Y-77079500D01*
X145897648Y-77079500D01*
X145873329Y-77083351D01*
X145695465Y-77111522D01*
X145500776Y-77174781D01*
X145318386Y-77267715D01*
X145152786Y-77388028D01*
X145008028Y-77532786D01*
X144887715Y-77698386D01*
X144840485Y-77791080D01*
X144792510Y-77841876D01*
X144724689Y-77858671D01*
X144658554Y-77836134D01*
X144619515Y-77791080D01*
X144604999Y-77762591D01*
X144572287Y-77698390D01*
X144564556Y-77687749D01*
X144451971Y-77532786D01*
X144307213Y-77388028D01*
X144141613Y-77267715D01*
X144141612Y-77267714D01*
X144141610Y-77267713D01*
X144082675Y-77237684D01*
X143959223Y-77174781D01*
X143764534Y-77111522D01*
X143589995Y-77083878D01*
X143562352Y-77079500D01*
X143357648Y-77079500D01*
X143333329Y-77083351D01*
X143155465Y-77111522D01*
X142960776Y-77174781D01*
X142778386Y-77267715D01*
X142612786Y-77388028D01*
X142468028Y-77532786D01*
X142347715Y-77698386D01*
X142300485Y-77791080D01*
X142252510Y-77841876D01*
X142184689Y-77858671D01*
X142118554Y-77836134D01*
X142079515Y-77791080D01*
X142064999Y-77762591D01*
X142032287Y-77698390D01*
X142024556Y-77687749D01*
X141911971Y-77532786D01*
X141767213Y-77388028D01*
X141601613Y-77267715D01*
X141601612Y-77267714D01*
X141601610Y-77267713D01*
X141542675Y-77237684D01*
X141419223Y-77174781D01*
X141224534Y-77111522D01*
X141049995Y-77083878D01*
X141022352Y-77079500D01*
X140817648Y-77079500D01*
X140793329Y-77083351D01*
X140615465Y-77111522D01*
X140420776Y-77174781D01*
X140238386Y-77267715D01*
X140072786Y-77388028D01*
X139928028Y-77532786D01*
X139807715Y-77698386D01*
X139760485Y-77791080D01*
X139712510Y-77841876D01*
X139644689Y-77858671D01*
X139578554Y-77836134D01*
X139539515Y-77791080D01*
X139524999Y-77762591D01*
X139492287Y-77698390D01*
X139484556Y-77687749D01*
X139371971Y-77532786D01*
X139227213Y-77388028D01*
X139061613Y-77267715D01*
X139061612Y-77267714D01*
X139061610Y-77267713D01*
X139002675Y-77237684D01*
X138879223Y-77174781D01*
X138684534Y-77111522D01*
X138509995Y-77083878D01*
X138482352Y-77079500D01*
X138277648Y-77079500D01*
X138253329Y-77083351D01*
X138075465Y-77111522D01*
X137880776Y-77174781D01*
X137698386Y-77267715D01*
X137532786Y-77388028D01*
X137388028Y-77532786D01*
X137267715Y-77698386D01*
X137174781Y-77880776D01*
X137111522Y-78075465D01*
X137079500Y-78277648D01*
X132128131Y-78277648D01*
X132115221Y-78163072D01*
X132103345Y-78057674D01*
X132037451Y-77768973D01*
X132034246Y-77759815D01*
X131996000Y-77650513D01*
X131939647Y-77489465D01*
X131811163Y-77222665D01*
X131653615Y-76971929D01*
X131468984Y-76740409D01*
X131259591Y-76531016D01*
X131028071Y-76346385D01*
X130777335Y-76188837D01*
X130777332Y-76188835D01*
X130510538Y-76060354D01*
X130231038Y-75962552D01*
X130231026Y-75962548D01*
X129942329Y-75896655D01*
X129942313Y-75896653D01*
X129648067Y-75863499D01*
X129648063Y-75863499D01*
X129351937Y-75863499D01*
X129351933Y-75863499D01*
X129057686Y-75896653D01*
X129057670Y-75896655D01*
X128768973Y-75962548D01*
X128768961Y-75962552D01*
X128489461Y-76060354D01*
X128222667Y-76188835D01*
X127971930Y-76346384D01*
X127740409Y-76531015D01*
X127531015Y-76740409D01*
X127346384Y-76971930D01*
X127188835Y-77222667D01*
X127060354Y-77489461D01*
X126962552Y-77768961D01*
X126962548Y-77768973D01*
X126896655Y-78057670D01*
X126896653Y-78057686D01*
X126863499Y-78351932D01*
X126007774Y-78351932D01*
X126008244Y-78342373D01*
X126008244Y-78342372D01*
X126017052Y-78163072D01*
X126018245Y-78150962D01*
X126023105Y-78118200D01*
X126066849Y-77823296D01*
X126069218Y-77811385D01*
X126149710Y-77490043D01*
X126153240Y-77478411D01*
X126176306Y-77413947D01*
X126264835Y-77166525D01*
X126269476Y-77155318D01*
X126411124Y-76855828D01*
X126416840Y-76845136D01*
X126587145Y-76560998D01*
X126593888Y-76550905D01*
X126791232Y-76284818D01*
X126798935Y-76275433D01*
X127021405Y-76029975D01*
X127029975Y-76021405D01*
X127275433Y-75798935D01*
X127284818Y-75791232D01*
X127550905Y-75593888D01*
X127560998Y-75587145D01*
X127845136Y-75416840D01*
X127855828Y-75411124D01*
X128155318Y-75269476D01*
X128166525Y-75264835D01*
X128478412Y-75153239D01*
X128490043Y-75149710D01*
X128811385Y-75069218D01*
X128823296Y-75066849D01*
X129150962Y-75018244D01*
X129163068Y-75017052D01*
X129496967Y-75000648D01*
X129503051Y-75000500D01*
X129565892Y-75000500D01*
X211434108Y-75000500D01*
X211496949Y-75000500D01*
X211503032Y-75000648D01*
G37*
%TD.AperFunction*%
%TD*%
M02*
