%TF.GenerationSoftware,KiCad,Pcbnew,9.0.3*%
%TF.CreationDate,2025-07-23T14:16:35+06:00*%
%TF.ProjectId,LFRCircuit,4c465243-6972-4637-9569-742e6b696361,rev?*%
%TF.SameCoordinates,Original*%
%TF.FileFunction,Soldermask,Bot*%
%TF.FilePolarity,Negative*%
%FSLAX46Y46*%
G04 Gerber Fmt 4.6, Leading zero omitted, Abs format (unit mm)*
G04 Created by KiCad (PCBNEW 9.0.3) date 2025-07-23 14:16:35*
%MOMM*%
%LPD*%
G01*
G04 APERTURE LIST*
G04 Aperture macros list*
%AMRoundRect*
0 Rectangle with rounded corners*
0 $1 Rounding radius*
0 $2 $3 $4 $5 $6 $7 $8 $9 X,Y pos of 4 corners*
0 Add a 4 corners polygon primitive as box body*
4,1,4,$2,$3,$4,$5,$6,$7,$8,$9,$2,$3,0*
0 Add four circle primitives for the rounded corners*
1,1,$1+$1,$2,$3*
1,1,$1+$1,$4,$5*
1,1,$1+$1,$6,$7*
1,1,$1+$1,$8,$9*
0 Add four rect primitives between the rounded corners*
20,1,$1+$1,$2,$3,$4,$5,0*
20,1,$1+$1,$4,$5,$6,$7,0*
20,1,$1+$1,$6,$7,$8,$9,0*
20,1,$1+$1,$8,$9,$2,$3,0*%
G04 Aperture macros list end*
%ADD10R,1.600000X1.600000*%
%ADD11O,1.600000X1.600000*%
%ADD12RoundRect,0.250000X-0.600000X-0.725000X0.600000X-0.725000X0.600000X0.725000X-0.600000X0.725000X0*%
%ADD13O,1.700000X1.950000*%
%ADD14RoundRect,0.250000X0.750000X-0.600000X0.750000X0.600000X-0.750000X0.600000X-0.750000X-0.600000X0*%
%ADD15O,2.000000X1.700000*%
%ADD16R,1.700000X1.700000*%
%ADD17C,1.700000*%
%ADD18RoundRect,0.250000X-0.550000X0.550000X-0.550000X-0.550000X0.550000X-0.550000X0.550000X0.550000X0*%
%ADD19C,1.600000*%
%ADD20RoundRect,0.250000X0.600000X0.750000X-0.600000X0.750000X-0.600000X-0.750000X0.600000X-0.750000X0*%
%ADD21O,1.700000X2.000000*%
%ADD22O,1.700000X1.700000*%
%ADD23RoundRect,0.250000X0.400000X0.625000X-0.400000X0.625000X-0.400000X-0.625000X0.400000X-0.625000X0*%
%ADD24RoundRect,0.250000X0.412500X0.650000X-0.412500X0.650000X-0.412500X-0.650000X0.412500X-0.650000X0*%
%ADD25RoundRect,0.250000X-0.412500X-0.650000X0.412500X-0.650000X0.412500X0.650000X-0.412500X0.650000X0*%
%ADD26RoundRect,0.250001X0.462499X0.624999X-0.462499X0.624999X-0.462499X-0.624999X0.462499X-0.624999X0*%
%ADD27RoundRect,0.150000X0.512500X0.150000X-0.512500X0.150000X-0.512500X-0.150000X0.512500X-0.150000X0*%
G04 APERTURE END LIST*
D10*
%TO.C,ArduinoNanoTypeC1*%
X164870000Y-96250000D03*
D11*
X162330000Y-96250000D03*
X159790000Y-96250000D03*
X157250000Y-96250000D03*
X154710000Y-96250000D03*
X152170000Y-96250000D03*
X149630000Y-96250000D03*
X147090000Y-96250000D03*
X144550000Y-96250000D03*
X142010000Y-96250000D03*
X139470000Y-96250000D03*
X136930000Y-96250000D03*
X134390000Y-96250000D03*
X131850000Y-96250000D03*
X129310000Y-96250000D03*
X129310000Y-111490000D03*
X131850000Y-111490000D03*
X134390000Y-111490000D03*
X136930000Y-111490000D03*
X139470000Y-111490000D03*
X142010000Y-111490000D03*
X144550000Y-111490000D03*
X147090000Y-111490000D03*
X149630000Y-111490000D03*
X152170000Y-111490000D03*
X154710000Y-111490000D03*
X157250000Y-111490000D03*
X159790000Y-111490000D03*
X162330000Y-111490000D03*
X164870000Y-111490000D03*
%TD*%
D12*
%TO.C,SonarSensor3Array1*%
X155250000Y-118250000D03*
D13*
X157750000Y-118250000D03*
X160250000Y-118250000D03*
X162750000Y-118250000D03*
X165250000Y-118250000D03*
%TD*%
D12*
%TO.C,RotaryEncoder1*%
X139250000Y-119750000D03*
D13*
X141750000Y-119750000D03*
X144250000Y-119750000D03*
X146750000Y-119750000D03*
X149250000Y-119750000D03*
%TD*%
D12*
%TO.C,IRSensor6Array1*%
X171250000Y-118305000D03*
D13*
X173750000Y-118305000D03*
X176250000Y-118305000D03*
X178750000Y-118305000D03*
X181250000Y-118305000D03*
X183750000Y-118305000D03*
X186250000Y-118305000D03*
X188750000Y-118305000D03*
%TD*%
D14*
%TO.C,BT3*%
X206555000Y-93550000D03*
D15*
X206555000Y-91050000D03*
%TD*%
D14*
%TO.C,BT2*%
X206555000Y-103000000D03*
D15*
X206555000Y-100500000D03*
%TD*%
D14*
%TO.C,BT1*%
X206555000Y-112450000D03*
D15*
X206555000Y-109950000D03*
%TD*%
D16*
%TO.C,INA1*%
X189300000Y-78250000D03*
D17*
X191840000Y-78250000D03*
X194380000Y-78250000D03*
X196920000Y-78250000D03*
X199460000Y-78250000D03*
X202000000Y-78250000D03*
X204540000Y-78250000D03*
X207080000Y-78250000D03*
%TD*%
D18*
%TO.C,U1*%
X156160000Y-78380000D03*
D19*
X153620000Y-78380000D03*
X151080000Y-78380000D03*
X148540000Y-78380000D03*
X146000000Y-78380000D03*
X143460000Y-78380000D03*
X140920000Y-78380000D03*
X138380000Y-78380000D03*
X138380000Y-86000000D03*
X140920000Y-86000000D03*
X143460000Y-86000000D03*
X146000000Y-86000000D03*
X148540000Y-86000000D03*
X151080000Y-86000000D03*
X153620000Y-86000000D03*
X156160000Y-86000000D03*
%TD*%
D20*
%TO.C,M2*%
X176750000Y-82100000D03*
D21*
X174250000Y-82100000D03*
%TD*%
D16*
%TO.C,J1*%
X183670000Y-97250000D03*
D22*
X186210000Y-97250000D03*
X188750000Y-97250000D03*
X191290000Y-97250000D03*
%TD*%
D20*
%TO.C,M1*%
X167500000Y-82100000D03*
D21*
X165000000Y-82100000D03*
%TD*%
D23*
%TO.C,R3*%
X168958800Y-87000000D03*
X165858800Y-87000000D03*
%TD*%
D24*
%TO.C,C7*%
X202812500Y-87000000D03*
X199687500Y-87000000D03*
%TD*%
D23*
%TO.C,R4*%
X185710500Y-92250000D03*
X182610500Y-92250000D03*
%TD*%
D25*
%TO.C,C5*%
X188187500Y-87000000D03*
X191312500Y-87000000D03*
%TD*%
D24*
%TO.C,C1*%
X163335000Y-78000000D03*
X160210000Y-78000000D03*
%TD*%
%TO.C,C2*%
X180191300Y-78025000D03*
X177066300Y-78025000D03*
%TD*%
D26*
%TO.C,L1*%
X185737500Y-87000000D03*
X182762500Y-87000000D03*
%TD*%
%TO.C,D2*%
X168858800Y-78000000D03*
X165883800Y-78000000D03*
%TD*%
D23*
%TO.C,R5*%
X180151000Y-92250000D03*
X177051000Y-92250000D03*
%TD*%
D25*
%TO.C,C8*%
X171449000Y-92250000D03*
X174574000Y-92250000D03*
%TD*%
D24*
%TO.C,C4*%
X191312500Y-92250000D03*
X188187500Y-92250000D03*
%TD*%
D27*
%TO.C,U2*%
X197750000Y-91500000D03*
X197750000Y-92450000D03*
X197750000Y-93400000D03*
X195475000Y-93400000D03*
X195475000Y-92450000D03*
X195475000Y-91500000D03*
%TD*%
D24*
%TO.C,C3*%
X168954500Y-92250000D03*
X165829500Y-92250000D03*
%TD*%
D26*
%TO.C,D5*%
X196987500Y-87000000D03*
X194012500Y-87000000D03*
%TD*%
D23*
%TO.C,R2*%
X174572500Y-87000000D03*
X171472500Y-87000000D03*
%TD*%
%TO.C,R1*%
X180186300Y-87000000D03*
X177086300Y-87000000D03*
%TD*%
D24*
%TO.C,C6*%
X163335000Y-92250000D03*
X160210000Y-92250000D03*
%TD*%
D26*
%TO.C,D4*%
X163237500Y-87000000D03*
X160262500Y-87000000D03*
%TD*%
%TO.C,D3*%
X185715000Y-78015000D03*
X182740000Y-78015000D03*
%TD*%
%TO.C,D1*%
X174472500Y-78030000D03*
X171497500Y-78030000D03*
%TD*%
M02*
