%TF.GenerationSoftware,KiCad,Pcbnew,9.0.3*%
%TF.CreationDate,2025-07-23T14:16:35+06:00*%
%TF.ProjectId,LFRCircuit,4c465243-6972-4637-9569-742e6b696361,rev?*%
%TF.SameCoordinates,Original*%
%TF.FileFunction,Copper,L2,Bot*%
%TF.FilePolarity,Positive*%
%FSLAX46Y46*%
G04 Gerber Fmt 4.6, Leading zero omitted, Abs format (unit mm)*
G04 Created by KiCad (PCBNEW 9.0.3) date 2025-07-23 14:16:35*
%MOMM*%
%LPD*%
G01*
G04 APERTURE LIST*
G04 Aperture macros list*
%AMRoundRect*
0 Rectangle with rounded corners*
0 $1 Rounding radius*
0 $2 $3 $4 $5 $6 $7 $8 $9 X,Y pos of 4 corners*
0 Add a 4 corners polygon primitive as box body*
4,1,4,$2,$3,$4,$5,$6,$7,$8,$9,$2,$3,0*
0 Add four circle primitives for the rounded corners*
1,1,$1+$1,$2,$3*
1,1,$1+$1,$4,$5*
1,1,$1+$1,$6,$7*
1,1,$1+$1,$8,$9*
0 Add four rect primitives between the rounded corners*
20,1,$1+$1,$2,$3,$4,$5,0*
20,1,$1+$1,$4,$5,$6,$7,0*
20,1,$1+$1,$6,$7,$8,$9,0*
20,1,$1+$1,$8,$9,$2,$3,0*%
G04 Aperture macros list end*
%TA.AperFunction,ComponentPad*%
%ADD10R,1.600000X1.600000*%
%TD*%
%TA.AperFunction,ComponentPad*%
%ADD11O,1.600000X1.600000*%
%TD*%
%TA.AperFunction,ComponentPad*%
%ADD12RoundRect,0.250000X-0.600000X-0.725000X0.600000X-0.725000X0.600000X0.725000X-0.600000X0.725000X0*%
%TD*%
%TA.AperFunction,ComponentPad*%
%ADD13O,1.700000X1.950000*%
%TD*%
%TA.AperFunction,ComponentPad*%
%ADD14RoundRect,0.250000X0.750000X-0.600000X0.750000X0.600000X-0.750000X0.600000X-0.750000X-0.600000X0*%
%TD*%
%TA.AperFunction,ComponentPad*%
%ADD15O,2.000000X1.700000*%
%TD*%
%TA.AperFunction,ComponentPad*%
%ADD16R,1.700000X1.700000*%
%TD*%
%TA.AperFunction,ComponentPad*%
%ADD17C,1.700000*%
%TD*%
%TA.AperFunction,ComponentPad*%
%ADD18RoundRect,0.250000X-0.550000X0.550000X-0.550000X-0.550000X0.550000X-0.550000X0.550000X0.550000X0*%
%TD*%
%TA.AperFunction,ComponentPad*%
%ADD19C,1.600000*%
%TD*%
%TA.AperFunction,ComponentPad*%
%ADD20RoundRect,0.250000X0.600000X0.750000X-0.600000X0.750000X-0.600000X-0.750000X0.600000X-0.750000X0*%
%TD*%
%TA.AperFunction,ComponentPad*%
%ADD21O,1.700000X2.000000*%
%TD*%
%TA.AperFunction,ComponentPad*%
%ADD22O,1.700000X1.700000*%
%TD*%
%TA.AperFunction,SMDPad,CuDef*%
%ADD23RoundRect,0.250000X0.400000X0.625000X-0.400000X0.625000X-0.400000X-0.625000X0.400000X-0.625000X0*%
%TD*%
%TA.AperFunction,SMDPad,CuDef*%
%ADD24RoundRect,0.250000X0.412500X0.650000X-0.412500X0.650000X-0.412500X-0.650000X0.412500X-0.650000X0*%
%TD*%
%TA.AperFunction,SMDPad,CuDef*%
%ADD25RoundRect,0.250000X-0.412500X-0.650000X0.412500X-0.650000X0.412500X0.650000X-0.412500X0.650000X0*%
%TD*%
%TA.AperFunction,SMDPad,CuDef*%
%ADD26RoundRect,0.250001X0.462499X0.624999X-0.462499X0.624999X-0.462499X-0.624999X0.462499X-0.624999X0*%
%TD*%
%TA.AperFunction,SMDPad,CuDef*%
%ADD27RoundRect,0.150000X0.512500X0.150000X-0.512500X0.150000X-0.512500X-0.150000X0.512500X-0.150000X0*%
%TD*%
%TA.AperFunction,ViaPad*%
%ADD28C,0.600000*%
%TD*%
%TA.AperFunction,Conductor*%
%ADD29C,0.200000*%
%TD*%
G04 APERTURE END LIST*
D10*
%TO.P,ArduinoNanoTypeC1,1,TX1*%
%TO.N,unconnected-(ArduinoNanoTypeC1-TX1-Pad1)*%
X164870000Y-96250000D03*
D11*
%TO.P,ArduinoNanoTypeC1,2,RX0*%
%TO.N,unconnected-(ArduinoNanoTypeC1-RX0-Pad2)*%
X162330000Y-96250000D03*
%TO.P,ArduinoNanoTypeC1,3,RST*%
%TO.N,unconnected-(ArduinoNanoTypeC1-RST-Pad3)*%
X159790000Y-96250000D03*
%TO.P,ArduinoNanoTypeC1,4,GND*%
%TO.N,GND*%
X157250000Y-96250000D03*
%TO.P,ArduinoNanoTypeC1,5,D2*%
%TO.N,/Alert*%
X154710000Y-96250000D03*
%TO.P,ArduinoNanoTypeC1,6,D3~*%
%TO.N,/M1A*%
X152170000Y-96250000D03*
%TO.P,ArduinoNanoTypeC1,7,D4*%
%TO.N,/S1*%
X149630000Y-96250000D03*
%TO.P,ArduinoNanoTypeC1,8,D5~*%
%TO.N,/M1B*%
X147090000Y-96250000D03*
%TO.P,ArduinoNanoTypeC1,9,D6~*%
%TO.N,/M2A*%
X144550000Y-96250000D03*
%TO.P,ArduinoNanoTypeC1,10,D7*%
%TO.N,/S2*%
X142010000Y-96250000D03*
%TO.P,ArduinoNanoTypeC1,11,D8*%
%TO.N,/S3*%
X139470000Y-96250000D03*
%TO.P,ArduinoNanoTypeC1,12,D9~*%
%TO.N,/M2B*%
X136930000Y-96250000D03*
%TO.P,ArduinoNanoTypeC1,13,D10~*%
%TO.N,/RE_CLK*%
X134390000Y-96250000D03*
%TO.P,ArduinoNanoTypeC1,14,D11~*%
%TO.N,/RE_DT*%
X131850000Y-96250000D03*
%TO.P,ArduinoNanoTypeC1,15,D12*%
%TO.N,/RE_SW*%
X129310000Y-96250000D03*
%TO.P,ArduinoNanoTypeC1,16,D13*%
%TO.N,unconnected-(ArduinoNanoTypeC1-D13-Pad16)*%
X129310000Y-111490000D03*
%TO.P,ArduinoNanoTypeC1,17,3.3V*%
%TO.N,unconnected-(ArduinoNanoTypeC1-3.3V-Pad17)*%
X131850000Y-111490000D03*
%TO.P,ArduinoNanoTypeC1,18,AREF*%
%TO.N,unconnected-(ArduinoNanoTypeC1-AREF-Pad18)*%
X134390000Y-111490000D03*
%TO.P,ArduinoNanoTypeC1,19,A0*%
%TO.N,/IR1*%
X136930000Y-111490000D03*
%TO.P,ArduinoNanoTypeC1,20,A1*%
%TO.N,/IR2*%
X139470000Y-111490000D03*
%TO.P,ArduinoNanoTypeC1,21,A2*%
%TO.N,/IR3*%
X142010000Y-111490000D03*
%TO.P,ArduinoNanoTypeC1,22,A3*%
%TO.N,/IR4*%
X144550000Y-111490000D03*
%TO.P,ArduinoNanoTypeC1,23,A4/SDA*%
%TO.N,/SDA*%
X147090000Y-111490000D03*
%TO.P,ArduinoNanoTypeC1,24,A5/SCL*%
%TO.N,/SCL*%
X149630000Y-111490000D03*
%TO.P,ArduinoNanoTypeC1,25,A6*%
%TO.N,/IR5*%
X152170000Y-111490000D03*
%TO.P,ArduinoNanoTypeC1,26,A7*%
%TO.N,/IR6*%
X154710000Y-111490000D03*
%TO.P,ArduinoNanoTypeC1,27,+5V*%
%TO.N,unconnected-(ArduinoNanoTypeC1-+5V-Pad27)*%
X157250000Y-111490000D03*
%TO.P,ArduinoNanoTypeC1,28,RST*%
%TO.N,unconnected-(ArduinoNanoTypeC1-RST-Pad28)*%
X159790000Y-111490000D03*
%TO.P,ArduinoNanoTypeC1,29,GND
*%
%TO.N,GND*%
X162330000Y-111490000D03*
%TO.P,ArduinoNanoTypeC1,30,VIN*%
%TO.N,+5V*%
X164870000Y-111490000D03*
%TD*%
D12*
%TO.P,SonarSensor3Array1,1,S1*%
%TO.N,/S1*%
X155250000Y-118250000D03*
D13*
%TO.P,SonarSensor3Array1,2,S2*%
%TO.N,/S2*%
X157750000Y-118250000D03*
%TO.P,SonarSensor3Array1,3,S3*%
%TO.N,/S3*%
X160250000Y-118250000D03*
%TO.P,SonarSensor3Array1,4,VCC*%
%TO.N,+5V*%
X162750000Y-118250000D03*
%TO.P,SonarSensor3Array1,5,GND*%
%TO.N,GND*%
X165250000Y-118250000D03*
%TD*%
D12*
%TO.P,RotaryEncoder1,1,CLK*%
%TO.N,/RE_CLK*%
X139250000Y-119750000D03*
D13*
%TO.P,RotaryEncoder1,2,DT*%
%TO.N,/RE_DT*%
X141750000Y-119750000D03*
%TO.P,RotaryEncoder1,3,SW*%
%TO.N,/RE_SW*%
X144250000Y-119750000D03*
%TO.P,RotaryEncoder1,4,+*%
%TO.N,+5V*%
X146750000Y-119750000D03*
%TO.P,RotaryEncoder1,5,GND*%
%TO.N,GND*%
X149250000Y-119750000D03*
%TD*%
D12*
%TO.P,IRSensor6Array1,1,IR1*%
%TO.N,/IR1*%
X171250000Y-118305000D03*
D13*
%TO.P,IRSensor6Array1,2,IR2*%
%TO.N,/IR2*%
X173750000Y-118305000D03*
%TO.P,IRSensor6Array1,3,IR3*%
%TO.N,/IR3*%
X176250000Y-118305000D03*
%TO.P,IRSensor6Array1,4,IR4*%
%TO.N,/IR4*%
X178750000Y-118305000D03*
%TO.P,IRSensor6Array1,5,IR5*%
%TO.N,/IR5*%
X181250000Y-118305000D03*
%TO.P,IRSensor6Array1,6,IR6*%
%TO.N,/IR6*%
X183750000Y-118305000D03*
%TO.P,IRSensor6Array1,7,VIN*%
%TO.N,+5V*%
X186250000Y-118305000D03*
%TO.P,IRSensor6Array1,8,GND*%
%TO.N,GND*%
X188750000Y-118305000D03*
%TD*%
D14*
%TO.P,BT3,1,+*%
%TO.N,BatOUT*%
X206555000Y-93550000D03*
D15*
%TO.P,BT3,2,-*%
%TO.N,Net-(BT2-+)*%
X206555000Y-91050000D03*
%TD*%
D14*
%TO.P,BT2,1,+*%
%TO.N,Net-(BT2-+)*%
X206555000Y-103000000D03*
D15*
%TO.P,BT2,2,-*%
%TO.N,Net-(BT1-+)*%
X206555000Y-100500000D03*
%TD*%
D14*
%TO.P,BT1,1,+*%
%TO.N,Net-(BT1-+)*%
X206555000Y-112450000D03*
D15*
%TO.P,BT1,2,-*%
%TO.N,GND*%
X206555000Y-109950000D03*
%TD*%
D16*
%TO.P,INA1,1,IN+*%
%TO.N,BatOUT*%
X189300000Y-78250000D03*
D17*
%TO.P,INA1,2,IN-*%
%TO.N,+12V*%
X191840000Y-78250000D03*
%TO.P,INA1,3,VBS*%
X194380000Y-78250000D03*
%TO.P,INA1,4,ALE*%
%TO.N,/Alert*%
X196920000Y-78250000D03*
%TO.P,INA1,5,SCL*%
%TO.N,/SCL*%
X199460000Y-78250000D03*
%TO.P,INA1,6,SDA
*%
%TO.N,/SDA*%
X202000000Y-78250000D03*
%TO.P,INA1,7,GND*%
%TO.N,GND*%
X204540000Y-78250000D03*
%TO.P,INA1,8,VCC*%
%TO.N,+5V*%
X207080000Y-78250000D03*
%TD*%
D18*
%TO.P,U1,1,EN1\u002C2*%
%TO.N,+12V*%
X156160000Y-78380000D03*
D19*
%TO.P,U1,2,1A*%
%TO.N,/M1A*%
X153620000Y-78380000D03*
%TO.P,U1,3,1Y*%
%TO.N,Net-(D1-K)*%
X151080000Y-78380000D03*
%TO.P,U1,4,GND*%
%TO.N,GND*%
X148540000Y-78380000D03*
%TO.P,U1,5,GND*%
X146000000Y-78380000D03*
%TO.P,U1,6,2Y*%
%TO.N,Net-(D2-K)*%
X143460000Y-78380000D03*
%TO.P,U1,7,2A*%
%TO.N,/M1B*%
X140920000Y-78380000D03*
%TO.P,U1,8,VCC2*%
%TO.N,+5V*%
X138380000Y-78380000D03*
%TO.P,U1,9,EN3\u002C4*%
%TO.N,+12V*%
X138380000Y-86000000D03*
%TO.P,U1,10,3A*%
%TO.N,/M2B*%
X140920000Y-86000000D03*
%TO.P,U1,11,3Y*%
%TO.N,Net-(D3-K)*%
X143460000Y-86000000D03*
%TO.P,U1,12,GND*%
%TO.N,GND*%
X146000000Y-86000000D03*
%TO.P,U1,13,GND*%
X148540000Y-86000000D03*
%TO.P,U1,14,4Y*%
%TO.N,Net-(D4-K)*%
X151080000Y-86000000D03*
%TO.P,U1,15,4A*%
%TO.N,/M2A*%
X153620000Y-86000000D03*
%TO.P,U1,16,VCC1*%
%TO.N,+12V*%
X156160000Y-86000000D03*
%TD*%
D20*
%TO.P,M2,1,+*%
%TO.N,Net-(D3-K)*%
X176750000Y-82100000D03*
D21*
%TO.P,M2,2,-*%
%TO.N,Net-(D4-K)*%
X174250000Y-82100000D03*
%TD*%
D16*
%TO.P,J1,1,GND*%
%TO.N,GND*%
X183670000Y-97250000D03*
D22*
%TO.P,J1,2,VCC*%
%TO.N,+5V*%
X186210000Y-97250000D03*
%TO.P,J1,3,SCL*%
%TO.N,/SCL*%
X188750000Y-97250000D03*
%TO.P,J1,4,SDA*%
%TO.N,/SDA*%
X191290000Y-97250000D03*
%TD*%
D20*
%TO.P,M1,1,+*%
%TO.N,Net-(D1-K)*%
X167500000Y-82100000D03*
D21*
%TO.P,M1,2,-*%
%TO.N,Net-(D2-K)*%
X165000000Y-82100000D03*
%TD*%
D23*
%TO.P,R3,1*%
%TO.N,Net-(C8-Pad1)*%
X168958800Y-87000000D03*
%TO.P,R3,2*%
%TO.N,GND*%
X165858800Y-87000000D03*
%TD*%
D24*
%TO.P,C7,1*%
%TO.N,+5V*%
X202812500Y-87000000D03*
%TO.P,C7,2*%
%TO.N,GND*%
X199687500Y-87000000D03*
%TD*%
D23*
%TO.P,R4,1*%
%TO.N,+12V*%
X185710500Y-92250000D03*
%TO.P,R4,2*%
%TO.N,Net-(U2-EN)*%
X182610500Y-92250000D03*
%TD*%
D25*
%TO.P,C5,1*%
%TO.N,Net-(U2-SW)*%
X188187500Y-87000000D03*
%TO.P,C5,2*%
%TO.N,Net-(U2-BOOT)*%
X191312500Y-87000000D03*
%TD*%
D24*
%TO.P,C1,1*%
%TO.N,Net-(D1-K)*%
X163335000Y-78000000D03*
%TO.P,C1,2*%
%TO.N,Net-(D2-K)*%
X160210000Y-78000000D03*
%TD*%
%TO.P,C2,1*%
%TO.N,Net-(D3-K)*%
X180191300Y-78025000D03*
%TO.P,C2,2*%
%TO.N,Net-(D4-K)*%
X177066300Y-78025000D03*
%TD*%
D26*
%TO.P,L1,1,1*%
%TO.N,Net-(U2-SW)*%
X185737500Y-87000000D03*
%TO.P,L1,2,2*%
%TO.N,+5V*%
X182762500Y-87000000D03*
%TD*%
%TO.P,D2,1,K*%
%TO.N,Net-(D2-K)*%
X168858800Y-78000000D03*
%TO.P,D2,2,A*%
%TO.N,GND*%
X165883800Y-78000000D03*
%TD*%
D23*
%TO.P,R5,1*%
%TO.N,Net-(U2-EN)*%
X180151000Y-92250000D03*
%TO.P,R5,2*%
%TO.N,GND*%
X177051000Y-92250000D03*
%TD*%
D25*
%TO.P,C8,1*%
%TO.N,Net-(C8-Pad1)*%
X171449000Y-92250000D03*
%TO.P,C8,2*%
%TO.N,GND*%
X174574000Y-92250000D03*
%TD*%
D24*
%TO.P,C4,1*%
%TO.N,+12V*%
X191312500Y-92250000D03*
%TO.P,C4,2*%
%TO.N,GND*%
X188187500Y-92250000D03*
%TD*%
D27*
%TO.P,U2,1,GND*%
%TO.N,GND*%
X197750000Y-91500000D03*
%TO.P,U2,2,SW*%
%TO.N,Net-(U2-SW)*%
X197750000Y-92450000D03*
%TO.P,U2,3,VIN*%
%TO.N,+12V*%
X197750000Y-93400000D03*
%TO.P,U2,4,FB*%
%TO.N,GND*%
X195475000Y-93400000D03*
%TO.P,U2,5,EN*%
%TO.N,Net-(U2-EN)*%
X195475000Y-92450000D03*
%TO.P,U2,6,BOOT*%
%TO.N,Net-(U2-BOOT)*%
X195475000Y-91500000D03*
%TD*%
D24*
%TO.P,C3,1*%
%TO.N,+12V*%
X168954500Y-92250000D03*
%TO.P,C3,2*%
%TO.N,GND*%
X165829500Y-92250000D03*
%TD*%
D26*
%TO.P,D5,1,K*%
%TO.N,GND*%
X196987500Y-87000000D03*
%TO.P,D5,2,A*%
%TO.N,+12V*%
X194012500Y-87000000D03*
%TD*%
D23*
%TO.P,R2,1*%
%TO.N,Net-(R1-Pad2)*%
X174572500Y-87000000D03*
%TO.P,R2,2*%
%TO.N,Net-(C8-Pad1)*%
X171472500Y-87000000D03*
%TD*%
%TO.P,R1,1*%
%TO.N,+5V*%
X180186300Y-87000000D03*
%TO.P,R1,2*%
%TO.N,Net-(R1-Pad2)*%
X177086300Y-87000000D03*
%TD*%
D24*
%TO.P,C6,1*%
%TO.N,+5V*%
X163335000Y-92250000D03*
%TO.P,C6,2*%
%TO.N,GND*%
X160210000Y-92250000D03*
%TD*%
D26*
%TO.P,D4,1,K*%
%TO.N,Net-(D4-K)*%
X163237500Y-87000000D03*
%TO.P,D4,2,A*%
%TO.N,GND*%
X160262500Y-87000000D03*
%TD*%
%TO.P,D3,1,K*%
%TO.N,Net-(D3-K)*%
X185715000Y-78015000D03*
%TO.P,D3,2,A*%
%TO.N,GND*%
X182740000Y-78015000D03*
%TD*%
%TO.P,D1,1,K*%
%TO.N,Net-(D1-K)*%
X174472500Y-78030000D03*
%TO.P,D1,2,A*%
%TO.N,GND*%
X171497500Y-78030000D03*
%TD*%
D28*
%TO.N,Net-(U2-EN)*%
X183827300Y-93171800D03*
X193566000Y-93297800D03*
%TO.N,BatOUT*%
X190086800Y-86153100D03*
%TO.N,Net-(U2-BOOT)*%
X196625000Y-90201900D03*
X190876100Y-88631400D03*
%TO.N,Net-(D4-K)*%
X161771300Y-84786600D03*
%TO.N,Net-(D1-K)*%
X162915000Y-79718300D03*
%TO.N,+12V*%
X184014100Y-77146800D03*
X168656900Y-88540200D03*
%TO.N,/SCL*%
X193485300Y-91723700D03*
X150377500Y-98829100D03*
%TO.N,+5V*%
X185977700Y-95133500D03*
X182505500Y-94243300D03*
%TO.N,/S3*%
X155951900Y-99568600D03*
%TO.N,GND*%
X192759600Y-93975400D03*
%TD*%
D29*
%TO.N,Net-(BT2-+)*%
X207444500Y-92201700D02*
X206555000Y-92201700D01*
X207903800Y-92661000D02*
X207444500Y-92201700D01*
X207903800Y-95323600D02*
X207903800Y-92661000D01*
X205235600Y-97991800D02*
X207903800Y-95323600D01*
X205235600Y-101680600D02*
X205235600Y-97991800D01*
X206555000Y-103000000D02*
X205235600Y-101680600D01*
X206555000Y-91050000D02*
X206555000Y-92201700D01*
%TO.N,Net-(BT1-+)*%
X207904800Y-111100200D02*
X206555000Y-112450000D01*
X207904800Y-102209700D02*
X207904800Y-111100200D01*
X207346800Y-101651700D02*
X207904800Y-102209700D01*
X206555000Y-101651700D02*
X207346800Y-101651700D01*
X206555000Y-100500000D02*
X206555000Y-101651700D01*
%TO.N,Net-(U2-EN)*%
X180151000Y-92250000D02*
X182610500Y-92250000D01*
X182905500Y-92250000D02*
X183827300Y-93171800D01*
X182610500Y-92250000D02*
X182905500Y-92250000D01*
X194413800Y-92450000D02*
X195475000Y-92450000D01*
X193566000Y-93297800D02*
X194413800Y-92450000D01*
%TO.N,Net-(R1-Pad2)*%
X174572500Y-87000000D02*
X177086300Y-87000000D01*
%TO.N,BatOUT*%
X189300000Y-78250000D02*
X189300000Y-79401700D01*
X189300000Y-85366300D02*
X190086800Y-86153100D01*
X189300000Y-79401700D02*
X189300000Y-85366300D01*
%TO.N,Net-(C8-Pad1)*%
X171425500Y-87000000D02*
X171449000Y-87023500D01*
X168958800Y-87000000D02*
X171425500Y-87000000D01*
X171472500Y-87000000D02*
X171449000Y-87023500D01*
X171449000Y-87023500D02*
X171449000Y-92250000D01*
%TO.N,Net-(U2-SW)*%
X188187500Y-87000000D02*
X185737500Y-87000000D01*
X194968300Y-95124600D02*
X195203700Y-94889200D01*
X192340000Y-95124600D02*
X194968300Y-95124600D01*
X189486600Y-92271200D02*
X192340000Y-95124600D01*
X189486600Y-88299100D02*
X189486600Y-92271200D01*
X188187500Y-87000000D02*
X189486600Y-88299100D01*
X198513100Y-92450000D02*
X197750000Y-92450000D01*
X199221600Y-93158500D02*
X198513100Y-92450000D01*
X199221600Y-93241100D02*
X199221600Y-93158500D01*
X197739800Y-94722900D02*
X199221600Y-93241100D01*
X195370000Y-94722900D02*
X197739800Y-94722900D01*
X195203700Y-94889200D02*
X195370000Y-94722900D01*
X195203700Y-94889200D02*
X195370000Y-94722900D01*
%TO.N,Net-(U2-BOOT)*%
X196625000Y-90350000D02*
X196625000Y-90201900D01*
X195475000Y-91500000D02*
X196625000Y-90350000D01*
X191312500Y-88195000D02*
X191312500Y-87000000D01*
X190876100Y-88631400D02*
X191312500Y-88195000D01*
%TO.N,Net-(D3-K)*%
X176750000Y-81466300D02*
X176750000Y-82100000D01*
X180191300Y-78025000D02*
X176750000Y-81466300D01*
X181671200Y-76545100D02*
X180191300Y-78025000D01*
X184263300Y-76545100D02*
X181671200Y-76545100D01*
X185715000Y-77996800D02*
X184263300Y-76545100D01*
X185715000Y-78015000D02*
X185715000Y-77996800D01*
%TO.N,Net-(D4-K)*%
X174293000Y-80798300D02*
X177066300Y-78025000D01*
X174250000Y-80798300D02*
X174293000Y-80798300D01*
X174250000Y-82100000D02*
X174250000Y-80798300D01*
X174250000Y-82100000D02*
X173098300Y-82100000D01*
X164842900Y-85394600D02*
X163237500Y-87000000D01*
X169803700Y-85394600D02*
X164842900Y-85394600D01*
X173098300Y-82100000D02*
X169803700Y-85394600D01*
X163237500Y-86252800D02*
X161771300Y-84786600D01*
X163237500Y-87000000D02*
X163237500Y-86252800D01*
%TO.N,Net-(D1-K)*%
X170402500Y-82100000D02*
X174472500Y-78030000D01*
X167500000Y-82100000D02*
X170402500Y-82100000D01*
X163335000Y-79298300D02*
X162915000Y-79718300D01*
X163335000Y-78000000D02*
X163335000Y-79298300D01*
%TO.N,Net-(D2-K)*%
X163848300Y-81638300D02*
X163848300Y-82100000D01*
X160210000Y-78000000D02*
X163848300Y-81638300D01*
X165000000Y-82100000D02*
X163848300Y-82100000D01*
X164848800Y-80647100D02*
X165000000Y-80798300D01*
X164848800Y-77134500D02*
X164848800Y-80647100D01*
X165193600Y-76789700D02*
X164848800Y-77134500D01*
X167648500Y-76789700D02*
X165193600Y-76789700D01*
X168858800Y-78000000D02*
X167648500Y-76789700D01*
X165000000Y-82100000D02*
X165000000Y-80798300D01*
%TO.N,+12V*%
X156160000Y-78380000D02*
X156160000Y-86000000D01*
X194012500Y-78617500D02*
X194012500Y-87000000D01*
X194380000Y-78250000D02*
X194012500Y-78617500D01*
X184570300Y-91109800D02*
X185710500Y-92250000D01*
X184570300Y-77703000D02*
X184570300Y-91109800D01*
X184014100Y-77146800D02*
X184570300Y-77703000D01*
X168954500Y-88837800D02*
X168954500Y-92250000D01*
X168656900Y-88540200D02*
X168954500Y-88837800D01*
X194012500Y-90083400D02*
X191845900Y-92250000D01*
X194012500Y-87000000D02*
X194012500Y-90083400D01*
X191845900Y-92250000D02*
X191312500Y-92250000D01*
X196988300Y-94161700D02*
X197750000Y-93400000D01*
X195279200Y-94161700D02*
X196988300Y-94161700D01*
X194860000Y-94580900D02*
X195279200Y-94161700D01*
X192497800Y-94580900D02*
X194860000Y-94580900D01*
X191845900Y-93929000D02*
X192497800Y-94580900D01*
X191845900Y-92250000D02*
X191845900Y-93929000D01*
X168656900Y-88540200D02*
X167247400Y-87130700D01*
X167247400Y-87130700D02*
X168656900Y-88540200D01*
%TO.N,/M2A*%
X144550000Y-95070000D02*
X144550000Y-96250000D01*
X153620000Y-86000000D02*
X144550000Y-95070000D01*
%TO.N,/SDA*%
X191290000Y-97250000D02*
X192441700Y-97250000D01*
X193410900Y-97250000D02*
X195370000Y-95290900D01*
X192441700Y-97250000D02*
X193410900Y-97250000D01*
X201346300Y-78903700D02*
X202000000Y-78250000D01*
X201346300Y-91116400D02*
X201346300Y-78903700D01*
X199664600Y-92798100D02*
X201346300Y-91116400D01*
X199664600Y-93366100D02*
X199664600Y-92798100D01*
X197906100Y-95124600D02*
X199664600Y-93366100D01*
X195536300Y-95124600D02*
X197906100Y-95124600D01*
X195370000Y-95290900D02*
X195536300Y-95124600D01*
X195370000Y-95290900D02*
X195536300Y-95124600D01*
%TO.N,/SCL*%
X195500000Y-82210000D02*
X199460000Y-78250000D01*
X195500000Y-89709000D02*
X195500000Y-82210000D01*
X193485300Y-91723700D02*
X195500000Y-89709000D01*
X149630000Y-99576600D02*
X150377500Y-98829100D01*
X149630000Y-111490000D02*
X149630000Y-99576600D01*
%TO.N,/M2B*%
X140920000Y-91158300D02*
X136930000Y-95148300D01*
X140920000Y-86000000D02*
X140920000Y-91158300D01*
X136930000Y-96250000D02*
X136930000Y-95148300D01*
%TO.N,/S2*%
X156598300Y-119017400D02*
X156598300Y-118250000D01*
X156058800Y-119556900D02*
X156598300Y-119017400D01*
X154429800Y-119556900D02*
X156058800Y-119556900D01*
X148360000Y-113487100D02*
X154429800Y-119556900D01*
X148360000Y-103701700D02*
X148360000Y-113487100D01*
X142010000Y-97351700D02*
X148360000Y-103701700D01*
X142010000Y-96250000D02*
X142010000Y-97351700D01*
X157750000Y-118250000D02*
X156598300Y-118250000D01*
%TO.N,/RE_SW*%
X133120000Y-101161700D02*
X129310000Y-97351700D01*
X133120000Y-115764200D02*
X133120000Y-101161700D01*
X138423400Y-121067600D02*
X133120000Y-115764200D01*
X142212600Y-121067600D02*
X138423400Y-121067600D01*
X143098300Y-120181900D02*
X142212600Y-121067600D01*
X143098300Y-119750000D02*
X143098300Y-120181900D01*
X144250000Y-119750000D02*
X143098300Y-119750000D01*
X129310000Y-96250000D02*
X129310000Y-97351700D01*
%TO.N,/M1A*%
X154782300Y-92536000D02*
X152170000Y-95148300D01*
X154782300Y-79542300D02*
X154782300Y-92536000D01*
X153620000Y-78380000D02*
X154782300Y-79542300D01*
X152170000Y-96250000D02*
X152170000Y-95148300D01*
%TO.N,/RE_DT*%
X132951700Y-96021700D02*
X132951700Y-96250000D01*
X133907200Y-95066200D02*
X132951700Y-96021700D01*
X134815800Y-95066200D02*
X133907200Y-95066200D01*
X135530400Y-95780800D02*
X134815800Y-95066200D01*
X135530400Y-96949800D02*
X135530400Y-95780800D01*
X138200000Y-99619400D02*
X135530400Y-96949800D01*
X138200000Y-116200000D02*
X138200000Y-99619400D01*
X140598300Y-118598300D02*
X138200000Y-116200000D01*
X140598300Y-119750000D02*
X140598300Y-118598300D01*
X141750000Y-119750000D02*
X140598300Y-119750000D01*
X131850000Y-96250000D02*
X132951700Y-96250000D01*
%TO.N,+5V*%
X145598300Y-119010500D02*
X145598300Y-119750000D01*
X140832000Y-114244200D02*
X145598300Y-119010500D01*
X140832000Y-92937700D02*
X140832000Y-114244200D01*
X142057500Y-91712200D02*
X140832000Y-92937700D01*
X142057500Y-82057500D02*
X142057500Y-91712200D01*
X138380000Y-78380000D02*
X142057500Y-82057500D01*
X146750000Y-119750000D02*
X145598300Y-119750000D01*
X163768300Y-92683300D02*
X163335000Y-92250000D01*
X163768300Y-109286600D02*
X163768300Y-92683300D01*
X164870000Y-110388300D02*
X163768300Y-109286600D01*
X164870000Y-111490000D02*
X164870000Y-110388300D01*
X163901700Y-113560000D02*
X163901700Y-118250000D01*
X164870000Y-112591700D02*
X163901700Y-113560000D01*
X162750000Y-118250000D02*
X163901700Y-118250000D01*
X164870000Y-111490000D02*
X164870000Y-112591700D01*
X186210000Y-97725000D02*
X186210000Y-98401700D01*
X207080000Y-82732500D02*
X202812500Y-87000000D01*
X207080000Y-78250000D02*
X207080000Y-82732500D01*
X186250000Y-98441700D02*
X186250000Y-118305000D01*
X182762500Y-87000000D02*
X180186300Y-87000000D01*
X180273200Y-94243300D02*
X182505500Y-94243300D01*
X179191600Y-93161700D02*
X180273200Y-94243300D01*
X179191600Y-87994700D02*
X179191600Y-93161700D01*
X180186300Y-87000000D02*
X179191600Y-87994700D01*
X186250000Y-98441700D02*
X186250000Y-98401800D01*
X186210000Y-98401700D02*
X186250000Y-98401700D01*
X186250000Y-98401800D02*
X186250000Y-98401700D01*
X186210000Y-97725000D02*
X186210000Y-97250000D01*
X186210000Y-95365800D02*
X185977700Y-95133500D01*
X186210000Y-97250000D02*
X186210000Y-95365800D01*
X202812500Y-90786200D02*
X202812500Y-87000000D01*
X195197000Y-98401700D02*
X202812500Y-90786200D01*
X186250000Y-98401700D02*
X195197000Y-98401700D01*
X182505500Y-94243300D02*
X181827800Y-94243300D01*
X181827800Y-94243300D02*
X182505500Y-94243300D01*
X185977700Y-95133500D02*
X185735600Y-94891400D01*
X185735600Y-94891400D02*
X185977700Y-95133500D01*
%TO.N,/RE_CLK*%
X135530600Y-98492300D02*
X134390000Y-97351700D01*
X135530600Y-116030600D02*
X135530600Y-98492300D01*
X139250000Y-119750000D02*
X135530600Y-116030600D01*
X134390000Y-96250000D02*
X134390000Y-97351700D01*
%TO.N,/M1B*%
X145988300Y-96478300D02*
X145988300Y-96250000D01*
X145113300Y-97353300D02*
X145988300Y-96478300D01*
X144086300Y-97353300D02*
X145113300Y-97353300D01*
X143440200Y-96707200D02*
X144086300Y-97353300D01*
X143440200Y-95195700D02*
X143440200Y-96707200D01*
X147120600Y-91515300D02*
X143440200Y-95195700D01*
X147120600Y-84580600D02*
X147120600Y-91515300D01*
X140920000Y-78380000D02*
X147120600Y-84580600D01*
X147090000Y-96250000D02*
X145988300Y-96250000D01*
%TO.N,/S3*%
X159098300Y-117098300D02*
X159098300Y-118250000D01*
X155951900Y-113951900D02*
X159098300Y-117098300D01*
X155951900Y-99568600D02*
X155951900Y-113951900D01*
X160250000Y-118250000D02*
X159098300Y-118250000D01*
%TO.N,/S1*%
X149630000Y-96250000D02*
X149630000Y-97351700D01*
X149751000Y-97351700D02*
X149630000Y-97351700D01*
X150979200Y-98579900D02*
X149751000Y-97351700D01*
X150979200Y-113979200D02*
X150979200Y-98579900D01*
X155250000Y-118250000D02*
X150979200Y-113979200D01*
%TO.N,GND*%
X198925000Y-87762500D02*
X199687500Y-87000000D01*
X197750000Y-87762500D02*
X198925000Y-87762500D01*
X196987500Y-87000000D02*
X197750000Y-87762500D01*
X197750000Y-91500000D02*
X197750000Y-87762500D01*
X157311700Y-95148300D02*
X157250000Y-95148300D01*
X160210000Y-92250000D02*
X157311700Y-95148300D01*
X157250000Y-96250000D02*
X157250000Y-95148300D01*
X165829500Y-87029300D02*
X165829500Y-92250000D01*
X165858800Y-87000000D02*
X165829500Y-87029300D01*
X200730000Y-85957500D02*
X199687500Y-87000000D01*
X200730000Y-77884700D02*
X200730000Y-85957500D01*
X201544300Y-77070400D02*
X200730000Y-77884700D01*
X203360400Y-77070400D02*
X201544300Y-77070400D01*
X204540000Y-78250000D02*
X203360400Y-77070400D01*
X164565300Y-90985800D02*
X165829500Y-92250000D01*
X160262500Y-90985800D02*
X164565300Y-90985800D01*
X160262500Y-87000000D02*
X160262500Y-90985800D01*
X160262500Y-92197500D02*
X160210000Y-92250000D01*
X160262500Y-90985800D02*
X160262500Y-92197500D01*
X160975000Y-109033300D02*
X162330000Y-110388300D01*
X160975000Y-93015000D02*
X160975000Y-109033300D01*
X160210000Y-92250000D02*
X160975000Y-93015000D01*
X177051000Y-92250000D02*
X175812500Y-92250000D01*
X175812500Y-92250000D02*
X174574000Y-92250000D01*
X181343200Y-97250000D02*
X183670000Y-97250000D01*
X177612200Y-93519000D02*
X181343200Y-97250000D01*
X177612200Y-93426200D02*
X177612200Y-93519000D01*
X176436000Y-92250000D02*
X177612200Y-93426200D01*
X175812500Y-92250000D02*
X176436000Y-92250000D01*
X162330000Y-110939100D02*
X162330000Y-110388300D01*
X162330000Y-110939100D02*
X162330000Y-111490000D01*
X163926700Y-119573300D02*
X165250000Y-118250000D01*
X162300000Y-119573300D02*
X163926700Y-119573300D01*
X161590200Y-118863500D02*
X162300000Y-119573300D01*
X161590200Y-113331500D02*
X161590200Y-118863500D01*
X162330000Y-112591700D02*
X161590200Y-113331500D01*
X162330000Y-111490000D02*
X162330000Y-112591700D01*
X167074600Y-93495100D02*
X165829500Y-92250000D01*
X173328900Y-93495100D02*
X167074600Y-93495100D01*
X174574000Y-92250000D02*
X173328900Y-93495100D01*
X183670000Y-97250000D02*
X183670000Y-96098300D01*
X197395800Y-91500000D02*
X197750000Y-91500000D01*
X196646400Y-92249400D02*
X197395800Y-91500000D01*
X196646400Y-92664700D02*
X196646400Y-92249400D01*
X195911100Y-93400000D02*
X196646400Y-92664700D01*
X195475000Y-93400000D02*
X195911100Y-93400000D01*
X170349100Y-79178400D02*
X171497500Y-78030000D01*
X166249500Y-79178400D02*
X170349100Y-79178400D01*
X166249500Y-78365700D02*
X166249500Y-79178400D01*
X165883800Y-78000000D02*
X166249500Y-78365700D01*
X165477100Y-83411300D02*
X160262500Y-83411300D01*
X166249500Y-82638900D02*
X165477100Y-83411300D01*
X166249500Y-79178400D02*
X166249500Y-82638900D01*
X160262500Y-83411300D02*
X160262500Y-87000000D01*
X148540000Y-78380000D02*
X148540000Y-86000000D01*
X160262500Y-80550400D02*
X160262500Y-83411300D01*
X156947400Y-77235300D02*
X160262500Y-80550400D01*
X149684700Y-77235300D02*
X156947400Y-77235300D01*
X148540000Y-78380000D02*
X149684700Y-77235300D01*
X194897500Y-93975400D02*
X192759600Y-93975400D01*
X195472900Y-93400000D02*
X194897500Y-93975400D01*
X195475000Y-93400000D02*
X195472900Y-93400000D01*
X187518300Y-92250000D02*
X185687600Y-94080700D01*
X188187500Y-92250000D02*
X187518300Y-92250000D01*
X183670000Y-96098300D02*
X185687600Y-94080700D01*
X184027300Y-92420400D02*
X185687600Y-94080700D01*
X184027300Y-79302300D02*
X184027300Y-92420400D01*
X182740000Y-78015000D02*
X184027300Y-79302300D01*
X192759600Y-93975400D02*
X192895000Y-93975400D01*
X192895000Y-93975400D02*
X192759600Y-93975400D01*
%TD*%
%TA.AperFunction,Conductor*%
%TO.N,GND*%
G36*
X162580000Y-112766606D02*
G01*
X162634421Y-112757988D01*
X162829031Y-112694754D01*
X163011349Y-112601859D01*
X163176894Y-112481582D01*
X163176895Y-112481582D01*
X163321582Y-112336895D01*
X163321582Y-112336894D01*
X163441861Y-112171347D01*
X163489234Y-112078371D01*
X163537208Y-112027575D01*
X163605028Y-112010779D01*
X163671164Y-112033316D01*
X163710203Y-112078369D01*
X163757713Y-112171611D01*
X163878028Y-112337213D01*
X163988958Y-112448143D01*
X164022443Y-112509466D01*
X164017459Y-112579158D01*
X163988958Y-112623505D01*
X163532986Y-113079478D01*
X163421181Y-113191282D01*
X163421179Y-113191285D01*
X163414533Y-113202797D01*
X163384212Y-113255315D01*
X163342123Y-113328215D01*
X163301199Y-113480943D01*
X163301199Y-113480945D01*
X163301199Y-113649046D01*
X163301200Y-113649059D01*
X163301200Y-116713424D01*
X163281515Y-116780463D01*
X163228711Y-116826218D01*
X163159553Y-116836162D01*
X163138884Y-116831356D01*
X163103199Y-116819762D01*
X163066243Y-116807754D01*
X163066239Y-116807753D01*
X163066238Y-116807753D01*
X162922581Y-116785000D01*
X162856287Y-116774500D01*
X162643713Y-116774500D01*
X162595042Y-116782208D01*
X162433760Y-116807753D01*
X162231585Y-116873444D01*
X162042179Y-116969951D01*
X161870213Y-117094890D01*
X161719894Y-117245209D01*
X161719890Y-117245214D01*
X161600318Y-117409793D01*
X161544989Y-117452459D01*
X161475375Y-117458438D01*
X161413580Y-117425833D01*
X161399682Y-117409793D01*
X161280109Y-117245214D01*
X161280105Y-117245209D01*
X161129786Y-117094890D01*
X160957820Y-116969951D01*
X160768414Y-116873444D01*
X160768413Y-116873443D01*
X160768412Y-116873443D01*
X160566243Y-116807754D01*
X160566241Y-116807753D01*
X160566240Y-116807753D01*
X160404957Y-116782208D01*
X160356287Y-116774500D01*
X160143713Y-116774500D01*
X160106064Y-116780463D01*
X159933759Y-116807753D01*
X159768386Y-116861486D01*
X159698545Y-116863481D01*
X159638712Y-116827400D01*
X159622684Y-116805559D01*
X159578820Y-116729584D01*
X156588719Y-113739483D01*
X156555234Y-113678160D01*
X156552400Y-113651802D01*
X156552400Y-112796489D01*
X156572085Y-112729450D01*
X156624889Y-112683695D01*
X156694047Y-112673751D01*
X156732696Y-112686005D01*
X156750781Y-112695220D01*
X156898531Y-112743227D01*
X156945465Y-112758477D01*
X157013533Y-112769258D01*
X157147648Y-112790500D01*
X157147649Y-112790500D01*
X157352351Y-112790500D01*
X157352352Y-112790500D01*
X157554534Y-112758477D01*
X157749219Y-112695220D01*
X157931610Y-112602287D01*
X158048901Y-112517071D01*
X158097213Y-112481971D01*
X158097215Y-112481968D01*
X158097219Y-112481966D01*
X158241966Y-112337219D01*
X158241968Y-112337215D01*
X158241971Y-112337213D01*
X158362284Y-112171614D01*
X158362286Y-112171611D01*
X158362287Y-112171610D01*
X158409516Y-112078917D01*
X158457489Y-112028123D01*
X158525310Y-112011328D01*
X158591445Y-112033865D01*
X158630485Y-112078919D01*
X158677715Y-112171614D01*
X158798028Y-112337213D01*
X158942786Y-112481971D01*
X159076555Y-112579158D01*
X159108390Y-112602287D01*
X159218643Y-112658464D01*
X159290776Y-112695218D01*
X159290778Y-112695218D01*
X159290781Y-112695220D01*
X159390627Y-112727662D01*
X159485465Y-112758477D01*
X159553533Y-112769258D01*
X159687648Y-112790500D01*
X159687649Y-112790500D01*
X159892351Y-112790500D01*
X159892352Y-112790500D01*
X160094534Y-112758477D01*
X160289219Y-112695220D01*
X160471610Y-112602287D01*
X160588901Y-112517071D01*
X160637213Y-112481971D01*
X160637215Y-112481968D01*
X160637219Y-112481966D01*
X160781966Y-112337219D01*
X160781968Y-112337215D01*
X160781971Y-112337213D01*
X160902284Y-112171614D01*
X160902286Y-112171611D01*
X160902287Y-112171610D01*
X160949795Y-112078369D01*
X160997770Y-112027574D01*
X161065591Y-112010779D01*
X161131725Y-112033316D01*
X161170765Y-112078370D01*
X161218140Y-112171349D01*
X161338417Y-112336894D01*
X161338417Y-112336895D01*
X161483104Y-112481582D01*
X161648650Y-112601859D01*
X161830968Y-112694754D01*
X162025578Y-112757988D01*
X162080000Y-112766607D01*
X162080000Y-111923012D01*
X162137007Y-111955925D01*
X162264174Y-111990000D01*
X162395826Y-111990000D01*
X162522993Y-111955925D01*
X162580000Y-111923012D01*
X162580000Y-112766606D01*
G37*
%TD.AperFunction*%
%TA.AperFunction,Conductor*%
G36*
X157500000Y-97526606D02*
G01*
X157554421Y-97517988D01*
X157749031Y-97454754D01*
X157931349Y-97361859D01*
X158096894Y-97241582D01*
X158096895Y-97241582D01*
X158241582Y-97096895D01*
X158241582Y-97096894D01*
X158361861Y-96931347D01*
X158409234Y-96838371D01*
X158457208Y-96787575D01*
X158525028Y-96770779D01*
X158591164Y-96793316D01*
X158630203Y-96838369D01*
X158677713Y-96931611D01*
X158798028Y-97097213D01*
X158942786Y-97241971D01*
X159097749Y-97354556D01*
X159108390Y-97362287D01*
X159189499Y-97403614D01*
X159290776Y-97455218D01*
X159290778Y-97455218D01*
X159290781Y-97455220D01*
X159382601Y-97485054D01*
X159485465Y-97518477D01*
X159586557Y-97534488D01*
X159687648Y-97550500D01*
X159687649Y-97550500D01*
X159892351Y-97550500D01*
X159892352Y-97550500D01*
X160094534Y-97518477D01*
X160289219Y-97455220D01*
X160471610Y-97362287D01*
X160610081Y-97261683D01*
X160637213Y-97241971D01*
X160637215Y-97241968D01*
X160637219Y-97241966D01*
X160781966Y-97097219D01*
X160781968Y-97097215D01*
X160781971Y-97097213D01*
X160902284Y-96931614D01*
X160902286Y-96931611D01*
X160902287Y-96931610D01*
X160949516Y-96838917D01*
X160997489Y-96788123D01*
X161065310Y-96771328D01*
X161131445Y-96793865D01*
X161170483Y-96838917D01*
X161185727Y-96868834D01*
X161217715Y-96931614D01*
X161338028Y-97097213D01*
X161482786Y-97241971D01*
X161637749Y-97354556D01*
X161648390Y-97362287D01*
X161729499Y-97403614D01*
X161830776Y-97455218D01*
X161830778Y-97455218D01*
X161830781Y-97455220D01*
X161922601Y-97485054D01*
X162025465Y-97518477D01*
X162126557Y-97534488D01*
X162227648Y-97550500D01*
X162227649Y-97550500D01*
X162432351Y-97550500D01*
X162432352Y-97550500D01*
X162634534Y-97518477D01*
X162829219Y-97455220D01*
X162987505Y-97374568D01*
X163056174Y-97361673D01*
X163120915Y-97387949D01*
X163161172Y-97445056D01*
X163167800Y-97485054D01*
X163167800Y-109199930D01*
X163167799Y-109199948D01*
X163167799Y-109365654D01*
X163167798Y-109365654D01*
X163208723Y-109518385D01*
X163237658Y-109568500D01*
X163237659Y-109568504D01*
X163237660Y-109568504D01*
X163280665Y-109642993D01*
X163287779Y-109655314D01*
X163287781Y-109655317D01*
X163406649Y-109774185D01*
X163406655Y-109774190D01*
X163988959Y-110356494D01*
X164022444Y-110417817D01*
X164017460Y-110487509D01*
X163988959Y-110531856D01*
X163878032Y-110642782D01*
X163878028Y-110642786D01*
X163757713Y-110808388D01*
X163710203Y-110901630D01*
X163662228Y-110952426D01*
X163594407Y-110969220D01*
X163528272Y-110946682D01*
X163489234Y-110901628D01*
X163441861Y-110808652D01*
X163321582Y-110643105D01*
X163321582Y-110643104D01*
X163176895Y-110498417D01*
X163011349Y-110378140D01*
X162829029Y-110285244D01*
X162634413Y-110222009D01*
X162580000Y-110213390D01*
X162580000Y-111056988D01*
X162522993Y-111024075D01*
X162395826Y-110990000D01*
X162264174Y-110990000D01*
X162137007Y-111024075D01*
X162080000Y-111056988D01*
X162080000Y-110213390D01*
X162025586Y-110222009D01*
X161830970Y-110285244D01*
X161648650Y-110378140D01*
X161483105Y-110498417D01*
X161483104Y-110498417D01*
X161338417Y-110643104D01*
X161338417Y-110643105D01*
X161218140Y-110808650D01*
X161170765Y-110901629D01*
X161122790Y-110952425D01*
X161054969Y-110969220D01*
X160988834Y-110946682D01*
X160949795Y-110901629D01*
X160938990Y-110880424D01*
X160902287Y-110808390D01*
X160894556Y-110797749D01*
X160781971Y-110642786D01*
X160637213Y-110498028D01*
X160471613Y-110377715D01*
X160471612Y-110377714D01*
X160471610Y-110377713D01*
X160409448Y-110346040D01*
X160289223Y-110284781D01*
X160094534Y-110221522D01*
X159919995Y-110193878D01*
X159892352Y-110189500D01*
X159687648Y-110189500D01*
X159663329Y-110193351D01*
X159485465Y-110221522D01*
X159290776Y-110284781D01*
X159108386Y-110377715D01*
X158942786Y-110498028D01*
X158798028Y-110642786D01*
X158677715Y-110808386D01*
X158630485Y-110901080D01*
X158582510Y-110951876D01*
X158514689Y-110968671D01*
X158448554Y-110946134D01*
X158409515Y-110901080D01*
X158408883Y-110899840D01*
X158362287Y-110808390D01*
X158354556Y-110797749D01*
X158241971Y-110642786D01*
X158097213Y-110498028D01*
X157931613Y-110377715D01*
X157931612Y-110377714D01*
X157931610Y-110377713D01*
X157869448Y-110346040D01*
X157749223Y-110284781D01*
X157554534Y-110221522D01*
X157379995Y-110193878D01*
X157352352Y-110189500D01*
X157147648Y-110189500D01*
X157123329Y-110193351D01*
X156945465Y-110221522D01*
X156750773Y-110284782D01*
X156732694Y-110293995D01*
X156664025Y-110306891D01*
X156599285Y-110280614D01*
X156559028Y-110223508D01*
X156552400Y-110183510D01*
X156552400Y-100148365D01*
X156572085Y-100081326D01*
X156573298Y-100079474D01*
X156661290Y-99947785D01*
X156661290Y-99947784D01*
X156661294Y-99947779D01*
X156721637Y-99802097D01*
X156752400Y-99647442D01*
X156752400Y-99489758D01*
X156752400Y-99489755D01*
X156752399Y-99489753D01*
X156748448Y-99469890D01*
X156721637Y-99335103D01*
X156690916Y-99260935D01*
X156661297Y-99189427D01*
X156661290Y-99189414D01*
X156573689Y-99058311D01*
X156573686Y-99058307D01*
X156462192Y-98946813D01*
X156462188Y-98946810D01*
X156331085Y-98859209D01*
X156331072Y-98859202D01*
X156185401Y-98798864D01*
X156185389Y-98798861D01*
X156030745Y-98768100D01*
X156030742Y-98768100D01*
X155873058Y-98768100D01*
X155873055Y-98768100D01*
X155718410Y-98798861D01*
X155718398Y-98798864D01*
X155572727Y-98859202D01*
X155572714Y-98859209D01*
X155441611Y-98946810D01*
X155441607Y-98946813D01*
X155330113Y-99058307D01*
X155330110Y-99058311D01*
X155242509Y-99189414D01*
X155242502Y-99189427D01*
X155182164Y-99335098D01*
X155182161Y-99335110D01*
X155151400Y-99489753D01*
X155151400Y-99647446D01*
X155182161Y-99802089D01*
X155182164Y-99802101D01*
X155242502Y-99947772D01*
X155242509Y-99947785D01*
X155330502Y-100079474D01*
X155351380Y-100146151D01*
X155351400Y-100148365D01*
X155351400Y-110160305D01*
X155331715Y-110227344D01*
X155278911Y-110273099D01*
X155209753Y-110283043D01*
X155189082Y-110278236D01*
X155014537Y-110221523D01*
X154843478Y-110194430D01*
X154812352Y-110189500D01*
X154607648Y-110189500D01*
X154583329Y-110193351D01*
X154405465Y-110221522D01*
X154210776Y-110284781D01*
X154028386Y-110377715D01*
X153862786Y-110498028D01*
X153718028Y-110642786D01*
X153597715Y-110808386D01*
X153550485Y-110901080D01*
X153502510Y-110951876D01*
X153434689Y-110968671D01*
X153368554Y-110946134D01*
X153329515Y-110901080D01*
X153328883Y-110899840D01*
X153282287Y-110808390D01*
X153274556Y-110797749D01*
X153161971Y-110642786D01*
X153017213Y-110498028D01*
X152851613Y-110377715D01*
X152851612Y-110377714D01*
X152851610Y-110377713D01*
X152789448Y-110346040D01*
X152669223Y-110284781D01*
X152474534Y-110221522D01*
X152299995Y-110193878D01*
X152272352Y-110189500D01*
X152067648Y-110189500D01*
X152036522Y-110194430D01*
X151865464Y-110221523D01*
X151865461Y-110221523D01*
X151742018Y-110261633D01*
X151672177Y-110263628D01*
X151612344Y-110227548D01*
X151581516Y-110164847D01*
X151579700Y-110143702D01*
X151579700Y-98500845D01*
X151579700Y-98500843D01*
X151554033Y-98405051D01*
X151538777Y-98348115D01*
X151502093Y-98284577D01*
X151459720Y-98211184D01*
X151347916Y-98099380D01*
X151347915Y-98099379D01*
X151343585Y-98095049D01*
X151343574Y-98095039D01*
X150571541Y-97323006D01*
X150538056Y-97261683D01*
X150543040Y-97191991D01*
X150571541Y-97147644D01*
X150575472Y-97143713D01*
X150621966Y-97097219D01*
X150621968Y-97097215D01*
X150621971Y-97097213D01*
X150742284Y-96931614D01*
X150742286Y-96931611D01*
X150742287Y-96931610D01*
X150789516Y-96838917D01*
X150837489Y-96788123D01*
X150905310Y-96771328D01*
X150971445Y-96793865D01*
X151010483Y-96838917D01*
X151025727Y-96868834D01*
X151057715Y-96931614D01*
X151178028Y-97097213D01*
X151322786Y-97241971D01*
X151477749Y-97354556D01*
X151488390Y-97362287D01*
X151569499Y-97403614D01*
X151670776Y-97455218D01*
X151670778Y-97455218D01*
X151670781Y-97455220D01*
X151762601Y-97485054D01*
X151865465Y-97518477D01*
X151966557Y-97534488D01*
X152067648Y-97550500D01*
X152067649Y-97550500D01*
X152272351Y-97550500D01*
X152272352Y-97550500D01*
X152474534Y-97518477D01*
X152669219Y-97455220D01*
X152851610Y-97362287D01*
X152990081Y-97261683D01*
X153017213Y-97241971D01*
X153017215Y-97241968D01*
X153017219Y-97241966D01*
X153161966Y-97097219D01*
X153161968Y-97097215D01*
X153161971Y-97097213D01*
X153282284Y-96931614D01*
X153282286Y-96931611D01*
X153282287Y-96931610D01*
X153329516Y-96838917D01*
X153377489Y-96788123D01*
X153445310Y-96771328D01*
X153511445Y-96793865D01*
X153550483Y-96838917D01*
X153565727Y-96868834D01*
X153597715Y-96931614D01*
X153718028Y-97097213D01*
X153862786Y-97241971D01*
X154017749Y-97354556D01*
X154028390Y-97362287D01*
X154109499Y-97403614D01*
X154210776Y-97455218D01*
X154210778Y-97455218D01*
X154210781Y-97455220D01*
X154302601Y-97485054D01*
X154405465Y-97518477D01*
X154506557Y-97534488D01*
X154607648Y-97550500D01*
X154607649Y-97550500D01*
X154812351Y-97550500D01*
X154812352Y-97550500D01*
X155014534Y-97518477D01*
X155209219Y-97455220D01*
X155391610Y-97362287D01*
X155530081Y-97261683D01*
X155557213Y-97241971D01*
X155557215Y-97241968D01*
X155557219Y-97241966D01*
X155701966Y-97097219D01*
X155701968Y-97097215D01*
X155701971Y-97097213D01*
X155822284Y-96931614D01*
X155822286Y-96931611D01*
X155822287Y-96931610D01*
X155869795Y-96838369D01*
X155917770Y-96787574D01*
X155985591Y-96770779D01*
X156051725Y-96793316D01*
X156090765Y-96838370D01*
X156138140Y-96931349D01*
X156258417Y-97096894D01*
X156258417Y-97096895D01*
X156403104Y-97241582D01*
X156568650Y-97361859D01*
X156750968Y-97454754D01*
X156945578Y-97517988D01*
X157000000Y-97526607D01*
X157000000Y-96683012D01*
X157057007Y-96715925D01*
X157184174Y-96750000D01*
X157315826Y-96750000D01*
X157442993Y-96715925D01*
X157500000Y-96683012D01*
X157500000Y-97526606D01*
G37*
%TD.AperFunction*%
%TA.AperFunction,Conductor*%
G36*
X145600000Y-86052661D02*
G01*
X145627259Y-86154394D01*
X145679920Y-86245606D01*
X145754394Y-86320080D01*
X145845606Y-86372741D01*
X145947339Y-86400000D01*
X145953552Y-86400000D01*
X145274076Y-87079474D01*
X145318650Y-87111859D01*
X145500968Y-87204755D01*
X145695582Y-87267990D01*
X145897683Y-87300000D01*
X146102317Y-87300000D01*
X146304417Y-87267990D01*
X146357781Y-87250651D01*
X146427622Y-87248656D01*
X146487455Y-87284736D01*
X146518284Y-87347437D01*
X146520100Y-87368582D01*
X146520100Y-91215202D01*
X146500415Y-91282241D01*
X146483781Y-91302883D01*
X142959681Y-94826982D01*
X142959681Y-94826983D01*
X142959680Y-94826984D01*
X142938606Y-94863485D01*
X142917236Y-94900500D01*
X142909560Y-94913795D01*
X142880623Y-94963915D01*
X142854875Y-95060004D01*
X142852518Y-95066127D01*
X142835114Y-95088870D01*
X142820209Y-95113324D01*
X142814150Y-95116266D01*
X142810058Y-95121615D01*
X142783121Y-95131339D01*
X142757362Y-95143852D01*
X142750675Y-95143052D01*
X142744339Y-95145340D01*
X142716416Y-95138956D01*
X142687987Y-95135557D01*
X142680505Y-95132054D01*
X142509223Y-95044782D01*
X142509222Y-95044781D01*
X142509219Y-95044780D01*
X142425180Y-95017474D01*
X142314534Y-94981522D01*
X142139995Y-94953878D01*
X142112352Y-94949500D01*
X141907648Y-94949500D01*
X141867184Y-94955909D01*
X141705464Y-94981523D01*
X141705461Y-94981523D01*
X141594818Y-95017474D01*
X141524977Y-95019469D01*
X141465144Y-94983389D01*
X141434316Y-94920688D01*
X141432500Y-94899543D01*
X141432500Y-93237797D01*
X141452185Y-93170758D01*
X141468819Y-93150116D01*
X141979019Y-92639916D01*
X142538020Y-92080916D01*
X142617077Y-91943984D01*
X142658001Y-91791257D01*
X142658001Y-91633142D01*
X142658001Y-91625547D01*
X142658000Y-91625529D01*
X142658000Y-87253295D01*
X142677685Y-87186256D01*
X142730489Y-87140501D01*
X142799647Y-87130557D01*
X142838294Y-87142809D01*
X142858563Y-87153137D01*
X142960776Y-87205218D01*
X142960778Y-87205218D01*
X142960781Y-87205220D01*
X143035818Y-87229601D01*
X143155465Y-87268477D01*
X143256557Y-87284488D01*
X143357648Y-87300500D01*
X143357649Y-87300500D01*
X143562351Y-87300500D01*
X143562352Y-87300500D01*
X143764534Y-87268477D01*
X143959219Y-87205220D01*
X144141610Y-87112287D01*
X144237201Y-87042837D01*
X144307213Y-86991971D01*
X144307215Y-86991968D01*
X144307219Y-86991966D01*
X144451966Y-86847219D01*
X144451968Y-86847215D01*
X144451971Y-86847213D01*
X144572286Y-86681611D01*
X144572415Y-86681359D01*
X144619795Y-86588369D01*
X144667769Y-86537573D01*
X144735590Y-86520778D01*
X144801725Y-86543315D01*
X144840765Y-86588369D01*
X144888141Y-86681350D01*
X144888147Y-86681359D01*
X144920523Y-86725921D01*
X144920524Y-86725922D01*
X145600000Y-86046446D01*
X145600000Y-86052661D01*
G37*
%TD.AperFunction*%
%TA.AperFunction,Conductor*%
G36*
X149619474Y-86725922D02*
G01*
X149619474Y-86725921D01*
X149651861Y-86681347D01*
X149651861Y-86681346D01*
X149699234Y-86588371D01*
X149747208Y-86537575D01*
X149815028Y-86520779D01*
X149881164Y-86543316D01*
X149920203Y-86588369D01*
X149967713Y-86681611D01*
X150088028Y-86847213D01*
X150232786Y-86991971D01*
X150343612Y-87072489D01*
X150398390Y-87112287D01*
X150505943Y-87167088D01*
X150580776Y-87205218D01*
X150580778Y-87205218D01*
X150580781Y-87205220D01*
X150655818Y-87229601D01*
X150775465Y-87268477D01*
X150876557Y-87284488D01*
X150977648Y-87300500D01*
X150977649Y-87300500D01*
X151170902Y-87300500D01*
X151237941Y-87320185D01*
X151283696Y-87372989D01*
X151293640Y-87442147D01*
X151264615Y-87505703D01*
X151258583Y-87512181D01*
X147932781Y-90837983D01*
X147871458Y-90871468D01*
X147801766Y-90866484D01*
X147745833Y-90824612D01*
X147721416Y-90759148D01*
X147721100Y-90750302D01*
X147721100Y-87244123D01*
X147740785Y-87177084D01*
X147793589Y-87131329D01*
X147862747Y-87121385D01*
X147901395Y-87133638D01*
X148040968Y-87204755D01*
X148235582Y-87267990D01*
X148437683Y-87300000D01*
X148642317Y-87300000D01*
X148844417Y-87267990D01*
X149039031Y-87204755D01*
X149221349Y-87111859D01*
X149265921Y-87079474D01*
X148586447Y-86400000D01*
X148592661Y-86400000D01*
X148694394Y-86372741D01*
X148785606Y-86320080D01*
X148860080Y-86245606D01*
X148912741Y-86154394D01*
X148940000Y-86052661D01*
X148940000Y-86046448D01*
X149619474Y-86725922D01*
G37*
%TD.AperFunction*%
%TA.AperFunction,Conductor*%
G36*
X141364842Y-79674077D02*
G01*
X146179084Y-84488319D01*
X146212569Y-84549642D01*
X146207585Y-84619334D01*
X146165713Y-84675267D01*
X146100249Y-84699684D01*
X146091403Y-84700000D01*
X145897683Y-84700000D01*
X145695582Y-84732009D01*
X145500968Y-84795244D01*
X145318644Y-84888143D01*
X145274077Y-84920523D01*
X145274077Y-84920524D01*
X145953553Y-85600000D01*
X145947339Y-85600000D01*
X145845606Y-85627259D01*
X145754394Y-85679920D01*
X145679920Y-85754394D01*
X145627259Y-85845606D01*
X145600000Y-85947339D01*
X145600000Y-85953553D01*
X144920524Y-85274077D01*
X144920523Y-85274077D01*
X144888143Y-85318644D01*
X144840765Y-85411630D01*
X144792790Y-85462426D01*
X144724969Y-85479221D01*
X144658834Y-85456683D01*
X144619795Y-85411630D01*
X144589647Y-85352461D01*
X144572287Y-85318390D01*
X144572285Y-85318387D01*
X144572284Y-85318385D01*
X144451971Y-85152786D01*
X144307213Y-85008028D01*
X144141613Y-84887715D01*
X144141612Y-84887714D01*
X144141610Y-84887713D01*
X144066788Y-84849589D01*
X143959223Y-84794781D01*
X143764534Y-84731522D01*
X143587114Y-84703422D01*
X143562352Y-84699500D01*
X143357648Y-84699500D01*
X143333329Y-84703351D01*
X143155465Y-84731522D01*
X142960773Y-84794782D01*
X142838294Y-84857189D01*
X142769625Y-84870085D01*
X142704885Y-84843808D01*
X142664628Y-84786702D01*
X142658000Y-84746704D01*
X142658000Y-81978445D01*
X142658000Y-81978443D01*
X142617077Y-81825716D01*
X142617073Y-81825709D01*
X142538024Y-81688790D01*
X142538021Y-81688786D01*
X142538020Y-81688784D01*
X142426216Y-81576980D01*
X142426215Y-81576979D01*
X142421885Y-81572649D01*
X142421874Y-81572639D01*
X140741416Y-79892181D01*
X140707931Y-79830858D01*
X140712915Y-79761166D01*
X140754787Y-79705233D01*
X140820251Y-79680816D01*
X140829097Y-79680500D01*
X141022351Y-79680500D01*
X141022352Y-79680500D01*
X141224534Y-79648477D01*
X141238842Y-79643827D01*
X141308682Y-79641831D01*
X141364842Y-79674077D01*
G37*
%TD.AperFunction*%
%TA.AperFunction,Conductor*%
G36*
X148140000Y-78432661D02*
G01*
X148167259Y-78534394D01*
X148219920Y-78625606D01*
X148294394Y-78700080D01*
X148385606Y-78752741D01*
X148487339Y-78780000D01*
X148493553Y-78780000D01*
X147814076Y-79459474D01*
X147858650Y-79491859D01*
X148040968Y-79584755D01*
X148235582Y-79647990D01*
X148437683Y-79680000D01*
X148642317Y-79680000D01*
X148844417Y-79647990D01*
X149039031Y-79584755D01*
X149221349Y-79491859D01*
X149265921Y-79459474D01*
X148586447Y-78780000D01*
X148592661Y-78780000D01*
X148694394Y-78752741D01*
X148785606Y-78700080D01*
X148860080Y-78625606D01*
X148912741Y-78534394D01*
X148940000Y-78432661D01*
X148940000Y-78426448D01*
X149619474Y-79105922D01*
X149619474Y-79105921D01*
X149651861Y-79061347D01*
X149651861Y-79061346D01*
X149699234Y-78968371D01*
X149747208Y-78917575D01*
X149815028Y-78900779D01*
X149881164Y-78923316D01*
X149920203Y-78968369D01*
X149967713Y-79061611D01*
X150088028Y-79227213D01*
X150232786Y-79371971D01*
X150353226Y-79459474D01*
X150398390Y-79492287D01*
X150491400Y-79539678D01*
X150580776Y-79585218D01*
X150580778Y-79585218D01*
X150580781Y-79585220D01*
X150662297Y-79611706D01*
X150775465Y-79648477D01*
X150876557Y-79664488D01*
X150977648Y-79680500D01*
X150977649Y-79680500D01*
X151182351Y-79680500D01*
X151182352Y-79680500D01*
X151384534Y-79648477D01*
X151579219Y-79585220D01*
X151761610Y-79492287D01*
X151868936Y-79414311D01*
X151927213Y-79371971D01*
X151927215Y-79371968D01*
X151927219Y-79371966D01*
X152071966Y-79227219D01*
X152071968Y-79227215D01*
X152071971Y-79227213D01*
X152192284Y-79061614D01*
X152192286Y-79061611D01*
X152192287Y-79061610D01*
X152239516Y-78968917D01*
X152287489Y-78918123D01*
X152355310Y-78901328D01*
X152421445Y-78923865D01*
X152460483Y-78968917D01*
X152467537Y-78982760D01*
X152507715Y-79061614D01*
X152628028Y-79227213D01*
X152772786Y-79371971D01*
X152893226Y-79459474D01*
X152938390Y-79492287D01*
X153031400Y-79539678D01*
X153120776Y-79585218D01*
X153120778Y-79585218D01*
X153120781Y-79585220D01*
X153202297Y-79611706D01*
X153315465Y-79648477D01*
X153416557Y-79664488D01*
X153517648Y-79680500D01*
X153517649Y-79680500D01*
X153722351Y-79680500D01*
X153722352Y-79680500D01*
X153924534Y-79648477D01*
X153938842Y-79643827D01*
X153954054Y-79643392D01*
X153968315Y-79638074D01*
X153988268Y-79642414D01*
X154008682Y-79641831D01*
X154022769Y-79649920D01*
X154036588Y-79652926D01*
X154064842Y-79674077D01*
X154145481Y-79754716D01*
X154178966Y-79816039D01*
X154181800Y-79842397D01*
X154181800Y-84644441D01*
X154162115Y-84711480D01*
X154109311Y-84757235D01*
X154040153Y-84767179D01*
X154019483Y-84762372D01*
X153924542Y-84731524D01*
X153924535Y-84731523D01*
X153823443Y-84715511D01*
X153722352Y-84699500D01*
X153517648Y-84699500D01*
X153493329Y-84703351D01*
X153315465Y-84731522D01*
X153120776Y-84794781D01*
X152938386Y-84887715D01*
X152772786Y-85008028D01*
X152628028Y-85152786D01*
X152507715Y-85318386D01*
X152460485Y-85411080D01*
X152412510Y-85461876D01*
X152344689Y-85478671D01*
X152278554Y-85456134D01*
X152239515Y-85411080D01*
X152225391Y-85383361D01*
X152192287Y-85318390D01*
X152160092Y-85274077D01*
X152071971Y-85152786D01*
X151927213Y-85008028D01*
X151761613Y-84887715D01*
X151761612Y-84887714D01*
X151761610Y-84887713D01*
X151686788Y-84849589D01*
X151579223Y-84794781D01*
X151384534Y-84731522D01*
X151207114Y-84703422D01*
X151182352Y-84699500D01*
X150977648Y-84699500D01*
X150953329Y-84703351D01*
X150775465Y-84731522D01*
X150580776Y-84794781D01*
X150398386Y-84887715D01*
X150232786Y-85008028D01*
X150088028Y-85152786D01*
X149967713Y-85318388D01*
X149920203Y-85411630D01*
X149872228Y-85462426D01*
X149804407Y-85479220D01*
X149738272Y-85456682D01*
X149699234Y-85411628D01*
X149651861Y-85318652D01*
X149619474Y-85274077D01*
X149619474Y-85274076D01*
X148940000Y-85953551D01*
X148940000Y-85947339D01*
X148912741Y-85845606D01*
X148860080Y-85754394D01*
X148785606Y-85679920D01*
X148694394Y-85627259D01*
X148592661Y-85600000D01*
X148586446Y-85600000D01*
X149265922Y-84920524D01*
X149265921Y-84920523D01*
X149221359Y-84888147D01*
X149221350Y-84888141D01*
X149039031Y-84795244D01*
X148844417Y-84732009D01*
X148642317Y-84700000D01*
X148437683Y-84700000D01*
X148235582Y-84732009D01*
X148040968Y-84795244D01*
X147901395Y-84866361D01*
X147898689Y-84866869D01*
X147896611Y-84868670D01*
X147864559Y-84873278D01*
X147832725Y-84879257D01*
X147830176Y-84878222D01*
X147827453Y-84878614D01*
X147797987Y-84865157D01*
X147767985Y-84852980D01*
X147766400Y-84850732D01*
X147763897Y-84849589D01*
X147746385Y-84822340D01*
X147727728Y-84795874D01*
X147727155Y-84792417D01*
X147726123Y-84790811D01*
X147721100Y-84755876D01*
X147721100Y-84669660D01*
X147721101Y-84669647D01*
X147721101Y-84501544D01*
X147721101Y-84501543D01*
X147680177Y-84348816D01*
X147638317Y-84276311D01*
X147601124Y-84211890D01*
X147601118Y-84211882D01*
X145520179Y-82130943D01*
X143281415Y-79892180D01*
X143247931Y-79830858D01*
X143252915Y-79761166D01*
X143294787Y-79705233D01*
X143360251Y-79680816D01*
X143369097Y-79680500D01*
X143562351Y-79680500D01*
X143562352Y-79680500D01*
X143764534Y-79648477D01*
X143959219Y-79585220D01*
X144141610Y-79492287D01*
X144248936Y-79414311D01*
X144307213Y-79371971D01*
X144307215Y-79371968D01*
X144307219Y-79371966D01*
X144451966Y-79227219D01*
X144451968Y-79227215D01*
X144451971Y-79227213D01*
X144563406Y-79073834D01*
X144572287Y-79061610D01*
X144619795Y-78968369D01*
X144667769Y-78917573D01*
X144735590Y-78900778D01*
X144801725Y-78923315D01*
X144840765Y-78968369D01*
X144888141Y-79061350D01*
X144888147Y-79061359D01*
X144920523Y-79105921D01*
X144920524Y-79105922D01*
X145600000Y-78426446D01*
X145600000Y-78432661D01*
X145627259Y-78534394D01*
X145679920Y-78625606D01*
X145754394Y-78700080D01*
X145845606Y-78752741D01*
X145947339Y-78780000D01*
X145953553Y-78780000D01*
X145274076Y-79459474D01*
X145318650Y-79491859D01*
X145500968Y-79584755D01*
X145695582Y-79647990D01*
X145897683Y-79680000D01*
X146102317Y-79680000D01*
X146304417Y-79647990D01*
X146499031Y-79584755D01*
X146681349Y-79491859D01*
X146725921Y-79459474D01*
X146046447Y-78780000D01*
X146052661Y-78780000D01*
X146154394Y-78752741D01*
X146245606Y-78700080D01*
X146320080Y-78625606D01*
X146372741Y-78534394D01*
X146400000Y-78432661D01*
X146400000Y-78426448D01*
X147079474Y-79105922D01*
X147079474Y-79105921D01*
X147111861Y-79061347D01*
X147111861Y-79061346D01*
X147159515Y-78967820D01*
X147207489Y-78917024D01*
X147275310Y-78900228D01*
X147341445Y-78922765D01*
X147380485Y-78967819D01*
X147428141Y-79061350D01*
X147428147Y-79061359D01*
X147460523Y-79105921D01*
X147460524Y-79105922D01*
X148140000Y-78426446D01*
X148140000Y-78432661D01*
G37*
%TD.AperFunction*%
%TA.AperFunction,Conductor*%
G36*
X192804301Y-92215100D02*
G01*
X192830661Y-92216986D01*
X192839714Y-92222804D01*
X192846754Y-92224336D01*
X192875008Y-92245487D01*
X192975007Y-92345486D01*
X192975011Y-92345489D01*
X193108387Y-92434609D01*
X193153192Y-92488221D01*
X193161899Y-92557546D01*
X193131744Y-92620574D01*
X193108388Y-92640813D01*
X193055707Y-92676013D01*
X192944213Y-92787507D01*
X192944210Y-92787511D01*
X192856609Y-92918614D01*
X192856602Y-92918627D01*
X192796264Y-93064298D01*
X192796261Y-93064310D01*
X192765500Y-93218953D01*
X192765500Y-93376646D01*
X192796261Y-93531289D01*
X192796264Y-93531301D01*
X192856602Y-93676972D01*
X192856609Y-93676985D01*
X192930459Y-93787509D01*
X192933496Y-93797209D01*
X192940151Y-93804889D01*
X192943759Y-93829988D01*
X192951337Y-93854187D01*
X192948648Y-93863986D01*
X192950095Y-93874047D01*
X192939560Y-93897115D01*
X192932852Y-93921567D01*
X192925292Y-93928357D01*
X192921070Y-93937603D01*
X192899735Y-93951313D01*
X192880873Y-93968257D01*
X192869276Y-93970888D01*
X192862292Y-93975377D01*
X192827357Y-93980400D01*
X192797897Y-93980400D01*
X192730858Y-93960715D01*
X192710216Y-93944081D01*
X192482719Y-93716584D01*
X192449234Y-93655261D01*
X192446400Y-93628903D01*
X192446400Y-93128934D01*
X192452694Y-93089930D01*
X192455110Y-93082639D01*
X192464999Y-93052797D01*
X192475500Y-92950009D01*
X192475499Y-92520995D01*
X192495183Y-92453957D01*
X192511813Y-92433320D01*
X192699648Y-92245485D01*
X192707591Y-92241148D01*
X192713017Y-92233901D01*
X192737776Y-92224666D01*
X192760969Y-92212002D01*
X192769998Y-92212647D01*
X192778481Y-92209484D01*
X192804301Y-92215100D01*
G37*
%TD.AperFunction*%
%TA.AperFunction,Conductor*%
G36*
X181460084Y-87701543D02*
G01*
X181490752Y-87704881D01*
X181494175Y-87707647D01*
X181498507Y-87708423D01*
X181521109Y-87729410D01*
X181545098Y-87748794D01*
X181547785Y-87754180D01*
X181549707Y-87755965D01*
X181560855Y-87780376D01*
X181615186Y-87944334D01*
X181615187Y-87944337D01*
X181707286Y-88093651D01*
X181707289Y-88093655D01*
X181831344Y-88217710D01*
X181831348Y-88217713D01*
X181980662Y-88309812D01*
X181980664Y-88309813D01*
X181980666Y-88309814D01*
X182147203Y-88364999D01*
X182249992Y-88375500D01*
X182249997Y-88375500D01*
X183275003Y-88375500D01*
X183275008Y-88375500D01*
X183377797Y-88364999D01*
X183544334Y-88309814D01*
X183693655Y-88217711D01*
X183758119Y-88153247D01*
X183819442Y-88119762D01*
X183889134Y-88124746D01*
X183945067Y-88166618D01*
X183969484Y-88232082D01*
X183969800Y-88240928D01*
X183969800Y-91023130D01*
X183969799Y-91023148D01*
X183969799Y-91188854D01*
X183969798Y-91188854D01*
X184010723Y-91341586D01*
X184010724Y-91341587D01*
X184036770Y-91386700D01*
X184089780Y-91478516D01*
X184089782Y-91478518D01*
X184208649Y-91597385D01*
X184208655Y-91597390D01*
X184523681Y-91912416D01*
X184557166Y-91973739D01*
X184560000Y-92000097D01*
X184560000Y-92473059D01*
X184540315Y-92540098D01*
X184487511Y-92585853D01*
X184418353Y-92595797D01*
X184354797Y-92566772D01*
X184348319Y-92560740D01*
X184337592Y-92550013D01*
X184337588Y-92550010D01*
X184206485Y-92462409D01*
X184206472Y-92462402D01*
X184060801Y-92402064D01*
X184060791Y-92402061D01*
X183905449Y-92371161D01*
X183888692Y-92362395D01*
X183870214Y-92358376D01*
X183845177Y-92339633D01*
X183843538Y-92338776D01*
X183841960Y-92337225D01*
X183797318Y-92292583D01*
X183763833Y-92231260D01*
X183760999Y-92204902D01*
X183760999Y-91574998D01*
X183760998Y-91574981D01*
X183750499Y-91472203D01*
X183750498Y-91472200D01*
X183742214Y-91447200D01*
X183695314Y-91305666D01*
X183603212Y-91156344D01*
X183479156Y-91032288D01*
X183383198Y-90973101D01*
X183329836Y-90940187D01*
X183329831Y-90940185D01*
X183284733Y-90925241D01*
X183163297Y-90885001D01*
X183163295Y-90885000D01*
X183060510Y-90874500D01*
X182160498Y-90874500D01*
X182160480Y-90874501D01*
X182057703Y-90885000D01*
X182057700Y-90885001D01*
X181891168Y-90940185D01*
X181891163Y-90940187D01*
X181741842Y-91032289D01*
X181617789Y-91156342D01*
X181525687Y-91305663D01*
X181525685Y-91305668D01*
X181498456Y-91387841D01*
X181458683Y-91445286D01*
X181394167Y-91472109D01*
X181325391Y-91459794D01*
X181274192Y-91412251D01*
X181263044Y-91387841D01*
X181247717Y-91341587D01*
X181235814Y-91305666D01*
X181143712Y-91156344D01*
X181019656Y-91032288D01*
X180923698Y-90973101D01*
X180870336Y-90940187D01*
X180870331Y-90940185D01*
X180825233Y-90925241D01*
X180703797Y-90885001D01*
X180703795Y-90885000D01*
X180601016Y-90874500D01*
X180601009Y-90874500D01*
X179916100Y-90874500D01*
X179849061Y-90854815D01*
X179803306Y-90802011D01*
X179792100Y-90750500D01*
X179792100Y-88499499D01*
X179811785Y-88432460D01*
X179864589Y-88386705D01*
X179916100Y-88375499D01*
X180636302Y-88375499D01*
X180636308Y-88375499D01*
X180739097Y-88364999D01*
X180905634Y-88309814D01*
X181054956Y-88217712D01*
X181179012Y-88093656D01*
X181271114Y-87944334D01*
X181325445Y-87780374D01*
X181342998Y-87755020D01*
X181358773Y-87728514D01*
X181362710Y-87726549D01*
X181365215Y-87722932D01*
X181393690Y-87711092D01*
X181421293Y-87697321D01*
X181425668Y-87697797D01*
X181429731Y-87696108D01*
X181460084Y-87701543D01*
G37*
%TD.AperFunction*%
%TA.AperFunction,Conductor*%
G36*
X200708219Y-79070564D02*
G01*
X200742577Y-79131402D01*
X200745800Y-79159489D01*
X200745800Y-85644964D01*
X200726115Y-85712003D01*
X200673311Y-85757758D01*
X200604153Y-85767702D01*
X200556703Y-85750503D01*
X200419124Y-85665643D01*
X200419119Y-85665641D01*
X200252697Y-85610494D01*
X200252690Y-85610493D01*
X200149986Y-85600000D01*
X199937500Y-85600000D01*
X199937500Y-88399999D01*
X200149972Y-88399999D01*
X200149986Y-88399998D01*
X200252697Y-88389505D01*
X200419119Y-88334358D01*
X200419130Y-88334353D01*
X200556703Y-88249497D01*
X200624095Y-88231056D01*
X200690759Y-88251978D01*
X200735528Y-88305620D01*
X200745800Y-88355035D01*
X200745800Y-90816302D01*
X200726115Y-90883341D01*
X200709481Y-90903983D01*
X199350580Y-92262883D01*
X199342634Y-92267221D01*
X199337209Y-92274469D01*
X199312449Y-92283703D01*
X199289257Y-92296368D01*
X199280227Y-92295722D01*
X199271745Y-92298886D01*
X199245924Y-92293269D01*
X199219565Y-92291384D01*
X199210511Y-92285565D01*
X199203472Y-92284034D01*
X199175218Y-92262883D01*
X199000690Y-92088355D01*
X199000687Y-92088351D01*
X199000687Y-92088352D01*
X198993620Y-92081285D01*
X198993620Y-92081284D01*
X198906350Y-91994014D01*
X198872866Y-91932690D01*
X198874956Y-91871738D01*
X198909599Y-91752494D01*
X198909600Y-91752488D01*
X198909795Y-91750001D01*
X198909795Y-91750000D01*
X198644315Y-91750000D01*
X198581194Y-91732732D01*
X198522896Y-91698255D01*
X198522893Y-91698254D01*
X198365073Y-91652402D01*
X198365067Y-91652401D01*
X198328201Y-91649500D01*
X198328194Y-91649500D01*
X197874000Y-91649500D01*
X197806961Y-91629815D01*
X197761206Y-91577011D01*
X197750000Y-91525500D01*
X197750000Y-91500000D01*
X197624000Y-91500000D01*
X197556961Y-91480315D01*
X197511206Y-91427511D01*
X197500000Y-91376000D01*
X197500000Y-91250000D01*
X198000000Y-91250000D01*
X198909795Y-91250000D01*
X198909795Y-91249998D01*
X198909600Y-91247513D01*
X198863781Y-91089801D01*
X198780185Y-90948447D01*
X198780178Y-90948438D01*
X198664061Y-90832321D01*
X198664052Y-90832314D01*
X198522696Y-90748717D01*
X198522693Y-90748716D01*
X198364995Y-90702900D01*
X198364989Y-90702899D01*
X198328149Y-90700000D01*
X198000000Y-90700000D01*
X198000000Y-91250000D01*
X197500000Y-91250000D01*
X197500000Y-90727095D01*
X197417614Y-90688055D01*
X197411514Y-90682616D01*
X197403675Y-90680315D01*
X197385819Y-90659708D01*
X197365462Y-90641559D01*
X197363270Y-90633685D01*
X197357920Y-90627511D01*
X197354039Y-90600521D01*
X197346726Y-90574248D01*
X197349138Y-90566440D01*
X197347976Y-90558353D01*
X197356153Y-90528547D01*
X197394737Y-90435397D01*
X197425500Y-90280742D01*
X197425500Y-90123058D01*
X197425500Y-90123055D01*
X197425499Y-90123053D01*
X197394737Y-89968403D01*
X197394735Y-89968398D01*
X197334397Y-89822727D01*
X197334390Y-89822714D01*
X197246789Y-89691611D01*
X197246786Y-89691607D01*
X197135292Y-89580113D01*
X197135288Y-89580110D01*
X197004185Y-89492509D01*
X197004172Y-89492502D01*
X196858501Y-89432164D01*
X196858489Y-89432161D01*
X196703845Y-89401400D01*
X196703842Y-89401400D01*
X196546158Y-89401400D01*
X196546155Y-89401400D01*
X196391510Y-89432161D01*
X196391507Y-89432162D01*
X196391506Y-89432162D01*
X196391503Y-89432163D01*
X196306591Y-89467334D01*
X196271952Y-89481682D01*
X196202482Y-89489150D01*
X196140003Y-89457874D01*
X196104351Y-89397785D01*
X196100500Y-89367120D01*
X196100500Y-88446158D01*
X196120185Y-88379119D01*
X196172989Y-88333364D01*
X196242147Y-88323420D01*
X196263504Y-88328452D01*
X196372303Y-88364505D01*
X196372310Y-88364506D01*
X196475014Y-88374999D01*
X196475027Y-88375000D01*
X196737500Y-88375000D01*
X197237500Y-88375000D01*
X197499973Y-88375000D01*
X197499985Y-88374999D01*
X197602689Y-88364506D01*
X197602696Y-88364505D01*
X197769118Y-88309358D01*
X197769123Y-88309356D01*
X197918344Y-88217315D01*
X198042315Y-88093344D01*
X198134356Y-87944123D01*
X198134358Y-87944118D01*
X198189505Y-87777696D01*
X198189506Y-87777689D01*
X198197445Y-87699986D01*
X198525001Y-87699986D01*
X198535494Y-87802697D01*
X198590641Y-87969119D01*
X198590643Y-87969124D01*
X198682684Y-88118345D01*
X198806654Y-88242315D01*
X198955875Y-88334356D01*
X198955880Y-88334358D01*
X199122302Y-88389505D01*
X199122309Y-88389506D01*
X199225019Y-88399999D01*
X199437499Y-88399999D01*
X199437500Y-88399998D01*
X199437500Y-87250000D01*
X198525001Y-87250000D01*
X198525001Y-87699986D01*
X198197445Y-87699986D01*
X198199999Y-87674985D01*
X198200000Y-87674972D01*
X198200000Y-87250000D01*
X197237500Y-87250000D01*
X197237500Y-88375000D01*
X196737500Y-88375000D01*
X196737500Y-86750000D01*
X197237500Y-86750000D01*
X198200000Y-86750000D01*
X198200000Y-86325027D01*
X198199999Y-86325012D01*
X198198411Y-86309466D01*
X198197445Y-86300013D01*
X198525000Y-86300013D01*
X198525000Y-86750000D01*
X199437500Y-86750000D01*
X199437500Y-85600000D01*
X199225029Y-85600000D01*
X199225012Y-85600001D01*
X199122302Y-85610494D01*
X198955880Y-85665641D01*
X198955875Y-85665643D01*
X198806654Y-85757684D01*
X198682684Y-85881654D01*
X198590643Y-86030875D01*
X198590641Y-86030880D01*
X198535494Y-86197302D01*
X198535493Y-86197309D01*
X198525000Y-86300013D01*
X198197445Y-86300013D01*
X198189506Y-86222310D01*
X198189505Y-86222303D01*
X198134358Y-86055881D01*
X198134356Y-86055876D01*
X198042315Y-85906655D01*
X197918344Y-85782684D01*
X197769123Y-85690643D01*
X197769118Y-85690641D01*
X197602696Y-85635494D01*
X197602689Y-85635493D01*
X197499985Y-85625000D01*
X197237500Y-85625000D01*
X197237500Y-86750000D01*
X196737500Y-86750000D01*
X196737500Y-85625000D01*
X196475014Y-85625000D01*
X196372310Y-85635493D01*
X196372300Y-85635495D01*
X196263503Y-85671547D01*
X196193675Y-85673949D01*
X196133633Y-85638217D01*
X196102441Y-85575696D01*
X196100500Y-85553841D01*
X196100500Y-82510096D01*
X196120185Y-82443057D01*
X196136814Y-82422420D01*
X198975478Y-79583755D01*
X199036799Y-79550272D01*
X199101473Y-79553506D01*
X199143757Y-79567246D01*
X199353713Y-79600500D01*
X199353714Y-79600500D01*
X199566286Y-79600500D01*
X199566287Y-79600500D01*
X199776243Y-79567246D01*
X199978412Y-79501557D01*
X200167816Y-79405051D01*
X200232516Y-79358044D01*
X200339786Y-79280109D01*
X200339788Y-79280106D01*
X200339792Y-79280104D01*
X200490104Y-79129792D01*
X200507447Y-79105922D01*
X200521481Y-79086605D01*
X200576810Y-79043938D01*
X200646424Y-79037958D01*
X200708219Y-79070564D01*
G37*
%TD.AperFunction*%
%TA.AperFunction,Conductor*%
G36*
X205655270Y-79011717D02*
G01*
X205655270Y-79011716D01*
X205694622Y-78957555D01*
X205699232Y-78948507D01*
X205747205Y-78897709D01*
X205815025Y-78880912D01*
X205881161Y-78903447D01*
X205920204Y-78948504D01*
X205924949Y-78957817D01*
X206049890Y-79129786D01*
X206200213Y-79280109D01*
X206372184Y-79405051D01*
X206372184Y-79405052D01*
X206411793Y-79425233D01*
X206462590Y-79473206D01*
X206479500Y-79535718D01*
X206479500Y-82432402D01*
X206459815Y-82499441D01*
X206443181Y-82520083D01*
X203397202Y-85566061D01*
X203335879Y-85599546D01*
X203296920Y-85601738D01*
X203275011Y-85599500D01*
X202349998Y-85599500D01*
X202349980Y-85599501D01*
X202247203Y-85610000D01*
X202247200Y-85610001D01*
X202109804Y-85655530D01*
X202039975Y-85657932D01*
X201979934Y-85622200D01*
X201948741Y-85559679D01*
X201946800Y-85537824D01*
X201946800Y-79724500D01*
X201966485Y-79657461D01*
X202019289Y-79611706D01*
X202070800Y-79600500D01*
X202106286Y-79600500D01*
X202106287Y-79600500D01*
X202316243Y-79567246D01*
X202518412Y-79501557D01*
X202707816Y-79405051D01*
X202772516Y-79358044D01*
X202879786Y-79280109D01*
X202879788Y-79280106D01*
X202879792Y-79280104D01*
X203030104Y-79129792D01*
X203030106Y-79129788D01*
X203030109Y-79129786D01*
X203115890Y-79011717D01*
X203155051Y-78957816D01*
X203159793Y-78948508D01*
X203207763Y-78897711D01*
X203275583Y-78880911D01*
X203341719Y-78903445D01*
X203380763Y-78948500D01*
X203385373Y-78957547D01*
X203424728Y-79011716D01*
X204057037Y-78379408D01*
X204074075Y-78442993D01*
X204139901Y-78557007D01*
X204232993Y-78650099D01*
X204347007Y-78715925D01*
X204410590Y-78732962D01*
X203778282Y-79365269D01*
X203778282Y-79365270D01*
X203832449Y-79404624D01*
X204021782Y-79501095D01*
X204223870Y-79566757D01*
X204433754Y-79600000D01*
X204646246Y-79600000D01*
X204856127Y-79566757D01*
X204856130Y-79566757D01*
X205058217Y-79501095D01*
X205247554Y-79404622D01*
X205301716Y-79365270D01*
X205301717Y-79365270D01*
X204669408Y-78732962D01*
X204732993Y-78715925D01*
X204847007Y-78650099D01*
X204940099Y-78557007D01*
X205005925Y-78442993D01*
X205022962Y-78379408D01*
X205655270Y-79011717D01*
G37*
%TD.AperFunction*%
%TA.AperFunction,Conductor*%
G36*
X211503032Y-75000648D02*
G01*
X211836929Y-75017052D01*
X211849037Y-75018245D01*
X211952146Y-75033539D01*
X212176699Y-75066849D01*
X212188617Y-75069219D01*
X212509951Y-75149709D01*
X212521588Y-75153240D01*
X212592806Y-75178722D01*
X212833467Y-75264832D01*
X212844688Y-75269479D01*
X213144163Y-75411120D01*
X213154871Y-75416844D01*
X213438988Y-75587137D01*
X213449106Y-75593897D01*
X213715170Y-75791224D01*
X213724576Y-75798944D01*
X213970013Y-76021395D01*
X213978604Y-76029986D01*
X214117700Y-76183455D01*
X214201055Y-76275423D01*
X214208775Y-76284829D01*
X214406102Y-76550893D01*
X214412862Y-76561011D01*
X214445734Y-76615855D01*
X214554481Y-76797289D01*
X214583148Y-76845116D01*
X214588883Y-76855844D01*
X214725927Y-77145600D01*
X214730514Y-77155297D01*
X214735170Y-77166540D01*
X214846759Y-77478411D01*
X214850292Y-77490055D01*
X214930777Y-77811369D01*
X214933151Y-77823305D01*
X214981754Y-78150962D01*
X214982947Y-78163071D01*
X214999351Y-78496966D01*
X214999500Y-78503051D01*
X214999500Y-123596948D01*
X214999351Y-123603033D01*
X214982947Y-123936928D01*
X214981754Y-123949037D01*
X214933151Y-124276694D01*
X214930777Y-124288630D01*
X214850292Y-124609944D01*
X214846759Y-124621588D01*
X214735170Y-124933459D01*
X214730514Y-124944702D01*
X214588885Y-125244151D01*
X214583148Y-125254883D01*
X214412862Y-125538988D01*
X214406102Y-125549106D01*
X214208775Y-125815170D01*
X214201055Y-125824576D01*
X213978611Y-126070006D01*
X213970006Y-126078611D01*
X213724576Y-126301055D01*
X213715170Y-126308775D01*
X213449106Y-126506102D01*
X213438988Y-126512862D01*
X213154883Y-126683148D01*
X213144151Y-126688885D01*
X212844702Y-126830514D01*
X212833459Y-126835170D01*
X212521588Y-126946759D01*
X212509944Y-126950292D01*
X212188630Y-127030777D01*
X212176694Y-127033151D01*
X211849037Y-127081754D01*
X211836928Y-127082947D01*
X211521989Y-127098419D01*
X211503031Y-127099351D01*
X211496949Y-127099500D01*
X129503051Y-127099500D01*
X129496968Y-127099351D01*
X129476900Y-127098365D01*
X129163071Y-127082947D01*
X129150962Y-127081754D01*
X128823305Y-127033151D01*
X128811369Y-127030777D01*
X128490055Y-126950292D01*
X128478411Y-126946759D01*
X128166540Y-126835170D01*
X128155301Y-126830515D01*
X127855844Y-126688883D01*
X127845121Y-126683150D01*
X127561011Y-126512862D01*
X127550893Y-126506102D01*
X127284829Y-126308775D01*
X127275423Y-126301055D01*
X127236475Y-126265755D01*
X127029986Y-126078604D01*
X127021395Y-126070013D01*
X126798944Y-125824576D01*
X126791224Y-125815170D01*
X126593897Y-125549106D01*
X126587137Y-125538988D01*
X126416844Y-125254871D01*
X126411120Y-125244163D01*
X126269479Y-124944688D01*
X126264829Y-124933459D01*
X126153240Y-124621588D01*
X126149707Y-124609944D01*
X126140958Y-124575015D01*
X126069219Y-124288617D01*
X126066848Y-124276694D01*
X126018245Y-123949037D01*
X126017052Y-123936927D01*
X126000649Y-123603032D01*
X126000500Y-123596948D01*
X126000500Y-123459568D01*
X126999500Y-123459568D01*
X126999500Y-123740431D01*
X127030942Y-124019494D01*
X127030945Y-124019512D01*
X127093439Y-124293317D01*
X127093443Y-124293329D01*
X127186200Y-124558411D01*
X127308053Y-124811442D01*
X127308055Y-124811445D01*
X127457477Y-125049248D01*
X127464512Y-125058069D01*
X127621465Y-125254883D01*
X127632584Y-125268825D01*
X127831175Y-125467416D01*
X128050752Y-125642523D01*
X128288555Y-125791945D01*
X128541592Y-125913801D01*
X128740680Y-125983465D01*
X128806670Y-126006556D01*
X128806682Y-126006560D01*
X129080491Y-126069055D01*
X129080497Y-126069055D01*
X129080505Y-126069057D01*
X129266547Y-126090018D01*
X129359569Y-126100499D01*
X129359572Y-126100500D01*
X129359575Y-126100500D01*
X129640428Y-126100500D01*
X129640429Y-126100499D01*
X129783055Y-126084429D01*
X129919494Y-126069057D01*
X129919499Y-126069056D01*
X129919509Y-126069055D01*
X130193318Y-126006560D01*
X130458408Y-125913801D01*
X130711445Y-125791945D01*
X130949248Y-125642523D01*
X131168825Y-125467416D01*
X131367416Y-125268825D01*
X131542523Y-125049248D01*
X131691945Y-124811445D01*
X131813801Y-124558408D01*
X131906560Y-124293318D01*
X131969055Y-124019509D01*
X132000500Y-123740425D01*
X132000500Y-123459575D01*
X132000499Y-123459568D01*
X208999500Y-123459568D01*
X208999500Y-123740431D01*
X209030942Y-124019494D01*
X209030945Y-124019512D01*
X209093439Y-124293317D01*
X209093443Y-124293329D01*
X209186200Y-124558411D01*
X209308053Y-124811442D01*
X209308055Y-124811445D01*
X209457477Y-125049248D01*
X209464512Y-125058069D01*
X209621465Y-125254883D01*
X209632584Y-125268825D01*
X209831175Y-125467416D01*
X210050752Y-125642523D01*
X210288555Y-125791945D01*
X210541592Y-125913801D01*
X210740680Y-125983465D01*
X210806670Y-126006556D01*
X210806682Y-126006560D01*
X211080491Y-126069055D01*
X211080497Y-126069055D01*
X211080505Y-126069057D01*
X211266547Y-126090018D01*
X211359569Y-126100499D01*
X211359572Y-126100500D01*
X211359575Y-126100500D01*
X211640428Y-126100500D01*
X211640429Y-126100499D01*
X211783055Y-126084429D01*
X211919494Y-126069057D01*
X211919499Y-126069056D01*
X211919509Y-126069055D01*
X212193318Y-126006560D01*
X212458408Y-125913801D01*
X212711445Y-125791945D01*
X212949248Y-125642523D01*
X213168825Y-125467416D01*
X213367416Y-125268825D01*
X213542523Y-125049248D01*
X213691945Y-124811445D01*
X213813801Y-124558408D01*
X213906560Y-124293318D01*
X213969055Y-124019509D01*
X214000500Y-123740425D01*
X214000500Y-123459575D01*
X213969055Y-123180491D01*
X213906560Y-122906682D01*
X213813801Y-122641592D01*
X213691945Y-122388555D01*
X213542523Y-122150752D01*
X213367416Y-121931175D01*
X213168825Y-121732584D01*
X212949248Y-121557477D01*
X212711445Y-121408055D01*
X212711442Y-121408053D01*
X212458411Y-121286200D01*
X212193329Y-121193443D01*
X212193317Y-121193439D01*
X211919512Y-121130945D01*
X211919494Y-121130942D01*
X211640431Y-121099500D01*
X211640425Y-121099500D01*
X211359575Y-121099500D01*
X211359568Y-121099500D01*
X211080505Y-121130942D01*
X211080487Y-121130945D01*
X210806682Y-121193439D01*
X210806670Y-121193443D01*
X210541588Y-121286200D01*
X210288557Y-121408053D01*
X210050753Y-121557476D01*
X209831175Y-121732583D01*
X209632583Y-121931175D01*
X209457476Y-122150753D01*
X209308053Y-122388557D01*
X209186200Y-122641588D01*
X209093443Y-122906670D01*
X209093439Y-122906682D01*
X209030945Y-123180487D01*
X209030942Y-123180505D01*
X208999500Y-123459568D01*
X132000499Y-123459568D01*
X131969055Y-123180491D01*
X131906560Y-122906682D01*
X131813801Y-122641592D01*
X131691945Y-122388555D01*
X131542523Y-122150752D01*
X131367416Y-121931175D01*
X131168825Y-121732584D01*
X130949248Y-121557477D01*
X130711445Y-121408055D01*
X130711442Y-121408053D01*
X130458411Y-121286200D01*
X130193329Y-121193443D01*
X130193317Y-121193439D01*
X129919512Y-121130945D01*
X129919494Y-121130942D01*
X129640431Y-121099500D01*
X129640425Y-121099500D01*
X129359575Y-121099500D01*
X129359568Y-121099500D01*
X129080505Y-121130942D01*
X129080487Y-121130945D01*
X128806682Y-121193439D01*
X128806670Y-121193443D01*
X128541588Y-121286200D01*
X128288557Y-121408053D01*
X128050753Y-121557476D01*
X127831175Y-121732583D01*
X127632583Y-121931175D01*
X127457476Y-122150753D01*
X127308053Y-122388557D01*
X127186200Y-122641588D01*
X127093443Y-122906670D01*
X127093439Y-122906682D01*
X127030945Y-123180487D01*
X127030942Y-123180505D01*
X126999500Y-123459568D01*
X126000500Y-123459568D01*
X126000500Y-96147648D01*
X128009500Y-96147648D01*
X128009500Y-96352351D01*
X128041522Y-96554534D01*
X128104781Y-96749223D01*
X128197715Y-96931613D01*
X128318028Y-97097213D01*
X128462786Y-97241971D01*
X128628388Y-97362286D01*
X128651884Y-97374258D01*
X128675260Y-97396335D01*
X128699638Y-97417289D01*
X128701224Y-97420856D01*
X128702681Y-97422232D01*
X128714427Y-97449335D01*
X128714924Y-97451003D01*
X128750423Y-97583485D01*
X128751347Y-97585085D01*
X128758634Y-97597707D01*
X128758635Y-97597709D01*
X128829477Y-97720412D01*
X128829481Y-97720417D01*
X128948349Y-97839285D01*
X128948355Y-97839290D01*
X132483181Y-101374116D01*
X132516666Y-101435439D01*
X132519500Y-101461797D01*
X132519500Y-110169733D01*
X132499815Y-110236772D01*
X132447011Y-110282527D01*
X132377853Y-110292471D01*
X132353971Y-110285919D01*
X132353853Y-110286285D01*
X132154536Y-110221523D01*
X131983478Y-110194430D01*
X131952352Y-110189500D01*
X131747648Y-110189500D01*
X131723329Y-110193351D01*
X131545465Y-110221522D01*
X131350776Y-110284781D01*
X131168386Y-110377715D01*
X131002786Y-110498028D01*
X130858028Y-110642786D01*
X130737715Y-110808386D01*
X130690485Y-110901080D01*
X130642510Y-110951876D01*
X130574689Y-110968671D01*
X130508554Y-110946134D01*
X130469515Y-110901080D01*
X130468883Y-110899840D01*
X130422287Y-110808390D01*
X130414556Y-110797749D01*
X130301971Y-110642786D01*
X130157213Y-110498028D01*
X129991613Y-110377715D01*
X129991612Y-110377714D01*
X129991610Y-110377713D01*
X129929448Y-110346040D01*
X129809223Y-110284781D01*
X129614534Y-110221522D01*
X129439995Y-110193878D01*
X129412352Y-110189500D01*
X129207648Y-110189500D01*
X129183329Y-110193351D01*
X129005465Y-110221522D01*
X128810776Y-110284781D01*
X128628386Y-110377715D01*
X128462786Y-110498028D01*
X128318028Y-110642786D01*
X128197715Y-110808386D01*
X128104781Y-110990776D01*
X128041522Y-111185465D01*
X128009500Y-111387648D01*
X128009500Y-111592351D01*
X128041522Y-111794534D01*
X128104781Y-111989223D01*
X128197715Y-112171613D01*
X128318028Y-112337213D01*
X128462786Y-112481971D01*
X128596555Y-112579158D01*
X128628390Y-112602287D01*
X128738643Y-112658464D01*
X128810776Y-112695218D01*
X128810778Y-112695218D01*
X128810781Y-112695220D01*
X128910627Y-112727662D01*
X129005465Y-112758477D01*
X129073533Y-112769258D01*
X129207648Y-112790500D01*
X129207649Y-112790500D01*
X129412351Y-112790500D01*
X129412352Y-112790500D01*
X129614534Y-112758477D01*
X129809219Y-112695220D01*
X129991610Y-112602287D01*
X130108901Y-112517071D01*
X130157213Y-112481971D01*
X130157215Y-112481968D01*
X130157219Y-112481966D01*
X130301966Y-112337219D01*
X130301968Y-112337215D01*
X130301971Y-112337213D01*
X130422284Y-112171614D01*
X130422286Y-112171611D01*
X130422287Y-112171610D01*
X130469516Y-112078917D01*
X130517489Y-112028123D01*
X130585310Y-112011328D01*
X130651445Y-112033865D01*
X130690485Y-112078919D01*
X130737715Y-112171614D01*
X130858028Y-112337213D01*
X131002786Y-112481971D01*
X131136555Y-112579158D01*
X131168390Y-112602287D01*
X131278643Y-112658464D01*
X131350776Y-112695218D01*
X131350778Y-112695218D01*
X131350781Y-112695220D01*
X131450627Y-112727662D01*
X131545465Y-112758477D01*
X131613533Y-112769258D01*
X131747648Y-112790500D01*
X131747649Y-112790500D01*
X131952351Y-112790500D01*
X131952352Y-112790500D01*
X132154534Y-112758477D01*
X132349219Y-112695220D01*
X132349222Y-112695218D01*
X132353852Y-112693714D01*
X132354281Y-112695035D01*
X132417514Y-112688236D01*
X132479994Y-112719509D01*
X132515648Y-112779597D01*
X132519500Y-112810266D01*
X132519500Y-115677530D01*
X132519499Y-115677548D01*
X132519499Y-115843254D01*
X132519498Y-115843254D01*
X132560423Y-115995985D01*
X132589358Y-116046100D01*
X132589359Y-116046104D01*
X132589360Y-116046104D01*
X132639479Y-116132914D01*
X132639481Y-116132917D01*
X132758349Y-116251785D01*
X132758355Y-116251790D01*
X137938539Y-121431974D01*
X137938549Y-121431985D01*
X137942879Y-121436315D01*
X137942880Y-121436316D01*
X138054684Y-121548120D01*
X138141495Y-121598239D01*
X138141497Y-121598241D01*
X138191613Y-121627176D01*
X138191615Y-121627177D01*
X138344342Y-121668100D01*
X138344343Y-121668100D01*
X142125931Y-121668100D01*
X142125947Y-121668101D01*
X142133543Y-121668101D01*
X142291654Y-121668101D01*
X142291657Y-121668101D01*
X142444385Y-121627177D01*
X142494504Y-121598239D01*
X142581316Y-121548120D01*
X142693120Y-121436316D01*
X142693120Y-121436314D01*
X142703328Y-121426107D01*
X142703330Y-121426104D01*
X143210831Y-120918602D01*
X143272152Y-120885119D01*
X143341844Y-120890103D01*
X143371395Y-120905967D01*
X143388789Y-120918604D01*
X143542184Y-121030051D01*
X143731588Y-121126557D01*
X143933757Y-121192246D01*
X144143713Y-121225500D01*
X144143714Y-121225500D01*
X144356286Y-121225500D01*
X144356287Y-121225500D01*
X144566243Y-121192246D01*
X144768412Y-121126557D01*
X144957816Y-121030051D01*
X145111211Y-120918604D01*
X145129786Y-120905109D01*
X145129788Y-120905106D01*
X145129792Y-120905104D01*
X145280104Y-120754792D01*
X145399683Y-120590204D01*
X145455011Y-120547540D01*
X145524624Y-120541561D01*
X145586420Y-120574166D01*
X145600313Y-120590199D01*
X145719654Y-120754459D01*
X145719896Y-120754792D01*
X145870213Y-120905109D01*
X146042179Y-121030048D01*
X146042181Y-121030049D01*
X146042184Y-121030051D01*
X146231588Y-121126557D01*
X146433757Y-121192246D01*
X146643713Y-121225500D01*
X146643714Y-121225500D01*
X146856286Y-121225500D01*
X146856287Y-121225500D01*
X147066243Y-121192246D01*
X147268412Y-121126557D01*
X147457816Y-121030051D01*
X147611211Y-120918604D01*
X147629786Y-120905109D01*
X147629788Y-120905106D01*
X147629792Y-120905104D01*
X147780104Y-120754792D01*
X147899991Y-120589779D01*
X147955320Y-120547115D01*
X148024933Y-120541136D01*
X148086729Y-120573741D01*
X148100627Y-120589781D01*
X148220272Y-120754459D01*
X148220276Y-120754464D01*
X148370535Y-120904723D01*
X148370540Y-120904727D01*
X148542442Y-121029620D01*
X148731782Y-121126095D01*
X148933871Y-121191757D01*
X149000000Y-121202231D01*
X149000000Y-120154145D01*
X149066657Y-120192630D01*
X149187465Y-120225000D01*
X149312535Y-120225000D01*
X149433343Y-120192630D01*
X149500000Y-120154145D01*
X149500000Y-121202230D01*
X149566126Y-121191757D01*
X149566129Y-121191757D01*
X149768217Y-121126095D01*
X149957557Y-121029620D01*
X150129459Y-120904727D01*
X150129464Y-120904723D01*
X150279723Y-120754464D01*
X150279727Y-120754459D01*
X150404620Y-120582557D01*
X150501095Y-120393217D01*
X150566757Y-120191130D01*
X150566757Y-120191127D01*
X150597030Y-120000000D01*
X149654146Y-120000000D01*
X149692630Y-119933343D01*
X149725000Y-119812535D01*
X149725000Y-119687465D01*
X149692630Y-119566657D01*
X149654146Y-119500000D01*
X150597030Y-119500000D01*
X150566757Y-119308872D01*
X150566757Y-119308869D01*
X150501095Y-119106782D01*
X150404620Y-118917442D01*
X150279727Y-118745540D01*
X150279723Y-118745535D01*
X150129464Y-118595276D01*
X150129459Y-118595272D01*
X149957557Y-118470379D01*
X149768215Y-118373903D01*
X149566124Y-118308241D01*
X149500000Y-118297768D01*
X149500000Y-119345854D01*
X149433343Y-119307370D01*
X149312535Y-119275000D01*
X149187465Y-119275000D01*
X149066657Y-119307370D01*
X149000000Y-119345854D01*
X149000000Y-118297768D01*
X148999999Y-118297768D01*
X148933875Y-118308241D01*
X148731784Y-118373903D01*
X148542442Y-118470379D01*
X148370540Y-118595272D01*
X148370535Y-118595276D01*
X148220276Y-118745535D01*
X148220272Y-118745540D01*
X148100627Y-118910218D01*
X148045297Y-118952884D01*
X147975684Y-118958863D01*
X147913889Y-118926257D01*
X147899991Y-118910218D01*
X147780109Y-118745214D01*
X147780105Y-118745209D01*
X147629786Y-118594890D01*
X147457820Y-118469951D01*
X147268414Y-118373444D01*
X147268413Y-118373443D01*
X147268412Y-118373443D01*
X147066243Y-118307754D01*
X147066241Y-118307753D01*
X147066240Y-118307753D01*
X146904957Y-118282208D01*
X146856287Y-118274500D01*
X146643713Y-118274500D01*
X146595042Y-118282208D01*
X146433760Y-118307753D01*
X146231585Y-118373444D01*
X146168366Y-118405656D01*
X146042184Y-118469949D01*
X146042182Y-118469950D01*
X146042173Y-118469955D01*
X146041687Y-118470253D01*
X146041477Y-118470309D01*
X146037844Y-118472161D01*
X146037454Y-118471397D01*
X145974239Y-118488487D01*
X145907639Y-118467361D01*
X145889232Y-118452197D01*
X141468819Y-114031784D01*
X141435334Y-113970461D01*
X141432500Y-113944103D01*
X141432500Y-112840456D01*
X141452185Y-112773417D01*
X141504989Y-112727662D01*
X141574147Y-112717718D01*
X141594812Y-112722523D01*
X141663600Y-112744874D01*
X141705465Y-112758477D01*
X141773533Y-112769258D01*
X141907648Y-112790500D01*
X141907649Y-112790500D01*
X142112351Y-112790500D01*
X142112352Y-112790500D01*
X142314534Y-112758477D01*
X142509219Y-112695220D01*
X142691610Y-112602287D01*
X142808901Y-112517071D01*
X142857213Y-112481971D01*
X142857215Y-112481968D01*
X142857219Y-112481966D01*
X143001966Y-112337219D01*
X143001968Y-112337215D01*
X143001971Y-112337213D01*
X143122284Y-112171614D01*
X143122286Y-112171611D01*
X143122287Y-112171610D01*
X143169516Y-112078917D01*
X143217489Y-112028123D01*
X143285310Y-112011328D01*
X143351445Y-112033865D01*
X143390485Y-112078919D01*
X143437715Y-112171614D01*
X143558028Y-112337213D01*
X143702786Y-112481971D01*
X143836555Y-112579158D01*
X143868390Y-112602287D01*
X143978643Y-112658464D01*
X144050776Y-112695218D01*
X144050778Y-112695218D01*
X144050781Y-112695220D01*
X144150627Y-112727662D01*
X144245465Y-112758477D01*
X144313533Y-112769258D01*
X144447648Y-112790500D01*
X144447649Y-112790500D01*
X144652351Y-112790500D01*
X144652352Y-112790500D01*
X144854534Y-112758477D01*
X145049219Y-112695220D01*
X145231610Y-112602287D01*
X145348901Y-112517071D01*
X145397213Y-112481971D01*
X145397215Y-112481968D01*
X145397219Y-112481966D01*
X145541966Y-112337219D01*
X145541968Y-112337215D01*
X145541971Y-112337213D01*
X145662284Y-112171614D01*
X145662286Y-112171611D01*
X145662287Y-112171610D01*
X145709516Y-112078917D01*
X145757489Y-112028123D01*
X145825310Y-112011328D01*
X145891445Y-112033865D01*
X145930485Y-112078919D01*
X145977715Y-112171614D01*
X146098028Y-112337213D01*
X146242786Y-112481971D01*
X146376555Y-112579158D01*
X146408390Y-112602287D01*
X146518643Y-112658464D01*
X146590776Y-112695218D01*
X146590778Y-112695218D01*
X146590781Y-112695220D01*
X146690627Y-112727662D01*
X146785465Y-112758477D01*
X146853533Y-112769258D01*
X146987648Y-112790500D01*
X146987649Y-112790500D01*
X147192351Y-112790500D01*
X147192352Y-112790500D01*
X147394534Y-112758477D01*
X147589219Y-112695220D01*
X147589222Y-112695218D01*
X147593852Y-112693714D01*
X147594281Y-112695035D01*
X147657514Y-112688236D01*
X147719994Y-112719509D01*
X147755648Y-112779597D01*
X147759500Y-112810266D01*
X147759500Y-113400430D01*
X147759499Y-113400448D01*
X147759499Y-113566154D01*
X147759498Y-113566154D01*
X147759499Y-113566157D01*
X147800423Y-113718885D01*
X147800424Y-113718887D01*
X147800423Y-113718887D01*
X147809620Y-113734815D01*
X147809621Y-113734816D01*
X147879477Y-113855812D01*
X147879481Y-113855817D01*
X147998349Y-113974685D01*
X147998355Y-113974690D01*
X153944939Y-119921274D01*
X153944949Y-119921285D01*
X153949279Y-119925615D01*
X153949280Y-119925616D01*
X154061084Y-120037420D01*
X154061086Y-120037421D01*
X154061090Y-120037424D01*
X154198009Y-120116473D01*
X154198016Y-120116477D01*
X154309819Y-120146434D01*
X154350742Y-120157400D01*
X154350743Y-120157400D01*
X155972131Y-120157400D01*
X155972147Y-120157401D01*
X155979743Y-120157401D01*
X156137854Y-120157401D01*
X156137857Y-120157401D01*
X156290585Y-120116477D01*
X156340704Y-120087539D01*
X156427516Y-120037420D01*
X156539320Y-119925616D01*
X156539320Y-119925614D01*
X156549528Y-119915407D01*
X156549530Y-119915404D01*
X156907399Y-119557534D01*
X156968720Y-119524051D01*
X157038412Y-119529035D01*
X157051358Y-119534725D01*
X157231588Y-119626557D01*
X157433757Y-119692246D01*
X157643713Y-119725500D01*
X157643714Y-119725500D01*
X157856286Y-119725500D01*
X157856287Y-119725500D01*
X158066243Y-119692246D01*
X158268412Y-119626557D01*
X158457816Y-119530051D01*
X158499178Y-119500000D01*
X158629786Y-119405109D01*
X158629788Y-119405106D01*
X158629792Y-119405104D01*
X158780104Y-119254792D01*
X158899683Y-119090204D01*
X158955011Y-119047540D01*
X159024624Y-119041561D01*
X159086420Y-119074166D01*
X159100313Y-119090199D01*
X159189108Y-119212416D01*
X159219896Y-119254792D01*
X159370213Y-119405109D01*
X159542179Y-119530048D01*
X159542181Y-119530049D01*
X159542184Y-119530051D01*
X159731588Y-119626557D01*
X159933757Y-119692246D01*
X160143713Y-119725500D01*
X160143714Y-119725500D01*
X160356286Y-119725500D01*
X160356287Y-119725500D01*
X160566243Y-119692246D01*
X160768412Y-119626557D01*
X160957816Y-119530051D01*
X160999178Y-119500000D01*
X161129786Y-119405109D01*
X161129788Y-119405106D01*
X161129792Y-119405104D01*
X161280104Y-119254792D01*
X161399683Y-119090204D01*
X161455011Y-119047540D01*
X161524624Y-119041561D01*
X161586420Y-119074166D01*
X161600313Y-119090199D01*
X161689108Y-119212416D01*
X161719896Y-119254792D01*
X161870213Y-119405109D01*
X162042179Y-119530048D01*
X162042181Y-119530049D01*
X162042184Y-119530051D01*
X162231588Y-119626557D01*
X162433757Y-119692246D01*
X162643713Y-119725500D01*
X162643714Y-119725500D01*
X162856286Y-119725500D01*
X162856287Y-119725500D01*
X163066243Y-119692246D01*
X163268412Y-119626557D01*
X163457816Y-119530051D01*
X163499178Y-119500000D01*
X163629786Y-119405109D01*
X163629788Y-119405106D01*
X163629792Y-119405104D01*
X163780104Y-119254792D01*
X163899991Y-119089779D01*
X163955320Y-119047115D01*
X164024933Y-119041136D01*
X164086729Y-119073741D01*
X164100627Y-119089781D01*
X164220272Y-119254459D01*
X164220276Y-119254464D01*
X164370535Y-119404723D01*
X164370540Y-119404727D01*
X164542442Y-119529620D01*
X164731782Y-119626095D01*
X164933871Y-119691757D01*
X165000000Y-119702231D01*
X165000000Y-118654145D01*
X165066657Y-118692630D01*
X165187465Y-118725000D01*
X165312535Y-118725000D01*
X165433343Y-118692630D01*
X165500000Y-118654145D01*
X165500000Y-119702230D01*
X165566126Y-119691757D01*
X165566129Y-119691757D01*
X165768217Y-119626095D01*
X165957557Y-119529620D01*
X166129459Y-119404727D01*
X166129464Y-119404723D01*
X166279723Y-119254464D01*
X166279727Y-119254459D01*
X166404620Y-119082557D01*
X166501095Y-118893217D01*
X166566757Y-118691130D01*
X166566757Y-118691127D01*
X166597030Y-118500000D01*
X165654146Y-118500000D01*
X165692630Y-118433343D01*
X165725000Y-118312535D01*
X165725000Y-118187465D01*
X165692630Y-118066657D01*
X165654146Y-118000000D01*
X166597030Y-118000000D01*
X166566757Y-117808872D01*
X166566757Y-117808869D01*
X166501095Y-117606782D01*
X166404620Y-117417442D01*
X166279727Y-117245540D01*
X166279723Y-117245535D01*
X166129464Y-117095276D01*
X166129459Y-117095272D01*
X165957557Y-116970379D01*
X165768215Y-116873903D01*
X165566124Y-116808241D01*
X165500000Y-116797768D01*
X165500000Y-117845854D01*
X165433343Y-117807370D01*
X165312535Y-117775000D01*
X165187465Y-117775000D01*
X165066657Y-117807370D01*
X165000000Y-117845854D01*
X165000000Y-116797768D01*
X164999999Y-116797768D01*
X164933875Y-116808241D01*
X164731784Y-116873903D01*
X164682495Y-116899018D01*
X164613826Y-116911914D01*
X164549085Y-116885638D01*
X164508828Y-116828532D01*
X164502200Y-116788533D01*
X164502200Y-113860096D01*
X164521885Y-113793057D01*
X164538515Y-113772419D01*
X165238713Y-113072221D01*
X165238716Y-113072220D01*
X165350520Y-112960416D01*
X165400639Y-112873604D01*
X165429577Y-112823485D01*
X165466012Y-112687507D01*
X165467823Y-112682510D01*
X165485470Y-112658464D01*
X165500999Y-112632989D01*
X165507426Y-112628548D01*
X165509163Y-112626183D01*
X165512962Y-112624724D01*
X165528111Y-112614259D01*
X165551610Y-112602287D01*
X165618701Y-112553543D01*
X165717213Y-112481971D01*
X165717215Y-112481968D01*
X165717219Y-112481966D01*
X165861966Y-112337219D01*
X165861968Y-112337215D01*
X165861971Y-112337213D01*
X165914732Y-112264590D01*
X165982287Y-112171610D01*
X166075220Y-111989219D01*
X166138477Y-111794534D01*
X166170500Y-111592352D01*
X166170500Y-111387648D01*
X166169501Y-111381342D01*
X166138477Y-111185465D01*
X166107426Y-111089901D01*
X166075220Y-110990781D01*
X166075218Y-110990778D01*
X166075218Y-110990776D01*
X166029515Y-110901080D01*
X165982287Y-110808390D01*
X165974556Y-110797749D01*
X165861971Y-110642786D01*
X165717213Y-110498028D01*
X165551610Y-110377712D01*
X165551607Y-110377710D01*
X165528111Y-110365738D01*
X165507255Y-110346040D01*
X165484442Y-110328623D01*
X165480816Y-110321069D01*
X165477316Y-110317763D01*
X165467821Y-110297487D01*
X165466011Y-110292491D01*
X165429577Y-110156516D01*
X165429577Y-110156515D01*
X165400639Y-110106395D01*
X165350520Y-110019584D01*
X165238716Y-109907780D01*
X165238715Y-109907779D01*
X165234385Y-109903449D01*
X165234374Y-109903439D01*
X164405119Y-109074184D01*
X164371634Y-109012861D01*
X164368800Y-108986503D01*
X164368800Y-97674499D01*
X164388485Y-97607460D01*
X164441289Y-97561705D01*
X164492800Y-97550499D01*
X165717871Y-97550499D01*
X165717872Y-97550499D01*
X165777483Y-97544091D01*
X165912331Y-97493796D01*
X166027546Y-97407546D01*
X166113796Y-97292331D01*
X166164091Y-97157483D01*
X166170500Y-97097873D01*
X166170499Y-96219896D01*
X166170499Y-95402129D01*
X166170498Y-95402123D01*
X166167151Y-95370989D01*
X166164091Y-95342517D01*
X166152637Y-95311808D01*
X166113797Y-95207671D01*
X166113793Y-95207664D01*
X166027547Y-95092455D01*
X166027544Y-95092452D01*
X165912335Y-95006206D01*
X165912328Y-95006202D01*
X165777482Y-94955908D01*
X165777483Y-94955908D01*
X165717883Y-94949501D01*
X165717881Y-94949500D01*
X165717873Y-94949500D01*
X165717865Y-94949500D01*
X164492800Y-94949500D01*
X164425761Y-94929815D01*
X164380006Y-94877011D01*
X164368800Y-94825500D01*
X164368800Y-93357473D01*
X164371060Y-93347046D01*
X164370037Y-93340003D01*
X164376402Y-93322401D01*
X164379931Y-93306124D01*
X164383161Y-93299023D01*
X164432314Y-93219334D01*
X164466901Y-93114956D01*
X164469643Y-93108930D01*
X164488322Y-93087310D01*
X164504578Y-93063831D01*
X164510867Y-93061216D01*
X164515322Y-93056060D01*
X164542719Y-93047972D01*
X164569093Y-93037007D01*
X164575799Y-93038207D01*
X164582333Y-93036279D01*
X164609749Y-93044286D01*
X164637869Y-93049321D01*
X164642861Y-93053957D01*
X164649401Y-93055867D01*
X164668136Y-93077426D01*
X164689070Y-93096864D01*
X164693546Y-93106665D01*
X164695232Y-93108605D01*
X164695605Y-93111173D01*
X164700218Y-93121274D01*
X164732642Y-93219121D01*
X164732643Y-93219124D01*
X164824684Y-93368345D01*
X164948654Y-93492315D01*
X165097875Y-93584356D01*
X165097880Y-93584358D01*
X165264302Y-93639505D01*
X165264309Y-93639506D01*
X165367019Y-93649999D01*
X165579499Y-93649999D01*
X166079500Y-93649999D01*
X166291972Y-93649999D01*
X166291986Y-93649998D01*
X166394697Y-93639505D01*
X166561119Y-93584358D01*
X166561124Y-93584356D01*
X166710345Y-93492315D01*
X166834315Y-93368345D01*
X166926356Y-93219124D01*
X166926358Y-93219119D01*
X166981505Y-93052697D01*
X166981506Y-93052690D01*
X166991999Y-92949986D01*
X166992000Y-92949973D01*
X166992000Y-92500000D01*
X166079500Y-92500000D01*
X166079500Y-93649999D01*
X165579499Y-93649999D01*
X165579500Y-93649998D01*
X165579500Y-92000000D01*
X166079500Y-92000000D01*
X166991999Y-92000000D01*
X166991999Y-91550028D01*
X166991998Y-91550013D01*
X166981505Y-91447302D01*
X166926358Y-91280880D01*
X166926356Y-91280875D01*
X166834315Y-91131654D01*
X166710345Y-91007684D01*
X166561124Y-90915643D01*
X166561119Y-90915641D01*
X166394697Y-90860494D01*
X166394690Y-90860493D01*
X166291986Y-90850000D01*
X166079500Y-90850000D01*
X166079500Y-92000000D01*
X165579500Y-92000000D01*
X165579500Y-90850000D01*
X165367029Y-90850000D01*
X165367012Y-90850001D01*
X165264302Y-90860494D01*
X165097880Y-90915641D01*
X165097875Y-90915643D01*
X164948654Y-91007684D01*
X164824684Y-91131654D01*
X164732643Y-91280875D01*
X164732641Y-91280880D01*
X164700219Y-91378724D01*
X164660446Y-91436169D01*
X164595930Y-91462992D01*
X164527154Y-91450677D01*
X164475955Y-91403134D01*
X164464807Y-91378724D01*
X164464544Y-91377930D01*
X164432314Y-91280666D01*
X164340212Y-91131344D01*
X164216156Y-91007288D01*
X164066834Y-90915186D01*
X163900297Y-90860001D01*
X163900295Y-90860000D01*
X163797510Y-90849500D01*
X162872498Y-90849500D01*
X162872480Y-90849501D01*
X162769703Y-90860000D01*
X162769700Y-90860001D01*
X162603168Y-90915185D01*
X162603163Y-90915187D01*
X162453842Y-91007289D01*
X162329789Y-91131342D01*
X162237687Y-91280663D01*
X162237685Y-91280668D01*
X162229331Y-91305880D01*
X162182501Y-91447203D01*
X162182501Y-91447204D01*
X162182500Y-91447204D01*
X162172000Y-91549983D01*
X162172000Y-92950001D01*
X162172001Y-92950018D01*
X162182500Y-93052796D01*
X162182501Y-93052799D01*
X162229331Y-93194121D01*
X162237686Y-93219334D01*
X162329788Y-93368656D01*
X162453844Y-93492712D01*
X162603166Y-93584814D01*
X162769703Y-93639999D01*
X162872491Y-93650500D01*
X163043800Y-93650499D01*
X163110839Y-93670183D01*
X163156594Y-93722987D01*
X163167800Y-93774499D01*
X163167800Y-95014945D01*
X163148115Y-95081984D01*
X163095311Y-95127739D01*
X163026153Y-95137683D01*
X162987505Y-95125430D01*
X162829223Y-95044782D01*
X162829222Y-95044781D01*
X162829219Y-95044780D01*
X162745180Y-95017474D01*
X162634534Y-94981522D01*
X162459995Y-94953878D01*
X162432352Y-94949500D01*
X162227648Y-94949500D01*
X162207482Y-94952694D01*
X162025465Y-94981522D01*
X161830776Y-95044781D01*
X161648386Y-95137715D01*
X161482786Y-95258028D01*
X161338028Y-95402786D01*
X161217715Y-95568386D01*
X161170485Y-95661080D01*
X161122510Y-95711876D01*
X161054689Y-95728671D01*
X160988554Y-95706134D01*
X160949515Y-95661080D01*
X160939524Y-95641472D01*
X160902287Y-95568390D01*
X160892838Y-95555384D01*
X160781971Y-95402786D01*
X160637213Y-95258028D01*
X160471613Y-95137715D01*
X160471612Y-95137714D01*
X160471610Y-95137713D01*
X160395253Y-95098807D01*
X160289223Y-95044781D01*
X160094534Y-94981522D01*
X159919995Y-94953878D01*
X159892352Y-94949500D01*
X159687648Y-94949500D01*
X159667482Y-94952694D01*
X159485465Y-94981522D01*
X159290776Y-95044781D01*
X159108386Y-95137715D01*
X158942786Y-95258028D01*
X158798028Y-95402786D01*
X158677713Y-95568388D01*
X158630203Y-95661630D01*
X158582228Y-95712426D01*
X158514407Y-95729220D01*
X158448272Y-95706682D01*
X158409234Y-95661628D01*
X158361861Y-95568652D01*
X158241582Y-95403105D01*
X158241582Y-95403104D01*
X158096895Y-95258417D01*
X157931349Y-95138140D01*
X157749029Y-95045244D01*
X157554413Y-94982009D01*
X157500000Y-94973390D01*
X157500000Y-95816988D01*
X157442993Y-95784075D01*
X157315826Y-95750000D01*
X157184174Y-95750000D01*
X157057007Y-95784075D01*
X157000000Y-95816988D01*
X157000000Y-94973390D01*
X156945586Y-94982009D01*
X156750970Y-95045244D01*
X156568650Y-95138140D01*
X156403105Y-95258417D01*
X156403104Y-95258417D01*
X156258417Y-95403104D01*
X156258417Y-95403105D01*
X156138140Y-95568650D01*
X156090765Y-95661629D01*
X156042790Y-95712425D01*
X155974969Y-95729220D01*
X155908834Y-95706682D01*
X155869795Y-95661629D01*
X155858990Y-95640424D01*
X155822287Y-95568390D01*
X155812838Y-95555384D01*
X155701971Y-95402786D01*
X155557213Y-95258028D01*
X155391613Y-95137715D01*
X155391612Y-95137714D01*
X155391610Y-95137713D01*
X155315253Y-95098807D01*
X155209223Y-95044781D01*
X155014534Y-94981522D01*
X154839995Y-94953878D01*
X154812352Y-94949500D01*
X154607648Y-94949500D01*
X154587482Y-94952694D01*
X154405465Y-94981522D01*
X154210776Y-95044781D01*
X154028386Y-95137715D01*
X153862786Y-95258028D01*
X153718028Y-95402786D01*
X153597715Y-95568386D01*
X153550485Y-95661080D01*
X153502510Y-95711876D01*
X153434689Y-95728671D01*
X153368554Y-95706134D01*
X153329515Y-95661080D01*
X153319524Y-95641472D01*
X153282287Y-95568390D01*
X153272838Y-95555384D01*
X153161971Y-95402786D01*
X153051040Y-95291855D01*
X153017555Y-95230532D01*
X153022539Y-95160840D01*
X153051038Y-95116495D01*
X155140806Y-93026728D01*
X155140811Y-93026724D01*
X155151014Y-93016520D01*
X155151016Y-93016520D01*
X155217550Y-92949986D01*
X159047501Y-92949986D01*
X159057994Y-93052697D01*
X159113141Y-93219119D01*
X159113143Y-93219124D01*
X159205184Y-93368345D01*
X159329154Y-93492315D01*
X159478375Y-93584356D01*
X159478380Y-93584358D01*
X159644802Y-93639505D01*
X159644809Y-93639506D01*
X159747519Y-93649999D01*
X159959999Y-93649999D01*
X160460000Y-93649999D01*
X160672472Y-93649999D01*
X160672486Y-93649998D01*
X160775197Y-93639505D01*
X160941619Y-93584358D01*
X160941624Y-93584356D01*
X161090845Y-93492315D01*
X161214815Y-93368345D01*
X161306856Y-93219124D01*
X161306858Y-93219119D01*
X161362005Y-93052697D01*
X161362006Y-93052690D01*
X161372499Y-92949986D01*
X161372500Y-92949973D01*
X161372500Y-92500000D01*
X160460000Y-92500000D01*
X160460000Y-93649999D01*
X159959999Y-93649999D01*
X159960000Y-93649998D01*
X159960000Y-92500000D01*
X159047501Y-92500000D01*
X159047501Y-92949986D01*
X155217550Y-92949986D01*
X155262820Y-92904716D01*
X155327328Y-92792984D01*
X155341877Y-92767785D01*
X155382800Y-92615057D01*
X155382800Y-92456943D01*
X155382800Y-91550013D01*
X159047500Y-91550013D01*
X159047500Y-92000000D01*
X159960000Y-92000000D01*
X160460000Y-92000000D01*
X161372499Y-92000000D01*
X161372499Y-91550028D01*
X161372498Y-91550013D01*
X161362005Y-91447302D01*
X161306858Y-91280880D01*
X161306856Y-91280875D01*
X161214815Y-91131654D01*
X161090845Y-91007684D01*
X160941624Y-90915643D01*
X160941619Y-90915641D01*
X160775197Y-90860494D01*
X160775190Y-90860493D01*
X160672486Y-90850000D01*
X160460000Y-90850000D01*
X160460000Y-92000000D01*
X159960000Y-92000000D01*
X159960000Y-90850000D01*
X159747529Y-90850000D01*
X159747512Y-90850001D01*
X159644802Y-90860494D01*
X159478380Y-90915641D01*
X159478375Y-90915643D01*
X159329154Y-91007684D01*
X159205184Y-91131654D01*
X159113143Y-91280875D01*
X159113141Y-91280880D01*
X159057994Y-91447302D01*
X159057993Y-91447309D01*
X159047500Y-91550013D01*
X155382800Y-91550013D01*
X155382800Y-87674985D01*
X159050000Y-87674985D01*
X159060493Y-87777689D01*
X159060494Y-87777696D01*
X159115641Y-87944118D01*
X159115643Y-87944123D01*
X159207684Y-88093344D01*
X159331655Y-88217315D01*
X159480876Y-88309356D01*
X159480881Y-88309358D01*
X159647303Y-88364505D01*
X159647310Y-88364506D01*
X159750014Y-88374999D01*
X159750027Y-88375000D01*
X160012500Y-88375000D01*
X160512500Y-88375000D01*
X160774973Y-88375000D01*
X160774985Y-88374999D01*
X160877689Y-88364506D01*
X160877696Y-88364505D01*
X161044118Y-88309358D01*
X161044123Y-88309356D01*
X161193344Y-88217315D01*
X161317315Y-88093344D01*
X161409356Y-87944123D01*
X161409358Y-87944118D01*
X161464505Y-87777696D01*
X161464506Y-87777689D01*
X161474999Y-87674985D01*
X161475000Y-87674972D01*
X161475000Y-87250000D01*
X160512500Y-87250000D01*
X160512500Y-88375000D01*
X160012500Y-88375000D01*
X160012500Y-87250000D01*
X159050000Y-87250000D01*
X159050000Y-87674985D01*
X155382800Y-87674985D01*
X155382800Y-87265931D01*
X155402485Y-87198892D01*
X155455289Y-87153137D01*
X155524447Y-87143193D01*
X155563092Y-87155445D01*
X155585943Y-87167088D01*
X155660776Y-87205218D01*
X155660778Y-87205218D01*
X155660781Y-87205220D01*
X155735818Y-87229601D01*
X155855465Y-87268477D01*
X155956557Y-87284488D01*
X156057648Y-87300500D01*
X156057649Y-87300500D01*
X156262351Y-87300500D01*
X156262352Y-87300500D01*
X156464534Y-87268477D01*
X156659219Y-87205220D01*
X156841610Y-87112287D01*
X156852221Y-87104577D01*
X156860835Y-87098320D01*
X157007213Y-86991971D01*
X157007215Y-86991968D01*
X157007219Y-86991966D01*
X157151966Y-86847219D01*
X157151968Y-86847215D01*
X157151971Y-86847213D01*
X157233173Y-86735446D01*
X157272287Y-86681610D01*
X157365220Y-86499219D01*
X157421823Y-86325014D01*
X159050000Y-86325014D01*
X159050000Y-86750000D01*
X160012500Y-86750000D01*
X160512500Y-86750000D01*
X161475000Y-86750000D01*
X161475000Y-86325027D01*
X161474999Y-86325014D01*
X161464506Y-86222310D01*
X161464505Y-86222303D01*
X161409358Y-86055881D01*
X161409356Y-86055876D01*
X161317315Y-85906655D01*
X161193344Y-85782684D01*
X161044123Y-85690643D01*
X161044118Y-85690641D01*
X160877696Y-85635494D01*
X160877689Y-85635493D01*
X160774985Y-85625000D01*
X160512500Y-85625000D01*
X160512500Y-86750000D01*
X160012500Y-86750000D01*
X160012500Y-85625000D01*
X159750014Y-85625000D01*
X159647310Y-85635493D01*
X159647303Y-85635494D01*
X159480881Y-85690641D01*
X159480876Y-85690643D01*
X159331655Y-85782684D01*
X159207684Y-85906655D01*
X159115643Y-86055876D01*
X159115641Y-86055881D01*
X159060494Y-86222303D01*
X159060493Y-86222310D01*
X159050000Y-86325014D01*
X157421823Y-86325014D01*
X157428477Y-86304534D01*
X157429196Y-86299998D01*
X157455052Y-86136747D01*
X157460500Y-86102352D01*
X157460500Y-85897648D01*
X157452257Y-85845606D01*
X157428477Y-85695465D01*
X157389561Y-85575696D01*
X157365220Y-85500781D01*
X157365218Y-85500778D01*
X157365218Y-85500776D01*
X157305391Y-85383361D01*
X157272287Y-85318390D01*
X157240092Y-85274077D01*
X157151971Y-85152786D01*
X157007213Y-85008028D01*
X156841610Y-84887712D01*
X156828200Y-84880879D01*
X156777406Y-84832903D01*
X156760500Y-84770397D01*
X156760500Y-79792162D01*
X156780185Y-79725123D01*
X156832989Y-79679368D01*
X156858552Y-79670907D01*
X156862788Y-79669999D01*
X156862797Y-79669999D01*
X157029334Y-79614814D01*
X157178656Y-79522712D01*
X157302712Y-79398656D01*
X157394814Y-79249334D01*
X157449999Y-79082797D01*
X157460500Y-78980009D01*
X157460499Y-77779992D01*
X157459373Y-77768973D01*
X157449999Y-77677203D01*
X157449998Y-77677200D01*
X157439478Y-77645453D01*
X157394814Y-77510666D01*
X157391636Y-77505514D01*
X157303078Y-77361937D01*
X157303077Y-77361936D01*
X157302711Y-77361343D01*
X157241351Y-77299983D01*
X159047000Y-77299983D01*
X159047000Y-78700001D01*
X159047001Y-78700018D01*
X159057500Y-78802796D01*
X159057501Y-78802799D01*
X159112685Y-78969331D01*
X159112687Y-78969336D01*
X159120965Y-78982757D01*
X159204788Y-79118656D01*
X159328844Y-79242712D01*
X159478166Y-79334814D01*
X159644703Y-79389999D01*
X159747491Y-79400500D01*
X160672508Y-79400499D01*
X160694418Y-79398260D01*
X160763108Y-79411028D01*
X160794702Y-79433937D01*
X163211481Y-81850716D01*
X163244966Y-81912039D01*
X163247800Y-81938397D01*
X163247800Y-82020943D01*
X163247800Y-82179057D01*
X163279955Y-82299059D01*
X163288723Y-82331783D01*
X163288726Y-82331790D01*
X163367775Y-82468709D01*
X163367778Y-82468713D01*
X163367780Y-82468716D01*
X163479584Y-82580520D01*
X163479586Y-82580521D01*
X163479590Y-82580524D01*
X163616513Y-82659576D01*
X163616516Y-82659577D01*
X163657255Y-82670493D01*
X163716915Y-82706857D01*
X163743092Y-82751947D01*
X163748441Y-82768408D01*
X163844951Y-82957820D01*
X163969890Y-83129786D01*
X164120213Y-83280109D01*
X164292179Y-83405048D01*
X164292181Y-83405049D01*
X164292184Y-83405051D01*
X164481588Y-83501557D01*
X164683757Y-83567246D01*
X164893713Y-83600500D01*
X164893714Y-83600500D01*
X165106286Y-83600500D01*
X165106287Y-83600500D01*
X165316243Y-83567246D01*
X165518412Y-83501557D01*
X165707816Y-83405051D01*
X165879792Y-83280104D01*
X166018604Y-83141291D01*
X166079923Y-83107809D01*
X166149615Y-83112793D01*
X166205549Y-83154664D01*
X166211821Y-83163878D01*
X166215185Y-83169333D01*
X166215186Y-83169334D01*
X166307288Y-83318656D01*
X166431344Y-83442712D01*
X166580666Y-83534814D01*
X166747203Y-83589999D01*
X166849991Y-83600500D01*
X168150008Y-83600499D01*
X168252797Y-83589999D01*
X168419334Y-83534814D01*
X168568656Y-83442712D01*
X168692712Y-83318656D01*
X168784814Y-83169334D01*
X168839999Y-83002797D01*
X168850500Y-82900009D01*
X168850500Y-82824500D01*
X168870185Y-82757461D01*
X168922989Y-82711706D01*
X168974500Y-82700500D01*
X170315831Y-82700500D01*
X170315847Y-82700501D01*
X170323443Y-82700501D01*
X170481554Y-82700501D01*
X170481557Y-82700501D01*
X170634285Y-82659577D01*
X170684404Y-82630639D01*
X170771216Y-82580520D01*
X170883020Y-82468716D01*
X170883020Y-82468714D01*
X170893228Y-82458507D01*
X170893230Y-82458504D01*
X173909915Y-79441819D01*
X173971238Y-79408334D01*
X173997596Y-79405500D01*
X174537203Y-79405500D01*
X174604242Y-79425185D01*
X174649997Y-79477989D01*
X174659941Y-79547147D01*
X174630916Y-79610703D01*
X174624884Y-79617181D01*
X173994567Y-80247496D01*
X173968887Y-80267202D01*
X173881284Y-80317780D01*
X173881281Y-80317782D01*
X173769481Y-80429582D01*
X173769475Y-80429590D01*
X173690426Y-80566509D01*
X173690423Y-80566514D01*
X173657264Y-80690266D01*
X173620898Y-80749926D01*
X173593785Y-80768656D01*
X173542182Y-80794949D01*
X173370213Y-80919890D01*
X173219890Y-81070213D01*
X173094951Y-81242179D01*
X172998443Y-81431587D01*
X172993092Y-81448054D01*
X172953652Y-81505727D01*
X172924395Y-81523538D01*
X172916039Y-81527152D01*
X172866515Y-81540423D01*
X172816395Y-81569360D01*
X172810196Y-81572939D01*
X172729585Y-81619479D01*
X172729582Y-81619481D01*
X172617778Y-81731286D01*
X169591284Y-84757781D01*
X169529961Y-84791266D01*
X169503603Y-84794100D01*
X164763840Y-84794100D01*
X164722919Y-84805064D01*
X164722919Y-84805065D01*
X164689462Y-84814030D01*
X164611114Y-84835023D01*
X164611109Y-84835026D01*
X164474190Y-84914075D01*
X164474182Y-84914081D01*
X163800083Y-85588181D01*
X163773155Y-85602884D01*
X163747337Y-85619477D01*
X163741136Y-85620368D01*
X163738760Y-85621666D01*
X163712402Y-85624500D01*
X163509797Y-85624500D01*
X163442758Y-85604815D01*
X163422116Y-85588181D01*
X162605874Y-84771939D01*
X162572389Y-84710616D01*
X162571938Y-84708449D01*
X162541038Y-84553110D01*
X162541037Y-84553103D01*
X162519681Y-84501544D01*
X162480697Y-84407427D01*
X162480690Y-84407414D01*
X162393089Y-84276311D01*
X162393086Y-84276307D01*
X162281592Y-84164813D01*
X162281588Y-84164810D01*
X162150485Y-84077209D01*
X162150472Y-84077202D01*
X162004801Y-84016864D01*
X162004789Y-84016861D01*
X161850145Y-83986100D01*
X161850142Y-83986100D01*
X161692458Y-83986100D01*
X161692455Y-83986100D01*
X161537810Y-84016861D01*
X161537798Y-84016864D01*
X161392127Y-84077202D01*
X161392114Y-84077209D01*
X161261011Y-84164810D01*
X161261007Y-84164813D01*
X161149513Y-84276307D01*
X161149510Y-84276311D01*
X161061909Y-84407414D01*
X161061902Y-84407427D01*
X161001564Y-84553098D01*
X161001561Y-84553110D01*
X160970800Y-84707753D01*
X160970800Y-84865446D01*
X161001561Y-85020089D01*
X161001564Y-85020101D01*
X161061902Y-85165772D01*
X161061909Y-85165785D01*
X161149510Y-85296888D01*
X161149513Y-85296892D01*
X161261007Y-85408386D01*
X161261011Y-85408389D01*
X161392114Y-85495990D01*
X161392127Y-85495997D01*
X161477384Y-85531311D01*
X161537803Y-85556337D01*
X161586689Y-85566061D01*
X161693149Y-85587238D01*
X161755060Y-85619623D01*
X161756639Y-85621174D01*
X162061227Y-85925762D01*
X162094712Y-85987085D01*
X162091252Y-86052446D01*
X162035001Y-86222200D01*
X162035000Y-86222204D01*
X162024500Y-86324984D01*
X162024500Y-87675008D01*
X162035000Y-87777795D01*
X162035001Y-87777796D01*
X162090186Y-87944335D01*
X162090187Y-87944337D01*
X162182286Y-88093651D01*
X162182289Y-88093655D01*
X162306344Y-88217710D01*
X162306348Y-88217713D01*
X162455662Y-88309812D01*
X162455664Y-88309813D01*
X162455666Y-88309814D01*
X162622203Y-88364999D01*
X162724992Y-88375500D01*
X162724997Y-88375500D01*
X163750003Y-88375500D01*
X163750008Y-88375500D01*
X163852797Y-88364999D01*
X164019334Y-88309814D01*
X164168655Y-88217711D01*
X164292711Y-88093655D01*
X164384814Y-87944334D01*
X164439999Y-87777797D01*
X164450500Y-87675008D01*
X164450500Y-87674986D01*
X164708801Y-87674986D01*
X164719294Y-87777697D01*
X164774441Y-87944119D01*
X164774443Y-87944124D01*
X164866484Y-88093345D01*
X164990454Y-88217315D01*
X165139675Y-88309356D01*
X165139680Y-88309358D01*
X165306102Y-88364505D01*
X165306109Y-88364506D01*
X165408819Y-88374999D01*
X165608799Y-88374999D01*
X165608800Y-88374998D01*
X165608800Y-87250000D01*
X164708801Y-87250000D01*
X164708801Y-87674986D01*
X164450500Y-87674986D01*
X164450500Y-86687596D01*
X164470185Y-86620557D01*
X164486814Y-86599920D01*
X164497121Y-86589613D01*
X164558442Y-86556130D01*
X164628134Y-86561114D01*
X164684067Y-86602986D01*
X164708484Y-86668450D01*
X164708800Y-86677296D01*
X164708800Y-86750000D01*
X165734800Y-86750000D01*
X165801839Y-86769685D01*
X165847594Y-86822489D01*
X165858800Y-86874000D01*
X165858800Y-87000000D01*
X165984800Y-87000000D01*
X166051839Y-87019685D01*
X166097594Y-87072489D01*
X166108800Y-87124000D01*
X166108800Y-88374999D01*
X166308772Y-88374999D01*
X166308786Y-88374998D01*
X166411497Y-88364505D01*
X166577919Y-88309358D01*
X166577924Y-88309356D01*
X166727145Y-88217315D01*
X166851115Y-88093345D01*
X166943156Y-87944124D01*
X166943158Y-87944119D01*
X166946733Y-87933332D01*
X166986506Y-87875887D01*
X167051022Y-87849064D01*
X167119797Y-87861379D01*
X167152120Y-87884655D01*
X167822325Y-88554860D01*
X167855810Y-88616183D01*
X167856261Y-88618349D01*
X167887161Y-88773691D01*
X167887164Y-88773701D01*
X167947502Y-88919372D01*
X167947509Y-88919385D01*
X168035110Y-89050488D01*
X168035113Y-89050492D01*
X168146610Y-89161989D01*
X168182785Y-89186160D01*
X168277721Y-89249594D01*
X168277727Y-89249596D01*
X168283092Y-89252464D01*
X168282506Y-89253558D01*
X168331847Y-89293310D01*
X168353920Y-89359602D01*
X168354000Y-89364043D01*
X168354000Y-90782125D01*
X168334315Y-90849164D01*
X168281511Y-90894919D01*
X168269009Y-90899829D01*
X168239629Y-90909565D01*
X168222666Y-90915186D01*
X168222663Y-90915187D01*
X168073342Y-91007289D01*
X167949289Y-91131342D01*
X167857187Y-91280663D01*
X167857185Y-91280668D01*
X167848831Y-91305880D01*
X167802001Y-91447203D01*
X167802001Y-91447204D01*
X167802000Y-91447204D01*
X167791500Y-91549983D01*
X167791500Y-92950001D01*
X167791501Y-92950018D01*
X167802000Y-93052796D01*
X167802001Y-93052799D01*
X167848831Y-93194121D01*
X167857186Y-93219334D01*
X167949288Y-93368656D01*
X168073344Y-93492712D01*
X168222666Y-93584814D01*
X168389203Y-93639999D01*
X168491991Y-93650500D01*
X169417008Y-93650499D01*
X169417016Y-93650498D01*
X169417019Y-93650498D01*
X169473302Y-93644748D01*
X169519797Y-93639999D01*
X169686334Y-93584814D01*
X169835656Y-93492712D01*
X169959712Y-93368656D01*
X170051814Y-93219334D01*
X170084045Y-93122066D01*
X170123815Y-93064625D01*
X170188330Y-93037801D01*
X170257106Y-93050115D01*
X170308307Y-93097658D01*
X170319455Y-93122068D01*
X170351686Y-93219334D01*
X170443788Y-93368656D01*
X170567844Y-93492712D01*
X170717166Y-93584814D01*
X170883703Y-93639999D01*
X170986491Y-93650500D01*
X171911508Y-93650499D01*
X171911516Y-93650498D01*
X171911519Y-93650498D01*
X171967802Y-93644748D01*
X172014297Y-93639999D01*
X172180834Y-93584814D01*
X172330156Y-93492712D01*
X172454212Y-93368656D01*
X172546314Y-93219334D01*
X172601499Y-93052797D01*
X172612000Y-92950009D01*
X172612000Y-92949986D01*
X173411501Y-92949986D01*
X173421994Y-93052697D01*
X173477141Y-93219119D01*
X173477143Y-93219124D01*
X173569184Y-93368345D01*
X173693154Y-93492315D01*
X173842375Y-93584356D01*
X173842380Y-93584358D01*
X174008802Y-93639505D01*
X174008809Y-93639506D01*
X174111519Y-93649999D01*
X174323999Y-93649999D01*
X174824000Y-93649999D01*
X175036472Y-93649999D01*
X175036486Y-93649998D01*
X175139197Y-93639505D01*
X175305619Y-93584358D01*
X175305624Y-93584356D01*
X175454845Y-93492315D01*
X175578815Y-93368345D01*
X175670856Y-93219124D01*
X175670859Y-93219117D01*
X175705185Y-93115526D01*
X175744957Y-93058081D01*
X175809472Y-93031257D01*
X175878248Y-93043571D01*
X175929449Y-93091114D01*
X175940597Y-93115524D01*
X175966642Y-93194121D01*
X175966643Y-93194124D01*
X176058684Y-93343345D01*
X176182654Y-93467315D01*
X176331875Y-93559356D01*
X176331880Y-93559358D01*
X176498302Y-93614505D01*
X176498309Y-93614506D01*
X176601019Y-93624999D01*
X176800999Y-93624999D01*
X177301000Y-93624999D01*
X177500972Y-93624999D01*
X177500986Y-93624998D01*
X177603697Y-93614505D01*
X177770119Y-93559358D01*
X177770124Y-93559356D01*
X177919345Y-93467315D01*
X178043315Y-93343345D01*
X178135356Y-93194124D01*
X178135358Y-93194119D01*
X178190505Y-93027697D01*
X178190506Y-93027690D01*
X178200999Y-92924986D01*
X178201000Y-92924973D01*
X178201000Y-92500000D01*
X177301000Y-92500000D01*
X177301000Y-93624999D01*
X176800999Y-93624999D01*
X176801000Y-93624998D01*
X176801000Y-92500000D01*
X175896487Y-92500000D01*
X175845106Y-92528055D01*
X175775415Y-92523069D01*
X175739520Y-92500000D01*
X174824000Y-92500000D01*
X174824000Y-93649999D01*
X174323999Y-93649999D01*
X174324000Y-93649998D01*
X174324000Y-92500000D01*
X173411501Y-92500000D01*
X173411501Y-92949986D01*
X172612000Y-92949986D01*
X172611999Y-92245487D01*
X172611999Y-91550013D01*
X173411500Y-91550013D01*
X173411500Y-92000000D01*
X174324000Y-92000000D01*
X174824000Y-92000000D01*
X175741012Y-92000000D01*
X175792389Y-91971945D01*
X175862081Y-91976929D01*
X175897981Y-92000000D01*
X176801000Y-92000000D01*
X177301000Y-92000000D01*
X178200999Y-92000000D01*
X178200999Y-91575028D01*
X178200998Y-91575013D01*
X178190505Y-91472302D01*
X178135358Y-91305880D01*
X178135356Y-91305875D01*
X178043315Y-91156654D01*
X177919345Y-91032684D01*
X177770124Y-90940643D01*
X177770119Y-90940641D01*
X177603697Y-90885494D01*
X177603690Y-90885493D01*
X177500986Y-90875000D01*
X177301000Y-90875000D01*
X177301000Y-92000000D01*
X176801000Y-92000000D01*
X176801000Y-90875000D01*
X176601029Y-90875000D01*
X176601012Y-90875001D01*
X176498302Y-90885494D01*
X176331880Y-90940641D01*
X176331875Y-90940643D01*
X176182654Y-91032684D01*
X176058684Y-91156654D01*
X175966643Y-91305875D01*
X175966641Y-91305880D01*
X175940598Y-91384474D01*
X175900825Y-91441919D01*
X175836309Y-91468742D01*
X175767533Y-91456427D01*
X175716334Y-91408884D01*
X175705186Y-91384474D01*
X175670858Y-91280880D01*
X175670856Y-91280875D01*
X175578815Y-91131654D01*
X175454845Y-91007684D01*
X175305624Y-90915643D01*
X175305619Y-90915641D01*
X175139197Y-90860494D01*
X175139190Y-90860493D01*
X175036486Y-90850000D01*
X174824000Y-90850000D01*
X174824000Y-92000000D01*
X174324000Y-92000000D01*
X174324000Y-90850000D01*
X174111529Y-90850000D01*
X174111512Y-90850001D01*
X174008802Y-90860494D01*
X173842380Y-90915641D01*
X173842375Y-90915643D01*
X173693154Y-91007684D01*
X173569184Y-91131654D01*
X173477143Y-91280875D01*
X173477141Y-91280880D01*
X173421994Y-91447302D01*
X173421993Y-91447309D01*
X173411500Y-91550013D01*
X172611999Y-91550013D01*
X172611999Y-91549998D01*
X172611998Y-91549981D01*
X172601499Y-91447203D01*
X172601498Y-91447200D01*
X172581450Y-91386700D01*
X172546314Y-91280666D01*
X172454212Y-91131344D01*
X172330156Y-91007288D01*
X172180834Y-90915186D01*
X172134494Y-90899830D01*
X172077050Y-90860058D01*
X172050228Y-90795541D01*
X172049500Y-90782125D01*
X172049500Y-88446519D01*
X172069185Y-88379480D01*
X172121989Y-88333725D01*
X172134489Y-88328815D01*
X172191834Y-88309814D01*
X172341156Y-88217712D01*
X172465212Y-88093656D01*
X172557314Y-87944334D01*
X172612499Y-87777797D01*
X172623000Y-87675009D01*
X172622999Y-86324992D01*
X172622998Y-86324983D01*
X173422000Y-86324983D01*
X173422000Y-87675001D01*
X173422001Y-87675008D01*
X173432500Y-87777796D01*
X173432501Y-87777799D01*
X173487685Y-87944331D01*
X173487687Y-87944336D01*
X173503104Y-87969331D01*
X173579788Y-88093656D01*
X173703844Y-88217712D01*
X173853166Y-88309814D01*
X174019703Y-88364999D01*
X174122491Y-88375500D01*
X175022508Y-88375499D01*
X175022516Y-88375498D01*
X175022519Y-88375498D01*
X175088117Y-88368797D01*
X175125297Y-88364999D01*
X175291834Y-88309814D01*
X175441156Y-88217712D01*
X175565212Y-88093656D01*
X175657314Y-87944334D01*
X175711695Y-87780222D01*
X175751465Y-87722781D01*
X175815981Y-87695958D01*
X175884757Y-87708273D01*
X175935957Y-87755816D01*
X175947105Y-87780225D01*
X175978805Y-87875887D01*
X176001484Y-87944329D01*
X176001486Y-87944333D01*
X176001487Y-87944336D01*
X176016904Y-87969331D01*
X176093588Y-88093656D01*
X176217644Y-88217712D01*
X176366966Y-88309814D01*
X176533503Y-88364999D01*
X176636291Y-88375500D01*
X177536308Y-88375499D01*
X177536316Y-88375498D01*
X177536319Y-88375498D01*
X177601917Y-88368797D01*
X177639097Y-88364999D01*
X177805634Y-88309814D01*
X177954956Y-88217712D01*
X178079012Y-88093656D01*
X178171114Y-87944334D01*
X178226299Y-87777797D01*
X178236800Y-87675009D01*
X178236799Y-86324992D01*
X178234643Y-86303890D01*
X178226299Y-86222203D01*
X178226298Y-86222200D01*
X178205059Y-86158105D01*
X178171114Y-86055666D01*
X178079012Y-85906344D01*
X177954956Y-85782288D01*
X177829783Y-85705081D01*
X177805636Y-85690187D01*
X177805631Y-85690185D01*
X177774653Y-85679920D01*
X177639097Y-85635001D01*
X177639095Y-85635000D01*
X177536310Y-85624500D01*
X176636298Y-85624500D01*
X176636280Y-85624501D01*
X176533503Y-85635000D01*
X176533500Y-85635001D01*
X176366968Y-85690185D01*
X176366963Y-85690187D01*
X176217642Y-85782289D01*
X176093589Y-85906342D01*
X176001487Y-86055663D01*
X176001485Y-86055668D01*
X175947106Y-86219773D01*
X175907333Y-86277218D01*
X175842817Y-86304041D01*
X175774041Y-86291726D01*
X175722842Y-86244183D01*
X175711694Y-86219773D01*
X175688712Y-86150418D01*
X175657314Y-86055666D01*
X175565212Y-85906344D01*
X175441156Y-85782288D01*
X175315983Y-85705081D01*
X175291836Y-85690187D01*
X175291831Y-85690185D01*
X175260853Y-85679920D01*
X175125297Y-85635001D01*
X175125295Y-85635000D01*
X175022510Y-85624500D01*
X174122498Y-85624500D01*
X174122480Y-85624501D01*
X174019703Y-85635000D01*
X174019700Y-85635001D01*
X173853168Y-85690185D01*
X173853163Y-85690187D01*
X173703842Y-85782289D01*
X173579789Y-85906342D01*
X173487687Y-86055663D01*
X173487685Y-86055668D01*
X173476880Y-86088276D01*
X173432501Y-86222203D01*
X173432501Y-86222204D01*
X173432500Y-86222204D01*
X173422000Y-86324983D01*
X172622998Y-86324983D01*
X172620843Y-86303890D01*
X172612499Y-86222203D01*
X172612498Y-86222200D01*
X172591259Y-86158105D01*
X172557314Y-86055666D01*
X172465212Y-85906344D01*
X172341156Y-85782288D01*
X172215983Y-85705081D01*
X172191836Y-85690187D01*
X172191831Y-85690185D01*
X172160853Y-85679920D01*
X172025297Y-85635001D01*
X172025295Y-85635000D01*
X171922510Y-85624500D01*
X171022498Y-85624500D01*
X171022480Y-85624501D01*
X170919703Y-85635000D01*
X170919700Y-85635001D01*
X170753168Y-85690185D01*
X170753159Y-85690189D01*
X170623152Y-85770378D01*
X170555760Y-85788818D01*
X170489096Y-85767895D01*
X170444327Y-85714253D01*
X170435666Y-85644922D01*
X170465863Y-85581915D01*
X170470356Y-85577177D01*
X172990087Y-83057446D01*
X173051408Y-83023963D01*
X173121100Y-83028947D01*
X173177033Y-83070819D01*
X173178084Y-83072244D01*
X173219890Y-83129785D01*
X173219894Y-83129790D01*
X173370213Y-83280109D01*
X173542179Y-83405048D01*
X173542181Y-83405049D01*
X173542184Y-83405051D01*
X173731588Y-83501557D01*
X173933757Y-83567246D01*
X174143713Y-83600500D01*
X174143714Y-83600500D01*
X174356286Y-83600500D01*
X174356287Y-83600500D01*
X174566243Y-83567246D01*
X174768412Y-83501557D01*
X174957816Y-83405051D01*
X175129792Y-83280104D01*
X175268604Y-83141291D01*
X175329923Y-83107809D01*
X175399615Y-83112793D01*
X175455549Y-83154664D01*
X175461821Y-83163878D01*
X175465185Y-83169333D01*
X175465186Y-83169334D01*
X175557288Y-83318656D01*
X175681344Y-83442712D01*
X175830666Y-83534814D01*
X175997203Y-83589999D01*
X176099991Y-83600500D01*
X177400008Y-83600499D01*
X177502797Y-83589999D01*
X177669334Y-83534814D01*
X177818656Y-83442712D01*
X177942712Y-83318656D01*
X178034814Y-83169334D01*
X178089999Y-83002797D01*
X178100500Y-82900009D01*
X178100499Y-81299992D01*
X178089999Y-81197203D01*
X178061980Y-81112650D01*
X178058885Y-81103308D01*
X178056483Y-81033479D01*
X178088908Y-80976625D01*
X179606597Y-79458936D01*
X179667918Y-79425453D01*
X179706876Y-79423261D01*
X179728791Y-79425500D01*
X180653808Y-79425499D01*
X180653816Y-79425498D01*
X180653819Y-79425498D01*
X180729715Y-79417745D01*
X180756597Y-79414999D01*
X180923134Y-79359814D01*
X181072456Y-79267712D01*
X181196512Y-79143656D01*
X181288614Y-78994334D01*
X181329007Y-78872434D01*
X181368778Y-78814992D01*
X181433294Y-78788169D01*
X181502070Y-78800484D01*
X181553270Y-78848027D01*
X181564418Y-78872437D01*
X181593141Y-78959118D01*
X181593143Y-78959123D01*
X181685184Y-79108344D01*
X181809155Y-79232315D01*
X181958376Y-79324356D01*
X181958381Y-79324358D01*
X182124803Y-79379505D01*
X182124810Y-79379506D01*
X182227514Y-79389999D01*
X182227527Y-79390000D01*
X182490000Y-79390000D01*
X182490000Y-78139000D01*
X182509685Y-78071961D01*
X182562489Y-78026206D01*
X182614000Y-78015000D01*
X182866000Y-78015000D01*
X182933039Y-78034685D01*
X182978794Y-78087489D01*
X182990000Y-78139000D01*
X182990000Y-79390000D01*
X183252473Y-79390000D01*
X183252485Y-79389999D01*
X183355189Y-79379506D01*
X183355196Y-79379505D01*
X183521618Y-79324358D01*
X183521623Y-79324356D01*
X183670844Y-79232315D01*
X183758119Y-79145041D01*
X183819442Y-79111556D01*
X183889134Y-79116540D01*
X183945067Y-79158412D01*
X183969484Y-79223876D01*
X183969800Y-79232722D01*
X183969800Y-85759072D01*
X183950115Y-85826111D01*
X183897311Y-85871866D01*
X183828153Y-85881810D01*
X183764597Y-85852785D01*
X183758119Y-85846753D01*
X183693655Y-85782289D01*
X183693651Y-85782286D01*
X183544337Y-85690187D01*
X183544335Y-85690186D01*
X183458028Y-85661587D01*
X183377797Y-85635001D01*
X183377795Y-85635000D01*
X183275015Y-85624500D01*
X183275008Y-85624500D01*
X182249992Y-85624500D01*
X182249984Y-85624500D01*
X182147204Y-85635000D01*
X182147203Y-85635001D01*
X181980664Y-85690186D01*
X181980662Y-85690187D01*
X181831348Y-85782286D01*
X181831344Y-85782289D01*
X181707289Y-85906344D01*
X181707286Y-85906348D01*
X181615187Y-86055662D01*
X181615186Y-86055665D01*
X181560856Y-86219622D01*
X181521083Y-86277067D01*
X181456567Y-86303890D01*
X181387792Y-86291575D01*
X181336592Y-86244032D01*
X181325444Y-86219622D01*
X181302512Y-86150418D01*
X181271114Y-86055666D01*
X181179012Y-85906344D01*
X181054956Y-85782288D01*
X180929783Y-85705081D01*
X180905636Y-85690187D01*
X180905631Y-85690185D01*
X180874653Y-85679920D01*
X180739097Y-85635001D01*
X180739095Y-85635000D01*
X180636310Y-85624500D01*
X179736298Y-85624500D01*
X179736280Y-85624501D01*
X179633503Y-85635000D01*
X179633500Y-85635001D01*
X179466968Y-85690185D01*
X179466963Y-85690187D01*
X179317642Y-85782289D01*
X179193589Y-85906342D01*
X179101487Y-86055663D01*
X179101485Y-86055668D01*
X179090680Y-86088276D01*
X179046301Y-86222203D01*
X179046301Y-86222204D01*
X179046300Y-86222204D01*
X179035800Y-86324983D01*
X179035800Y-87249902D01*
X179016115Y-87316941D01*
X178999481Y-87337583D01*
X178711081Y-87625982D01*
X178711079Y-87625984D01*
X178691185Y-87660443D01*
X178682776Y-87675009D01*
X178632023Y-87762915D01*
X178591099Y-87915643D01*
X178591099Y-87915645D01*
X178591099Y-88083746D01*
X178591100Y-88083759D01*
X178591100Y-93075030D01*
X178591099Y-93075048D01*
X178591099Y-93240754D01*
X178591098Y-93240754D01*
X178591099Y-93240757D01*
X178632023Y-93393485D01*
X178660495Y-93442800D01*
X178711077Y-93530412D01*
X178711081Y-93530417D01*
X178829949Y-93649285D01*
X178829955Y-93649290D01*
X179788339Y-94607674D01*
X179788349Y-94607685D01*
X179792679Y-94612015D01*
X179792680Y-94612016D01*
X179904484Y-94723820D01*
X179904486Y-94723821D01*
X179904490Y-94723824D01*
X180001071Y-94779584D01*
X180041416Y-94802877D01*
X180131385Y-94826984D01*
X180194142Y-94843800D01*
X180194143Y-94843800D01*
X181748743Y-94843800D01*
X181925734Y-94843800D01*
X181992773Y-94863485D01*
X181994625Y-94864698D01*
X182126314Y-94952690D01*
X182126327Y-94952697D01*
X182255511Y-95006206D01*
X182272003Y-95013037D01*
X182418343Y-95042146D01*
X182426653Y-95043799D01*
X182426656Y-95043800D01*
X182426658Y-95043800D01*
X182584344Y-95043800D01*
X182584345Y-95043799D01*
X182738997Y-95013037D01*
X182884679Y-94952694D01*
X183015789Y-94865089D01*
X183127289Y-94753589D01*
X183214894Y-94622479D01*
X183275237Y-94476797D01*
X183306000Y-94322142D01*
X183306000Y-94164458D01*
X183306000Y-94164455D01*
X183277093Y-94019136D01*
X183283320Y-93949544D01*
X183326182Y-93894367D01*
X183392072Y-93871122D01*
X183446162Y-93880383D01*
X183561983Y-93928357D01*
X183593803Y-93941537D01*
X183748453Y-93972299D01*
X183748456Y-93972300D01*
X183748458Y-93972300D01*
X183906144Y-93972300D01*
X183906145Y-93972299D01*
X184060797Y-93941537D01*
X184206479Y-93881194D01*
X184337589Y-93793589D01*
X184449089Y-93682089D01*
X184536694Y-93550979D01*
X184579441Y-93447777D01*
X184623280Y-93393376D01*
X184689574Y-93371310D01*
X184757273Y-93388589D01*
X184781682Y-93407550D01*
X184841844Y-93467712D01*
X184991166Y-93559814D01*
X185157703Y-93614999D01*
X185260491Y-93625500D01*
X186160508Y-93625499D01*
X186160516Y-93625498D01*
X186160519Y-93625498D01*
X186233263Y-93618067D01*
X186263297Y-93614999D01*
X186429834Y-93559814D01*
X186579156Y-93467712D01*
X186703212Y-93343656D01*
X186795314Y-93194334D01*
X186821165Y-93116318D01*
X186860936Y-93058876D01*
X186925451Y-93032052D01*
X186994227Y-93044366D01*
X187045428Y-93091909D01*
X187056576Y-93116319D01*
X187090642Y-93219121D01*
X187090643Y-93219124D01*
X187182684Y-93368345D01*
X187306654Y-93492315D01*
X187455875Y-93584356D01*
X187455880Y-93584358D01*
X187622302Y-93639505D01*
X187622309Y-93639506D01*
X187725019Y-93649999D01*
X187937499Y-93649999D01*
X187937500Y-93649998D01*
X187937500Y-90850000D01*
X187725029Y-90850000D01*
X187725012Y-90850001D01*
X187622302Y-90860494D01*
X187455880Y-90915641D01*
X187455875Y-90915643D01*
X187306654Y-91007684D01*
X187182684Y-91131654D01*
X187090643Y-91280875D01*
X187090641Y-91280880D01*
X187056577Y-91383680D01*
X187016804Y-91441125D01*
X186952288Y-91467948D01*
X186883513Y-91455633D01*
X186832313Y-91408090D01*
X186821165Y-91383680D01*
X186807217Y-91341587D01*
X186795314Y-91305666D01*
X186703212Y-91156344D01*
X186579156Y-91032288D01*
X186483198Y-90973101D01*
X186429836Y-90940187D01*
X186429831Y-90940185D01*
X186384733Y-90925241D01*
X186263297Y-90885001D01*
X186263295Y-90885000D01*
X186160516Y-90874500D01*
X185294800Y-90874500D01*
X185227761Y-90854815D01*
X185182006Y-90802011D01*
X185170800Y-90750500D01*
X185170800Y-88499500D01*
X185190485Y-88432461D01*
X185243289Y-88386706D01*
X185294800Y-88375500D01*
X186250003Y-88375500D01*
X186250008Y-88375500D01*
X186352797Y-88364999D01*
X186519334Y-88309814D01*
X186668655Y-88217711D01*
X186792711Y-88093655D01*
X186862431Y-87980623D01*
X186874400Y-87961218D01*
X186926348Y-87914493D01*
X186995310Y-87903272D01*
X187059392Y-87931115D01*
X187084816Y-87964160D01*
X187086395Y-87963187D01*
X187090185Y-87969331D01*
X187090186Y-87969334D01*
X187182288Y-88118656D01*
X187306344Y-88242712D01*
X187455666Y-88334814D01*
X187622203Y-88389999D01*
X187724991Y-88400500D01*
X188650008Y-88400499D01*
X188671918Y-88398260D01*
X188673841Y-88398618D01*
X188675675Y-88397934D01*
X188708038Y-88404974D01*
X188740608Y-88411028D01*
X188742640Y-88412501D01*
X188743948Y-88412786D01*
X188772202Y-88433937D01*
X188849781Y-88511516D01*
X188883266Y-88572839D01*
X188886100Y-88599197D01*
X188886100Y-90736809D01*
X188866415Y-90803848D01*
X188813611Y-90849603D01*
X188749497Y-90860167D01*
X188649986Y-90850000D01*
X188437500Y-90850000D01*
X188437500Y-93649999D01*
X188649972Y-93649999D01*
X188649986Y-93649998D01*
X188752697Y-93639505D01*
X188919119Y-93584358D01*
X188919124Y-93584356D01*
X189068345Y-93492315D01*
X189192315Y-93368345D01*
X189284356Y-93219124D01*
X189284358Y-93219119D01*
X189296022Y-93183921D01*
X189335795Y-93126476D01*
X189400310Y-93099653D01*
X189469086Y-93111968D01*
X189501409Y-93135244D01*
X191855139Y-95488974D01*
X191855149Y-95488985D01*
X191859479Y-95493315D01*
X191859480Y-95493316D01*
X191971284Y-95605120D01*
X192048153Y-95649500D01*
X192108215Y-95684177D01*
X192260943Y-95725101D01*
X192260946Y-95725101D01*
X192426653Y-95725101D01*
X192426669Y-95725100D01*
X193787202Y-95725100D01*
X193854241Y-95744785D01*
X193899996Y-95797589D01*
X193909940Y-95866747D01*
X193880915Y-95930303D01*
X193874883Y-95936781D01*
X193198484Y-96613181D01*
X193137161Y-96646666D01*
X193110803Y-96649500D01*
X192575719Y-96649500D01*
X192508680Y-96629815D01*
X192465235Y-96581795D01*
X192445052Y-96542185D01*
X192445051Y-96542184D01*
X192320109Y-96370213D01*
X192169786Y-96219890D01*
X191997820Y-96094951D01*
X191808414Y-95998444D01*
X191808413Y-95998443D01*
X191808412Y-95998443D01*
X191606243Y-95932754D01*
X191606241Y-95932753D01*
X191606240Y-95932753D01*
X191444957Y-95907208D01*
X191396287Y-95899500D01*
X191183713Y-95899500D01*
X191135042Y-95907208D01*
X190973760Y-95932753D01*
X190771585Y-95998444D01*
X190582179Y-96094951D01*
X190410213Y-96219890D01*
X190259890Y-96370213D01*
X190134949Y-96542182D01*
X190130484Y-96550946D01*
X190082509Y-96601742D01*
X190014688Y-96618536D01*
X189948553Y-96595998D01*
X189909516Y-96550946D01*
X189905050Y-96542182D01*
X189780109Y-96370213D01*
X189629786Y-96219890D01*
X189457820Y-96094951D01*
X189268414Y-95998444D01*
X189268413Y-95998443D01*
X189268412Y-95998443D01*
X189066243Y-95932754D01*
X189066241Y-95932753D01*
X189066240Y-95932753D01*
X188904957Y-95907208D01*
X188856287Y-95899500D01*
X188643713Y-95899500D01*
X188595042Y-95907208D01*
X188433760Y-95932753D01*
X188231585Y-95998444D01*
X188042179Y-96094951D01*
X187870213Y-96219890D01*
X187719890Y-96370213D01*
X187594949Y-96542182D01*
X187590484Y-96550946D01*
X187542509Y-96601742D01*
X187474688Y-96618536D01*
X187408553Y-96595998D01*
X187369516Y-96550946D01*
X187365050Y-96542182D01*
X187240109Y-96370213D01*
X187089786Y-96219890D01*
X186917815Y-96094948D01*
X186917814Y-96094947D01*
X186878205Y-96074765D01*
X186827409Y-96026791D01*
X186810500Y-95964281D01*
X186810500Y-95454860D01*
X186810501Y-95454847D01*
X186810501Y-95286745D01*
X186810501Y-95286743D01*
X186782425Y-95181962D01*
X186778200Y-95149869D01*
X186778200Y-95054655D01*
X186778199Y-95054653D01*
X186776327Y-95045244D01*
X186747437Y-94900003D01*
X186747435Y-94899998D01*
X186687097Y-94754327D01*
X186687090Y-94754314D01*
X186599489Y-94623211D01*
X186599486Y-94623207D01*
X186487992Y-94511713D01*
X186487988Y-94511710D01*
X186356885Y-94424109D01*
X186356872Y-94424102D01*
X186211201Y-94363764D01*
X186211189Y-94363761D01*
X186056545Y-94333000D01*
X186056542Y-94333000D01*
X185988103Y-94333000D01*
X185956010Y-94328775D01*
X185814657Y-94290899D01*
X185656543Y-94290899D01*
X185541997Y-94321592D01*
X185503814Y-94331823D01*
X185366884Y-94410881D01*
X185366881Y-94410883D01*
X185255083Y-94522681D01*
X185255081Y-94522684D01*
X185176023Y-94659614D01*
X185173835Y-94667780D01*
X185135099Y-94812343D01*
X185135099Y-94812345D01*
X185135099Y-94970454D01*
X185135098Y-94970454D01*
X185135099Y-94970457D01*
X185172975Y-95111812D01*
X185177200Y-95143901D01*
X185177200Y-95212346D01*
X185207961Y-95366989D01*
X185207964Y-95367001D01*
X185268302Y-95512672D01*
X185268309Y-95512685D01*
X185355910Y-95643788D01*
X185355913Y-95643792D01*
X185467408Y-95755287D01*
X185467411Y-95755289D01*
X185554392Y-95813408D01*
X185559481Y-95819496D01*
X185566703Y-95822795D01*
X185581566Y-95845923D01*
X185599195Y-95867017D01*
X185601146Y-95876391D01*
X185604477Y-95881573D01*
X185609500Y-95916508D01*
X185609500Y-95964281D01*
X185589815Y-96031320D01*
X185541795Y-96074765D01*
X185502185Y-96094947D01*
X185502184Y-96094948D01*
X185330215Y-96219889D01*
X185216285Y-96333819D01*
X185154962Y-96367303D01*
X185085270Y-96362319D01*
X185029337Y-96320447D01*
X185012422Y-96289470D01*
X184963354Y-96157913D01*
X184963350Y-96157906D01*
X184877190Y-96042812D01*
X184877187Y-96042809D01*
X184762093Y-95956649D01*
X184762086Y-95956645D01*
X184627379Y-95906403D01*
X184627372Y-95906401D01*
X184567844Y-95900000D01*
X183920000Y-95900000D01*
X183920000Y-96816988D01*
X183862993Y-96784075D01*
X183735826Y-96750000D01*
X183604174Y-96750000D01*
X183477007Y-96784075D01*
X183420000Y-96816988D01*
X183420000Y-95900000D01*
X182772155Y-95900000D01*
X182712627Y-95906401D01*
X182712620Y-95906403D01*
X182577913Y-95956645D01*
X182577906Y-95956649D01*
X182462812Y-96042809D01*
X182462809Y-96042812D01*
X182376649Y-96157906D01*
X182376645Y-96157913D01*
X182326403Y-96292620D01*
X182326401Y-96292627D01*
X182320000Y-96352155D01*
X182320000Y-97000000D01*
X183236988Y-97000000D01*
X183204075Y-97057007D01*
X183170000Y-97184174D01*
X183170000Y-97315826D01*
X183204075Y-97442993D01*
X183236988Y-97500000D01*
X182320000Y-97500000D01*
X182320000Y-98147844D01*
X182326401Y-98207372D01*
X182326403Y-98207379D01*
X182376645Y-98342086D01*
X182376649Y-98342093D01*
X182462809Y-98457187D01*
X182462812Y-98457190D01*
X182577906Y-98543350D01*
X182577913Y-98543354D01*
X182712620Y-98593596D01*
X182712627Y-98593598D01*
X182772155Y-98599999D01*
X182772172Y-98600000D01*
X183420000Y-98600000D01*
X183420000Y-97683012D01*
X183477007Y-97715925D01*
X183604174Y-97750000D01*
X183735826Y-97750000D01*
X183862993Y-97715925D01*
X183920000Y-97683012D01*
X183920000Y-98600000D01*
X184567828Y-98600000D01*
X184567844Y-98599999D01*
X184627372Y-98593598D01*
X184627379Y-98593596D01*
X184762086Y-98543354D01*
X184762093Y-98543350D01*
X184877187Y-98457190D01*
X184877190Y-98457187D01*
X184963350Y-98342093D01*
X184963354Y-98342086D01*
X185012422Y-98210529D01*
X185054293Y-98154595D01*
X185119757Y-98130178D01*
X185188030Y-98145030D01*
X185216285Y-98166181D01*
X185330213Y-98280109D01*
X185502182Y-98405050D01*
X185553783Y-98431342D01*
X185578346Y-98454540D01*
X185603370Y-98477289D01*
X185604006Y-98478775D01*
X185604579Y-98479316D01*
X185617264Y-98509733D01*
X185635116Y-98576359D01*
X185645275Y-98614270D01*
X185649500Y-98646364D01*
X185649500Y-116894281D01*
X185629815Y-116961320D01*
X185581795Y-117004765D01*
X185542185Y-117024947D01*
X185542184Y-117024948D01*
X185370213Y-117149890D01*
X185219894Y-117300209D01*
X185219890Y-117300214D01*
X185100318Y-117464793D01*
X185044989Y-117507459D01*
X184975375Y-117513438D01*
X184913580Y-117480833D01*
X184899682Y-117464793D01*
X184780109Y-117300214D01*
X184780105Y-117300209D01*
X184629786Y-117149890D01*
X184457820Y-117024951D01*
X184268414Y-116928444D01*
X184268413Y-116928443D01*
X184268412Y-116928443D01*
X184066243Y-116862754D01*
X184066241Y-116862753D01*
X184066240Y-116862753D01*
X183898349Y-116836162D01*
X183856287Y-116829500D01*
X183643713Y-116829500D01*
X183601651Y-116836162D01*
X183433760Y-116862753D01*
X183231585Y-116928444D01*
X183042179Y-117024951D01*
X182870213Y-117149890D01*
X182719894Y-117300209D01*
X182719890Y-117300214D01*
X182600318Y-117464793D01*
X182544989Y-117507459D01*
X182475375Y-117513438D01*
X182413580Y-117480833D01*
X182399682Y-117464793D01*
X182280109Y-117300214D01*
X182280105Y-117300209D01*
X182129786Y-117149890D01*
X181957820Y-117024951D01*
X181768414Y-116928444D01*
X181768413Y-116928443D01*
X181768412Y-116928443D01*
X181566243Y-116862754D01*
X181566241Y-116862753D01*
X181566240Y-116862753D01*
X181398349Y-116836162D01*
X181356287Y-116829500D01*
X181143713Y-116829500D01*
X181101651Y-116836162D01*
X180933760Y-116862753D01*
X180731585Y-116928444D01*
X180542179Y-117024951D01*
X180370213Y-117149890D01*
X180219894Y-117300209D01*
X180219890Y-117300214D01*
X180100318Y-117464793D01*
X180044989Y-117507459D01*
X179975375Y-117513438D01*
X179913580Y-117480833D01*
X179899682Y-117464793D01*
X179780109Y-117300214D01*
X179780105Y-117300209D01*
X179629786Y-117149890D01*
X179457820Y-117024951D01*
X179268414Y-116928444D01*
X179268413Y-116928443D01*
X179268412Y-116928443D01*
X179066243Y-116862754D01*
X179066241Y-116862753D01*
X179066240Y-116862753D01*
X178898349Y-116836162D01*
X178856287Y-116829500D01*
X178643713Y-116829500D01*
X178601651Y-116836162D01*
X178433760Y-116862753D01*
X178231585Y-116928444D01*
X178042179Y-117024951D01*
X177870213Y-117149890D01*
X177719894Y-117300209D01*
X177719890Y-117300214D01*
X177600318Y-117464793D01*
X177544989Y-117507459D01*
X177475375Y-117513438D01*
X177413580Y-117480833D01*
X177399682Y-117464793D01*
X177280109Y-117300214D01*
X177280105Y-117300209D01*
X177129786Y-117149890D01*
X176957820Y-117024951D01*
X176768414Y-116928444D01*
X176768413Y-116928443D01*
X176768412Y-116928443D01*
X176566243Y-116862754D01*
X176566241Y-116862753D01*
X176566240Y-116862753D01*
X176398349Y-116836162D01*
X176356287Y-116829500D01*
X176143713Y-116829500D01*
X176101651Y-116836162D01*
X175933760Y-116862753D01*
X175731585Y-116928444D01*
X175542179Y-117024951D01*
X175370213Y-117149890D01*
X175219894Y-117300209D01*
X175219890Y-117300214D01*
X175100318Y-117464793D01*
X175044989Y-117507459D01*
X174975375Y-117513438D01*
X174913580Y-117480833D01*
X174899682Y-117464793D01*
X174780109Y-117300214D01*
X174780105Y-117300209D01*
X174629786Y-117149890D01*
X174457820Y-117024951D01*
X174268414Y-116928444D01*
X174268413Y-116928443D01*
X174268412Y-116928443D01*
X174066243Y-116862754D01*
X174066241Y-116862753D01*
X174066240Y-116862753D01*
X173898349Y-116836162D01*
X173856287Y-116829500D01*
X173643713Y-116829500D01*
X173601651Y-116836162D01*
X173433760Y-116862753D01*
X173231585Y-116928444D01*
X173042179Y-117024951D01*
X172870215Y-117149889D01*
X172731398Y-117288706D01*
X172670075Y-117322190D01*
X172600383Y-117317206D01*
X172544450Y-117275334D01*
X172538178Y-117266120D01*
X172442712Y-117111344D01*
X172318657Y-116987289D01*
X172318656Y-116987288D01*
X172169334Y-116895186D01*
X172002797Y-116840001D01*
X172002795Y-116840000D01*
X171900010Y-116829500D01*
X170599998Y-116829500D01*
X170599981Y-116829501D01*
X170497203Y-116840000D01*
X170497200Y-116840001D01*
X170330668Y-116895185D01*
X170330663Y-116895187D01*
X170181342Y-116987289D01*
X170057289Y-117111342D01*
X169965187Y-117260663D01*
X169965185Y-117260668D01*
X169963024Y-117267190D01*
X169910001Y-117427203D01*
X169910001Y-117427204D01*
X169910000Y-117427204D01*
X169899500Y-117529983D01*
X169899500Y-119080001D01*
X169899501Y-119080018D01*
X169910000Y-119182796D01*
X169910001Y-119182799D01*
X169955894Y-119321294D01*
X169965186Y-119349334D01*
X170057288Y-119498656D01*
X170181344Y-119622712D01*
X170330666Y-119714814D01*
X170497203Y-119769999D01*
X170599991Y-119780500D01*
X171900008Y-119780499D01*
X172002797Y-119769999D01*
X172169334Y-119714814D01*
X172318656Y-119622712D01*
X172442712Y-119498656D01*
X172534814Y-119349334D01*
X172534814Y-119349331D01*
X172538178Y-119343879D01*
X172590126Y-119297154D01*
X172659088Y-119285931D01*
X172723170Y-119313774D01*
X172731398Y-119321294D01*
X172870213Y-119460109D01*
X173042179Y-119585048D01*
X173042181Y-119585049D01*
X173042184Y-119585051D01*
X173231588Y-119681557D01*
X173433757Y-119747246D01*
X173643713Y-119780500D01*
X173643714Y-119780500D01*
X173856286Y-119780500D01*
X173856287Y-119780500D01*
X174066243Y-119747246D01*
X174268412Y-119681557D01*
X174457816Y-119585051D01*
X174483133Y-119566657D01*
X174629786Y-119460109D01*
X174629788Y-119460106D01*
X174629792Y-119460104D01*
X174780104Y-119309792D01*
X174899683Y-119145204D01*
X174955011Y-119102540D01*
X175024624Y-119096561D01*
X175086420Y-119129166D01*
X175100313Y-119145199D01*
X175187471Y-119265162D01*
X175219896Y-119309792D01*
X175370213Y-119460109D01*
X175542179Y-119585048D01*
X175542181Y-119585049D01*
X175542184Y-119585051D01*
X175731588Y-119681557D01*
X175933757Y-119747246D01*
X176143713Y-119780500D01*
X176143714Y-119780500D01*
X176356286Y-119780500D01*
X176356287Y-119780500D01*
X176566243Y-119747246D01*
X176768412Y-119681557D01*
X176957816Y-119585051D01*
X176983133Y-119566657D01*
X177129786Y-119460109D01*
X177129788Y-119460106D01*
X177129792Y-119460104D01*
X177280104Y-119309792D01*
X177399683Y-119145204D01*
X177455011Y-119102540D01*
X177524624Y-119096561D01*
X177586420Y-119129166D01*
X177600313Y-119145199D01*
X177687471Y-119265162D01*
X177719896Y-119309792D01*
X177870213Y-119460109D01*
X178042179Y-119585048D01*
X178042181Y-119585049D01*
X178042184Y-119585051D01*
X178231588Y-119681557D01*
X178433757Y-119747246D01*
X178643713Y-119780500D01*
X178643714Y-119780500D01*
X178856286Y-119780500D01*
X178856287Y-119780500D01*
X179066243Y-119747246D01*
X179268412Y-119681557D01*
X179457816Y-119585051D01*
X179483133Y-119566657D01*
X179629786Y-119460109D01*
X179629788Y-119460106D01*
X179629792Y-119460104D01*
X179780104Y-119309792D01*
X179899683Y-119145204D01*
X179955011Y-119102540D01*
X180024624Y-119096561D01*
X180086420Y-119129166D01*
X180100313Y-119145199D01*
X180187471Y-119265162D01*
X180219896Y-119309792D01*
X180370213Y-119460109D01*
X180542179Y-119585048D01*
X180542181Y-119585049D01*
X180542184Y-119585051D01*
X180731588Y-119681557D01*
X180933757Y-119747246D01*
X181143713Y-119780500D01*
X181143714Y-119780500D01*
X181356286Y-119780500D01*
X181356287Y-119780500D01*
X181566243Y-119747246D01*
X181768412Y-119681557D01*
X181957816Y-119585051D01*
X181983133Y-119566657D01*
X182129786Y-119460109D01*
X182129788Y-119460106D01*
X182129792Y-119460104D01*
X182280104Y-119309792D01*
X182399683Y-119145204D01*
X182455011Y-119102540D01*
X182524624Y-119096561D01*
X182586420Y-119129166D01*
X182600313Y-119145199D01*
X182687471Y-119265162D01*
X182719896Y-119309792D01*
X182870213Y-119460109D01*
X183042179Y-119585048D01*
X183042181Y-119585049D01*
X183042184Y-119585051D01*
X183231588Y-119681557D01*
X183433757Y-119747246D01*
X183643713Y-119780500D01*
X183643714Y-119780500D01*
X183856286Y-119780500D01*
X183856287Y-119780500D01*
X184066243Y-119747246D01*
X184268412Y-119681557D01*
X184457816Y-119585051D01*
X184483133Y-119566657D01*
X184629786Y-119460109D01*
X184629788Y-119460106D01*
X184629792Y-119460104D01*
X184780104Y-119309792D01*
X184899683Y-119145204D01*
X184955011Y-119102540D01*
X185024624Y-119096561D01*
X185086420Y-119129166D01*
X185100313Y-119145199D01*
X185187471Y-119265162D01*
X185219896Y-119309792D01*
X185370213Y-119460109D01*
X185542179Y-119585048D01*
X185542181Y-119585049D01*
X185542184Y-119585051D01*
X185731588Y-119681557D01*
X185933757Y-119747246D01*
X186143713Y-119780500D01*
X186143714Y-119780500D01*
X186356286Y-119780500D01*
X186356287Y-119780500D01*
X186566243Y-119747246D01*
X186768412Y-119681557D01*
X186957816Y-119585051D01*
X186983133Y-119566657D01*
X187129786Y-119460109D01*
X187129788Y-119460106D01*
X187129792Y-119460104D01*
X187280104Y-119309792D01*
X187399991Y-119144779D01*
X187455320Y-119102115D01*
X187524933Y-119096136D01*
X187586729Y-119128741D01*
X187600627Y-119144781D01*
X187720272Y-119309459D01*
X187720276Y-119309464D01*
X187870535Y-119459723D01*
X187870540Y-119459727D01*
X188042442Y-119584620D01*
X188231782Y-119681095D01*
X188433871Y-119746757D01*
X188500000Y-119757231D01*
X188500000Y-118709145D01*
X188566657Y-118747630D01*
X188687465Y-118780000D01*
X188812535Y-118780000D01*
X188933343Y-118747630D01*
X189000000Y-118709145D01*
X189000000Y-119757230D01*
X189066126Y-119746757D01*
X189066129Y-119746757D01*
X189268217Y-119681095D01*
X189457557Y-119584620D01*
X189629459Y-119459727D01*
X189629464Y-119459723D01*
X189779723Y-119309464D01*
X189779727Y-119309459D01*
X189904620Y-119137557D01*
X190001095Y-118948217D01*
X190066757Y-118746130D01*
X190066757Y-118746127D01*
X190097030Y-118555000D01*
X189154146Y-118555000D01*
X189192630Y-118488343D01*
X189225000Y-118367535D01*
X189225000Y-118242465D01*
X189192630Y-118121657D01*
X189154146Y-118055000D01*
X190097030Y-118055000D01*
X190066757Y-117863872D01*
X190066757Y-117863869D01*
X190001095Y-117661782D01*
X189904620Y-117472442D01*
X189779727Y-117300540D01*
X189779723Y-117300535D01*
X189629464Y-117150276D01*
X189629459Y-117150272D01*
X189457557Y-117025379D01*
X189268215Y-116928903D01*
X189066124Y-116863241D01*
X189000000Y-116852768D01*
X189000000Y-117900854D01*
X188933343Y-117862370D01*
X188812535Y-117830000D01*
X188687465Y-117830000D01*
X188566657Y-117862370D01*
X188500000Y-117900854D01*
X188500000Y-116852768D01*
X188499999Y-116852768D01*
X188433875Y-116863241D01*
X188231784Y-116928903D01*
X188042442Y-117025379D01*
X187870540Y-117150272D01*
X187870535Y-117150276D01*
X187720276Y-117300535D01*
X187720272Y-117300540D01*
X187600627Y-117465218D01*
X187545297Y-117507884D01*
X187475684Y-117513863D01*
X187413889Y-117481257D01*
X187399991Y-117465218D01*
X187280109Y-117300214D01*
X187280105Y-117300209D01*
X187129786Y-117149890D01*
X186957815Y-117024948D01*
X186957814Y-117024947D01*
X186918205Y-117004765D01*
X186867409Y-116956791D01*
X186850500Y-116894281D01*
X186850500Y-101759654D01*
X204635098Y-101759654D01*
X204676023Y-101912384D01*
X204676023Y-101912386D01*
X204686968Y-101931342D01*
X204686969Y-101931344D01*
X204755077Y-102049312D01*
X204755081Y-102049317D01*
X204873949Y-102168185D01*
X204873955Y-102168190D01*
X205018181Y-102312416D01*
X205051666Y-102373739D01*
X205054500Y-102400097D01*
X205054500Y-103650001D01*
X205054501Y-103650018D01*
X205065000Y-103752796D01*
X205065001Y-103752799D01*
X205118457Y-103914116D01*
X205120186Y-103919334D01*
X205212288Y-104068656D01*
X205336344Y-104192712D01*
X205485666Y-104284814D01*
X205652203Y-104339999D01*
X205754991Y-104350500D01*
X207180300Y-104350499D01*
X207247339Y-104370184D01*
X207293094Y-104422987D01*
X207304300Y-104474499D01*
X207304300Y-108554578D01*
X207284615Y-108621617D01*
X207231811Y-108667372D01*
X207162653Y-108677316D01*
X207141983Y-108672509D01*
X207021134Y-108633243D01*
X207021127Y-108633242D01*
X206811246Y-108600000D01*
X206805000Y-108600000D01*
X206805000Y-109516988D01*
X206747993Y-109484075D01*
X206620826Y-109450000D01*
X206489174Y-109450000D01*
X206362007Y-109484075D01*
X206305000Y-109516988D01*
X206305000Y-108600000D01*
X206298754Y-108600000D01*
X206088872Y-108633242D01*
X206088869Y-108633242D01*
X205886782Y-108698904D01*
X205697442Y-108795379D01*
X205525540Y-108920272D01*
X205525535Y-108920276D01*
X205375276Y-109070535D01*
X205375272Y-109070540D01*
X205250379Y-109242442D01*
X205153904Y-109431782D01*
X205088242Y-109633870D01*
X205088242Y-109633873D01*
X205077769Y-109700000D01*
X206121988Y-109700000D01*
X206089075Y-109757007D01*
X206055000Y-109884174D01*
X206055000Y-110015826D01*
X206089075Y-110142993D01*
X206121988Y-110200000D01*
X205077769Y-110200000D01*
X205088242Y-110266126D01*
X205088242Y-110266129D01*
X205153904Y-110468217D01*
X205250379Y-110657557D01*
X205375272Y-110829459D01*
X205375276Y-110829464D01*
X205514143Y-110968331D01*
X205547628Y-111029654D01*
X205542644Y-111099346D01*
X205500772Y-111155279D01*
X205491559Y-111161551D01*
X205336342Y-111257289D01*
X205212289Y-111381342D01*
X205120187Y-111530663D01*
X205120185Y-111530668D01*
X205099745Y-111592352D01*
X205065001Y-111697203D01*
X205065001Y-111697204D01*
X205065000Y-111697204D01*
X205054500Y-111799983D01*
X205054500Y-113100001D01*
X205054501Y-113100018D01*
X205065000Y-113202796D01*
X205065001Y-113202799D01*
X205082404Y-113255316D01*
X205120186Y-113369334D01*
X205212288Y-113518656D01*
X205336344Y-113642712D01*
X205485666Y-113734814D01*
X205652203Y-113789999D01*
X205754991Y-113800500D01*
X207355008Y-113800499D01*
X207457797Y-113789999D01*
X207624334Y-113734814D01*
X207773656Y-113642712D01*
X207897712Y-113518656D01*
X207989814Y-113369334D01*
X208044999Y-113202797D01*
X208055500Y-113100009D01*
X208055499Y-111850095D01*
X208064143Y-111820655D01*
X208070667Y-111790669D01*
X208074421Y-111785653D01*
X208075184Y-111783057D01*
X208091813Y-111762420D01*
X208263306Y-111590928D01*
X208263311Y-111590924D01*
X208273514Y-111580720D01*
X208273516Y-111580720D01*
X208385320Y-111468916D01*
X208464377Y-111331984D01*
X208500234Y-111198165D01*
X208505300Y-111179258D01*
X208505300Y-111021143D01*
X208505300Y-102130643D01*
X208475765Y-102020416D01*
X208464377Y-101977915D01*
X208426542Y-101912384D01*
X208385320Y-101840984D01*
X208273516Y-101729180D01*
X208273515Y-101729179D01*
X208269185Y-101724849D01*
X208269174Y-101724839D01*
X207887334Y-101342999D01*
X207853849Y-101281676D01*
X207858833Y-101211984D01*
X207864522Y-101199040D01*
X207956557Y-101018412D01*
X208022246Y-100816243D01*
X208055500Y-100606287D01*
X208055500Y-100393713D01*
X208022246Y-100183757D01*
X207956557Y-99981588D01*
X207860051Y-99792184D01*
X207860049Y-99792181D01*
X207860048Y-99792179D01*
X207735109Y-99620213D01*
X207584786Y-99469890D01*
X207412820Y-99344951D01*
X207223414Y-99248444D01*
X207223413Y-99248443D01*
X207223412Y-99248443D01*
X207021243Y-99182754D01*
X207021241Y-99182753D01*
X207021240Y-99182753D01*
X206859957Y-99157208D01*
X206811287Y-99149500D01*
X206298713Y-99149500D01*
X206259202Y-99155757D01*
X206088759Y-99182753D01*
X205998418Y-99212107D01*
X205928577Y-99214102D01*
X205868744Y-99178021D01*
X205837916Y-99115320D01*
X205836100Y-99094176D01*
X205836100Y-98291897D01*
X205855785Y-98224858D01*
X205872419Y-98204216D01*
X207076635Y-97000000D01*
X208384320Y-95692316D01*
X208463377Y-95555384D01*
X208504301Y-95402657D01*
X208504301Y-95244542D01*
X208504301Y-95236947D01*
X208504300Y-95236929D01*
X208504300Y-92581944D01*
X208501210Y-92570408D01*
X208501210Y-92570407D01*
X208477345Y-92481344D01*
X208463377Y-92429215D01*
X208427599Y-92367246D01*
X208384320Y-92292284D01*
X208272516Y-92180480D01*
X208272515Y-92180479D01*
X208268185Y-92176149D01*
X208268174Y-92176139D01*
X207932090Y-91840055D01*
X207925021Y-91832986D01*
X207925020Y-91832984D01*
X207920306Y-91828270D01*
X207895812Y-91783407D01*
X207886827Y-91766953D01*
X207886827Y-91766950D01*
X207886826Y-91766948D01*
X207889274Y-91732732D01*
X207891811Y-91697261D01*
X207897504Y-91684309D01*
X207956557Y-91568412D01*
X208022246Y-91366243D01*
X208055500Y-91156287D01*
X208055500Y-90943713D01*
X208022246Y-90733757D01*
X207956557Y-90531588D01*
X207860051Y-90342184D01*
X207860049Y-90342181D01*
X207860048Y-90342179D01*
X207735109Y-90170213D01*
X207584786Y-90019890D01*
X207412820Y-89894951D01*
X207223414Y-89798444D01*
X207223413Y-89798443D01*
X207223412Y-89798443D01*
X207021243Y-89732754D01*
X207021241Y-89732753D01*
X207021240Y-89732753D01*
X206859957Y-89707208D01*
X206811287Y-89699500D01*
X206298713Y-89699500D01*
X206250042Y-89707208D01*
X206088760Y-89732753D01*
X205886585Y-89798444D01*
X205697179Y-89894951D01*
X205525213Y-90019890D01*
X205374890Y-90170213D01*
X205249951Y-90342179D01*
X205153444Y-90531585D01*
X205153443Y-90531587D01*
X205153443Y-90531588D01*
X205142119Y-90566440D01*
X205087753Y-90733760D01*
X205059635Y-90911294D01*
X205054500Y-90943713D01*
X205054500Y-91156287D01*
X205063831Y-91215202D01*
X205083848Y-91341586D01*
X205087754Y-91366243D01*
X205147454Y-91549981D01*
X205153444Y-91568414D01*
X205249951Y-91757820D01*
X205374890Y-91929786D01*
X205513705Y-92068601D01*
X205547190Y-92129924D01*
X205542206Y-92199616D01*
X205500334Y-92255549D01*
X205491121Y-92261821D01*
X205336342Y-92357289D01*
X205212289Y-92481342D01*
X205120187Y-92630663D01*
X205120185Y-92630668D01*
X205114674Y-92647300D01*
X205065001Y-92797203D01*
X205065001Y-92797204D01*
X205065000Y-92797204D01*
X205054500Y-92899983D01*
X205054500Y-94200001D01*
X205054501Y-94200018D01*
X205065000Y-94302796D01*
X205065001Y-94302799D01*
X205120185Y-94469331D01*
X205120187Y-94469336D01*
X205143185Y-94506622D01*
X205212288Y-94618656D01*
X205336344Y-94742712D01*
X205485666Y-94834814D01*
X205652203Y-94889999D01*
X205754991Y-94900500D01*
X207178302Y-94900499D01*
X207245341Y-94920184D01*
X207291096Y-94972987D01*
X207301040Y-95042146D01*
X207272015Y-95105702D01*
X207265983Y-95112180D01*
X204866886Y-97511278D01*
X204755081Y-97623082D01*
X204755079Y-97623085D01*
X204704961Y-97709894D01*
X204704959Y-97709896D01*
X204676025Y-97760009D01*
X204676024Y-97760010D01*
X204676023Y-97760015D01*
X204635099Y-97912743D01*
X204635099Y-98070857D01*
X204635099Y-98070859D01*
X204635100Y-98080853D01*
X204635100Y-101593930D01*
X204635099Y-101593948D01*
X204635099Y-101759654D01*
X204635098Y-101759654D01*
X186850500Y-101759654D01*
X186850500Y-99126200D01*
X186870185Y-99059161D01*
X186922989Y-99013406D01*
X186974500Y-99002200D01*
X195110331Y-99002200D01*
X195110347Y-99002201D01*
X195117943Y-99002201D01*
X195276054Y-99002201D01*
X195276057Y-99002201D01*
X195428785Y-98961277D01*
X195520791Y-98908157D01*
X195565716Y-98882220D01*
X195677520Y-98770416D01*
X195677520Y-98770414D01*
X195687724Y-98760211D01*
X195687728Y-98760206D01*
X203171006Y-91276928D01*
X203171011Y-91276924D01*
X203181214Y-91266720D01*
X203181216Y-91266720D01*
X203293020Y-91154916D01*
X203372077Y-91017984D01*
X203410522Y-90874505D01*
X203410523Y-90874503D01*
X203413000Y-90865259D01*
X203413000Y-88467874D01*
X203432685Y-88400835D01*
X203485489Y-88355080D01*
X203497988Y-88350170D01*
X203544334Y-88334814D01*
X203693656Y-88242712D01*
X203817712Y-88118656D01*
X203909814Y-87969334D01*
X203964999Y-87802797D01*
X203975500Y-87700009D01*
X203975499Y-86737595D01*
X203995183Y-86670557D01*
X204011813Y-86649920D01*
X207438506Y-83223228D01*
X207438511Y-83223224D01*
X207448714Y-83213020D01*
X207448716Y-83213020D01*
X207560520Y-83101216D01*
X207639577Y-82964284D01*
X207680500Y-82811557D01*
X207680500Y-79535718D01*
X207700185Y-79468679D01*
X207748207Y-79425233D01*
X207787815Y-79405052D01*
X207787815Y-79405051D01*
X207787816Y-79405051D01*
X207899037Y-79324245D01*
X207959786Y-79280109D01*
X207959788Y-79280106D01*
X207959792Y-79280104D01*
X208110104Y-79129792D01*
X208110106Y-79129788D01*
X208110109Y-79129786D01*
X208235048Y-78957820D01*
X208235047Y-78957820D01*
X208235051Y-78957816D01*
X208331557Y-78768412D01*
X208397246Y-78566243D01*
X208429980Y-78359568D01*
X208999500Y-78359568D01*
X208999500Y-78640431D01*
X209030942Y-78919494D01*
X209030945Y-78919512D01*
X209093439Y-79193317D01*
X209093443Y-79193329D01*
X209186200Y-79458411D01*
X209308053Y-79711442D01*
X209308055Y-79711445D01*
X209457477Y-79949248D01*
X209632584Y-80168825D01*
X209831175Y-80367416D01*
X210050752Y-80542523D01*
X210288555Y-80691945D01*
X210541592Y-80813801D01*
X210713525Y-80873963D01*
X210806670Y-80906556D01*
X210806682Y-80906560D01*
X211080491Y-80969055D01*
X211080497Y-80969055D01*
X211080505Y-80969057D01*
X211266547Y-80990018D01*
X211359569Y-81000499D01*
X211359572Y-81000500D01*
X211359575Y-81000500D01*
X211640428Y-81000500D01*
X211640429Y-81000499D01*
X211783055Y-80984429D01*
X211919494Y-80969057D01*
X211919499Y-80969056D01*
X211919509Y-80969055D01*
X212193318Y-80906560D01*
X212458408Y-80813801D01*
X212711445Y-80691945D01*
X212949248Y-80542523D01*
X213168825Y-80367416D01*
X213367416Y-80168825D01*
X213542523Y-79949248D01*
X213691945Y-79711445D01*
X213813801Y-79458408D01*
X213906560Y-79193318D01*
X213969055Y-78919509D01*
X213971104Y-78901328D01*
X213991400Y-78721190D01*
X214000500Y-78640425D01*
X214000500Y-78359575D01*
X213988154Y-78249999D01*
X213969057Y-78080505D01*
X213969054Y-78080487D01*
X213906560Y-77806682D01*
X213906556Y-77806670D01*
X213880282Y-77731585D01*
X213813801Y-77541592D01*
X213697709Y-77300524D01*
X213691946Y-77288557D01*
X213691945Y-77288555D01*
X213542523Y-77050752D01*
X213367416Y-76831175D01*
X213168825Y-76632584D01*
X213161494Y-76626738D01*
X213041463Y-76531016D01*
X212949248Y-76457477D01*
X212713237Y-76309181D01*
X212711442Y-76308053D01*
X212458411Y-76186200D01*
X212193329Y-76093443D01*
X212193317Y-76093439D01*
X211919512Y-76030945D01*
X211919494Y-76030942D01*
X211640431Y-75999500D01*
X211640425Y-75999500D01*
X211359575Y-75999500D01*
X211359568Y-75999500D01*
X211080505Y-76030942D01*
X211080487Y-76030945D01*
X210806682Y-76093439D01*
X210806670Y-76093443D01*
X210541588Y-76186200D01*
X210288557Y-76308053D01*
X210050753Y-76457476D01*
X209831175Y-76632583D01*
X209632583Y-76831175D01*
X209457476Y-77050753D01*
X209308053Y-77288557D01*
X209186200Y-77541588D01*
X209093443Y-77806670D01*
X209093439Y-77806682D01*
X209030945Y-78080487D01*
X209030942Y-78080505D01*
X208999500Y-78359568D01*
X208429980Y-78359568D01*
X208430500Y-78356287D01*
X208430500Y-78143713D01*
X208397246Y-77933757D01*
X208331557Y-77731588D01*
X208235051Y-77542184D01*
X208235049Y-77542181D01*
X208235048Y-77542179D01*
X208110109Y-77370213D01*
X207959786Y-77219890D01*
X207787820Y-77094951D01*
X207598414Y-76998444D01*
X207598413Y-76998443D01*
X207598412Y-76998443D01*
X207396243Y-76932754D01*
X207396241Y-76932753D01*
X207396240Y-76932753D01*
X207229485Y-76906342D01*
X207186287Y-76899500D01*
X206973713Y-76899500D01*
X206930515Y-76906342D01*
X206763760Y-76932753D01*
X206561585Y-76998444D01*
X206372179Y-77094951D01*
X206200213Y-77219890D01*
X206049890Y-77370213D01*
X205924949Y-77542182D01*
X205920202Y-77551499D01*
X205872227Y-77602293D01*
X205804405Y-77619087D01*
X205738271Y-77596548D01*
X205699234Y-77551495D01*
X205694626Y-77542452D01*
X205655270Y-77488282D01*
X205655269Y-77488282D01*
X205022962Y-78120590D01*
X205005925Y-78057007D01*
X204940099Y-77942993D01*
X204847007Y-77849901D01*
X204732993Y-77784075D01*
X204669409Y-77767037D01*
X205301716Y-77134728D01*
X205247550Y-77095375D01*
X205058217Y-76998904D01*
X204856129Y-76933242D01*
X204646246Y-76900000D01*
X204433754Y-76900000D01*
X204223872Y-76933242D01*
X204223869Y-76933242D01*
X204021782Y-76998904D01*
X203832439Y-77095380D01*
X203778282Y-77134727D01*
X203778282Y-77134728D01*
X204410591Y-77767037D01*
X204347007Y-77784075D01*
X204232993Y-77849901D01*
X204139901Y-77942993D01*
X204074075Y-78057007D01*
X204057037Y-78120591D01*
X203424728Y-77488282D01*
X203424727Y-77488282D01*
X203385380Y-77542440D01*
X203385376Y-77542446D01*
X203380760Y-77551505D01*
X203332781Y-77602297D01*
X203264959Y-77619087D01*
X203198826Y-77596543D01*
X203159794Y-77551493D01*
X203155051Y-77542184D01*
X203155049Y-77542181D01*
X203155048Y-77542179D01*
X203030109Y-77370213D01*
X202879786Y-77219890D01*
X202707820Y-77094951D01*
X202518414Y-76998444D01*
X202518413Y-76998443D01*
X202518412Y-76998443D01*
X202316243Y-76932754D01*
X202316241Y-76932753D01*
X202316240Y-76932753D01*
X202149485Y-76906342D01*
X202106287Y-76899500D01*
X201893713Y-76899500D01*
X201850515Y-76906342D01*
X201683760Y-76932753D01*
X201481585Y-76998444D01*
X201292179Y-77094951D01*
X201120213Y-77219890D01*
X200969890Y-77370213D01*
X200844949Y-77542182D01*
X200840484Y-77550946D01*
X200792509Y-77601742D01*
X200724688Y-77618536D01*
X200658553Y-77595998D01*
X200619516Y-77550946D01*
X200615050Y-77542182D01*
X200490109Y-77370213D01*
X200339786Y-77219890D01*
X200167820Y-77094951D01*
X199978414Y-76998444D01*
X199978413Y-76998443D01*
X199978412Y-76998443D01*
X199776243Y-76932754D01*
X199776241Y-76932753D01*
X199776240Y-76932753D01*
X199609485Y-76906342D01*
X199566287Y-76899500D01*
X199353713Y-76899500D01*
X199310515Y-76906342D01*
X199143760Y-76932753D01*
X198941585Y-76998444D01*
X198752179Y-77094951D01*
X198580213Y-77219890D01*
X198429890Y-77370213D01*
X198304949Y-77542182D01*
X198300484Y-77550946D01*
X198252509Y-77601742D01*
X198184688Y-77618536D01*
X198118553Y-77595998D01*
X198079516Y-77550946D01*
X198075050Y-77542182D01*
X197950109Y-77370213D01*
X197799786Y-77219890D01*
X197627820Y-77094951D01*
X197438414Y-76998444D01*
X197438413Y-76998443D01*
X197438412Y-76998443D01*
X197236243Y-76932754D01*
X197236241Y-76932753D01*
X197236240Y-76932753D01*
X197069485Y-76906342D01*
X197026287Y-76899500D01*
X196813713Y-76899500D01*
X196770515Y-76906342D01*
X196603760Y-76932753D01*
X196401585Y-76998444D01*
X196212179Y-77094951D01*
X196040213Y-77219890D01*
X195889890Y-77370213D01*
X195764949Y-77542182D01*
X195760484Y-77550946D01*
X195712509Y-77601742D01*
X195644688Y-77618536D01*
X195578553Y-77595998D01*
X195539516Y-77550946D01*
X195535050Y-77542182D01*
X195410109Y-77370213D01*
X195259786Y-77219890D01*
X195087820Y-77094951D01*
X194898414Y-76998444D01*
X194898413Y-76998443D01*
X194898412Y-76998443D01*
X194696243Y-76932754D01*
X194696241Y-76932753D01*
X194696240Y-76932753D01*
X194529485Y-76906342D01*
X194486287Y-76899500D01*
X194273713Y-76899500D01*
X194230515Y-76906342D01*
X194063760Y-76932753D01*
X193861585Y-76998444D01*
X193672179Y-77094951D01*
X193500213Y-77219890D01*
X193349890Y-77370213D01*
X193224949Y-77542182D01*
X193220484Y-77550946D01*
X193172509Y-77601742D01*
X193104688Y-77618536D01*
X193038553Y-77595998D01*
X192999516Y-77550946D01*
X192995050Y-77542182D01*
X192870109Y-77370213D01*
X192719786Y-77219890D01*
X192547820Y-77094951D01*
X192358414Y-76998444D01*
X192358413Y-76998443D01*
X192358412Y-76998443D01*
X192156243Y-76932754D01*
X192156241Y-76932753D01*
X192156240Y-76932753D01*
X191989485Y-76906342D01*
X191946287Y-76899500D01*
X191733713Y-76899500D01*
X191690515Y-76906342D01*
X191523760Y-76932753D01*
X191321585Y-76998444D01*
X191132179Y-77094951D01*
X190960215Y-77219889D01*
X190846673Y-77333431D01*
X190785350Y-77366915D01*
X190715658Y-77361931D01*
X190659725Y-77320059D01*
X190642810Y-77289082D01*
X190593797Y-77157671D01*
X190593793Y-77157664D01*
X190507547Y-77042455D01*
X190507544Y-77042452D01*
X190392335Y-76956206D01*
X190392328Y-76956202D01*
X190257482Y-76905908D01*
X190257483Y-76905908D01*
X190197883Y-76899501D01*
X190197881Y-76899500D01*
X190197873Y-76899500D01*
X190197864Y-76899500D01*
X188402129Y-76899500D01*
X188402123Y-76899501D01*
X188342516Y-76905908D01*
X188207671Y-76956202D01*
X188207664Y-76956206D01*
X188092455Y-77042452D01*
X188092452Y-77042455D01*
X188006206Y-77157664D01*
X188006202Y-77157671D01*
X187955908Y-77292517D01*
X187949501Y-77352116D01*
X187949500Y-77352135D01*
X187949500Y-79147870D01*
X187949501Y-79147876D01*
X187955908Y-79207483D01*
X188006202Y-79342328D01*
X188006206Y-79342335D01*
X188092452Y-79457544D01*
X188092455Y-79457547D01*
X188207664Y-79543793D01*
X188207671Y-79543797D01*
X188252618Y-79560561D01*
X188342517Y-79594091D01*
X188402127Y-79600500D01*
X188575500Y-79600499D01*
X188642539Y-79620183D01*
X188688294Y-79672987D01*
X188699500Y-79724499D01*
X188699500Y-85287239D01*
X188699499Y-85287243D01*
X188699499Y-85445357D01*
X188702893Y-85458023D01*
X188703179Y-85473157D01*
X188697796Y-85492856D01*
X188697308Y-85513273D01*
X188688774Y-85525876D01*
X188684764Y-85540557D01*
X188669586Y-85554218D01*
X188658137Y-85571130D01*
X188644145Y-85577119D01*
X188632834Y-85587301D01*
X188612679Y-85590588D01*
X188593905Y-85598625D01*
X188579201Y-85599500D01*
X187724998Y-85599500D01*
X187724980Y-85599501D01*
X187622203Y-85610000D01*
X187622200Y-85610001D01*
X187455668Y-85665185D01*
X187455663Y-85665187D01*
X187306342Y-85757289D01*
X187182289Y-85881342D01*
X187166676Y-85906655D01*
X187099982Y-86014785D01*
X187086395Y-86036813D01*
X187084117Y-86035408D01*
X187046134Y-86078536D01*
X186978938Y-86097680D01*
X186912060Y-86077456D01*
X186874400Y-86038782D01*
X186792711Y-85906345D01*
X186668655Y-85782289D01*
X186668651Y-85782286D01*
X186519337Y-85690187D01*
X186519335Y-85690186D01*
X186433028Y-85661587D01*
X186352797Y-85635001D01*
X186352795Y-85635000D01*
X186250015Y-85624500D01*
X186250008Y-85624500D01*
X185294800Y-85624500D01*
X185227761Y-85604815D01*
X185182006Y-85552011D01*
X185170800Y-85500500D01*
X185170800Y-79514500D01*
X185190485Y-79447461D01*
X185243289Y-79401706D01*
X185294800Y-79390500D01*
X186227503Y-79390500D01*
X186227508Y-79390500D01*
X186330297Y-79379999D01*
X186496834Y-79324814D01*
X186646155Y-79232711D01*
X186770211Y-79108655D01*
X186862314Y-78959334D01*
X186917499Y-78792797D01*
X186928000Y-78690008D01*
X186928000Y-77339992D01*
X186917499Y-77237203D01*
X186862314Y-77070666D01*
X186853059Y-77055662D01*
X186770213Y-76921348D01*
X186770210Y-76921344D01*
X186646155Y-76797289D01*
X186646151Y-76797286D01*
X186496837Y-76705187D01*
X186496835Y-76705186D01*
X186413565Y-76677593D01*
X186330297Y-76650001D01*
X186330295Y-76650000D01*
X186227515Y-76639500D01*
X186227508Y-76639500D01*
X185258297Y-76639500D01*
X185191258Y-76619815D01*
X185170616Y-76603181D01*
X184750890Y-76183455D01*
X184750888Y-76183452D01*
X184632017Y-76064581D01*
X184632016Y-76064580D01*
X184545204Y-76014460D01*
X184545204Y-76014459D01*
X184545200Y-76014458D01*
X184495085Y-75985523D01*
X184342357Y-75944599D01*
X184184243Y-75944599D01*
X184176647Y-75944599D01*
X184176631Y-75944600D01*
X181757870Y-75944600D01*
X181757854Y-75944599D01*
X181750258Y-75944599D01*
X181592143Y-75944599D01*
X181525158Y-75962548D01*
X181439414Y-75985523D01*
X181439409Y-75985526D01*
X181302490Y-76064575D01*
X181302482Y-76064581D01*
X180776002Y-76591061D01*
X180714679Y-76624546D01*
X180675720Y-76626738D01*
X180653811Y-76624500D01*
X179728798Y-76624500D01*
X179728780Y-76624501D01*
X179626003Y-76635000D01*
X179626000Y-76635001D01*
X179459468Y-76690185D01*
X179459463Y-76690187D01*
X179310142Y-76782289D01*
X179186089Y-76906342D01*
X179093987Y-77055663D01*
X179093985Y-77055668D01*
X179075477Y-77111522D01*
X179038801Y-77222203D01*
X179038801Y-77222204D01*
X179038800Y-77222204D01*
X179028300Y-77324983D01*
X179028300Y-78287402D01*
X179008615Y-78354441D01*
X178991981Y-78375083D01*
X178428305Y-78938758D01*
X178366982Y-78972243D01*
X178297290Y-78967259D01*
X178241357Y-78925387D01*
X178216940Y-78859923D01*
X178218712Y-78834592D01*
X178218111Y-78834531D01*
X178221007Y-78806184D01*
X178229300Y-78725009D01*
X178229299Y-77324992D01*
X178226799Y-77300523D01*
X178218799Y-77222203D01*
X178218798Y-77222200D01*
X178203085Y-77174781D01*
X178163614Y-77055666D01*
X178071512Y-76906344D01*
X177947456Y-76782288D01*
X177798134Y-76690186D01*
X177631597Y-76635001D01*
X177631595Y-76635000D01*
X177528810Y-76624500D01*
X176603798Y-76624500D01*
X176603780Y-76624501D01*
X176501003Y-76635000D01*
X176501000Y-76635001D01*
X176334468Y-76690185D01*
X176334463Y-76690187D01*
X176185142Y-76782289D01*
X176061089Y-76906342D01*
X175968987Y-77055663D01*
X175968985Y-77055668D01*
X175950477Y-77111522D01*
X175914046Y-77221466D01*
X175913801Y-77222204D01*
X175912383Y-77228827D01*
X175910512Y-77228426D01*
X175887638Y-77284450D01*
X175830449Y-77324589D01*
X175760637Y-77327436D01*
X175700368Y-77292088D01*
X175672990Y-77246140D01*
X175619814Y-77085666D01*
X175616319Y-77080000D01*
X175527713Y-76936348D01*
X175527710Y-76936344D01*
X175403655Y-76812289D01*
X175403651Y-76812286D01*
X175254337Y-76720187D01*
X175254335Y-76720186D01*
X175163797Y-76690185D01*
X175087797Y-76665001D01*
X175087795Y-76665000D01*
X174985015Y-76654500D01*
X174985008Y-76654500D01*
X173959992Y-76654500D01*
X173959984Y-76654500D01*
X173857204Y-76665000D01*
X173857203Y-76665001D01*
X173690664Y-76720186D01*
X173690662Y-76720187D01*
X173541348Y-76812286D01*
X173541344Y-76812289D01*
X173417289Y-76936344D01*
X173417286Y-76936348D01*
X173325187Y-77085662D01*
X173325186Y-77085664D01*
X173270001Y-77252203D01*
X173270000Y-77252204D01*
X173259500Y-77354984D01*
X173259500Y-78342402D01*
X173239815Y-78409441D01*
X173223181Y-78430083D01*
X172921681Y-78731583D01*
X172860358Y-78765068D01*
X172790666Y-78760084D01*
X172734733Y-78718212D01*
X172710316Y-78652748D01*
X172710000Y-78643902D01*
X172710000Y-78280000D01*
X171747500Y-78280000D01*
X171747500Y-79405000D01*
X171948902Y-79405000D01*
X172015941Y-79424685D01*
X172061696Y-79477489D01*
X172071640Y-79546647D01*
X172042615Y-79610203D01*
X172036583Y-79616681D01*
X170190084Y-81463181D01*
X170128761Y-81496666D01*
X170102403Y-81499500D01*
X168974499Y-81499500D01*
X168907460Y-81479815D01*
X168861705Y-81427011D01*
X168850499Y-81375500D01*
X168850499Y-81299998D01*
X168850498Y-81299981D01*
X168839999Y-81197203D01*
X168839998Y-81197200D01*
X168819884Y-81136500D01*
X168784814Y-81030666D01*
X168692712Y-80881344D01*
X168568656Y-80757288D01*
X168462718Y-80691945D01*
X168419336Y-80665187D01*
X168419331Y-80665185D01*
X168384415Y-80653615D01*
X168252797Y-80610001D01*
X168252795Y-80610000D01*
X168150010Y-80599500D01*
X166849998Y-80599500D01*
X166849981Y-80599501D01*
X166747203Y-80610000D01*
X166747200Y-80610001D01*
X166580668Y-80665185D01*
X166580663Y-80665187D01*
X166431342Y-80757289D01*
X166307289Y-80881342D01*
X166211821Y-81036121D01*
X166159873Y-81082845D01*
X166090910Y-81094068D01*
X166026828Y-81066224D01*
X166018601Y-81058705D01*
X165879786Y-80919890D01*
X165707817Y-80794949D01*
X165656215Y-80768656D01*
X165635481Y-80749073D01*
X165612758Y-80731829D01*
X165609030Y-80724090D01*
X165605420Y-80720681D01*
X165596047Y-80700742D01*
X165594159Y-80695577D01*
X165593186Y-80691945D01*
X165559577Y-80566515D01*
X165530639Y-80516395D01*
X165480520Y-80429584D01*
X165480518Y-80429582D01*
X165475574Y-80423139D01*
X165478210Y-80421115D01*
X165452134Y-80373360D01*
X165449300Y-80347002D01*
X165449300Y-79499000D01*
X165468985Y-79431961D01*
X165521789Y-79386206D01*
X165573300Y-79375000D01*
X165633800Y-79375000D01*
X166133800Y-79375000D01*
X166396273Y-79375000D01*
X166396285Y-79374999D01*
X166498989Y-79364506D01*
X166498996Y-79364505D01*
X166665418Y-79309358D01*
X166665423Y-79309356D01*
X166814644Y-79217315D01*
X166938615Y-79093344D01*
X167030656Y-78944123D01*
X167030658Y-78944118D01*
X167085805Y-78777696D01*
X167085806Y-78777689D01*
X167096299Y-78674985D01*
X167096300Y-78674972D01*
X167096300Y-78250000D01*
X166133800Y-78250000D01*
X166133800Y-79375000D01*
X165633800Y-79375000D01*
X165633800Y-78124000D01*
X165653485Y-78056961D01*
X165706289Y-78011206D01*
X165757800Y-78000000D01*
X165883800Y-78000000D01*
X165883800Y-77874000D01*
X165903485Y-77806961D01*
X165956289Y-77761206D01*
X166007800Y-77750000D01*
X167096300Y-77750000D01*
X167096300Y-77514200D01*
X167098850Y-77505514D01*
X167097562Y-77496553D01*
X167108540Y-77472512D01*
X167115985Y-77447161D01*
X167122825Y-77441233D01*
X167126587Y-77432997D01*
X167148821Y-77418707D01*
X167168789Y-77401406D01*
X167179303Y-77399118D01*
X167185365Y-77395223D01*
X167220300Y-77390200D01*
X167348403Y-77390200D01*
X167415442Y-77409885D01*
X167436084Y-77426519D01*
X167609481Y-77599916D01*
X167642966Y-77661239D01*
X167645800Y-77687597D01*
X167645800Y-78675015D01*
X167656300Y-78777795D01*
X167656301Y-78777797D01*
X167675101Y-78834531D01*
X167711486Y-78944335D01*
X167711487Y-78944337D01*
X167803586Y-79093651D01*
X167803589Y-79093655D01*
X167927644Y-79217710D01*
X167927648Y-79217713D01*
X168076962Y-79309812D01*
X168076964Y-79309813D01*
X168076966Y-79309814D01*
X168243503Y-79364999D01*
X168346292Y-79375500D01*
X168346297Y-79375500D01*
X169371303Y-79375500D01*
X169371308Y-79375500D01*
X169474097Y-79364999D01*
X169640634Y-79309814D01*
X169789955Y-79217711D01*
X169914011Y-79093655D01*
X170006114Y-78944334D01*
X170056214Y-78793140D01*
X170095985Y-78735698D01*
X170160501Y-78708875D01*
X170229277Y-78721190D01*
X170280477Y-78768733D01*
X170293255Y-78801305D01*
X170293365Y-78801269D01*
X170294035Y-78803291D01*
X170295170Y-78806184D01*
X170295492Y-78807688D01*
X170350641Y-78974118D01*
X170350643Y-78974123D01*
X170442684Y-79123344D01*
X170566655Y-79247315D01*
X170715876Y-79339356D01*
X170715881Y-79339358D01*
X170882303Y-79394505D01*
X170882310Y-79394506D01*
X170985014Y-79404999D01*
X170985027Y-79405000D01*
X171247500Y-79405000D01*
X171247500Y-77780000D01*
X171747500Y-77780000D01*
X172710000Y-77780000D01*
X172710000Y-77355027D01*
X172709999Y-77355014D01*
X172699506Y-77252310D01*
X172699505Y-77252303D01*
X172644358Y-77085881D01*
X172644356Y-77085876D01*
X172552315Y-76936655D01*
X172428344Y-76812684D01*
X172279123Y-76720643D01*
X172279118Y-76720641D01*
X172112696Y-76665494D01*
X172112689Y-76665493D01*
X172009985Y-76655000D01*
X171747500Y-76655000D01*
X171747500Y-77780000D01*
X171247500Y-77780000D01*
X171247500Y-76655000D01*
X170985014Y-76655000D01*
X170882310Y-76665493D01*
X170882303Y-76665494D01*
X170715881Y-76720641D01*
X170715876Y-76720643D01*
X170566655Y-76812684D01*
X170442684Y-76936655D01*
X170350643Y-77085876D01*
X170350641Y-77085881D01*
X170300606Y-77236878D01*
X170260833Y-77294323D01*
X170196317Y-77321146D01*
X170127542Y-77308831D01*
X170076342Y-77261288D01*
X170063517Y-77228599D01*
X170063428Y-77228629D01*
X170062876Y-77226963D01*
X170061648Y-77223833D01*
X170061299Y-77222206D01*
X170061299Y-77222203D01*
X170006114Y-77055666D01*
X170006113Y-77055664D01*
X170006112Y-77055662D01*
X169914013Y-76906348D01*
X169914010Y-76906344D01*
X169789955Y-76782289D01*
X169789951Y-76782286D01*
X169640637Y-76690187D01*
X169640635Y-76690186D01*
X169532941Y-76654500D01*
X169474097Y-76635001D01*
X169474095Y-76635000D01*
X169371315Y-76624500D01*
X169371308Y-76624500D01*
X168383897Y-76624500D01*
X168354456Y-76615855D01*
X168324470Y-76609332D01*
X168319454Y-76605577D01*
X168316858Y-76604815D01*
X168296216Y-76588181D01*
X168136090Y-76428055D01*
X168136088Y-76428052D01*
X168017217Y-76309181D01*
X168017216Y-76309180D01*
X167930404Y-76259060D01*
X167930404Y-76259059D01*
X167930400Y-76259058D01*
X167880285Y-76230123D01*
X167727557Y-76189199D01*
X167569443Y-76189199D01*
X167561847Y-76189199D01*
X167561831Y-76189200D01*
X165280269Y-76189200D01*
X165280253Y-76189199D01*
X165272657Y-76189199D01*
X165114543Y-76189199D01*
X165007187Y-76217965D01*
X164961810Y-76230124D01*
X164961809Y-76230125D01*
X164911696Y-76259059D01*
X164911695Y-76259060D01*
X164875528Y-76279941D01*
X164824885Y-76309179D01*
X164824882Y-76309181D01*
X164480086Y-76653977D01*
X164480086Y-76653978D01*
X164480084Y-76653980D01*
X164428878Y-76705186D01*
X164383882Y-76750182D01*
X164322558Y-76783666D01*
X164252867Y-76778682D01*
X164219291Y-76759767D01*
X164216158Y-76757289D01*
X164066836Y-76665187D01*
X164066831Y-76665185D01*
X164065362Y-76664698D01*
X163900297Y-76610001D01*
X163900295Y-76610000D01*
X163797510Y-76599500D01*
X162872498Y-76599500D01*
X162872480Y-76599501D01*
X162769703Y-76610000D01*
X162769700Y-76610001D01*
X162603168Y-76665185D01*
X162603163Y-76665187D01*
X162453842Y-76757289D01*
X162329789Y-76881342D01*
X162237687Y-77030663D01*
X162237685Y-77030668D01*
X162216242Y-77095380D01*
X162182501Y-77197203D01*
X162182501Y-77197204D01*
X162182500Y-77197204D01*
X162172000Y-77299983D01*
X162172000Y-78700001D01*
X162172001Y-78700018D01*
X162183189Y-78809532D01*
X162181211Y-78809734D01*
X162176707Y-78869810D01*
X162134644Y-78925600D01*
X162069096Y-78949792D01*
X162000875Y-78934705D01*
X161972994Y-78913759D01*
X161409318Y-78350083D01*
X161375833Y-78288760D01*
X161372999Y-78262402D01*
X161372999Y-77299998D01*
X161372998Y-77299981D01*
X161362499Y-77197203D01*
X161362498Y-77197200D01*
X161345328Y-77145384D01*
X161307314Y-77030666D01*
X161215212Y-76881344D01*
X161091156Y-76757288D01*
X160982364Y-76690185D01*
X160941836Y-76665187D01*
X160941831Y-76665185D01*
X160940362Y-76664698D01*
X160775297Y-76610001D01*
X160775295Y-76610000D01*
X160672510Y-76599500D01*
X159747498Y-76599500D01*
X159747480Y-76599501D01*
X159644703Y-76610000D01*
X159644700Y-76610001D01*
X159478168Y-76665185D01*
X159478163Y-76665187D01*
X159328842Y-76757289D01*
X159204789Y-76881342D01*
X159112687Y-77030663D01*
X159112685Y-77030668D01*
X159091242Y-77095380D01*
X159057501Y-77197203D01*
X159057501Y-77197204D01*
X159057500Y-77197204D01*
X159047000Y-77299983D01*
X157241351Y-77299983D01*
X157178657Y-77237289D01*
X157178656Y-77237288D01*
X157049576Y-77157671D01*
X157029336Y-77145187D01*
X157029331Y-77145185D01*
X156997771Y-77134727D01*
X156862797Y-77090001D01*
X156862795Y-77090000D01*
X156760010Y-77079500D01*
X155559998Y-77079500D01*
X155559981Y-77079501D01*
X155457203Y-77090000D01*
X155457200Y-77090001D01*
X155290668Y-77145185D01*
X155290663Y-77145187D01*
X155141342Y-77237289D01*
X155017289Y-77361342D01*
X154925187Y-77510663D01*
X154925186Y-77510666D01*
X154898045Y-77592571D01*
X154858271Y-77650016D01*
X154793755Y-77676838D01*
X154724979Y-77664522D01*
X154680021Y-77626452D01*
X154611966Y-77532781D01*
X154467219Y-77388034D01*
X154467213Y-77388028D01*
X154301613Y-77267715D01*
X154301612Y-77267714D01*
X154301610Y-77267713D01*
X154225292Y-77228827D01*
X154119223Y-77174781D01*
X153924534Y-77111522D01*
X153749995Y-77083878D01*
X153722352Y-77079500D01*
X153517648Y-77079500D01*
X153493329Y-77083351D01*
X153315465Y-77111522D01*
X153120776Y-77174781D01*
X152938386Y-77267715D01*
X152772786Y-77388028D01*
X152628028Y-77532786D01*
X152507715Y-77698386D01*
X152460485Y-77791080D01*
X152412510Y-77841876D01*
X152344689Y-77858671D01*
X152278554Y-77836134D01*
X152239515Y-77791080D01*
X152224293Y-77761206D01*
X152192287Y-77698390D01*
X152167681Y-77664522D01*
X152071971Y-77532786D01*
X151927213Y-77388028D01*
X151761613Y-77267715D01*
X151761612Y-77267714D01*
X151761610Y-77267713D01*
X151685292Y-77228827D01*
X151579223Y-77174781D01*
X151384534Y-77111522D01*
X151209995Y-77083878D01*
X151182352Y-77079500D01*
X150977648Y-77079500D01*
X150953329Y-77083351D01*
X150775465Y-77111522D01*
X150580776Y-77174781D01*
X150398386Y-77267715D01*
X150232786Y-77388028D01*
X150088028Y-77532786D01*
X149967713Y-77698388D01*
X149920203Y-77791630D01*
X149872228Y-77842426D01*
X149804407Y-77859220D01*
X149738272Y-77836682D01*
X149699234Y-77791628D01*
X149651861Y-77698652D01*
X149619474Y-77654077D01*
X149619474Y-77654076D01*
X148940000Y-78333551D01*
X148940000Y-78327339D01*
X148912741Y-78225606D01*
X148860080Y-78134394D01*
X148785606Y-78059920D01*
X148694394Y-78007259D01*
X148592661Y-77980000D01*
X148586446Y-77980000D01*
X149265922Y-77300524D01*
X149265921Y-77300523D01*
X149221359Y-77268147D01*
X149221350Y-77268141D01*
X149039031Y-77175244D01*
X148844417Y-77112009D01*
X148642317Y-77080000D01*
X148437683Y-77080000D01*
X148235582Y-77112009D01*
X148040968Y-77175244D01*
X147858644Y-77268143D01*
X147814077Y-77300523D01*
X147814077Y-77300524D01*
X148493554Y-77980000D01*
X148487339Y-77980000D01*
X148385606Y-78007259D01*
X148294394Y-78059920D01*
X148219920Y-78134394D01*
X148167259Y-78225606D01*
X148140000Y-78327339D01*
X148140000Y-78333553D01*
X147460524Y-77654077D01*
X147460523Y-77654077D01*
X147428143Y-77698644D01*
X147380485Y-77792180D01*
X147332510Y-77842976D01*
X147264689Y-77859771D01*
X147198554Y-77837233D01*
X147159515Y-77792180D01*
X147111859Y-77698650D01*
X147079474Y-77654077D01*
X147079474Y-77654076D01*
X146400000Y-78333551D01*
X146400000Y-78327339D01*
X146372741Y-78225606D01*
X146320080Y-78134394D01*
X146245606Y-78059920D01*
X146154394Y-78007259D01*
X146052661Y-77980000D01*
X146046446Y-77980000D01*
X146725922Y-77300524D01*
X146725921Y-77300523D01*
X146681359Y-77268147D01*
X146681350Y-77268141D01*
X146499031Y-77175244D01*
X146304417Y-77112009D01*
X146102317Y-77080000D01*
X145897683Y-77080000D01*
X145695582Y-77112009D01*
X145500968Y-77175244D01*
X145318644Y-77268143D01*
X145274077Y-77300523D01*
X145274077Y-77300524D01*
X145953554Y-77980000D01*
X145947339Y-77980000D01*
X145845606Y-78007259D01*
X145754394Y-78059920D01*
X145679920Y-78134394D01*
X145627259Y-78225606D01*
X145600000Y-78327339D01*
X145600000Y-78333553D01*
X144920524Y-77654077D01*
X144920523Y-77654077D01*
X144888143Y-77698644D01*
X144840765Y-77791630D01*
X144792790Y-77842426D01*
X144724969Y-77859221D01*
X144658834Y-77836683D01*
X144619795Y-77791630D01*
X144608251Y-77768973D01*
X144572287Y-77698390D01*
X144572285Y-77698387D01*
X144572284Y-77698385D01*
X144451971Y-77532786D01*
X144307213Y-77388028D01*
X144141613Y-77267715D01*
X144141612Y-77267714D01*
X144141610Y-77267713D01*
X144065292Y-77228827D01*
X143959223Y-77174781D01*
X143764534Y-77111522D01*
X143589995Y-77083878D01*
X143562352Y-77079500D01*
X143357648Y-77079500D01*
X143333329Y-77083351D01*
X143155465Y-77111522D01*
X142960776Y-77174781D01*
X142778386Y-77267715D01*
X142612786Y-77388028D01*
X142468028Y-77532786D01*
X142347715Y-77698386D01*
X142300485Y-77791080D01*
X142252510Y-77841876D01*
X142184689Y-77858671D01*
X142118554Y-77836134D01*
X142079515Y-77791080D01*
X142064293Y-77761206D01*
X142032287Y-77698390D01*
X142007681Y-77664522D01*
X141911971Y-77532786D01*
X141767213Y-77388028D01*
X141601613Y-77267715D01*
X141601612Y-77267714D01*
X141601610Y-77267713D01*
X141525292Y-77228827D01*
X141419223Y-77174781D01*
X141224534Y-77111522D01*
X141049995Y-77083878D01*
X141022352Y-77079500D01*
X140817648Y-77079500D01*
X140793329Y-77083351D01*
X140615465Y-77111522D01*
X140420776Y-77174781D01*
X140238386Y-77267715D01*
X140072786Y-77388028D01*
X139928028Y-77532786D01*
X139807715Y-77698386D01*
X139760485Y-77791080D01*
X139712510Y-77841876D01*
X139644689Y-77858671D01*
X139578554Y-77836134D01*
X139539515Y-77791080D01*
X139524293Y-77761206D01*
X139492287Y-77698390D01*
X139467681Y-77664522D01*
X139371971Y-77532786D01*
X139227213Y-77388028D01*
X139061613Y-77267715D01*
X139061612Y-77267714D01*
X139061610Y-77267713D01*
X138985292Y-77228827D01*
X138879223Y-77174781D01*
X138684534Y-77111522D01*
X138509995Y-77083878D01*
X138482352Y-77079500D01*
X138277648Y-77079500D01*
X138253329Y-77083351D01*
X138075465Y-77111522D01*
X137880776Y-77174781D01*
X137698386Y-77267715D01*
X137532786Y-77388028D01*
X137388028Y-77532786D01*
X137267715Y-77698386D01*
X137174781Y-77880776D01*
X137111522Y-78075465D01*
X137079500Y-78277648D01*
X137079500Y-78482351D01*
X137111522Y-78684534D01*
X137174781Y-78879223D01*
X137233434Y-78994334D01*
X137267585Y-79061359D01*
X137267715Y-79061613D01*
X137388028Y-79227213D01*
X137532786Y-79371971D01*
X137653226Y-79459474D01*
X137698390Y-79492287D01*
X137791400Y-79539678D01*
X137880776Y-79585218D01*
X137880778Y-79585218D01*
X137880781Y-79585220D01*
X137962297Y-79611706D01*
X138075465Y-79648477D01*
X138176557Y-79664488D01*
X138277648Y-79680500D01*
X138277649Y-79680500D01*
X138482351Y-79680500D01*
X138482352Y-79680500D01*
X138684534Y-79648477D01*
X138698842Y-79643827D01*
X138768682Y-79641831D01*
X138824842Y-79674077D01*
X141420681Y-82269916D01*
X141454166Y-82331239D01*
X141457000Y-82357597D01*
X141457000Y-84636383D01*
X141437315Y-84703422D01*
X141384511Y-84749177D01*
X141315353Y-84759121D01*
X141294683Y-84754314D01*
X141224542Y-84731524D01*
X141224535Y-84731523D01*
X141123443Y-84715511D01*
X141022352Y-84699500D01*
X140817648Y-84699500D01*
X140793329Y-84703351D01*
X140615465Y-84731522D01*
X140420776Y-84794781D01*
X140238386Y-84887715D01*
X140072786Y-85008028D01*
X139928028Y-85152786D01*
X139807715Y-85318386D01*
X139760485Y-85411080D01*
X139712510Y-85461876D01*
X139644689Y-85478671D01*
X139578554Y-85456134D01*
X139539515Y-85411080D01*
X139525391Y-85383361D01*
X139492287Y-85318390D01*
X139460092Y-85274077D01*
X139371971Y-85152786D01*
X139227213Y-85008028D01*
X139061613Y-84887715D01*
X139061612Y-84887714D01*
X139061610Y-84887713D01*
X138986788Y-84849589D01*
X138879223Y-84794781D01*
X138684534Y-84731522D01*
X138507114Y-84703422D01*
X138482352Y-84699500D01*
X138277648Y-84699500D01*
X138253329Y-84703351D01*
X138075465Y-84731522D01*
X137880776Y-84794781D01*
X137698386Y-84887715D01*
X137532786Y-85008028D01*
X137388028Y-85152786D01*
X137267715Y-85318386D01*
X137174781Y-85500776D01*
X137111522Y-85695465D01*
X137079500Y-85897648D01*
X137079500Y-86102351D01*
X137111522Y-86304534D01*
X137174781Y-86499223D01*
X137220839Y-86589615D01*
X137267585Y-86681359D01*
X137267715Y-86681613D01*
X137388028Y-86847213D01*
X137532786Y-86991971D01*
X137643612Y-87072489D01*
X137698390Y-87112287D01*
X137805943Y-87167088D01*
X137880776Y-87205218D01*
X137880778Y-87205218D01*
X137880781Y-87205220D01*
X137955818Y-87229601D01*
X138075465Y-87268477D01*
X138176557Y-87284488D01*
X138277648Y-87300500D01*
X138277649Y-87300500D01*
X138482351Y-87300500D01*
X138482352Y-87300500D01*
X138684534Y-87268477D01*
X138879219Y-87205220D01*
X139061610Y-87112287D01*
X139157201Y-87042837D01*
X139227213Y-86991971D01*
X139227215Y-86991968D01*
X139227219Y-86991966D01*
X139371966Y-86847219D01*
X139371968Y-86847215D01*
X139371971Y-86847213D01*
X139492284Y-86681614D01*
X139492286Y-86681611D01*
X139492287Y-86681610D01*
X139539516Y-86588917D01*
X139587489Y-86538123D01*
X139655310Y-86521328D01*
X139721445Y-86543865D01*
X139760483Y-86588917D01*
X139767652Y-86602986D01*
X139807715Y-86681614D01*
X139928028Y-86847213D01*
X139928034Y-86847219D01*
X140072781Y-86991966D01*
X140238390Y-87112287D01*
X140251793Y-87119116D01*
X140302589Y-87167088D01*
X140319500Y-87229601D01*
X140319500Y-90858202D01*
X140299815Y-90925241D01*
X140283181Y-90945883D01*
X136449481Y-94779582D01*
X136449479Y-94779584D01*
X136436032Y-94802877D01*
X136415630Y-94838215D01*
X136401040Y-94863485D01*
X136370423Y-94916513D01*
X136335365Y-95047351D01*
X136298999Y-95107011D01*
X136271887Y-95125739D01*
X136248392Y-95137710D01*
X136248390Y-95137712D01*
X136082781Y-95258033D01*
X136057504Y-95283310D01*
X135996180Y-95316794D01*
X135926488Y-95311808D01*
X135882143Y-95283308D01*
X135303390Y-94704555D01*
X135303388Y-94704552D01*
X135184517Y-94585681D01*
X135184516Y-94585680D01*
X135088795Y-94530416D01*
X135088794Y-94530415D01*
X135056401Y-94511713D01*
X135047585Y-94506623D01*
X135047584Y-94506622D01*
X135047583Y-94506622D01*
X134991681Y-94491643D01*
X134894857Y-94465699D01*
X134736743Y-94465699D01*
X134729147Y-94465699D01*
X134729131Y-94465700D01*
X133828143Y-94465700D01*
X133675413Y-94506623D01*
X133634205Y-94530416D01*
X133634204Y-94530416D01*
X133538487Y-94585677D01*
X133538482Y-94585681D01*
X133426678Y-94697486D01*
X132869355Y-95254808D01*
X132808032Y-95288293D01*
X132738340Y-95283309D01*
X132701981Y-95259942D01*
X132700915Y-95261191D01*
X132697213Y-95258028D01*
X132531613Y-95137715D01*
X132531612Y-95137714D01*
X132531610Y-95137713D01*
X132455253Y-95098807D01*
X132349223Y-95044781D01*
X132154534Y-94981522D01*
X131979995Y-94953878D01*
X131952352Y-94949500D01*
X131747648Y-94949500D01*
X131727482Y-94952694D01*
X131545465Y-94981522D01*
X131350776Y-95044781D01*
X131168386Y-95137715D01*
X131002786Y-95258028D01*
X130858028Y-95402786D01*
X130737715Y-95568386D01*
X130690485Y-95661080D01*
X130642510Y-95711876D01*
X130574689Y-95728671D01*
X130508554Y-95706134D01*
X130469515Y-95661080D01*
X130459524Y-95641472D01*
X130422287Y-95568390D01*
X130412838Y-95555384D01*
X130301971Y-95402786D01*
X130157213Y-95258028D01*
X129991613Y-95137715D01*
X129991612Y-95137714D01*
X129991610Y-95137713D01*
X129915253Y-95098807D01*
X129809223Y-95044781D01*
X129614534Y-94981522D01*
X129439995Y-94953878D01*
X129412352Y-94949500D01*
X129207648Y-94949500D01*
X129187482Y-94952694D01*
X129005465Y-94981522D01*
X128810776Y-95044781D01*
X128628386Y-95137715D01*
X128462786Y-95258028D01*
X128318028Y-95402786D01*
X128197715Y-95568386D01*
X128104781Y-95750776D01*
X128041522Y-95945465D01*
X128009500Y-96147648D01*
X126000500Y-96147648D01*
X126000500Y-78503051D01*
X126000649Y-78496966D01*
X126007774Y-78351932D01*
X126863499Y-78351932D01*
X126863499Y-78648067D01*
X126896653Y-78942313D01*
X126896655Y-78942329D01*
X126962548Y-79231026D01*
X126962552Y-79231038D01*
X127060354Y-79510538D01*
X127188835Y-79777332D01*
X127206662Y-79805703D01*
X127346385Y-80028071D01*
X127401736Y-80097479D01*
X127530576Y-80259040D01*
X127531016Y-80259591D01*
X127740409Y-80468984D01*
X127971929Y-80653615D01*
X128222665Y-80811163D01*
X128489465Y-80939647D01*
X128663370Y-81000499D01*
X128768961Y-81037447D01*
X128768973Y-81037451D01*
X129057674Y-81103345D01*
X129351932Y-81136500D01*
X129351933Y-81136501D01*
X129351937Y-81136501D01*
X129648067Y-81136501D01*
X129648067Y-81136500D01*
X129942326Y-81103345D01*
X130231027Y-81037451D01*
X130510535Y-80939647D01*
X130777335Y-80811163D01*
X131028071Y-80653615D01*
X131259591Y-80468984D01*
X131468984Y-80259591D01*
X131653615Y-80028071D01*
X131811163Y-79777335D01*
X131939647Y-79510535D01*
X132037451Y-79231027D01*
X132103345Y-78942326D01*
X132136501Y-78648063D01*
X132136501Y-78351937D01*
X132103345Y-78057674D01*
X132037451Y-77768973D01*
X132024369Y-77731588D01*
X131995826Y-77650016D01*
X131939647Y-77489465D01*
X131812597Y-77225642D01*
X131811164Y-77222667D01*
X131811163Y-77222665D01*
X131653615Y-76971929D01*
X131468984Y-76740409D01*
X131259591Y-76531016D01*
X131028071Y-76346385D01*
X130777335Y-76188837D01*
X130777332Y-76188835D01*
X130510538Y-76060354D01*
X130231038Y-75962552D01*
X130231026Y-75962548D01*
X129942329Y-75896655D01*
X129942313Y-75896653D01*
X129648067Y-75863499D01*
X129648063Y-75863499D01*
X129351937Y-75863499D01*
X129351933Y-75863499D01*
X129057686Y-75896653D01*
X129057670Y-75896655D01*
X128768973Y-75962548D01*
X128768961Y-75962552D01*
X128489461Y-76060354D01*
X128222667Y-76188835D01*
X127971930Y-76346384D01*
X127740409Y-76531015D01*
X127531015Y-76740409D01*
X127346384Y-76971930D01*
X127188835Y-77222667D01*
X127060354Y-77489461D01*
X126962552Y-77768961D01*
X126962548Y-77768973D01*
X126896655Y-78057670D01*
X126896653Y-78057686D01*
X126863499Y-78351932D01*
X126007774Y-78351932D01*
X126008244Y-78342373D01*
X126008244Y-78342372D01*
X126017052Y-78163072D01*
X126018245Y-78150962D01*
X126027660Y-78087489D01*
X126066849Y-77823296D01*
X126069218Y-77811385D01*
X126149710Y-77490043D01*
X126153240Y-77478411D01*
X126155351Y-77472512D01*
X126264835Y-77166525D01*
X126269476Y-77155318D01*
X126411124Y-76855828D01*
X126416840Y-76845136D01*
X126587145Y-76560998D01*
X126593888Y-76550905D01*
X126791232Y-76284818D01*
X126798935Y-76275433D01*
X127021405Y-76029975D01*
X127029975Y-76021405D01*
X127275433Y-75798935D01*
X127284818Y-75791232D01*
X127550905Y-75593888D01*
X127560998Y-75587145D01*
X127845136Y-75416840D01*
X127855828Y-75411124D01*
X128155318Y-75269476D01*
X128166525Y-75264835D01*
X128478412Y-75153239D01*
X128490043Y-75149710D01*
X128811385Y-75069218D01*
X128823296Y-75066849D01*
X129150962Y-75018244D01*
X129163068Y-75017052D01*
X129496967Y-75000648D01*
X129503051Y-75000500D01*
X129565892Y-75000500D01*
X211434108Y-75000500D01*
X211496949Y-75000500D01*
X211503032Y-75000648D01*
G37*
%TD.AperFunction*%
%TD*%
M02*
