%TF.GenerationSoftware,KiCad,Pcbnew,9.0.3*%
%TF.CreationDate,2025-07-23T14:16:41+06:00*%
%TF.ProjectId,LFRCircuit,4c465243-6972-4637-9569-742e6b696361,rev?*%
%TF.SameCoordinates,Original*%
%TF.FileFunction,Plated,1,2,PTH,Drill*%
%TF.FilePolarity,Positive*%
%FSLAX46Y46*%
G04 Gerber Fmt 4.6, Leading zero omitted, Abs format (unit mm)*
G04 Created by KiCad (PCBNEW 9.0.3) date 2025-07-23 14:16:41*
%MOMM*%
%LPD*%
G01*
G04 APERTURE LIST*
%TA.AperFunction,ViaDrill*%
%ADD10C,0.300000*%
%TD*%
%TA.AperFunction,ComponentDrill*%
%ADD11C,0.800000*%
%TD*%
%TA.AperFunction,ComponentDrill*%
%ADD12C,0.950000*%
%TD*%
%TA.AperFunction,ComponentDrill*%
%ADD13C,1.000000*%
%TD*%
G04 APERTURE END LIST*
D10*
X150377500Y-98829100D03*
X155951900Y-99568600D03*
X161771300Y-84786600D03*
X162915000Y-79718300D03*
X168656900Y-88540200D03*
X182505500Y-94243300D03*
X183827300Y-93171800D03*
X184014100Y-77146800D03*
X185977700Y-95133500D03*
X190086800Y-86153100D03*
X190876100Y-88631400D03*
X192759600Y-93975400D03*
X193485300Y-91723700D03*
X193566000Y-93297800D03*
X196625000Y-90201900D03*
D11*
%TO.C,U1*%
X138380000Y-78380000D03*
X138380000Y-86000000D03*
X140920000Y-78380000D03*
X140920000Y-86000000D03*
X143460000Y-78380000D03*
X143460000Y-86000000D03*
X146000000Y-78380000D03*
X146000000Y-86000000D03*
X148540000Y-78380000D03*
X148540000Y-86000000D03*
X151080000Y-78380000D03*
X151080000Y-86000000D03*
X153620000Y-78380000D03*
X153620000Y-86000000D03*
X156160000Y-78380000D03*
X156160000Y-86000000D03*
D12*
%TO.C,RotaryEncoder1*%
X139250000Y-119750000D03*
X141750000Y-119750000D03*
X144250000Y-119750000D03*
X146750000Y-119750000D03*
X149250000Y-119750000D03*
%TO.C,SonarSensor3Array1*%
X155250000Y-118250000D03*
X157750000Y-118250000D03*
X160250000Y-118250000D03*
X162750000Y-118250000D03*
X165250000Y-118250000D03*
%TO.C,IRSensor6Array1*%
X171250000Y-118305000D03*
X173750000Y-118305000D03*
X176250000Y-118305000D03*
X178750000Y-118305000D03*
X181250000Y-118305000D03*
X183750000Y-118305000D03*
X186250000Y-118305000D03*
X188750000Y-118305000D03*
D13*
%TO.C,ArduinoNanoTypeC1*%
X129310000Y-96250000D03*
X129310000Y-111490000D03*
X131850000Y-96250000D03*
X131850000Y-111490000D03*
X134390000Y-96250000D03*
X134390000Y-111490000D03*
X136930000Y-96250000D03*
X136930000Y-111490000D03*
X139470000Y-96250000D03*
X139470000Y-111490000D03*
X142010000Y-96250000D03*
X142010000Y-111490000D03*
X144550000Y-96250000D03*
X144550000Y-111490000D03*
X147090000Y-96250000D03*
X147090000Y-111490000D03*
X149630000Y-96250000D03*
X149630000Y-111490000D03*
X152170000Y-96250000D03*
X152170000Y-111490000D03*
X154710000Y-96250000D03*
X154710000Y-111490000D03*
X157250000Y-96250000D03*
X157250000Y-111490000D03*
X159790000Y-96250000D03*
X159790000Y-111490000D03*
X162330000Y-96250000D03*
X162330000Y-111490000D03*
X164870000Y-96250000D03*
X164870000Y-111490000D03*
%TO.C,M1*%
X165000000Y-82100000D03*
X167500000Y-82100000D03*
%TO.C,M2*%
X174250000Y-82100000D03*
X176750000Y-82100000D03*
%TO.C,J1*%
X183670000Y-97250000D03*
X186210000Y-97250000D03*
X188750000Y-97250000D03*
%TO.C,INA1*%
X189300000Y-78250000D03*
%TO.C,J1*%
X191290000Y-97250000D03*
%TO.C,INA1*%
X191840000Y-78250000D03*
X194380000Y-78250000D03*
X196920000Y-78250000D03*
X199460000Y-78250000D03*
X202000000Y-78250000D03*
X204540000Y-78250000D03*
%TO.C,BT3*%
X206555000Y-91050000D03*
X206555000Y-93550000D03*
%TO.C,BT2*%
X206555000Y-100500000D03*
X206555000Y-103000000D03*
%TO.C,BT1*%
X206555000Y-109950000D03*
X206555000Y-112450000D03*
%TO.C,INA1*%
X207080000Y-78250000D03*
M02*
