%TF.GenerationSoftware,KiCad,Pcbnew,9.0.3*%
%TF.CreationDate,2025-07-23T14:00:13+06:00*%
%TF.ProjectId,LFRCircuit,4c465243-6972-4637-9569-742e6b696361,rev?*%
%TF.SameCoordinates,Original*%
%TF.FileFunction,Soldermask,Top*%
%TF.FilePolarity,Negative*%
%FSLAX46Y46*%
G04 Gerber Fmt 4.6, Leading zero omitted, Abs format (unit mm)*
G04 Created by KiCad (PCBNEW 9.0.3) date 2025-07-23 14:00:13*
%MOMM*%
%LPD*%
G01*
G04 APERTURE LIST*
G04 Aperture macros list*
%AMRoundRect*
0 Rectangle with rounded corners*
0 $1 Rounding radius*
0 $2 $3 $4 $5 $6 $7 $8 $9 X,Y pos of 4 corners*
0 Add a 4 corners polygon primitive as box body*
4,1,4,$2,$3,$4,$5,$6,$7,$8,$9,$2,$3,0*
0 Add four circle primitives for the rounded corners*
1,1,$1+$1,$2,$3*
1,1,$1+$1,$4,$5*
1,1,$1+$1,$6,$7*
1,1,$1+$1,$8,$9*
0 Add four rect primitives between the rounded corners*
20,1,$1+$1,$2,$3,$4,$5,0*
20,1,$1+$1,$4,$5,$6,$7,0*
20,1,$1+$1,$6,$7,$8,$9,0*
20,1,$1+$1,$8,$9,$2,$3,0*%
G04 Aperture macros list end*
%ADD10R,1.700000X1.700000*%
%ADD11O,1.700000X1.700000*%
%ADD12R,1.600000X1.600000*%
%ADD13O,1.600000X1.600000*%
%ADD14RoundRect,0.250000X-0.550000X0.550000X-0.550000X-0.550000X0.550000X-0.550000X0.550000X0.550000X0*%
%ADD15C,1.600000*%
%ADD16RoundRect,0.250000X-0.600000X-0.725000X0.600000X-0.725000X0.600000X0.725000X-0.600000X0.725000X0*%
%ADD17O,1.700000X1.950000*%
%ADD18RoundRect,0.250000X0.750000X-0.600000X0.750000X0.600000X-0.750000X0.600000X-0.750000X-0.600000X0*%
%ADD19O,2.000000X1.700000*%
%ADD20RoundRect,0.250000X0.600000X0.750000X-0.600000X0.750000X-0.600000X-0.750000X0.600000X-0.750000X0*%
%ADD21O,1.700000X2.000000*%
%ADD22C,1.700000*%
G04 APERTURE END LIST*
D10*
%TO.C,J1*%
X183670000Y-97250000D03*
D11*
X186210000Y-97250000D03*
X188750000Y-97250000D03*
X191290000Y-97250000D03*
%TD*%
D12*
%TO.C,ArduinoNanoTypeC*%
X167550000Y-97140000D03*
D13*
X165010000Y-97140000D03*
X162470000Y-97140000D03*
X159930000Y-97140000D03*
X157390000Y-97140000D03*
X154850000Y-97140000D03*
X152310000Y-97140000D03*
X149770000Y-97140000D03*
X147230000Y-97140000D03*
X144690000Y-97140000D03*
X142150000Y-97140000D03*
X139610000Y-97140000D03*
X137070000Y-97140000D03*
X134530000Y-97140000D03*
X131990000Y-97140000D03*
X131990000Y-112380000D03*
X134530000Y-112380000D03*
X137070000Y-112380000D03*
X139610000Y-112380000D03*
X142150000Y-112380000D03*
X144690000Y-112380000D03*
X147230000Y-112380000D03*
X149770000Y-112380000D03*
X152310000Y-112380000D03*
X154850000Y-112380000D03*
X157390000Y-112380000D03*
X159930000Y-112380000D03*
X162470000Y-112380000D03*
X165010000Y-112380000D03*
X167550000Y-112380000D03*
%TD*%
D14*
%TO.C,U1*%
X156160000Y-78380000D03*
D15*
X153620000Y-78380000D03*
X151080000Y-78380000D03*
X148540000Y-78380000D03*
X146000000Y-78380000D03*
X143460000Y-78380000D03*
X140920000Y-78380000D03*
X138380000Y-78380000D03*
X138380000Y-86000000D03*
X140920000Y-86000000D03*
X143460000Y-86000000D03*
X146000000Y-86000000D03*
X148540000Y-86000000D03*
X151080000Y-86000000D03*
X153620000Y-86000000D03*
X156160000Y-86000000D03*
%TD*%
D16*
%TO.C,IRSensor6Array*%
X153000000Y-118305000D03*
D17*
X155500000Y-118305000D03*
X158000000Y-118305000D03*
X160500000Y-118305000D03*
X163000000Y-118305000D03*
X165500000Y-118305000D03*
X168000000Y-118305000D03*
X170500000Y-118305000D03*
%TD*%
D18*
%TO.C,CELL2*%
X205805000Y-101000000D03*
D19*
X205805000Y-98500000D03*
%TD*%
D20*
%TO.C,M2*%
X176750000Y-82100000D03*
D21*
X174250000Y-82100000D03*
%TD*%
D16*
%TO.C,RotaryEncoder*%
X136000000Y-119900000D03*
D17*
X138500000Y-119900000D03*
X141000000Y-119900000D03*
X143500000Y-119900000D03*
X146000000Y-119900000D03*
%TD*%
D20*
%TO.C,M1*%
X167500000Y-82100000D03*
D21*
X165000000Y-82100000D03*
%TD*%
D16*
%TO.C,SonarSensor3Array*%
X177000000Y-118305000D03*
D17*
X179500000Y-118305000D03*
X182000000Y-118305000D03*
X184500000Y-118305000D03*
X187000000Y-118305000D03*
%TD*%
D10*
%TO.C,INA1*%
X189300000Y-78250000D03*
D22*
X191840000Y-78250000D03*
X194380000Y-78250000D03*
X196920000Y-78250000D03*
X199460000Y-78250000D03*
X202000000Y-78250000D03*
X204540000Y-78250000D03*
X207080000Y-78250000D03*
%TD*%
D18*
%TO.C,CELL1*%
X205805000Y-109500000D03*
D19*
X205805000Y-107000000D03*
%TD*%
D18*
%TO.C,CELL3*%
X205805000Y-92500000D03*
D19*
X205805000Y-90000000D03*
%TD*%
M02*
